<?xml version="1.0" encoding="UTF-8" standalone="no"?>
<svg
   xmlns:dc="http://purl.org/dc/elements/1.1/"
   xmlns:cc="http://creativecommons.org/ns#"
   xmlns:rdf="http://www.w3.org/1999/02/22-rdf-syntax-ns#"
   xmlns:svg="http://www.w3.org/2000/svg"
   xmlns="http://www.w3.org/2000/svg"
   xmlns:sodipodi="http://sodipodi.sourceforge.net/DTD/sodipodi-0.dtd"
   xmlns:inkscape="http://www.inkscape.org/namespaces/inkscape"
   width="132.0mm"
   height="90.0mm"
   viewBox="0 0 132.0 90.0"
   version="1.1"
   id="svg8"
   inkscape:version="1.0.1 (3bc2e813f5, 2020-09-07)"
   sodipodi:docname="DracheMH1.svg">
  <defs
     id="defs2" />
  <sodipodi:namedview
     id="base"
     pagecolor="#ffffff"
     bordercolor="#666666"
     borderopacity="1.0"
     inkscape:pageopacity="0.0"
     inkscape:pageshadow="2"
     inkscape:zoom="0.64878589"
     inkscape:cx="319.07099"
     inkscape:cy="356.74726"
     inkscape:document-units="mm"
     inkscape:current-layer="g1072"
     inkscape:document-rotation="0"
     showgrid="false"
     inkscape:window-width="1920"
     inkscape:window-height="1017"
     inkscape:window-x="-8"
     inkscape:window-y="-8"
     inkscape:window-maximized="1"
     inkscape:snap-global="false"
     showguides="false"
     inkscape:guide-bbox="true"
     showborder="false">
    <sodipodi:guide
       position="58.106022,40.112448"
       orientation="1,0"
       id="guide971" />
    <sodipodi:guide
       position="70.610317,62.794262"
       orientation="1,0"
       id="guide973" />
    <sodipodi:guide
       position="105.50012,57.394648"
       orientation="1,0"
       id="guide975" />
    <sodipodi:guide
       position="117.54541,55.940906"
       orientation="1,0"
       id="guide977" />
    <sodipodi:guide
       position="-19.106321,28.112134"
       orientation="0,-1"
       id="guide979" />
    <sodipodi:guide
       position="-18.690966,-2.8318"
       orientation="0,-1"
       id="guide981" />
    <sodipodi:guide
       position="1.4537418,-44.782637"
       orientation="0,-1"
       id="guide983" />
    <sodipodi:guide
       position="-0.83070961,-57.658636"
       orientation="0,-1"
       id="guide985" />
    <sodipodi:guide
       position="80.310308,37.80551"
       orientation="1,0"
       id="guide987" />
    <sodipodi:guide
       position="95.739282,46.803101"
       orientation="1,0"
       id="guide989" />
  </sodipodi:namedview>
  <metadata
     id="metadata5">
    <rdf:RDF>
      <cc:Work
         rdf:about="">
        <dc:format>image/svg+xml</dc:format>
        <dc:type
           rdf:resource="http://purl.org/dc/dcmitype/StillImage" />
        <dc:title></dc:title>
      </cc:Work>
    </rdf:RDF>
  </metadata>
  <g
     inkscape:label="[fixed] BG"
     inkscape:groupmode="layer"
     sodipodi:insensitive="true"
     id="g1068"
     style="display:none">
    <rect
       x="0"
       y="0"
       width="132"
       height="90"
       style="fill:#ffffff;fill-opacity:1;stroke:none"
       id="rect1066" />
  </g>
  <g
     inkscape:label="F.SilkS"
     inkscape:groupmode="layer"
     id="g1072"
     style="display:inline">
    <path
       style="display:inline;fill:none;fill-opacity:1;stroke:#000000;stroke-width:0.216169;stroke-linejoin:bevel;stroke-miterlimit:4;stroke-dasharray:none;stroke-opacity:1;paint-order:markers stroke fill"
       d="m 69.149789,-2.405597 c 1.240805,-4.9116273 2.186391,-7.655357 4.191071,-9.815762 1.270548,-1.260753 2.580713,-2.116772 4.196152,-2.233785 1.497146,-0.2076 2.49592,0.215481 3.515778,1.08137 1.356023,1.26801 1.503153,1.741897 1.761176,4.0051925 -0.0514,1.7699183 -0.760343,3.3237455 -1.217019,4.0916372 l -2.491381,4.77950476 C 76.600803,-1.6418204 72.901907,-1.8516302 69.149789,-2.405597 Z"
       id="path851-6-7"
       sodipodi:nodetypes="cccccccc" />
    <path
       style="display:inline;fill:none;fill-opacity:1;stroke:#000000;stroke-width:0.232648;stroke-linejoin:bevel;stroke-miterlimit:4;stroke-dasharray:none;stroke-opacity:1;paint-order:markers stroke fill"
       d="m 96.098441,-0.88856481 c 0.751128,-2.83868239 0.494167,-5.52807549 -0.128233,-8.27621259 -0.645844,-1.8160396 -1.296667,-3.2680596 -2.821364,-4.1693666 -1.366102,-0.929232 -2.768711,-1.017138 -4.176205,-0.695889 -1.926687,0.537717 -2.294971,0.914652 -3.618888,2.932509 -0.787753,1.7018079 -0.829925,3.5207408 -0.746806,4.4716421 l 0.174029,5.74683815 c 2.991762,0.14148925 7.249995,-0.0168204 11.317499,-0.009744 z"
       id="path851-6-7-9"
       sodipodi:nodetypes="cccccccc" />
    <path
       style="display:inline;fill:#000000;fill-opacity:1;stroke:#000000;stroke-width:0.232648;stroke-linejoin:bevel;stroke-miterlimit:4;stroke-dasharray:none;stroke-opacity:1;paint-order:markers stroke fill"
       d="m 92.459652,-0.78215854 c 0.260162,-2.28623116 0,-3.61307896 -0.491825,-5.86458696 -0.355392,-1.3436546 -1.317471,-2.5474586 -2.318748,-3.1565669 -0.8913,-0.6378406 -1.746791,-0.8096626 -2.579369,-0.6837826 -0.877627,0.20129 -1.866067,1.2126597 -2.248708,2.7901434 -0.337724,1.1232939 -0.187768,1.7876428 -0.176398,2.5034362 l 0.17633,4.27898391 c 2.042667,-0.0364142 4.807099,-0.0660223 7.638718,0.13232947 z"
       id="path851-8"
       sodipodi:nodetypes="cccccccc" />
    <path
       style="display:inline;fill:#000000;fill-opacity:1;stroke:#000000;stroke-width:0.144113;stroke-linejoin:bevel;stroke-miterlimit:4;stroke-dasharray:none;stroke-opacity:1;paint-order:markers stroke fill"
       d="m 71.253473,-16.391325 c 1.329491,-0.47101 2.62084,-1.036541 3.765234,-1.966426 0.933147,-0.657997 1.866285,-1.154181 2.799429,-1.503744 1.380998,-0.405634 2.40806,-0.08687 2.939397,0.34702 0.349862,0.263577 0.362174,0.246757 0.92381,0.867542 0.39007,0.68413 0.844566,1.634559 -0.349928,2.400199 -0.866695,0.236818 -1.687952,-0.277366 -2.519482,-0.621745 -0.611289,-0.351717 -1.209293,-0.722646 -2.183558,-0.549435 -1.781569,0.516755 -3.833778,1.463642 -5.178936,1.286858 -0.251954,0.08674 -0.345263,-0.101192 -0.195966,-0.260269 z"
       id="path910"
       sodipodi:nodetypes="cccccccccc" />
    <path
       style="display:inline;fill:#000000;fill-opacity:1;stroke:#000000;stroke-width:0.144113;stroke-linejoin:bevel;stroke-miterlimit:4;stroke-dasharray:none;stroke-opacity:1;paint-order:markers stroke fill"
       d="m 87.378182,-17.403457 c 0.329501,-0.786867 1.061278,-1.507233 2.323524,-2.13993 0.939043,-0.371513 2.108038,-0.298953 3.079374,0.159059 0.905215,0.511322 2.821366,3.046103 5.206937,3.788265 -1.175763,0.316217 -2.351528,0.151151 -3.527278,-0.419301 -0.83559,-0.521273 -2.435091,-1.492485 -3.331328,-1.272401 -0.416201,-0.0574 -1.689603,0.751128 -2.575466,1.286858 -0.913018,0.553758 -1.549215,-0.518647 -1.175763,-1.40255 z"
       id="path912"
       sodipodi:nodetypes="cccccccc" />
    <path
       style="display:inline;fill:#000000;fill-opacity:1;stroke:#000000;stroke-width:0.144113;stroke-linejoin:bevel;stroke-miterlimit:4;stroke-dasharray:none;stroke-opacity:1;paint-order:markers stroke fill"
       d="m 96.781103,-24.894318 c 2.198033,-4.246017 4.291057,-8.585002 8.521107,-11.031818 0.77651,-0.367809 1.52962,-0.711452 2.1583,-0.926556 1.68998,-0.215202 1.30778,0.907438 1.28937,1.795204 -0.5656,1.985412 -1.01534,3.946883 -0.4765,5.704117 0.25308,2.318457 -0.15329,4.165304 -0.86893,5.790973 -1.33409,1.777507 -2.75847,3.337386 -4.31661,4.574882 -1.77661,-2.689762 -4.01474,-4.357899 -6.306737,-5.906802 z"
       id="path914"
       sodipodi:nodetypes="cccccccc" />
    <path
       style="display:inline;fill:#000000;fill-opacity:1;stroke:#000000;stroke-width:0.144113;stroke-linejoin:bevel;stroke-miterlimit:4;stroke-dasharray:none;stroke-opacity:1;paint-order:markers stroke fill"
       d="m 76.398869,-25.146835 -0.333071,-14.106678 c -0.110513,-1.618196 0.929359,-2.046184 1.483699,-0.125116 l 3.936327,14.826088 c -1.498897,-0.800013 -2.74366,-1.05508 -5.086955,-0.594294 z"
       id="path924"
       sodipodi:nodetypes="ccccc" />
    <path
       style="display:inline;fill:#000000;fill-opacity:1;stroke:#000000;stroke-width:0.144113;stroke-linejoin:bevel;stroke-miterlimit:4;stroke-dasharray:none;stroke-opacity:1;paint-order:markers stroke fill"
       d="m 89.055687,-25.209393 6.51009,-15.48294 c 0.41931,-1.297457 1.617666,-1.2516 1.695659,0.25023 l -3.391304,14.82609 c -1.582007,0.115344 -2.730158,-0.153451 -4.814445,0.40662 z"
       id="path926"
       sodipodi:nodetypes="ccccc" />
    <path
       style="display:inline;fill:#000000;fill-opacity:1;stroke:#000000;stroke-width:0.144113;stroke-linejoin:bevel;stroke-miterlimit:4;stroke-dasharray:none;stroke-opacity:1;paint-order:markers stroke fill"
       d="m 65.284104,-18.488901 c 2.381134,-2.253317 4.746221,-4.224863 7.06688,-5.41619 -1.191791,-4.272449 -3.002656,-8.21182 -7.089678,-10.926576 -1.138632,-0.342928 -2.260583,-0.651393 -2.507603,0.847751 0.366174,1.612943 0.625809,3.221355 0.341945,4.474238 -0.636857,2.098375 -0.617847,3.982266 -0.775076,5.84007 0.118582,1.361827 0.438802,2.202853 0.797874,2.943582 0.639166,1.215679 1.409327,1.687121 2.165658,2.237125 z"
       id="path928"
       sodipodi:nodetypes="cccccccc" />
    <path
       style="display:inline;fill:none;fill-opacity:0.7;stroke:#000000;stroke-width:0.216169;stroke-linejoin:bevel;stroke-miterlimit:4;stroke-dasharray:none;stroke-opacity:1;paint-order:markers stroke fill"
       d="M 100.27738,3.263497 C 96.783107,1.5155111 93.408262,1.1728007 90.16682,2.6433789"
       id="path938"
       sodipodi:nodetypes="cc" />
    <path
       id="path940"
       style="display:inline;fill:#000000;fill-opacity:1;stroke:#000000;stroke-width:0.171207;stroke-linejoin:bevel;stroke-miterlimit:4;stroke-dasharray:none;stroke-opacity:1;paint-order:markers stroke fill"
       d="m 90.01475,10.743061 a 5.0422952,5.1957591 0 0 0 5.042297,5.19576 5.0422952,5.1957591 0 0 0 5.042293,-5.19576 5.0422952,5.1957591 0 0 0 -5.042293,-5.1957509 5.0422952,5.1957591 0 0 0 -5.042297,5.1957509 z" />
    <path
       id="path940-5"
       style="display:inline;fill:#000000;fill-opacity:1;stroke:#000000;stroke-width:0.15943;stroke-linejoin:bevel;stroke-miterlimit:4;stroke-dasharray:none;stroke-opacity:1;paint-order:markers stroke fill"
       d="M 72.861803,9.537076 A 4.7427861,4.7901085 0 0 1 68.119016,14.327177 4.7427861,4.7901085 0 0 1 63.376232,9.537076 4.7427861,4.7901085 0 0 1 68.119016,4.7469663 4.7427861,4.7901085 0 0 1 72.861803,9.537076 Z" />
    <path
       style="display:inline;fill:none;fill-opacity:0.7;stroke:#000000;stroke-width:0.216169;stroke-linejoin:bevel;stroke-miterlimit:4;stroke-dasharray:none;stroke-opacity:1;paint-order:markers stroke fill"
       d="M 64.216986,2.7389014 C 69.617808,0.73066105 73.639823,2.1394385 74.382371,3.1895607"
       id="path975"
       sodipodi:nodetypes="cc" />
    <path
       style="display:inline;fill:none;fill-opacity:0.7;stroke:#000000;stroke-width:0.216169;stroke-linejoin:bevel;stroke-miterlimit:4;stroke-dasharray:none;stroke-opacity:1;paint-order:markers stroke fill"
       d="m 58.994027,13.456817 c 1.256214,4.745047 4.875091,8.73948 12.513418,12.5906 1.614317,1.97809 2.669858,4.450931 4.956613,5.833631 1.579912,1.779678 3.078065,1.363393 4.550329,0.251804 2.678742,-2.191695 5.496178,-4.622183 7.556796,-5.749701 2.088459,-1.690368 7.029931,-3.415725 12.025887,-5.749702 3.17852,-3.808239 3.87818,-5.938787 3.94091,-7.638288"
       id="path977"
       sodipodi:nodetypes="ccccccc" />
    <path
       style="display:inline;fill:#000000;fill-opacity:1;stroke:#000000;stroke-width:0.216169;stroke-linejoin:bevel;stroke-miterlimit:4;stroke-dasharray:none;stroke-opacity:1;paint-order:markers stroke fill"
       d="m 64.275665,21.47283 c -1.077001,3.124193 -1.209559,6.178691 -0.771934,9.191126 0.949341,2.678983 1.655085,1.583476 2.397052,1.04922 0.799136,-2.346211 1.936681,-4.592548 3.494005,-6.714992 C 67.688413,24.0157 65.98204,22.789393 64.275665,21.47283 Z"
       id="path979"
       sodipodi:nodetypes="ccccc" />
    <path
       style="display:inline;fill:#000000;fill-opacity:1;stroke:#000000;stroke-width:0.216169;stroke-linejoin:bevel;stroke-miterlimit:4;stroke-dasharray:none;stroke-opacity:1;paint-order:markers stroke fill"
       d="m 89.586897,25.669693 c 0.385292,2.673838 1.048051,4.28959 0.853178,8.56161 0.359739,0.646668 0.939151,1.112479 2.153278,0.545586 2.322449,-3.284116 2.613063,-7.61766 3.047107,-11.877128 z"
       id="path981"
       sodipodi:nodetypes="ccccc" />
    <path
       style="display:inline;fill:#000000;fill-opacity:1;stroke:#000000;stroke-width:0.209232;stroke-linejoin:bevel;stroke-miterlimit:4;stroke-dasharray:none;stroke-opacity:1;paint-order:markers stroke fill"
       d="m 16.770055,-4.0501599 c -0.740422,-2.1222383 -1.524812,-4.2292768 -2.145952,-6.3928001 -0.314332,-1.740782 0.566698,-1.664254 1.655452,-1.382015 2.532135,1.36188 5.165336,4.061316 5.667461,5.6915156 0.420575,0.7868364 0.651739,1.5723371 0.709985,2.5555525 -0.87467,3.99194866 -2.989825,3.23508162 -4.437398,2.18045 -0.412756,-0.4987293 -0.879386,-1.2552306 -1.449548,-2.652703 z"
       id="path983"
       sodipodi:nodetypes="ccccccc" />
    <path
       style="display:inline;fill:#000000;fill-opacity:1;stroke:#000000;stroke-width:0.216169;stroke-linejoin:bevel;stroke-miterlimit:4;stroke-dasharray:none;stroke-opacity:1;paint-order:markers stroke fill"
       d="m 152.33889,-10.488316 c 1.71639,-1.887044 3.42386,-3.896215 5.10389,-5.632982 1.29052,-0.867334 2.23505,-0.476904 2.43676,0.861775 l -2.62482,6.2860005 c -0.45448,2.0177329 -0.62137,3.1434314 -1.23913,3.5588264 -0.74962,0.6126118 -3.04418,1.7595083 -4.19756,-1.740757 -0.20177,-1.6073002 0.0723,-2.4813074 0.52086,-3.3328629 z"
       id="path985"
       sodipodi:nodetypes="ccccccc" />
    <path
       style="display:inline;fill:none;fill-opacity:0.7;stroke:#000000;stroke-width:0.432339;stroke-linecap:round;stroke-linejoin:bevel;stroke-miterlimit:4;stroke-dasharray:none;stroke-opacity:1;paint-order:markers stroke fill"
       d="M 109.60118,14.70114 C 130.38296,14.544734 141.34995,1.6447419 151.53349,-6.8829102"
       id="path987"
       sodipodi:nodetypes="cc" />
    <path
       style="display:inline;fill:none;fill-opacity:0.7;stroke:#000000;stroke-width:0.432339;stroke-linecap:round;stroke-linejoin:bevel;stroke-miterlimit:4;stroke-dasharray:none;stroke-opacity:1;paint-order:markers stroke fill"
       d="M 151.8894,-5.8598656 C 132.94543,13.855783 135.41449,21.658982 132.29084,31.429707"
       id="path989"
       sodipodi:nodetypes="cc" />
    <path
       style="display:inline;fill:none;fill-opacity:0.7;stroke:#000000;stroke-width:0.43234;stroke-linecap:round;stroke-linejoin:bevel;stroke-miterlimit:4;stroke-dasharray:none;stroke-opacity:1;paint-order:markers stroke fill"
       d="M 152.81788,-4.7169179 C 148.20801,9.9899825 149.42183,20.852072 150.35358,31.9812"
       id="path991"
       sodipodi:nodetypes="cc" />
    <path
       style="display:inline;fill:none;fill-opacity:0.7;stroke:#000000;stroke-width:0.43234;stroke-linecap:round;stroke-linejoin:bevel;stroke-miterlimit:4;stroke-dasharray:none;stroke-opacity:1;paint-order:markers stroke fill"
       d="m 156.91482,-5.9118259 c 9.61018,7.645488 12.32003,21.8027169 10.78966,40.4666449"
       id="path993"
       sodipodi:nodetypes="cc" />
    <path
       style="display:inline;fill:none;fill-opacity:0.7;stroke:#000000;stroke-width:0.43234;stroke-linecap:round;stroke-linejoin:bevel;stroke-miterlimit:4;stroke-dasharray:none;stroke-opacity:1;paint-order:markers stroke fill"
       d="M 23.02148,-2.7274858 C 34.176429,5.2517058 44.817669,14.512125 58.448456,15.80236"
       id="path995"
       sodipodi:nodetypes="cc" />
    <path
       style="display:inline;fill:none;fill-opacity:0.7;stroke:#000000;stroke-width:0.43234;stroke-linecap:round;stroke-linejoin:bevel;stroke-miterlimit:4;stroke-dasharray:none;stroke-opacity:1;paint-order:markers stroke fill"
       d="M 22.580666,-1.7316566 C 34.561334,7.5278297 41.728002,19.861832 45.132207,34.890287"
       id="path997"
       sodipodi:nodetypes="cc" />
    <path
       style="display:inline;fill:none;fill-opacity:0.7;stroke:#000000;stroke-width:0.43234;stroke-linecap:round;stroke-linejoin:bevel;stroke-miterlimit:4;stroke-dasharray:none;stroke-opacity:1;paint-order:markers stroke fill"
       d="M 21.725083,-0.5978972 C 25.518707,11.96172 29.14313,24.499221 26.878476,36.04947"
       id="path999"
       sodipodi:nodetypes="cc" />
    <path
       style="display:inline;fill:none;fill-opacity:0.7;stroke:#000000;stroke-width:0.43234;stroke-linecap:round;stroke-linejoin:bevel;stroke-miterlimit:4;stroke-dasharray:none;stroke-opacity:1;paint-order:markers stroke fill"
       d="M 17.860037,-1.5003147 C 4.8241358,12.337263 7.8118618,26.373379 9.2232275,40.608922"
       id="path1001"
       sodipodi:nodetypes="cc" />
    <path
       style="display:inline;fill:#000000;fill-opacity:1;stroke:#000000;stroke-width:0.216169;stroke-linecap:round;stroke-linejoin:round;stroke-miterlimit:4;stroke-dasharray:none;stroke-opacity:1;paint-order:markers stroke fill"
       d="m 39.563573,85.905899 c 0.158502,-0.873466 0.356794,-0.641964 0.403901,-1.198847 l 3.467739,0.550211 c -1.057539,0.0377 -3.173358,0.367953 -3.87164,0.648636 z"
       id="path1003"
       sodipodi:nodetypes="cccc" />
    <path
       style="display:inline;fill:#000000;fill-opacity:1;stroke:#000000;stroke-width:0.194052;stroke-linecap:round;stroke-linejoin:round;stroke-miterlimit:4;stroke-dasharray:none;stroke-opacity:1;paint-order:markers stroke fill"
       d="m 66.01562,84.694505 4.392257,-0.747489 c -1.335245,1.235415 -1.829505,1.933803 -2.683794,2.071862 -0.725373,-0.444171 -0.976115,-0.615759 -1.708463,-1.324373 z"
       id="path1007"
       sodipodi:nodetypes="cccc" />
    <path
       style="display:inline;fill:#000000;fill-opacity:1;stroke:#000000;stroke-width:0.198375;stroke-linecap:round;stroke-linejoin:round;stroke-miterlimit:4;stroke-dasharray:none;stroke-opacity:1;paint-order:markers stroke fill"
       d="m 91.489987,84.415622 4.00127,-0.911538 c -0.566744,0.815442 -1.656991,1.917627 -2.419617,2.408349 -0.854698,-0.659956 -1.28109,-0.530645 -1.581653,-1.496811 z"
       id="path1009"
       sodipodi:nodetypes="cccc" />
    <path
       style="display:inline;fill:#000000;fill-opacity:1;stroke:#000000;stroke-width:0.20839;stroke-linecap:round;stroke-linejoin:round;stroke-miterlimit:4;stroke-dasharray:none;stroke-opacity:1;paint-order:markers stroke fill"
       d="m 116.34733,84.514449 c 1.60786,0.0295 3.25631,-0.08927 4.99747,-0.508164 -0.0411,0.789137 -0.12354,0.61403 -0.30774,1.371934 -0.0631,0.338762 -0.22057,0.786223 -0.64978,0.711496 -2.02365,-0.686121 -2.24461,-0.180126 -4.03995,-1.575266 z"
       id="path1011"
       sodipodi:nodetypes="ccccc" />
    <path
       style="display:inline;fill:none;fill-opacity:0.19;stroke:#000000;stroke-width:0.136764;stroke-linejoin:bevel;stroke-miterlimit:4;stroke-dasharray:none;stroke-opacity:1;paint-order:markers stroke fill"
       d="M 10.045346,47.854373 C 1.5181272,18.241341 6.4124225,3.8791521 16.872654,-4.1584746 l -2.048198,-5.9946934 c -0.61429,-2.35455 0.359213,-2.522187 1.877506,-1.939461 1.970312,1.209684 3.898198,2.7260623 5.632529,5.6420721 5.691671,1.3284053 10.924336,7.39829856 16.385503,11.1078174 5.415965,5.0372856 12.522354,7.4552635 20.311216,8.8157365 -1.085701,-5.5917949 0.725613,-9.1017612 5.120468,-10.7551961 -2.497273,-6.0534641 -3.367917,-12.1069417 -0.170679,-18.1604189 -5.161603,-1.978826 -6.665066,-7.249914 -4.253753,-15.028261 0,0 1.604238,-2.275666 0.8401,-4.895308 l -1.877506,-1.410514 c -1.473147,-2.157902 0.07078,-2.312277 1.877506,-2.292093 6.635557,0.895091 12.767245,3.952589 13.621552,14.230729 l 2.251926,-0.301857 -0.34137,-14.281502 c -0.09352,-1.128828 1.024085,-1.958793 1.536134,0 l 3.925703,14.810434 1.536136,0.17631 c 0.519571,-1.424928 0.775978,-2.586044 0.34137,-4.282306 -1.163882,-2.471437 0.464723,-2.451407 1.617464,-1.334828 1.06327,1.213645 1.749228,2.887251 1.845749,5.255951 l 2.169304,-0.503759 6.656619,-15.708634 c 1.079323,-1.350211 1.838335,-0.370731 1.536149,1.05789 l -3.413655,14.281497 2.048185,0.528947 c 1.309896,-6.531188 4.111538,-12.180099 14.158608,-16.028028 l 3.42168,-0.545564 c 2.35278,0.243639 4.59319,1.028692 1.02409,2.64472 l -1.70683,1.05789 c -1.78024,0.700377 -1.49142,2.011421 -1.7068,3.173663 1.29495,7.59649 0.19065,12.875139 -4.77912,17.455161 -0.65177,0.208311 -1.289,0.431631 -1.70682,0.881583 0.39411,5.268933 2.1578,9.5475153 -4.26707,19.7472441 3.05776,2.9508708 4.05542,6.2564213 4.26707,9.6973179 2.90161,-0.212758 5.8032,-0.428281 8.7048,-0.881583 21.20771,-4.3165505 30.573,-17.8200435 39.08629,-22.744596 l 5.01501,-5.524824 c 2.36919,-1.534059 2.6657,0.940644 2.6657,0.940644 l -2.56024,6.171005 c 15.21167,12.6956528 14.6449,37.212045 9.97287,51.30759 -2.71224,-7.168388 -5.09534,-14.715198 -8.26604,-19.041986 -5.23798,2.609718 -6.09525,7.984889 -7.16867,13.223605 -3.20858,-6.156786 -6.6605,-10.889169 -10.5823,-12.870983 -3.76914,1.669616 -5.59187,6.103879 -7.51003,10.402575 -6.1928,-3.678356 -12.64132,-9.193489 -20.10749,-10.67951 9.63843,10.293488 22.18177,22.657444 14.98701,35.716187 -4.85047,6.81491 -10.93457,10.176511 -18.09234,12.342036 5.61181,0.119211 20.78623,-2.27574 22.31538,4.415612 0.42734,-0.440389 3.375,0.372582 2.84829,0.994201 -0.30888,0.364548 -2.56619,-0.610446 -3.14004,0.495505 -2.21477,3.831428 -8.69805,1.243398 -12.07491,0.626632 3.02619,2.230762 2.7138,3.818651 0.63359,6.162707 -0.0147,1.498824 -0.19295,1.359571 -0.58555,2.171287 -1.92872,-0.08302 -3.05508,-0.826377 -4.53492,-1.642341 -4.23092,-0.156441 -6.50569,-0.317182 -11.60641,-4.231557 -2.47706,1.889267 -4.927325,2.684017 -9.046179,3.173663 -0.59782,0.880694 -1.742413,2.111761 -2.508744,2.644336 -0.897502,-0.656398 -0.661802,-0.530371 -1.684001,-1.648036 -6.052832,0.455287 -4.887888,-6.610149 -1.114925,-8.715205 3.150399,-2.189608 6.814039,-3.401423 4.998271,-3.055807 -8.62439,1.64939 -15.2579,1.596319 -22.220672,0.548462 3.422944,4.557639 1.3124,8.58755 -2.528964,10.668229 -1.01824,0.896213 -1.656206,2.081816 -2.912061,2.202749 -0.870039,-0.6275 -1.025092,-0.634838 -1.64357,-1.418993 -4.587951,0.04667 -8.870157,-4.466746 -7.338503,-7.508111 -4.292885,8.626073 -13.069879,7.45787 -19.279321,8.850397 0.272289,-0.949972 0.266946,-0.722688 0.64146,-1.37356 -7.134725,-4.861124 3.209226,-12.556616 8.160203,-12.889801 -3.355063,-0.528506 -7.367232,1.004336 -10.067651,-0.209976 -0.909942,-0.315486 -1.5528,-1.498522 -0.704226,-2.552546 -0.752458,-0.665462 -1.982519,-0.0055 -2.959668,0.02571 1.186422,-0.425417 2.430919,-1.190988 3.61734,-0.9793 6.717718,-4.789943 13.796327,-0.85055 20.165582,1.306221 -3.979166,-1.825451 -7.433618,-4.192928 -9.899579,-7.581533 -5.102205,-9.25278 -3.229317,-18.909343 3.034162,-25.513464 l 6.727786,-8.523567 c -4.711479,0.939086 -9.422971,6.406919 -14.134464,9.974253 -2.68169,-3.512803 -4.104564,-8.12445 -7.843346,-10.32689 -7.519685,3.987372 -7.292839,8.706314 -10.338344,13.147918 -1.992772,-4.074012 -3.137075,-9.316994 -7.656574,-12.081713 -2.674033,-0.509346 -5.348053,12.659908 -8.022086,19.394623 z"
       id="path848-3"
       sodipodi:nodetypes="cccccccccsccccccccccccccccccccccccccccccccccccccccsccccccccccccccccccccccccccccccccc" />
    <path
       style="display:inline;fill:#000000;fill-opacity:1;stroke:#000000;stroke-width:0.144113;stroke-linecap:round;stroke-linejoin:round;stroke-miterlimit:4;stroke-dasharray:none;stroke-opacity:1;paint-order:markers stroke fill"
       d="m 132.95878,76.88644 c 0.29291,-0.63812 0.24185,-0.966416 0.0849,-1.255973 0.81891,-0.302997 2.14194,0.253694 2.86105,0.699475 0.24663,0.248675 0.052,0.567102 -0.29162,0.54129 -1.38158,-0.138176 -2.22319,-0.170722 -2.51068,-0.03712 z"
       id="path1013"
       sodipodi:nodetypes="cccccc" />
    <path
       style="display:inline;fill:#000000;fill-opacity:1;stroke:#000000;stroke-width:0.216169;stroke-linecap:round;stroke-linejoin:bevel;stroke-miterlimit:4;stroke-dasharray:none;stroke-opacity:1;paint-order:markers stroke fill"
       d="m 37.960944,68.092742 -0.617593,0.821412 c -0.832481,-0.25137 -2.376256,-0.02461 -2.276786,-0.04736 1.314717,-0.386934 1.667618,-0.743666 2.894379,-0.774054 z"
       id="path1005"
       sodipodi:nodetypes="cccc" />
    <path
       style="display:inline;fill:#000000;fill-opacity:1;stroke:#000000;stroke-width:0.216169;stroke-linejoin:bevel;stroke-miterlimit:4;stroke-dasharray:none;stroke-opacity:1;paint-order:markers stroke fill"
       d="m 72.505971,-2.0344044 c 0.96212,-3.4893125 1.923029,-4.6393631 3.245607,-6.3329151 0.839903,-0.9845406 1.952324,-1.6315278 3.020228,-1.7229085 0.989707,-0.162119 1.759641,0.05421 2.389131,0.51221 0.635524,0.5407489 1.030558,1.8123711 0.698714,3.3061621 -0.182936,1.0912392 -0.577123,1.5889251 -0.879026,2.1885814 l -1.893273,3.53897771 C 77.431552,-1.4379593 74.986351,-1.7491576 72.505971,-2.0344044 Z"
       id="path851"
       sodipodi:nodetypes="cccccccc" />
    <g
       id="g935"
       transform="translate(0.95560333)">
      <rect
         style="fill:none;stroke:#000000;stroke-width:0.129956;stroke-linecap:round;stroke-linejoin:round;stroke-miterlimit:4;stroke-dasharray:none;paint-order:markers stroke fill"
         id="rect878"
         width="13.870044"
         height="5.0700431"
         x="56.512642"
         y="55.310978"
         rx="1.1599451e-13"
         ry="1.467998e-13" />
      <rect
         style="display:inline;fill:none;stroke:#000000;stroke-width:0.129956;stroke-linecap:round;stroke-linejoin:round;stroke-miterlimit:4;stroke-dasharray:none;paint-order:markers stroke fill"
         id="rect878-0"
         width="13.870045"
         height="5.0700431"
         x="103.73182"
         y="55.436535"
         rx="1.1599451e-13"
         ry="1.4679981e-13" />
    </g>
    <path
       style="fill:none;stroke:#000000;stroke-width:0.10012;stroke-linecap:round;stroke-linejoin:round;stroke-miterlimit:4;stroke-dasharray:none;paint-order:markers stroke fill"
       d="m 59.32987,112.56786 h 12.429794 v 30.85526 h 34.976856 v -31.14363 h 12.14073 v 85.93334 H 96.908316 v -13.1207 H 81.298809 V 198.5012 H 59.185335 Z"
       id="path992" />
  </g>
  <g
     inkscape:label="Edge.Cuts"
     inkscape:groupmode="layer"
     id="g1070"
     style="display:none"
     sodipodi:insensitive="true">
    <path
       style="display:inline;fill:none;fill-opacity:0.790885;stroke:#000000;stroke-width:0.0927213;stroke-linejoin:bevel;stroke-miterlimit:4;stroke-dasharray:none;stroke-opacity:1;paint-order:markers stroke fill"
       d="m 14.1252,61.3391 -0.5239,-1.8222 -0.4707,-1.7638 -0.4185,-1.7063 -0.3673,-1.65 -0.3171,-1.5947 -0.2679,-1.5406 -0.2196,-1.4874 -0.1723,-1.4355 -0.1261,-1.3847 -0.0808,-1.3348 -0.0366,-1.2862 0.0067,-1.2386 0.049,-1.1919 0.0904,-1.1466 0.1306,-1.1022 0.17,-1.0589 0.2083,-1.0169 0.2456,-0.9757 0.282,-0.9357 0.3174,-0.8968 0.3517,-0.8591 0.385,-0.8224 0.4176,-0.7867 0.4488,-0.7521 0.4793,-0.7188 0.5087,-0.6864 0.537,-0.6551 0.5646,-0.625 0.5909,-0.5959 0.6164,-0.5679 0.6409,-0.5409 0.6643,-0.5153 -1.4113,-3.9987 -0.0667,-0.2776 -0.0422,-0.2449 -0.0185,-0.2134 0.0039,-0.1835 0.0253,-0.1548 0.0457,-0.1278 0.065,-0.102 0.0833,-0.0776 0.1005,-0.0546 0.1167,-0.0331 0.1318,-0.0129 0.1459,0.0058 0.3297,0.0622 0.3733,0.1204 0.5076,0.3137 0.5035,0.3413 0.4984,0.3776 0.4921,0.4224 0.4843,0.4758 0.4755,0.5377 0.4656,0.608 0.2285,0.3332 0.2256,0.3539 0.3668,0.0922 0.365,0.1098 0.3634,0.1267 0.3617,0.1426 0.719,0.3294 0.7137,0.3829 0.709,0.4292 0.7051,0.4685 0.7019,0.5012 0.6993,0.5266 1.3937,1.1022 1.3918,1.1211 0.697,0.5503 0.6986,0.5343 0.7007,0.5112 0.7039,0.4812 0.7132,0.6099 0.7396,0.5703 0.7647,0.5325 0.789,0.4961 0.8122,0.4612 0.8345,0.428 0.8556,0.3962 0.8759,0.3658 0.8949,0.3372 0.9132,0.3098 0.9302,0.2843 0.9464,0.2601 0.9615,0.2374 0.9755,0.2163 0.9886,0.1967 1.0006,0.1787 -0.1169,-0.6831 -0.0705,-0.6508 -0.0243,-0.6187 0.0215,-0.5868 0.0671,-0.5552 0.1123,-0.5236 0.1571,-0.4926 0.2017,-0.4615 0.246,-0.4306 0.2899,-0.4001 0.3336,-0.3698 0.3768,-0.3396 0.4198,-0.3098 0.4625,-0.28 0.5049,-0.2507 0.5468,-0.2213 -0.3091,-0.7571 -0.2803,-0.7571 -0.2492,-0.7571 -0.2155,-0.7572 -0.1793,-0.757 -0.1409,-0.7572 -0.0996,-0.7571 -0.0563,-0.7571 -0.0102,-0.7571 0.0382,-0.7572 0.0891,-0.757 0.1425,-0.7572 0.1983,-0.7571 0.1209,-0.3785 0.1358,-0.3786 0.1509,-0.3786 0.1665,-0.3785 0.1822,-0.3786 L 51.2901,19.117 50.964,18.9868 50.6527,18.8439 50.3564,18.6882 50.0748,18.52 49.8081,18.3394 49.5565,18.1464 49.3196,17.941 49.0979,17.7234 48.8912,17.4938 48.6995,17.2521 48.523,16.9986 48.3616,16.7331 48.2152,16.456 l -0.1311,-0.2887 -0.1158,-0.3002 -0.1007,-0.3117 -0.0853,-0.323 -0.07,-0.3343 -0.0546,-0.3453 -0.0393,-0.3565 -0.0238,-0.3674 -0.0084,-0.3782 0.007,-0.389 0.0226,-0.3997 0.0381,-0.4102 0.0538,-0.4207 0.1543,-0.8724 0.2169,-0.9132 L 48.359,9.09241 48.5235,8.82792 48.681,8.51997 48.8458,8.115 48.921,7.88085 48.986,7.62812 49.0369,7.35868 49.0695,7.07442 49.08,6.77724 49.0641,6.46903 49.0181,6.15165 48.9378,5.82701 47.6441,4.88613 47.4776,4.6316 47.3572,4.40661 47.2799,4.20937 47.243,4.03808 l 6e-4,-0.1471 0.0355,-0.12472 0.0675,-0.10413 0.0968,-0.0853 0.1234,-0.06828 0.1469,-0.05305 0.1679,-0.03958 0.1861,-0.02793 0.4154,-0.028 0.4547,-0.00279 0.8525,0.12967 0.8394,0.16843 0.8217,0.21212 0.4027,0.12399 0.3965,0.13676 0.3895,0.15016 0.3822,0.16417 0.374,0.1788 0.3654,0.19405 0.3562,0.20991 0.3462,0.2264 0.3358,0.2435 0.3248,0.26122 0.3131,0.27955 0.3008,0.29851 0.2879,0.31808 0.2745,0.33827 0.2604,0.35908 0.2456,0.38051 0.2304,0.40254 0.2146,0.42521 0.198,0.44849 0.1809,0.47239 0.1633,0.4969 0.1449,0.52199 0.126,0.5478 0.1066,0.5742 0.0865,0.6011 0.0657,0.6288 1.5517,-0.2014 -0.2352,-9.52643 -0.0026,-0.13844 0.0151,-0.13134 0.0309,-0.1218 0.0451,-0.10982 0.0573,-0.09542 0.0677,-0.07859 0.0762,-0.05932 0.083,-0.03761 0.0879,-0.01348 0.0909,0.0131 0.0921,0.04208 0.0916,0.07353 0.0891,0.1074 0.0847,0.14369 0.0787,0.18243 0.0708,0.22359 2.705,9.87923 1.0585,0.1176 0.1252,-0.3492 0.1047,-0.339 0.0809,-0.3349 0.0534,-0.3372 0.0226,-0.3457 L 64.8376,11.0523 64.7882,10.671 64.6976,10.2623 64.5693,9.97248 64.4827,9.72021 64.4346,9.50416 64.4217,9.32299 l 0.019,-0.14769 0.0477,-0.11554 0.073,-0.08477 0.0948,-0.05536 0.1137,-0.02731 0.1291,-6.2e-4 0.1412,0.02469 0.1499,0.04865 0.1555,0.07124 0.1577,0.09248 0.1566,0.11235 0.1523,0.13085 0.2622,0.31827 0.2362,0.34887 0.2084,0.3813 0.1789,0.4156 0.1476,0.4517 0.1148,0.4897 0.08,0.5294 0.0436,0.5711 1.4949,-0.336 4.5867,-10.47841 0.1368,-0.15096 0.1308,-0.11638 0.1242,-0.08365 0.1167,-0.05272 0.1086,-0.02365 0.0996,0.00358 0.09,0.02898 0.0796,0.05253 0.0684,0.07426 0.0565,0.09414 0.0439,0.11219 0.0305,0.1284 0.0163,0.14278 0.0014,0.1553 -0.0142,0.166 -0.0306,0.17487 -2.3522,9.52644 1.4114,0.3528 0.1822,-0.8098 0.2121,-0.7951 0.2479,-0.7796 0.2894,-0.76301 0.3366,-0.74567 0.188,-0.36603 0.2019,-0.36136 0.2166,-0.35655 0.2322,-0.35165 0.2482,-0.34663 0.2653,-0.3415 0.2828,-0.33626 0.3012,-0.33089 0.3203,-0.32543 0.3401,-0.31986 0.3607,-0.31415 0.3819,-0.30836 0.4039,-0.30243 0.4267,-0.29641 0.4501,-0.29026 0.4741,-0.28402 0.4993,-0.27764 0.5248,-0.27117 0.551,-0.26458 0.5782,-0.25787 0.606,-0.25106 0.6345,-0.24414 2.3578,-0.36392 0.5967,0.07826 0.5433,0.11437 0.2374,0.07143 0.2068,0.08133 0.1704,0.09148 0.1284,0.10192 0.0806,0.11265 0.0206,0.06044 0.0064,0.06323 -0.0083,0.06604 -0.024,0.06891 -0.0973,0.14654 -0.1682,0.15839 -0.2448,0.17054 -0.3271,0.18295 -0.4152,0.19568 -1.1761,0.70566 -0.2137,0.09225 -0.183,0.10105 -0.1546,0.10912 -0.1291,0.11643 -0.1061,0.12302 -0.0855,0.12885 -0.0678,0.13394 -0.0526,0.1383 -0.0698,0.28669 -0.0401,0.29519 -0.0309,0.29775 -0.0429,0.29439 0.1477,0.93225 0.1074,0.8976 0.0658,0.86452 0.0226,0.83303 -0.0221,0.80315 -0.0684,0.7748 -0.1158,0.748 -0.165,0.7229 -0.1013,0.3525 -0.1143,0.3468 -0.1272,0.3413 -0.1404,0.336 -0.1538,0.331 -0.1674,0.326 -0.1811,0.3212 -0.1951,0.3168 -0.2092,0.3125 -0.2235,0.3083 -0.4907,0.6051 -0.5501,0.5911 -0.6112,0.5785 -0.3328,0.1083 -0.3157,0.1254 -0.2855,0.1555 -0.1274,0.0932 -0.1147,0.1058 0.0604,0.6523 0.0728,0.6436 0.1445,1.2882 0.0523,0.6579 0.0263,0.6763 -0.0095,0.7013 -0.055,0.7331 -0.11,0.7716 -0.0786,0.4024 -0.096,0.4146 -0.1147,0.4275 -0.1344,0.4414 -0.1555,0.4561 -0.1776,0.4717 -0.2011,0.4881 -0.2256,0.5052 -0.2515,0.5234 -0.2785,0.5423 -0.3069,0.5621 -0.3362,0.5826 -0.3668,0.6042 -0.3987,0.6263 0.3786,0.3718 0.3467,0.3772 0.316,0.3822 0.2865,0.3872 0.2584,0.3919 0.2316,0.3962 0.206,0.4006 0.1818,0.4046 0.1587,0.4085 0.1371,0.4121 0.1167,0.4154 0.0975,0.4187 0.0797,0.4216 0.0631,0.4244 0.048,0.4269 0.0338,0.4293 1.4996,-0.1092 1.4995,-0.1246 1.4996,-0.1548 1.4995,-0.1994 2.5426,-0.6082 1.2647,-0.3085 1.25,-0.3181 1.2281,-0.3329 1.1985,-0.3527 1.1612,-0.3774 1.1165,-0.4073 0.8454,-0.43 0.7911,-0.439 0.7427,-0.4471 0.6972,-0.4548 0.6574,-0.4613 0.6213,-0.4673 0.5915,-0.4724 0.5644,-0.4766 0.544,-0.4804 0.526,-0.4832 1.021,-0.9716 1.009,-0.9738 1.033,-0.9695 0.471,-0.3227 0.47,-0.3417 0.941,-0.723 0.94,-0.7455 0.941,-0.7321 0.471,-0.3498 0.471,-0.333 0.47,-0.3115 0.471,-0.2858 0.47,-0.2553 0.47,-0.2206 0.471,-0.1813 0.47,-0.1373 3.456,-3.6854 0.289,-0.1615 0.259,-0.1053 0.228,-0.0552 0.199,-0.0116 0.174,0.0258 0.15,0.0567 0.126,0.0814 0.106,0.0997 0.086,0.1117 0.068,0.1174 0.094,0.2264 0.045,0.173 0.013,0.069 -1.765,4.1163 0.871,0.6338 0.818,0.6626 0.765,0.6907 0.714,0.7184 0.664,0.7456 0.616,0.7721 0.567,0.7981 0.52,0.8238 0.473,0.8486 0.43,0.8733 0.384,0.8971 0.341,0.9205 0.299,0.9433 0.258,0.9658 0.217,0.9875 0.179,1.0088 0.229,2.4088 0.235,2.3981 0.102,1.2059 0.081,1.2164 0.055,1.2313 0.019,1.2505 -0.022,1.2741 -0.072,1.3021 -0.057,0.663 -0.071,0.6717 -0.088,0.6807 -0.104,0.6906 -0.123,0.7009 -0.141,0.7117 -0.16,0.7232 -0.181,0.735 -0.202,0.7476 -0.224,0.7606 -0.248,0.7741 -0.271,0.7883 -0.692,-1.8003 -0.68,-1.7958 -0.676,-1.7632 -0.682,-1.7024 -0.346,-0.8197 -0.351,-0.794 -0.357,-0.7647 -0.364,-0.732 -0.372,-0.6956 -0.381,-0.6559 -0.392,-0.6126 -0.403,-0.5657 -0.33,0.1686 -0.313,0.1789 -0.296,0.1892 -0.28,0.1988 -0.264,0.2082 -0.25,0.2173 -0.236,0.226 -0.222,0.2343 -0.209,0.2422 -0.197,0.2499 -0.357,0.5212 -0.316,0.5473 -0.276,0.5708 -0.244,0.5914 -0.214,0.6091 -0.19,0.6239 -0.17,0.636 -0.299,1.2968 -0.278,1.3109 -0.416,-0.7587 -0.421,-0.7351 -0.424,-0.7103 -0.43,-0.6841 -0.435,-0.6566 -0.439,-0.6279 -0.445,-0.5979 -0.451,-0.5665 -0.456,-0.5339 -0.462,-0.5 -0.469,-0.4647 -0.475,-0.4282 -0.481,-0.3903 -0.489,-0.3514 -0.495,-0.3108 -0.503,-0.2691 -0.471,0.2299 -0.442,0.2704 -0.416,0.3078 -0.389,0.3426 -0.367,0.3746 -0.345,0.4035 -0.327,0.4298 -0.309,0.4532 -0.294,0.4737 -0.281,0.4915 -0.271,0.5063 -0.262,0.5183 -0.506,1.0616 -0.4949,1.0757 -0.8021,-0.4734 -0.8076,-0.4964 -1.6319,-1.039 -1.661,-1.0621 -0.8432,-0.5253 -0.8527,-0.514 -0.863,-0.4969 -0.8741,-0.474 -0.8859,-0.4453 -0.8985,-0.4111 -0.9118,-0.3709 -0.9259,-0.3252 -0.4685,-0.1436 -0.4725,-0.1301 -0.4762,-0.1157 -0.4803,-0.1007 0.7241,0.7476 0.7328,0.7332 1.4788,1.4451 1.4745,1.4521 0.7274,0.742 0.7165,0.7598 0.7022,0.7829 0.6847,0.8114 0.664,0.8453 0.6398,0.8844 0.6124,0.9287 0.5818,0.9787 0.2784,0.5097 0.2694,0.5242 0.2602,0.5393 0.2504,0.5551 0.2789,0.6347 0.2439,0.6378 0.2077,0.6409 0.1706,0.6442 0.1316,0.6476 0.0909,0.6511 0.0492,0.6547 0.0065,0.6584 -0.0381,0.6623 -0.0825,0.6663 -0.1307,0.6702 -0.178,0.6746 -0.2272,0.6788 -0.2791,0.6832 -0.3302,0.6877 -0.3839,0.6924 -0.3706,0.5532 -0.3909,0.5179 -0.409,0.4861 -0.4254,0.4575 -0.4397,0.432 -0.4525,0.4101 -0.4632,0.3912 -0.472,0.3759 -0.963,0.7184 -0.9758,0.6961 -0.9735,0.7 -0.9562,0.7301 -0.8604,0.3628 -0.7641,0.2988 -0.6856,0.2463 -0.6246,0.2056 -1.1364,0.3363 -1.1038,0.3144 0.802,0.2776 0.8178,0.2405 0.8322,0.2071 0.8449,0.1773 0.8563,0.151 0.8659,0.1283 0.8742,0.1092 0.8807,0.0936 1.7756,0.1545 1.7841,0.135 1.7802,0.1439 0.8852,0.0843 0.879,0.0971 0.216,0.0329 0.1947,0.0466 0.1762,0.0579 0.1567,0.0674 0.2615,0.1538 0.1965,0.1651 0.141,0.1586 0.0918,0.1349 0.0639,0.1288 0.0751,-0.0455 0.1085,-0.0273 0.1382,-0.0106 0.1604,0.0048 0.3644,0.0501 0.3808,0.0944 0.352,0.1278 0.148,0.0728 0.123,0.0769 0.091,0.0794 0.053,0.0808 0.009,0.0806 -0.041,0.079 -0.053,0.0368 -0.08,0.021 -0.224,0.0062 -0.6227,-0.0524 -0.3514,-0.0136 -0.3449,0.0248 -0.1623,0.0339 -0.1521,0.0519 -0.139,0.0728 -0.1215,0.0964 -0.191,0.1616 -0.2049,0.1338 -0.2161,0.1122 -0.2234,0.0968 -1.841,0.0983 -0.9567,0.0424 -0.9626,0.0271 -0.955,0.0042 -0.9336,-0.0269 -0.8986,-0.066 -0.4319,-0.05 -0.418,-0.0628 0.142,0.1325 0.1552,0.1253 0.3388,0.2361 0.3584,0.2284 0.3563,0.2343 0.3324,0.2541 0.1503,0.1387 0.1363,0.1489 0.1193,0.1606 0.0998,0.1742 0.0773,0.1895 0.0522,0.2065 -5e-4,0.2347 -0.0253,0.2098 -0.0483,0.187 -0.0692,0.166 -0.0881,0.1471 -0.1051,0.1301 -0.1201,0.1152 -0.1329,0.1023 -0.297,0.1735 -0.3249,0.1454 -0.6704,0.2706 0.7562,1.6577 0.1002,0.4294 0.0264,0.177 0.007,0.1503 -0.0152,0.1227 -0.04,0.0941 -0.0675,0.0642 -0.098,0.0336 -0.1308,0.0018 -0.1665,-0.0312 -0.2049,-0.065 -0.2461,-0.1 -0.6263,-0.309 -0.8233,-0.4614 -1.9994,-1.4113 -0.5005,0.0866 -0.5003,0.0751 -0.5002,0.0549 -0.5002,0.0261 -0.4998,-0.0117 -0.4996,-0.0581 -0.2497,-0.0492 -0.2495,-0.0641 -0.2495,-0.0801 -0.2495,-0.0971 -0.2999,-0.0857 -0.2914,-0.1 -0.2832,-0.1134 -0.2756,-0.1265 -0.5293,-0.2888 -0.5033,-0.3325 -0.4803,-0.3707 -0.4606,-0.4035 -0.4442,-0.4309 -0.4309,-0.4531 -0.8891,0.4357 -0.9322,0.4272 -0.9625,0.4172 -0.9797,0.4059 -0.6174,0.1743 -0.6176,0.1283 -0.6174,0.0848 -0.6174,0.0436 -0.3201,0.4185 -0.342,0.3743 -0.3639,0.3308 -0.3853,0.2877 -0.2112,-0.1796 -0.1734,-0.2082 -0.1412,-0.2323 -0.1144,-0.2523 -0.0932,-0.2682 -0.0775,-0.28 -0.1301,-0.5787 -0.2648,0.0573 -0.2481,0.0375 -0.2322,0.0188 -0.217,0.0015 -0.2027,-0.0147 -0.1891,-0.0296 -0.1762,-0.0433 -0.1642,-0.056 -0.1529,-0.0671 -0.1423,-0.0772 -0.2562,-0.1799 -0.2233,-0.2055 -0.1967,-0.2215 -0.0447,-0.1462 -0.013,-0.1458 0.0161,-0.145 0.0424,-0.1443 0.0661,-0.1431 0.0872,-0.142 0.2263,-0.2792 0.2779,-0.2721 0.308,-0.2629 0.6192,-0.493 0.313,-0.1538 0.3351,-0.2045 0.3491,-0.2466 0.3554,-0.2797 0.3535,-0.3041 0.344,-0.3199 0.3265,-0.3269 0.301,-0.325 0.2675,-0.3145 0.2264,-0.2952 0.1771,-0.2671 0.12,-0.2303 0.055,-0.1848 7e-4,-0.0725 -0.0187,-0.058 -0.0387,-0.0421 -0.0601,-0.0253 -0.0822,-0.0073 -0.1054,0.0118 -1.0985,0.193 -1.0687,0.1672 -1.0414,0.142 -1.0161,0.1173 -0.9934,0.0936 -0.973,0.0704 -0.9548,0.0479 -0.9391,0.0262 -0.9256,0.0051 -0.9146,-0.0154 -0.9058,-0.035 -0.8995,-0.054 -0.8954,-0.0725 -0.8938,-0.0899 -0.8943,-0.1069 -0.8973,-0.1232 -0.4594,0.5506 -0.4679,0.533 -0.4787,0.5128 -0.4917,0.4904 -0.5069,0.4651 -0.5242,0.4377 -0.5437,0.4077 -0.5652,0.3752 -0.2141,0.1064 -0.2251,0.0956 -0.4785,0.1614 -0.5095,0.1257 -0.5322,0.0947 -0.5464,0.0685 -0.5524,0.0472 -1.0888,0.0495 -0.485,0.3064 -0.2515,0.1399 -0.2601,0.1267 -0.2709,0.1108 -0.2836,0.0916 -0.2985,0.0692 -0.3154,0.044 -0.1949,-0.1644 -0.1427,-0.1776 -0.1013,-0.1878 -0.0706,-0.1955 -0.0936,-0.403 -0.0447,-0.202 -0.0579,-0.1987 -0.4998,-0.085 -0.4999,-0.1042 -0.2499,-0.0698 -0.2498,-0.0869 -0.25,-0.1083 -0.2499,-0.1338 -0.0598,-0.1869 -0.0278,-0.1655 0.001,-0.1464 0.0265,-0.1293 0.0487,-0.1145 0.0677,-0.1019 0.0833,-0.0915 0.0959,-0.0831 0.2158,-0.1501 0.2267,-0.143 0.211,-0.1533 0.0915,-0.0859 0.078,-0.0952 -1.238,0.2549 -1.2324,0.2267 -1.2341,0.1935 -1.2431,0.1554 -1.2593,0.1124 -1.2826,0.0643 -0.6524,0.0125 -0.6609,-0.0014 -0.6703,-0.0159 -0.6807,-0.0309 -1.7466,-0.4182 -0.7424,-0.1779 -0.3645,-0.0658 -0.358,-0.0378 -0.3499,-4e-4 -0.3403,0.0464 -0.1661,0.0436 -0.1632,0.0588 -0.1599,0.0751 -0.1566,0.0928 0.1162,-0.244 0.1298,-0.2187 0.1453,-0.1903 0.1625,-0.1584 0.1813,-0.123 0.2023,-0.0845 0.2247,-0.0425 0.2492,0.0029 -0.1282,-0.0827 -0.0916,-0.0842 -0.0582,-0.0852 -0.028,-0.0854 -0.001,-0.0851 0.0229,-0.0839 0.0437,-0.082 0.0611,-0.0796 0.1623,-0.1489 0.1945,-0.1307 0.2013,-0.107 0.183,-0.0778 2.0024,-0.3847 0.9972,-0.1853 0.9819,-0.1673 0.9572,-0.139 0.9227,-0.1008 0.8791,-0.0524 0.4202,-0.0049 0.4056,0.0109 -0.3468,-0.0923 -0.3568,-0.0804 -0.7385,-0.1336 -1.5374,-0.2197 -0.777,-0.121 -0.768,-0.1516 -0.3771,-0.0927 -0.3708,-0.107 -0.363,-0.1232 -0.3539,-0.142 -0.1922,-0.0463 -0.1859,-0.0587 -0.3585,-0.1447 -0.6965,-0.3295 -0.1005,-0.0734 -0.1067,-0.0549 -0.1121,-0.0383 -0.1172,-0.0236 -0.2465,-0.0104 -0.2587,0.0264 -0.5342,0.1031 -0.2655,0.047 -0.258,0.0241 0.6131,-0.2389 0.6132,-0.2385 0.3065,-0.0943 0.3066,-0.0645 0.3066,-0.0247 0.1532,0.0056 0.1533,0.0193 0.9242,-0.0462 0.9128,-0.0229 0.9024,-0.0018 0.8927,0.0171 0.8838,0.0341 0.8759,0.0488 1.7312,0.1338 1.7092,0.1679 1.694,0.1851 1.6855,0.1857 1.6836,0.1696 -1.0106,-0.4742 -0.973,-0.5119 -0.4712,-0.2712 -0.4604,-0.2819 -0.4491,-0.2934 -0.4374,-0.305 -0.4252,-0.3173 -0.4124,-0.33 -0.3993,-0.343 -0.3857,-0.3568 -0.3715,-0.3708 -0.3571,-0.3855 -0.3419,-0.4003 -0.3266,-0.416 -0.2298,-0.3508 -0.2151,-0.3604 -0.2004,-0.3699 -0.1861,-0.3792 -0.1719,-0.3885 -0.1578,-0.3977 -0.1439,-0.4067 -0.13,-0.4157 -0.1165,-0.4245 -0.103,-0.4332 -0.0898,-0.4419 -0.0766,-0.4504 -0.1145,-0.926 -0.0639,-0.9588 -0.0471,-1.0173 -0.0014,-0.9333 0.0432,-0.8566 0.0867,-0.7875 0.129,-0.7255 0.1701,-0.6709 0.2102,-0.6237 0.2488,-0.5839 0.2866,-0.5512 0.3232,-0.5261 0.3584,-0.5082 0.3927,-0.4979 0.4258,-0.4945 0.4576,-0.4988 1.0063,-1.0396 4.6357,-5.6856 -0.3043,0.0675 -0.3044,0.0843 -0.3043,0.1005 -0.3044,0.1159 -0.6087,0.2745 -0.6087,0.3266 -0.6087,0.3722 -0.6087,0.4115 -0.6088,0.4447 -0.6087,0.4715 -1.2174,0.9984 -1.2174,1.0304 -1.2175,1.0119 -0.6087,0.4835 -0.6087,0.46 -0.3369,-0.4474 -0.32,-0.4611 -0.6046,-0.9499 -0.5811,-0.9636 -0.5863,-0.9501 -0.3042,-0.4614 -0.3163,-0.4478 -0.332,-0.4306 -0.3514,-0.4101 -0.3744,-0.3861 -0.401,-0.3588 -0.4312,-0.3279 -0.4649,-0.2938 -0.4704,0.2507 -0.4404,0.2535 -0.412,0.2562 -0.3848,0.2586 -0.3592,0.2609 -0.3349,0.2633 -0.3119,0.2653 -0.2903,0.2674 -0.2703,0.2691 -0.2513,0.271 -0.4522,0.5466 -0.3937,0.5522 -0.3466,0.5567 -0.3104,0.5603 -0.2853,0.5628 -0.5402,1.1295 -0.2772,0.5646 -0.2965,0.5632 -0.3272,0.5609 -0.369,0.5575 -0.2512,-0.5181 -0.2419,-0.5328 -0.4726,-1.0955 -0.4858,-1.1115 -0.2587,-0.553 -0.2748,-0.5462 -0.2952,-0.536 -0.3198,-0.5223 -0.3488,-0.5047 -0.3819,-0.4839 -0.4195,-0.4595 -0.4611,-0.4314 -0.2476,-0.204 -0.2595,-0.1957 -0.2721,-0.187 -0.2853,-0.1776 -0.1728,-0.0055 -0.1727,0.0454 -0.1727,0.094 -0.1728,0.1401 -0.1727,0.1838 -0.1728,0.225 -0.1727,0.2637 -0.1727,0.2998 -0.1728,0.3338 -0.1727,0.3651 -0.3455,0.8143 -0.3455,0.9104 -0.3455,0.9866 -0.6909,2.1234 -0.691,2.1928 -0.3455,1.0732 -0.3454,1.0316 -0.3455,0.9703 -0.3455,0.8893 v 1e-4"
       id="path848"
       sodipodi:nodetypes="cccccccccscccccccccccccccccccccccccccccccccccccccccccccssscccccccccccccccccccccccccccccccccccccccccccc" />
  </g>
</svg>
