<?xml version="1.0" encoding="UTF-8" standalone="no"?>
<!-- Created with Inkscape (http://www.inkscape.org/) -->

<svg
   xmlns:dc="http://purl.org/dc/elements/1.1/"
   xmlns:cc="http://creativecommons.org/ns#"
   xmlns:rdf="http://www.w3.org/1999/02/22-rdf-syntax-ns#"
   xmlns:svg="http://www.w3.org/2000/svg"
   xmlns="http://www.w3.org/2000/svg"
   xmlns:sodipodi="http://sodipodi.sourceforge.net/DTD/sodipodi-0.dtd"
   xmlns:inkscape="http://www.inkscape.org/namespaces/inkscape"
   width="210mm"
   height="297mm"
   viewBox="0 0 210 297"
   version="1.1"
   id="svg8"
   inkscape:version="0.92.2 (5c3e80d, 2017-08-06)"
   sodipodi:docname="Schaf_V1.svg">
  <defs
     id="defs2" />
  <sodipodi:namedview
     id="base"
     pagecolor="#ffffff"
     bordercolor="#666666"
     borderopacity="1.0"
     inkscape:pageopacity="0.0"
     inkscape:pageshadow="2"
     inkscape:zoom="0.5370229"
     inkscape:cx="251.42857"
     inkscape:cy="370"
     inkscape:document-units="mm"
     inkscape:current-layer="layer1"
     showgrid="false"
     inkscape:window-width="1920"
     inkscape:window-height="1017"
     inkscape:window-x="-8"
     inkscape:window-y="-8"
     inkscape:window-maximized="1" />
  <metadata
     id="metadata5">
    <rdf:RDF>
      <cc:Work
         rdf:about="">
        <dc:format>image/svg+xml</dc:format>
        <dc:type
           rdf:resource="http://purl.org/dc/dcmitype/StillImage" />
        <dc:title></dc:title>
      </cc:Work>
    </rdf:RDF>
  </metadata>
  <g
     inkscape:label="Ebene 1"
     inkscape:groupmode="layer"
     id="layer1">
    <path
       style="fill:#000000;stroke-width:0.127"
       d="m 47.83019,82.172305 c -0.9796,-0.67516 -1.374726,-2.0396 -1.13899,-3.93314 0.183235,-1.47182 0.890185,-4.6075 1.160626,-5.14797 0.45806,-0.91542 1.231476,-1.3784 2.934606,-1.75669 0.606017,-0.1346 0.729823,-0.20737 0.72774,-0.42774 -0.0048,-0.51238 -0.3688,-3.85045 -0.742081,-6.80604 -0.207312,-1.64147 -0.447175,-3.68264 -0.533029,-4.53592 l -0.156097,-1.55142 -0.67269,-0.53678 c -1.182437,-0.94353 -1.957479,-2.15228 -1.95777,-3.05332 l -1.27e-4,-0.54606 -0.741704,-0.21794 c -2.139796,-0.62875 -3.505932,-2.65247 -3.510481,-5.20023 -0.0017,-0.9495 0.03791,-1.15416 0.289221,-1.49445 l 0.291183,-0.39429 -0.375247,-0.79155 c -0.892659,-1.88296 -1.339061,-3.95973 -1.261699,-5.86973 0.05681,-1.4026 0.306584,-2.15188 0.91898,-2.7568 l 0.346217,-0.34199 -0.64275,-2.19801 c -0.35356,-1.2089 -0.846847,-2.88381 -1.096242,-3.72201 -0.99153,-3.33247 -0.855588,-6.21396 0.334132,-7.08233 0.519765,-0.37938 1.657716,-0.42467 2.883272,-0.11475 1.151016,0.29107 3.264807,1.16672 4.710786,1.95149 l 0.938864,0.50954 0.618595,-0.28973 c 0.634679,-0.29727 1.527072,-0.38186 2.175877,-0.20626 0.324042,0.0877 0.370695,0.055 0.547932,-0.38405 0.9167,-2.27085 1.621214,-2.83092 3.557602,-2.82817 0.659059,9.4e-4 1.038554,0.0777 1.541681,0.31197 l 0.667415,0.31072 0.312625,-0.61694 c 0.448774,-0.88561 0.881716,-1.18195 2.130795,-1.4585 0.264545,-0.0586 0.34925,-0.15255 0.34925,-0.38746 0,-0.6665 1.380211,-1.45973 2.543489,-1.46179 0.79069,-0.001 1.16506,0.19619 1.46286,0.77208 0.18393,0.35567 0.21052,0.36597 0.47204,0.18279 0.35347,-0.24759 1.26824,-0.24995 1.74287,-0.005 0.46143,0.23862 0.71059,0.14559 0.87526,-0.32678 0.16436,-0.47149 0.54089,-0.48671 0.89526,-0.0362 0.31171,0.39626 0.33736,0.93162 0.0695,1.44968 l -0.19376,0.37469 h 0.44776 c 0.55792,0 0.95576,-0.37005 0.95576,-0.889 0,-0.20955 0.0521,-0.381 0.11571,-0.381 0.25567,0 0.77328,0.79334 0.77282,1.18449 -6.4e-4,0.49093 -0.39758,1.1765 -0.74518,1.28682 -0.17188,0.0546 -0.26801,0.2132 -0.29451,0.486 -0.032,0.32992 -0.14248,0.46173 -0.5957,0.71102 l -0.55635,0.30602 0.30235,0.23378 c 0.22513,0.17406 0.48926,0.22733 1.03403,0.20852 0.88988,-0.0307 1.21945,0.22654 1.32811,1.03668 0.0397,0.29568 0.13919,0.56335 0.22118,0.59481 0.19235,0.0738 4.12915,-0.39318 6.10104,-0.72372 2.08997,-0.35033 4.31684,-0.94439 4.96586,-1.32474 0.90137,-0.52824 1.09514,-0.87123 1.00096,-1.77182 -0.10893,-1.04166 0.12913,-2.43016 0.51806,-3.02157 0.27152,-0.41288 0.34476,-0.4565 0.55061,-0.32794 0.13058,0.0816 0.33158,0.30766 0.44665,0.50247 0.1238,0.20957 0.28135,0.32651 0.38587,0.28641 0.30447,-0.11684 0.71665,0.20547 0.9665,0.75577 0.39307,0.86573 0.30618,2.0023 -0.32689,4.276 -0.12642,0.45403 -0.23844,0.83849 -0.24893,0.85436 -0.027,0.0409 -9.01875,2.51315 -11.3018,3.10744 -1.04507,0.27203 -1.91804,0.51252 -1.93995,0.53443 -0.0219,0.0219 0.0745,0.30649 0.2142,0.63242 0.35468,0.82746 0.56028,2.13759 0.45742,2.91494 -0.18586,1.40468 -0.99429,2.47854 -2.26125,3.00366 -0.6311,0.26158 -0.71789,0.34292 -0.79298,0.74315 -0.0464,0.24718 -0.25115,0.77993 -0.45507,1.18389 -0.48698,0.96469 -0.48828,1.49606 -0.005,1.8537 1.33399,0.98627 1.13747,3.51001 -0.38865,4.99106 l -0.52173,0.50632 0.22256,0.49355 c 0.34033,0.75471 0.23623,2.27005 -0.2198,3.19947 -0.49485,1.00854 -1.23791,1.80426 -1.98498,2.12564 -0.81253,0.34954 -1.0774,0.74265 -1.32463,1.96594 -0.27058,1.33878 -0.60884,1.98805 -1.42383,2.7329 -0.90473,0.82687 -1.59337,1.01017 -2.708997,0.72108 -0.877229,-0.22731 -1.153839,-0.15306 -1.59613,0.42847 -0.137658,0.181 -0.498133,0.58169 -0.801056,0.89044 -0.628857,0.64094 -0.657813,0.37411 0.28363,2.61364 1.415156,3.36642 1.562711,4.12745 1.013821,5.22893 -0.323652,0.64948 -2.707437,3.24526 -5.78871,6.30351 -0.830901,0.82469 -1.510727,1.59257 -1.510727,1.7064 0,0.41211 0.544025,2.14859 0.950235,3.03306 0.246427,0.53657 0.702688,1.21719 1.120918,1.67212 1.089718,1.18534 1.334198,1.81065 0.871597,2.2293 -0.288595,0.26118 -0.841341,0.26821 -1.54575,0.0197 -0.736711,-0.25992 -0.746563,-0.2556 -0.672743,0.29476 0.0801,0.59722 -0.184141,0.91195 -0.765079,0.91127 -0.567243,-6.4e-4 -1.124529,-0.37982 -1.722623,-1.17199 -0.919061,-1.21728 -1.281501,-2.43929 -1.283596,-4.32778 -0.0011,-0.98482 -0.13794,-1.01361 -0.443611,-0.0933 -0.310489,0.93479 -0.268124,1.4588 0.237603,2.93889 0.486962,1.42516 0.53811,1.76164 0.327581,2.15502 -0.207928,0.38852 -0.686069,0.29413 -1.329032,-0.26235 -0.322822,-0.2794 -0.662992,-0.508 -0.755935,-0.508 -0.09294,0 -0.264852,0.2396 -0.382021,0.53243 -0.47795,1.19452 -0.931645,1.48707 -1.596036,1.02915 z m 6.547978,-2.31407 c -0.176818,-0.51865 -0.321486,-1.18674 -0.321486,-1.48465 v -0.54165 l 0.665019,0.70316 c 0.91322,0.96559 1.747981,1.36743 1.747981,0.84143 0,-0.12001 -0.489811,-1.22704 -1.088469,-2.46007 -0.598658,-1.23303 -1.158625,-2.51689 -1.24437,-2.85301 -0.08575,-0.33612 -0.212392,-0.62996 -0.281437,-0.65297 -0.06905,-0.023 -0.452055,0.24917 -0.851131,0.60486 l -0.725593,0.64671 0.0044,0.84709 c 0.0109,2.08246 0.616207,3.85706 1.744463,5.11424 0.738479,0.82286 0.826491,0.63078 0.350593,-0.76514 z m -5.842963,0.49253 c 0.178642,-0.35253 0.409231,-0.67337 0.512421,-0.71297 0.285194,-0.10943 0.863561,0.17826 1.333894,0.66352 0.304465,0.31413 0.450219,0.39144 0.522728,0.27725 0.156789,-0.24691 0.122684,-1.1279 -0.09591,-2.47745 -0.386273,-2.38477 -0.06453,-2.9906 2.560162,-4.82064 0.622976,-0.43436 1.577645,-1.1916 2.121488,-1.68275 0.543844,-0.49115 1.034437,-0.893 1.090206,-0.893 0.253951,0 3.102251,-3.01179 3.744491,-3.95942 0.735084,-1.08463 1.224998,-2.23337 1.224998,-2.87235 0,-0.66101 -0.393136,-1.72449 -1.230346,-3.32823 -0.455803,-0.87312 -0.845446,-1.60554 -0.865874,-1.62759 -0.07167,-0.0774 -1.094757,0.24578 -1.054099,0.33295 0.02261,0.0485 0.284462,0.56031 0.581892,1.13741 1.0197,1.97849 1.131134,3.40778 0.388513,4.98323 -0.31809,0.67483 -0.693616,1.12375 -2.057351,2.45947 -3.177242,3.11197 -4.98453,4.26799 -7.044754,4.50613 -1.615049,0.18669 -1.758857,0.3979 -2.368109,3.47807 -0.348624,1.76252 -0.393167,2.73793 -0.183755,4.02393 0.230855,1.4177 0.329437,1.47935 0.819405,0.51244 z m 4.825949,-10.31577 c -0.03513,-0.15552 -0.151691,-1.14002 -0.259028,-2.18777 -0.107338,-1.04775 -0.291543,-2.67652 -0.409344,-3.6195 -0.13945,-1.11626 -0.212188,-2.60077 -0.208462,-4.2545 0.0049,-2.16738 0.04315,-2.6641 0.260867,-3.38599 l 0.255143,-0.84599 -0.41743,0.0677 c -0.602065,0.0977 -0.939311,-0.0208 -1.551946,-0.54516 -0.29833,-0.25536 -0.566155,-0.44055 -0.595167,-0.41154 -0.02901,0.029 0.03395,0.36442 0.139924,0.74535 0.128882,0.46328 0.230769,1.74381 0.30773,3.86759 0.09162,2.5282 0.193192,3.65207 0.498607,5.51682 0.210953,1.288 0.446812,3.08822 0.524133,4.0005 0.07732,0.91228 0.162996,1.73169 0.190392,1.82092 0.03647,0.11879 0.220972,0.0755 0.68913,-0.16174 0.534804,-0.27101 0.628878,-0.37019 0.575451,-0.60673 z m 2.092528,-1.41111 c 1.53756,-1.14061 3.132521,-2.74597 3.611562,-3.6351 0.69678,-1.29327 0.377356,-2.95089 -0.969994,-5.03368 -0.511938,-0.79138 -0.641824,-0.91216 -1.066589,-0.99185 -0.586316,-0.10999 -1.280758,-0.45322 -1.798605,-0.88896 -0.211497,-0.17796 -0.415356,-0.32357 -0.453019,-0.32357 -0.115835,0 -1.413032,0.81676 -1.512161,0.95211 -0.13841,0.18898 -0.116549,5.11886 0.02985,6.73139 0.134746,1.48419 0.492928,3.99874 0.592753,4.16133 0.07724,0.1258 0.135674,0.0895 1.566204,-0.97167 z m 4.0005,-10.3481 c 0.665165,-0.30294 1.321133,-1.04509 1.972126,-2.23123 0.290032,-0.52846 0.551821,-0.96083 0.581753,-0.96083 0.02993,0 0.372588,0.16979 0.76146,0.3773 1.29932,0.69336 1.95425,0.63737 2.80841,-0.24009 0.66301,-0.68108 0.82869,-1.05723 1.54283,-3.50271 0.24323,-0.83292 0.28309,-0.8898 0.63178,-0.90179 0.76513,-0.0263 1.94927,-1.26309 2.42392,-2.53171 0.39689,-1.06079 0.31596,-1.80893 -0.26248,-2.42652 l -0.25478,-0.27202 0.64535,-0.60364 c 0.74023,-0.6924 1.40296,-1.92173 1.49997,-2.78238 0.0997,-0.88464 -0.13778,-1.28822 -1.13369,-1.92659 l -0.86896,-0.55699 0.55945,-0.68685 c 0.53538,-0.6573 1.09436,-1.85716 1.09436,-2.34906 0,-0.20529 -0.11529,-0.23263 -0.98425,-0.23343 -0.80029,-7.6e-4 -1.17414,-0.0752 -2.00025,-0.39847 -0.5588,-0.21865 -1.64465,-0.57254 -2.413,-0.7864 -2.469944,-0.68748 -3.578665,-1.43562 -4.387756,-2.96077 -0.247368,-0.4663 -0.378119,-0.58588 -0.640592,-0.58588 -0.334799,0 -0.647441,-0.26374 -0.790362,-0.66675 -0.06113,-0.17237 -0.224402,-0.22225 -0.727573,-0.22225 -0.547711,0 -0.706573,-0.0578 -1.019985,-0.37123 -0.654308,-0.65431 -0.42678,-1.44568 0.64101,-2.22951 0.645833,-0.47408 0.74386,-0.62131 0.509944,-0.76588 -0.220229,-0.13611 -0.593543,-0.9893 -0.680385,-1.55498 -0.100487,-0.65457 0.159492,-1.36631 0.543606,-1.48822 0.331098,-0.10509 0.335425,-0.25135 0.01686,-0.56991 -1.033944,-1.03394 -3.037757,-1.0377 -4.066221,-0.008 -0.452387,0.4531 -0.796697,1.30208 -0.966679,2.38359 -0.04666,0.29686 -0.103987,0.53975 -0.1274,0.53975 -0.02341,0 -0.344719,-0.12018 -0.714018,-0.26707 -0.769954,-0.30625 -1.67824,-0.35995 -2.113765,-0.12497 -0.294132,0.1587 -0.286549,0.16918 0.438186,0.60576 0.405624,0.24434 1.305476,0.90113 1.999672,1.45952 0.694195,0.55839 1.397124,1.07674 1.562064,1.15189 0.436987,0.19911 0.372439,0.293 -0.291361,0.42384 -0.791207,0.15594 -1.108489,0.57734 -1.088703,1.44596 0.008,0.35149 -0.02979,0.63907 -0.08399,0.63907 -0.0542,0 -0.28322,-0.2298 -0.508932,-0.51067 -0.263136,-0.32744 -0.760623,-0.6901 -1.386505,-1.01075 -0.536866,-0.27505 -1.331625,-0.70484 -1.766133,-0.95508 l -0.790012,-0.455 -0.06601,0.291 c -0.03631,0.16005 -0.123244,0.77155 -0.193196,1.35888 -0.06995,0.58733 -0.154312,1.095 -0.187463,1.12815 -0.03315,0.0331 -0.258462,-0.11374 -0.500695,-0.32642 -0.615632,-0.54053 -0.925621,-0.61445 -1.329621,-0.31705 -0.43913,0.32325 -1.237859,1.91323 -1.493493,2.973 -0.196707,0.81547 -0.194333,0.8665 0.07385,1.5875 0.441806,1.18779 0.797987,1.69612 2.13106,3.04136 1.606512,1.62118 2.092516,2.59382 1.680632,3.36343 -0.154568,0.28881 -0.607244,0.32005 -0.954836,0.0659 -0.229477,-0.1678 -0.254354,-0.14453 -0.373523,0.34925 -0.185606,0.76907 -0.521366,0.76848 -1.348222,-0.002 -0.86803,-0.80922 -2.37379,-2.94675 -2.827013,-4.01314 -0.199385,-0.46914 -0.412077,-0.85298 -0.472647,-0.85298 -0.161669,0 -0.568048,0.85038 -0.819142,1.71411 -0.461895,1.58886 -0.02325,3.95118 1.178244,6.34547 0.411613,0.82025 0.52467,1.15357 0.404824,1.19352 -0.09146,0.0305 -0.305929,0.19507 -0.476605,0.36575 -0.290515,0.29051 -0.305708,0.37239 -0.23806,1.28298 0.148395,1.99751 1.001705,3.45006 2.440212,4.15385 0.700347,0.34265 1.540443,0.39009 2.148034,0.1213 0.207356,-0.0917 0.228854,-0.0711 0.142171,0.13622 -0.05617,0.13437 -0.13043,0.54568 -0.165021,0.91402 -0.05323,0.56676 -0.003,0.79148 0.327002,1.46171 0.214442,0.4356 0.572199,0.9629 0.795014,1.17178 l 0.40512,0.37979 -0.0812,-1.397 c -0.04466,-0.76835 -0.140036,-1.64743 -0.211947,-1.95351 -0.07191,-0.30608 -0.09899,-0.58827 -0.06018,-0.62708 0.03881,-0.0388 0.312259,0.16198 0.607657,0.4462 1.33988,1.2892 2.205835,1.71886 2.918311,1.44797 l 0.346582,-0.13177 -0.316152,-0.46587 c -0.284755,-0.41961 -0.457474,-1.44644 -0.243301,-1.44644 0.04007,0 0.356323,0.31016 0.702785,0.68925 0.993404,1.08694 2.090225,1.47486 2.930527,1.03646 0.54995,-0.28693 0.304066,0.0914 -0.268589,0.41321 -0.557047,0.31308 -1.35194,0.35012 -2.06311,0.0961 -0.539516,-0.19267 -0.534075,-0.20181 -0.673232,1.13044 -0.04378,0.4191 -0.106249,0.89059 -0.138833,1.04775 -0.08974,0.43286 0.21129,0.35577 0.867957,-0.22225 0.317415,-0.2794 0.599403,-0.508 0.626639,-0.508 0.02724,0 0.398687,0.33956 0.825447,0.75457 0.5518,0.53661 0.953734,0.80918 1.391492,0.94365 0.844498,0.25941 1.783737,0.24758 2.393564,-0.0302 z m -11.8745,-16.84073 v -0.56767 l 0.472736,0.3208 c 0.427925,0.2904 0.487041,0.30125 0.623632,0.11445 0.169634,-0.23199 0.05388,-0.7906 -0.264517,-1.27654 -0.106118,-0.16195 -0.628366,-0.76006 -1.160552,-1.32913 -0.768468,-0.82173 -1.093962,-1.30027 -1.581545,-2.3252 -1.027691,-2.16028 -1.739578,-4.32347 -2.346262,-7.12951 -0.654976,-3.0294 -0.337823,-3.49166 1.958925,-2.8552 1.947978,0.53981 4.840266,2.02655 7.123583,3.66177 l 1.0795,0.7731 0.09812,-0.37567 c 0.09808,-0.37551 0.381144,-0.59886 0.952668,-0.75171 0.264767,-0.0708 0.07881,-0.22928 -1.453083,-1.23829 -4.817626,-3.17322 -8.134395,-4.56074 -9.818277,-4.10732 -1.063714,0.28643 -1.65393,1.28791 -1.65393,2.8064 0,0.77741 0.344153,2.28916 0.951445,4.17939 0.302959,0.94298 0.756896,2.44457 1.008751,3.33688 0.533819,1.89129 1.053417,3.25512 1.680191,4.41012 0.667018,1.22916 1.955951,2.921 2.225374,2.921 0.05678,0 0.10324,-0.25545 0.103241,-0.56767 z m 24.796009,-5.84669 c 0.89053,-0.31484 1.80381,-1.19384 2.12088,-2.04127 0.33818,-0.90388 0.34248,-1.26788 0.009,-0.72012 -0.13842,0.22701 -0.30965,0.41275 -0.38053,0.41275 -0.0709,0 -0.12887,0.0647 -0.12887,0.14376 0,0.16705 -0.51655,1.03302 -0.57897,0.97061 -0.0231,-0.0231 0.007,-0.25848 0.0665,-0.52308 0.0894,-0.39652 0.0715,-0.49439 -0.10227,-0.55685 -0.48331,-0.17376 -0.93975,-0.60464 -1.29307,-1.22068 -0.53356,-0.9303 -0.46905,-0.99487 0.22505,-0.22527 0.48002,0.53222 0.68616,0.67079 1.0091,0.67831 0.57572,0.0134 1.0191,-0.32517 1.19511,-0.91264 0.13196,-0.44044 0.11482,-0.60437 -0.13618,-1.30226 -0.15794,-0.43912 -0.57099,-1.26477 -0.9179,-1.83478 l -0.63075,-1.03639 -0.64569,0.335 c -0.82702,0.42907 -1.41599,0.4287 -2.04575,-0.001 -0.64246,-0.43867 -1.09737,-0.30225 -1.54624,0.46369 -0.38661,0.65969 -0.65012,0.89801 -1.1153,1.00866 -0.63816,0.1518 -1.22834,-0.0528 -1.8385,-0.63747 -0.37822,-0.3624 -0.73347,-0.5789 -1.03218,-0.62903 -0.25051,-0.0421 -0.56977,-0.10763 -0.709466,-0.14574 -0.245038,-0.0668 -0.246024,-0.0603 -0.0279,0.18409 0.552906,0.61964 0.560496,1.73689 0.01321,1.94497 -0.252236,0.0959 -0.293769,0.1767 -0.227184,0.442 0.128759,0.51302 -0.256031,0.84612 -0.929557,0.8047 -0.380524,-0.0234 -0.61209,0.0323 -0.763429,0.18365 -0.204976,0.20497 -0.203381,0.24295 0.02828,0.67311 0.670011,1.24414 1.833132,2.07596 3.589336,2.56696 0.50642,0.14158 0.92074,0.24111 0.92074,0.22117 0,-0.0199 -0.17722,-0.25842 -0.39382,-0.52997 -0.91167,-1.14292 -1.25787,-2.31696 -0.76155,-2.58259 0.2224,-0.11902 0.23637,-0.0901 0.17553,0.36357 -0.0897,0.66853 0.42703,1.60237 1.36925,2.47472 1.02326,0.94735 2.28347,1.37748 3.8016,1.29756 0.59372,-0.0312 1.35062,-0.15268 1.68201,-0.26983 z m -27.082009,-2.52635 c 0,-0.35433 0.799033,-1.73349 1.216867,-2.10036 0.458217,-0.40231 1.168497,-0.523 1.572873,-0.26725 0.285703,0.1807 0.51226,-0.091 0.51226,-0.61432 0,-0.25384 0.05296,-0.64619 0.117683,-0.87187 l 0.117684,-0.41034 -1.07637,-0.58673 c -1.203071,-0.6558 -2.934815,-1.37807 -3.591446,-1.49791 l -0.431947,-0.0788 0.08211,1.17542 c 0.04516,0.64647 0.166716,1.56882 0.270122,2.04965 0.292053,1.35805 0.98187,3.50636 1.102036,3.4321 0.05947,-0.0368 0.108128,-0.14005 0.108128,-0.22955 z m 16.518349,-1.98576 c 0.135108,-0.0723 0.245651,-0.21868 0.245651,-0.32528 0,-0.15766 0.106331,-0.17787 0.570037,-0.10833 0.663696,0.0995 0.837143,-0.10802 0.604769,-0.72365 -0.1265,-0.33513 -0.11412,-0.36227 0.165257,-0.36227 0.459695,0 0.612834,-0.40152 0.372509,-0.9767 -0.233502,-0.55885 -0.542421,-0.9283 -0.776207,-0.9283 -0.09221,0 -0.255267,0.29917 -0.363384,0.66675 -0.363559,1.23603 -0.71295,1.69082 -1.786827,2.32586 -0.351413,0.20781 -0.143632,0.56339 0.32921,0.56339 0.216334,0 0.503877,-0.0592 0.638985,-0.13147 z m -0.695396,-1.03791 c 0.844987,-0.57749 1.322047,-1.74656 1.322047,-3.2398 0,-0.77848 -0.156915,-1.04978 -0.316452,-0.54712 -0.09742,0.30694 -0.717178,0.76499 -1.036653,0.76617 -0.313901,0.001 -2.309943,1.97092 -2.4129,2.38113 -0.107226,0.42722 0.07456,0.69447 0.603184,0.88677 0.55283,0.20111 1.339391,0.0955 1.840774,-0.24715 z m 16.558076,-2.13994 c 0.87095,-0.20923 2.62332,-0.71971 3.89417,-1.13439 1.96556,-0.64136 3.89921,-1.13136 5.10829,-1.29446 0.26255,-0.0354 0.33545,-0.18141 0.59804,-1.19772 0.16448,-0.63657 0.3589,-1.53203 0.43205,-1.98992 0.22658,-1.41835 -0.21291,-1.93523 -0.84631,-0.99532 -0.31074,0.46111 -0.38282,0.40199 -0.44612,-0.36587 -0.0242,-0.29416 -0.10108,-0.4445 -0.22715,-0.4445 -0.32506,0 -0.48389,0.80123 -0.4154,2.0955 0.0585,1.10638 0.0405,1.23578 -0.21688,1.55929 -0.1544,0.19404 -0.51565,0.47265 -0.80278,0.61913 -0.89976,0.45902 -4.72392,1.33105 -7.96294,1.81579 -1.71132,0.25611 -3.26518,0.50518 -3.45302,0.55348 l -0.34152,0.0878 0.52267,0.83595 0.52267,0.83596 1.02535,-0.30015 c 0.56394,-0.16508 1.73794,-0.47134 2.60888,-0.68058 z m -17.452469,-1.11174 c 0.174209,-0.29491 0.27808,-0.3472 0.596756,-0.30043 0.324284,0.0476 0.463171,-0.0271 0.870662,-0.46844 0.266657,-0.28879 0.599412,-0.52507 0.739458,-0.52507 0.292054,0 0.517564,0.34959 0.517564,0.80234 0,0.31121 0.408155,0.54436 0.669835,0.38263 0.170053,-0.1051 0.0093,-0.76633 -0.287797,-1.18351 -0.140271,-0.19699 -0.255038,-0.45822 -0.255038,-0.5805 0,-0.20456 0.01795,-0.20608 0.224533,-0.0191 0.123494,0.11176 0.477758,0.31658 0.787256,0.45514 0.73198,0.32772 1.06783,0.18587 0.99697,-0.42107 l -0.0484,-0.4147 0.51207,0.23261 c 0.6311,0.28668 1.50097,0.3099 1.72005,0.0459 0.10454,-0.12596 0.13302,-0.38599 0.0826,-0.75394 l -0.077,-0.56168 0.67028,0.23061 c 0.36865,0.12684 0.90355,0.27002 1.18866,0.31819 1.05853,0.17884 2.17365,-0.43677 2.04168,-1.12713 -0.0446,-0.23303 0.002,-0.34124 0.16888,-0.39427 0.34004,-0.10792 0.87643,-0.79803 0.87643,-1.12759 0,-0.46295 -0.14757,-0.47893 -0.36699,-0.0397 -0.26878,0.53797 -0.89116,0.7091 -1.6691,0.45894 -0.63717,-0.20489 -0.7752,-0.43036 -0.33163,-0.54169 0.19788,-0.0497 0.36047,-0.22169 0.44867,-0.47471 0.27056,-0.77612 -0.19368,-1.39396 -0.51595,-0.68665 -0.198,0.43457 -0.52099,0.50309 -1.1818,0.25072 -0.74481,-0.28445 -1.3101,-0.16863 -1.88042,0.38526 l -0.45083,0.43784 -0.0874,-0.51737 c -0.13972,-0.82694 -0.44859,-1.04291 -1.38413,-0.96782 -0.43087,0.0346 -0.969079,0.15891 -1.196024,0.27626 -0.513029,0.2653 -0.939107,0.92603 -0.846249,1.3123 0.06326,0.26316 0.0249,0.28575 -0.485251,0.28575 -1.570818,0 -2.759151,1.58809 -1.99322,2.66374 l 0.251675,0.35344 -0.363367,0.0727 c -0.478582,0.0957 -0.774983,0.40678 -0.774983,0.81331 0,0.41505 0.394925,1.68484 0.524013,1.68484 0.05315,0 0.191542,-0.16068 0.307547,-0.35706 z m 5.051059,-0.37936 c 0.95693,-0.64067 2.0675,-1.00895 4.07306,-1.3507 0.62105,-0.10582 1.15147,-0.2147 1.17871,-0.24194 0.15074,-0.15074 -0.64506,-0.43988 -1.35718,-0.49311 -0.45304,-0.0339 -0.92372,-0.10465 -1.04596,-0.15729 -0.17284,-0.0744 -0.22225,-0.0344 -0.22225,0.18022 0,0.95938 -1.08534,1.36614 -2.17799,0.81626 -0.30808,-0.15505 -0.33124,-0.14928 -0.27433,0.0683 0.18303,0.69991 -0.55712,0.98778 -1.32928,0.517 l -0.416098,-0.2537 0.19385,0.37486 c 0.106617,0.20618 0.193848,0.49201 0.193848,0.63517 0,0.38099 0.53693,0.33784 1.18362,-0.0951 z"
       id="path826"
       inkscape:connector-curvature="0" />
  </g>
</svg>
