<?xml version="1.0" encoding="UTF-8" standalone="no"?>
<svg
   xmlns:dc="http://purl.org/dc/elements/1.1/"
   xmlns:cc="http://creativecommons.org/ns#"
   xmlns:rdf="http://www.w3.org/1999/02/22-rdf-syntax-ns#"
   xmlns:svg="http://www.w3.org/2000/svg"
   xmlns="http://www.w3.org/2000/svg"
   xmlns:sodipodi="http://sodipodi.sourceforge.net/DTD/sodipodi-0.dtd"
   xmlns:inkscape="http://www.inkscape.org/namespaces/inkscape"
   sodipodi:docname="RoseV1.svg"
   inkscape:version="1.0 (4035a4fb49, 2020-05-01)"
   id="svg8"
   version="1.1"
   viewBox="0 0 210 297"
   height="297mm"
   width="210mm">
  <defs
     id="defs2" />
  <sodipodi:namedview
     inkscape:document-rotation="0"
     inkscape:window-maximized="1"
     inkscape:window-y="-8"
     inkscape:window-x="-8"
     inkscape:window-height="1017"
     inkscape:window-width="1920"
     showgrid="false"
     inkscape:current-layer="layer1"
     inkscape:document-units="mm"
     inkscape:cy="560"
     inkscape:cx="-87.142857"
     inkscape:zoom="0.35"
     inkscape:pageshadow="2"
     inkscape:pageopacity="0.0"
     borderopacity="1.0"
     bordercolor="#666666"
     pagecolor="#ffffff"
     id="base" />
  <metadata
     id="metadata5">
    <rdf:RDF>
      <cc:Work
         rdf:about="">
        <dc:format>image/svg+xml</dc:format>
        <dc:type
           rdf:resource="http://purl.org/dc/dcmitype/StillImage" />
        <dc:title></dc:title>
      </cc:Work>
    </rdf:RDF>
  </metadata>
  <g
     id="layer1"
     inkscape:groupmode="layer"
     inkscape:label="Ebene 1">
    <path
       inkscape:connector-curvature="0"
       id="path826"
       d="m 123.99433,214.31612 c -0.54862,-0.13355 -1.21193,-0.49179 -1.651,-0.89167 -0.20955,-0.19083 -0.63817,-0.51783 -0.9525,-0.72664 -0.31432,-0.20883 -0.91439,-0.61102 -1.33349,-0.89378 -1.07893,-0.72791 -7.33888,-4.30194 -9.906,-5.65569 -2.49281,-1.31455 -2.50051,-1.31988 -4.25925,-2.94908 -0.73081,-0.67699 -2.04962,-1.79645 -2.93067,-2.48767 -2.59106,-2.03281 -3.791731,-3.52646 -3.993351,-4.96781 -0.10658,-0.76194 -0.28113,-1.20564 -0.77376,-1.96696 -0.68313,-1.05572 -1.16826,-2.42584 -1.33978,-3.78389 -0.13549,-1.07271 -0.12758,-1.36434 0.062,-2.28533 0.27398,-1.33104 0.27219,-1.55542 -0.0136,-1.70839 -0.29693,-0.15892 -3.37453,-0.43914 -3.89509,-0.35467 -0.21803,0.0354 -1.07787,0.50866 -1.91076,1.05171 -3.18006,2.07348 -6.55364,3.35275 -12.31469,4.66979 -1.39218,0.31827 -2.99765,0.5763 -5.27051,0.84705 -2.74085,0.32652 -3.86809,0.32573 -4.63549,-0.003 -0.77636,-0.33279 -0.97388,-0.32082 -1.34312,0.0814 -0.16934,0.18445 -0.73651,0.67737 -1.26038,1.09538 -1.06027,0.84601 -1.18825,1.02187 -1.4081,1.93476 -0.38661,1.60539 -1.18545,3.17848 -2.35599,4.63942 -0.70397,0.87861 -1.16432,1.2849 -2.39541,2.11409 -1.14401,0.77052 -1.63932,0.99001 -3.2385,1.43503 -2.08823,0.58111 -2.475,0.73575 -3.683,1.47252 -1.4757,0.90004 -1.92733,1.11515 -3.14981,1.50028 -1.47049,0.46327 -3.26842,0.46952 -4.68761,0.0163 -0.544,-0.17373 -1.09971,-0.31661 -1.23491,-0.3175 -0.13521,-0.001 -0.51514,0.22546 -0.84431,0.50302 -1.44529,1.21868 -2.04128,1.40464 -4.87886,1.52223 -2.23129,0.0925 -2.31184,0.10549 -3.3655,0.54483 -1.43911,0.60003 -2.88465,0.91146 -3.75559,0.8091 -0.82188,-0.0966 -2.71916,-0.6741 -2.95413,-0.8992 -0.13959,-0.13373 -0.14234,-0.47013 -0.0157,-1.92148 0.19084,-2.18698 0.11715,-3.10835 -0.37615,-4.70309 -1.21101,-3.91498 -1.61446,-7.88155 -1.01245,-9.95403 0.45769,-1.57565 0.40788,-2.15198 -0.30772,-3.55992 -0.80309,-1.58007 -0.96492,-2.58057 -0.74378,-4.59828 0.0942,-0.85968 0.22295,-1.48096 0.32265,-1.5573 0.12535,-0.096 0.1517,-0.46868 0.10783,-1.52497 -0.0319,-0.76887 0.0129,-2.19762 0.0997,-3.175 0.0868,-0.97737 0.1787,-2.20305 0.20426,-2.72374 0.0489,-0.99677 0.24301,-1.78383 0.43988,-1.78383 0.0644,0 0.11715,0.14287 0.11715,0.3175 0,0.51091 0.42049,0.40507 0.67406,-0.16968 0.30137,-0.68305 0.28012,-0.80402 -0.12344,-0.70273 -0.29752,0.0747 -0.32577,0.0558 -0.23391,-0.15633 0.25102,-0.57971 0.38855,-1.90267 0.288,-2.77022 -0.0574,-0.49503 -0.0711,-1.32867 -0.0305,-1.85254 0.11025,-1.42161 0.61659,-2.32917 2.87798,-5.1585 1.05416,-1.3189 2.06597,-2.62127 2.24846,-2.89416 1.00919,-1.50906 1.32309,-2.03068 1.9034,-3.16293 0.749,-1.46139 0.754,-1.41897 -0.33427,-2.83737 -0.40113,-0.52282 -0.8722,-1.17368 -1.04682,-1.44636 -1.10987,-1.73306 -3.1359,-4.42796 -4.48353,-5.96368 -0.27583,-0.31433 -1.79895,-1.88595 -3.3847,-3.4925 -3.48676,-3.53248 -3.97838,-4.11567 -5.01906,-5.95391 -0.31582,-0.55787 -0.33672,-0.66736 -0.20883,-1.09423 0.18512,-0.61788 0.17937,-0.80837 -0.0403,-1.33415 -0.17268,-0.41327 -0.20269,-0.42956 -0.56132,-0.30454 -0.20838,0.0726 -0.41024,0.21381 -0.44858,0.3137 -0.0904,0.23559 -0.38538,0.23245 -0.58345,-0.006 -0.11324,-0.13645 -0.21943,-0.15382 -0.3882,-0.0635 -0.38698,0.20711 -0.82444,0.14062 -1.11588,-0.1696 -0.36214,-0.38549 -0.35031,-0.90715 0.0299,-1.31718 0.26756,-0.28854 0.37184,-0.3195 0.82977,-0.24627 0.30244,0.0484 0.63216,0.0257 0.78031,-0.0536 0.21826,-0.11681 0.32843,-0.065 0.73812,0.34707 0.26486,0.2664 0.50811,0.56608 0.54054,0.66596 0.10116,0.31149 0.44477,0.0589 0.97061,-0.7135 0.27637,-0.40595 0.80953,-1.08619 1.18481,-1.51163 0.61936,-0.70215 1.49414,-1.72863 3.00728,-3.52877 0.8837,-1.05132 1.11379,-1.33958 2.24263,-2.80969 0.58999,-0.76835 1.24668,-1.61749 1.45931,-1.88699 0.21264,-0.26949 0.38661,-0.60482 0.38661,-0.74519 0,-0.14037 -0.30486,-0.66282 -0.67747,-1.16102 -2.65834,-3.55433 -3.64279,-6.1783 -3.6386,-9.6984 0.003,-2.30624 0.31078,-3.87819 1.57453,-8.0349 0.63678,-2.09448 1.25587,-3.690287 1.99091,-5.131947 0.3529,-0.69215 0.83089,-1.83515 1.0622,-2.54 0.2313,-0.70485 0.7072,-1.96735 1.05755,-2.80555 0.35034,-0.8382 0.6998,-1.758096 0.77657,-2.044212 0.0768,-0.286116 0.47799,-1.200516 0.89161,-2.032 0.41363,-0.831484 0.9065,-1.91184 1.09527,-2.40079 l 0.34323,-0.889 0.0434,-4.7625 c 0.0494,-5.416342 0.1128,-6.542137 0.39258,-6.971633 0.21972,-0.337293 0.24261,-0.337359 4.35917,-0.01245 0.87313,0.06891 3.33058,0.129852 5.46101,0.135421 l 3.87351,0.01012 1.58749,-0.526857 c 2.38549,-0.791698 4.04429,-1.479594 6.21969,-2.579287 1.08086,-0.546386 2.02899,-1.046376 2.10696,-1.111088 0.078,-0.06471 0.47951,-0.296179 0.89231,-0.514369 0.41279,-0.218191 0.83626,-0.466386 0.94103,-0.551543 0.10478,-0.08516 0.79058,-0.498274 1.524,-0.918035 2.75676,-1.577774 3.36117,-1.754868 5.969,-1.748914 1.70181,0.0039 2.18358,0.05376 3.556,0.368135 2.37331,0.543641 2.39032,0.543434 4.19361,-0.05104 0.87169,-0.287366 1.69919,-0.573826 1.83889,-0.636578 0.1397,-0.06275 0.62548,-0.269044 1.0795,-0.458425 0.8926,-0.37232 3.02481,-1.418483 3.24997,-1.594585 0.0762,-0.05957 0.4762,-0.286821 0.889,-0.505011 0.41279,-0.218191 0.84076,-0.475945 0.95103,-0.572785 0.11028,-0.09684 0.23684,-0.176074 0.28126,-0.176074 0.0444,0 0.32566,-0.171582 0.625,-0.381292 0.29933,-0.209715 0.97287,-0.676854 1.49674,-1.03809 0.9934,-0.684993 3.16798,-2.314133 3.6368,-2.724594 0.14922,-0.13064 0.48397,-0.408978 0.7439,-0.618528 0.25993,-0.20955 0.79507,-0.648758 1.1892,-0.976018 3.94591,-3.276414 6.11544,-4.876084 7.63811,-5.631857 2.512311,-1.246982 2.774181,-1.349168 3.062271,-1.194986 0.17671,0.09457 0.48849,0.115229 0.86157,0.05708 0.72487,-0.112971 1.22487,-0.112184 1.76118,0.0028 0.24674,0.05289 0.5683,0.02515 0.79445,-0.06852 0.32604,-0.135049 0.51045,-0.116038 1.29998,0.134011 0.50603,0.160261 1.17722,0.463217 1.49155,0.673234 1.54807,1.034354 3.64717,3.317779 4.68764,5.09928 0.40795,0.6985 1.10603,1.752781 1.55129,2.342846 1.04178,1.380589 2.96345,3.325068 3.55926,3.60151 0.52664,0.244353 1.51025,0.285903 1.72335,0.0728 0.17944,-0.179445 1.33932,-0.666413 2.56854,-1.078392 1.15832,-0.388214 2.95746,-0.517711 4.3813,-0.315352 1.73609,0.246736 3.2494,0.767176 7.30961,2.513843 0.73343,0.315511 1.6764,0.715353 2.0955,0.888537 0.4191,0.173182 0.93345,0.389586 1.143,0.480897 0.20955,0.09131 0.55495,0.202573 0.76754,0.24725 0.52317,0.109941 0.81899,-0.225809 1.32489,-1.503734 0.95298,-2.407272 2.38595,-3.787898 4.21641,-4.062393 0.3181,-0.0477 0.6861,-0.168295 0.81777,-0.267983 0.13166,-0.09969 0.31312,-0.183069 0.40324,-0.18529 0.0901,-0.0022 0.37585,-0.218352 0.635,-0.480289 0.37938,-0.383494 1.71642,-1.551908 2.67072,-2.333918 0.42097,-0.344968 1.85693,-1.149152 2.46384,-1.379822 0.96678,-0.367458 1.83637,-0.330653 2.97679,0.12599 1.09105,0.43688 1.2307,0.453732 1.53555,0.1853 0.48033,-0.422945 2.2974,-1.541308 3.07975,-1.895511 0.7918,-0.358475 0.894,-0.372802 2.50268,-0.350867 0.92244,0.01258 1.70934,-0.0292 1.74868,-0.09283 0.15243,-0.246644 1.52789,-0.769501 2.51935,-0.957685 0.57189,-0.108547 1.83989,-0.252345 2.81779,-0.319551 0.9779,-0.06721 2.66383,-0.241461 3.7465,-0.387232 1.08268,-0.145771 2.31533,-0.310996 2.73923,-0.367165 0.4239,-0.05617 0.95841,-0.199179 1.18779,-0.317799 0.34725,-0.179568 0.47896,-0.190037 0.78677,-0.06254 0.23398,0.09692 0.60806,0.121516 1.01901,0.067 l 0.6493,-0.08613 -0.077,0.355753 c -0.0424,0.195664 -0.13912,0.955828 -0.21503,1.689253 -0.21125,2.041047 0.0307,3.752867 0.77724,5.49861 0.56105,1.312019 0.67823,2.686648 0.50563,5.93139 -0.24473,4.600534 -0.53286,6.682297 -1.10244,7.965495 -0.17333,0.390484 -0.21546,0.930029 -0.22588,2.893005 -0.0146,2.757415 -0.0735,2.986759 -1.20729,4.706432 -0.48229,0.731491 -0.65228,1.129356 -0.76879,1.79936 -0.0823,0.473115 -0.36929,1.317408 -0.63784,1.876208 -1.27773,2.658806 -5.91112,7.413412 -9.75964,10.014954 -0.6053,0.40917 -1.19625,0.82847 -1.31323,0.93178 -0.28571,0.25231 -0.5841,2.15338 -0.87871,5.59824 -0.25583,2.991427 0.39527,10.886067 1.10855,13.441397 0.35151,1.25928 1.97257,4.24729 3.9195,7.22463 1.58213,2.41945 1.81218,3.39677 1.0737,4.56123 -0.54007,0.85161 -1.55513,1.89501 -2.3692,2.43536 -0.37846,0.25121 -1.01324,0.72395 -1.41063,1.05053 -0.39739,0.32659 -1.12258,0.84433 -1.61153,1.15053 -1.87485,1.17413 -2.32152,1.47298 -3.46075,2.31552 -0.6477,0.47902 -1.17475,0.96189 -1.17475,1.07628 0,0.11411 0.24966,0.45712 0.55479,0.76226 0.84027,0.84027 1.20637,0.74948 1.62053,-0.40188 0.0259,-0.0721 0.27578,-0.49917 0.55518,-0.94897 0.70042,-1.12757 2.36227,-2.71528 3.10556,-2.96701 0.31759,-0.10756 1.07709,-0.36648 1.68777,-0.57537 0.61068,-0.2089 1.57221,-0.44735 2.13672,-0.52989 1.38282,-0.2022 4.90675,-0.0913 6.51317,0.20503 1.03223,0.19039 1.32117,0.20348 1.651,0.0748 0.21988,-0.0858 0.99986,-0.18795 1.73328,-0.22702 1.59116,-0.0848 2.06999,0.0752 3.175,1.06065 0.99737,0.88945 1.33352,1.10264 2.65634,1.68477 2.26104,0.99498 7.38329,2.52127 9.15466,2.72783 0.38418,0.0448 0.91282,0.11266 1.17475,0.15082 l 0.47625,0.0694 -0.004,0.78259 -0.004,0.78259 -1.144,1.27 c -0.62921,0.6985 -1.72303,1.98437 -2.43073,2.8575 -2.11645,2.61119 -2.62777,3.52943 -3.00552,5.3975 -0.53422,2.64177 -1.35702,4.24617 -3.19143,6.223 -0.72098,0.77696 -1.12122,1.46292 -1.64193,2.81404 -0.45517,1.18107 -0.64319,1.39059 -3.24734,3.61839 -2.36803,2.0258 -3.93056,2.96763 -5.44125,3.27972 -1.0396,0.21477 -1.54243,0.44811 -2.15557,1.00029 -0.82291,0.74109 -1.61707,1.33986 -2.27743,1.71713 -0.33179,0.18955 -0.60325,0.43325 -0.60325,0.54156 0,0.1083 0.31972,0.54881 0.71049,0.97889 0.79461,0.87457 1.1765,1.55004 1.57668,2.78868 0.17253,0.53404 0.5249,1.18004 0.96386,1.76704 1.37733,1.84178 2.20837,4.11514 2.21206,6.05122 0.002,0.93604 0.0474,1.17159 0.31109,1.60504 1.12221,1.84494 1.50598,2.94661 1.84527,5.29724 0.30915,2.14174 0.32893,4.52072 0.0526,6.33264 -0.16507,1.08264 -0.18617,1.91473 -0.11564,4.56262 0.10762,4.04078 -0.0138,5.30568 -0.69873,7.27716 -0.57615,1.65846 -1.11605,2.72649 -2.24318,4.43748 -1.06864,1.62221 -1.16901,1.64855 -2.28901,0.60085 -1.20145,-1.12391 -1.60845,-1.27345 -3.82107,-1.40397 -2.40077,-0.1416 -3.7916,-0.39077 -5.32064,-0.95319 -0.68657,-0.25253 -1.47631,-0.54349 -1.75496,-0.64659 -0.27865,-0.10309 -1.22163,-0.24228 -2.0955,-0.30931 -2.31777,-0.17779 -3.75331,-0.44771 -5.4328,-1.02152 -1.32447,-0.45253 -1.69471,-0.52272 -3.33156,-0.63163 -2.90626,-0.19334 -3.81563,-0.47957 -5.45172,-1.71597 -0.4489,-0.33924 -1.05286,-0.79555 -1.3421,-1.014 -0.28925,-0.21846 -1.20783,-0.76921 -2.04129,-1.22388 -2.53769,-1.38437 -3.17705,-1.84853 -4.6133,-3.34915 -1.23162,-1.28682 -2.14208,-2.54922 -2.87282,-3.98328 -0.50243,-0.98603 -2.5905,-3.27545 -2.84431,-3.11859 -0.0938,0.058 -0.13846,1.08038 -0.13846,3.16971 0,3.30857 -0.049,3.63118 -0.76344,5.0317 -0.28266,0.55406 -0.28373,0.57394 -0.0746,1.39089 0.27206,1.06268 0.45498,2.69606 0.4555,4.06729 2.5e-4,0.59372 0.0661,1.93675 0.14641,2.9845 0.12902,1.68332 0.12119,2.00106 -0.0672,2.7305 -0.23211,0.89859 -0.69132,1.88671 -1.47795,3.18023 -0.42239,0.69459 -0.52685,1.00681 -0.63736,1.905 -0.18285,1.48617 -0.59606,3.17649 -0.84331,3.44969 -0.25473,0.28147 -0.78311,0.29818 -0.88677,0.028 -0.0422,-0.11002 -0.014,-0.41006 0.0628,-0.66675 0.14608,-0.48859 0.34703,-1.98845 0.51655,-3.85553 0.0551,-0.60655 0.18564,-1.2352 0.29014,-1.397 0.37918,-0.58708 0.83944,-2.22743 0.97341,-3.46918 0.0754,-0.6985 0.16927,-2.38443 0.20868,-3.7465 0.0603,-2.08227 0.0329,-2.71079 -0.17172,-3.94825 -0.13387,-0.80948 -0.34001,-1.6586 -0.45809,-1.88693 -0.2297,-0.44421 -0.1801,-0.9388 0.12852,-1.28146 0.0967,-0.10733 0.306,-0.4788 0.46518,-0.8255 0.28351,-0.61747 0.28859,-0.70563 0.24849,-4.31336 -0.0578,-5.20037 0.021,-5.05661 -3.41291,-6.22712 -1.44408,-0.49224 -2.02957,-0.67197 -4.2908,-1.31719 -2.88636,-0.82361 -3.71634,-1.08599 -4.93021,-1.55859 -0.68596,-0.26709 -1.32306,-0.4856 -1.41577,-0.4856 -0.0927,0 -0.67365,0.64158 -1.29097,1.42574 -0.61732,0.78415 -1.42792,1.76813 -1.80134,2.18663 -0.58764,0.65859 -0.6691,0.81268 -0.60585,1.14601 0.0402,0.21181 0.12788,0.98519 0.19485,1.71862 0.15375,1.68376 0.81521,4.47541 1.34761,5.68755 0.10075,0.22939 0.18318,0.47906 0.18318,0.55484 0,0.21224 1.33753,2.9564 2.06423,4.23511 1.36437,2.40074 3.78326,5.84905 5.86915,8.3669 0.58819,0.70999 1.50548,2.11207 1.43071,2.18684 -0.12109,0.12109 -0.59616,-0.30077 -1.61709,-1.43595 -0.99419,-1.10545 -1.11576,-1.25586 -2.66368,-3.29525 -1.48671,-1.95886 -4.06724,-5.90839 -4.06724,-6.22508 0,-0.0345 -0.19715,-0.3991 -0.43811,-0.81024 -0.24096,-0.41113 -0.61579,-1.1637 -0.83296,-1.67237 -0.21718,-0.50866 -0.44959,-1.03915 -0.51647,-1.17885 -0.39668,-0.82859 -1.16745,-3.46242 -1.2822,-4.3815 -0.12665,-1.01441 -0.0814,-2.54672 0.0985,-3.33375 0.109,-0.47691 -0.25229,-0.47077 -0.8416,0.0143 -0.24293,0.19997 -0.94489,0.63547 -1.55993,0.96781 l -1.11824,0.60422 -1.86626,0.1084 c -1.17495,0.0682 -2.68322,0.058 -4.07174,-0.0278 -1.885611,-0.11643 -2.232201,-0.10946 -2.389741,0.0481 -0.26031,0.26032 -0.39887,1.9624 -0.27269,3.34991 0.13945,1.53343 0.68937,3.01095 1.695461,4.5553 0.22752,0.34925 0.54597,1.00647 0.70766,1.4605 0.69113,1.94063 1.75577,3.25801 3.24304,4.01291 0.5305,0.26926 1.07321,0.6338 1.20603,0.81008 1.46543,1.94491 1.97365,2.32482 3.74786,2.80162 1.02932,0.2766 1.17979,0.36097 2.03618,1.14164 0.91556,0.83459 2.49425,1.96137 3.59818,2.56821 0.31433,0.17277 0.77153,0.43365 1.016,0.57971 0.24448,0.14608 0.75883,0.4322 1.143,0.63584 2.94684,1.56206 4.16474,2.35028 5.78325,3.74292 2.4279,2.08907 2.76721,2.48952 2.27087,2.67998 -0.25445,0.0976 -0.89324,0.0785 -1.38662,-0.0417 z m -91.035991,-6.35363 c 0.43175,-0.13537 1.14612,-0.43326 1.5875,-0.66199 0.80125,-0.4152 0.80625,-0.41598 3.2155,-0.49677 2.79452,-0.0937 3.46622,-0.26311 4.94067,-1.24596 1.75525,-1.17004 1.43742,-1.09153 2.57082,-0.63507 0.88965,0.3583 1.14169,0.40279 2.331,0.4115 1.12679,0.008 1.48406,-0.0421 2.30467,-0.32503 0.53414,-0.18414 1.07707,-0.39608 1.2065,-0.471 0.12944,-0.0749 0.37821,-0.19418 0.55284,-0.26506 0.17462,-0.0709 0.71755,-0.38269 1.20649,-0.6929 1.47653,-0.93676 1.82065,-1.09137 2.83578,-1.27404 2.38508,-0.42917 4.64436,-1.76325 5.91951,-3.49543 0.5006,-0.68001 1.11032,-1.97583 1.26988,-2.69881 0.0428,-0.19386 0.27636,-0.57225 0.51906,-0.84089 0.38213,-0.42298 0.44127,-0.57523 0.44127,-1.13596 v -0.64751 l 0.92075,-0.42578 c 1.16976,-0.54091 1.6148,-0.99245 2.25849,-2.29148 0.49975,-1.00852 0.51265,-1.06581 0.37738,-1.67558 -0.27895,-1.25737 -1.33944,-2.65248 -3.16672,-4.16589 -0.30944,-0.25627 -0.6768,-0.46596 -0.81636,-0.46596 -0.13956,0 -0.88651,0.19311 -1.65989,0.42913 -4.26939,1.30296 -7.33038,1.79264 -10.67714,1.70809 -1.17239,-0.0296 -1.64336,0 -1.62462,0.10094 0.0145,0.0784 0.0842,0.50151 0.15481,0.94011 0.0736,0.4569 0.23236,0.91124 0.37177,1.06386 0.13384,0.14649 0.28524,0.40924 0.33646,0.58387 0.0512,0.17462 0.16402,0.40322 0.25069,0.508 0.29312,0.35439 2.19776,4.37525 2.49658,5.2705 0.24971,0.74813 0.29695,1.15062 0.29817,2.54 0.001,1.52437 -0.0266,1.72086 -0.36365,2.56188 -0.37818,0.94352 -1.58425,2.49767 -1.41208,1.81962 0.0443,-0.17463 0.13552,-0.53782 0.20263,-0.80709 0.0671,-0.26928 0.20138,-0.64307 0.29838,-0.83065 0.097,-0.18758 0.2427,-0.91025 0.32378,-1.60592 0.12205,-1.04719 0.11446,-1.46153 -0.0441,-2.40784 -0.27593,-1.64665 -0.54735,-2.36798 -2.03093,-5.3975 -0.92087,-1.88045 -1.11197,-2.09319 -1.34047,-1.49225 -0.0598,0.15716 -0.23927,0.62865 -0.39892,1.04775 -0.99989,2.62494 -2.53735,5.26022 -4.26613,7.3124 -1.1558,1.37202 -3.82888,3.94742 -5.0341,4.85015 -1.92742,1.44368 -3.19779,2.23725 -3.3453,2.08973 -0.099,-0.099 0.3906,-0.58869 1.47454,-1.47493 3.34423,-2.73427 6.86021,-6.70085 8.36573,-9.43785 1.18112,-2.14726 1.692,-3.39432 2.17451,-5.308 0.1497,-0.59373 0.325,-1.27953 0.38956,-1.524 0.0953,-0.36105 0.0772,-0.47431 -0.0965,-0.60325 -0.11762,-0.0873 -0.2848,-0.15875 -0.3715,-0.15875 -0.34467,0 -3.27482,-0.89613 -3.46464,-1.0596 -0.11147,-0.096 -0.54331,-0.32781 -0.95964,-0.51516 -0.72858,-0.32788 -4.88456,-2.74615 -5.27553,-3.06973 -0.10478,-0.0867 -0.73343,-0.4345 -1.397,-0.77284 l -1.2065,-0.61517 h -1.97343 c -2.1996,0 -2.18493,0.004 -3.14934,-0.96102 -0.67908,-0.67986 -1.12368,-1.53352 -1.23475,-2.3708 -0.11262,-0.84891 -0.25499,-1.06445 -0.49537,-0.74995 -0.45022,0.58903 -0.60945,3.38569 -0.27395,4.8114 0.1599,0.67947 0.15009,0.81042 -0.14269,1.905 -0.58519,2.18781 -0.50236,4.60187 0.21463,6.25537 0.55099,1.27065 0.55684,1.30115 0.37171,1.93832 -0.12653,0.43547 -0.17287,1.39101 -0.16776,3.45918 0.007,2.99887 0.0843,3.56101 0.80785,5.9055 0.72589,2.35203 0.8505,4.28698 0.38806,6.026 -0.13836,0.52029 -0.22012,1.04503 -0.1817,1.1661 0.0926,0.29173 0.98247,0.5963 1.77274,0.60674 0.34925,0.005 0.98825,-0.10238 1.42,-0.23773 z m 2.4535,-11.27586 c 0,-0.10591 0.71854,-0.69711 1.016,-0.83595 0.10477,-0.0489 0.44767,-0.25898 0.762,-0.46684 0.31432,-0.20786 0.72866,-0.44113 0.92075,-0.51837 0.19208,-0.0772 0.34924,-0.19492 0.34924,-0.2615 0,-0.0666 0.19612,-0.203 0.43582,-0.30315 0.2397,-0.10015 0.47167,-0.24011 0.5155,-0.31101 0.0438,-0.0709 0.20489,-0.12867 0.35793,-0.12832 0.25092,0 0.23391,0.0411 -0.17319,0.41275 -0.54295,0.49568 -1.08497,0.85321 -2.75417,1.81672 -0.43595,0.25163 -0.82508,0.51003 -0.86475,0.57422 -0.0862,0.13949 -0.56514,0.15767 -0.56513,0.0214 z m 25.17774,-7.86566 c -0.0873,-0.15256 -0.15875,-0.35917 -0.15875,-0.45912 0,-0.0999 -0.11429,-0.32702 -0.25399,-0.50463 -0.28536,-0.36276 -0.31409,-0.47334 -0.12302,-0.47334 0.072,0 0.16928,0.10001 0.21608,0.22225 0.0468,0.12224 0.19246,0.30936 0.32369,0.41582 0.17005,0.13794 0.22657,0.32041 0.19668,0.635 -0.0401,0.42174 -0.049,0.42906 -0.20069,0.16402 z m -22.19324,-1.81809 c 0.0432,-0.0699 0.19279,-0.127 0.33249,-0.127 0.13969,0 0.21867,0.0572 0.1755,0.127 -0.0432,0.0698 -0.19279,0.127 -0.33248,0.127 -0.1397,0 -0.21868,-0.0572 -0.17551,-0.127 z m 0.73026,-0.29238 c 0.0267,-0.0837 0.30191,-0.23984 0.61162,-0.34705 0.30971,-0.10721 0.69068,-0.26584 0.84659,-0.35251 0.38226,-0.21248 2.70103,-0.36504 2.70103,-0.17771 0,0.21679 -0.15809,0.27018 -1.22527,0.41379 -0.54848,0.0738 -1.22583,0.21286 -1.50523,0.30897 -0.75748,0.26059 -1.48775,0.33956 -1.42874,0.15451 z m 135.099881,16.13563 c 0.28882,-0.46952 0.74588,-1.8837 0.91327,-2.82575 0.062,-0.34925 0.1683,-2.49238 0.23608,-4.7625 0.0678,-2.27013 0.15512,-4.89225 0.19406,-5.82693 0.0697,-1.67202 -0.097,-2.93403 -0.59562,-4.51077 -0.064,-0.20251 -0.11757,-0.88831 -0.11895,-1.524 -0.005,-2.25339 -0.36325,-3.69867 -1.60661,-6.47985 -0.48319,-1.08078 -0.67688,-1.67265 -0.67688,-2.06834 0,-0.30487 -0.12296,-1.04457 -0.27325,-1.64379 -0.22568,-0.89982 -0.38909,-1.2424 -0.93866,-1.9678 -0.48116,-0.63511 -0.68919,-1.03683 -0.75126,-1.45077 -0.20741,-1.38314 -0.98085,-2.92968 -1.75856,-3.51636 -0.22318,-0.16835 -0.77847,-0.51325 -1.23402,-0.76645 -0.81601,-0.45357 -0.83693,-0.47872 -1.41675,-1.7039 -0.57413,-1.21316 -1.65345,-2.80218 -2.73856,-4.03181 -0.66204,-0.75022 -0.73926,-0.70706 -1.30211,0.72781 -1.45796,3.71677 -2.93795,6.2141 -4.75918,8.03066 -1.29271,1.2894 -2.4265,1.95824 -3.93981,2.32416 -1.1575,0.27989 -1.19281,0.46555 -0.23107,1.2149 4.43051,3.45204 5.29832,4.17435 8.36687,6.96403 3.97026,3.60946 7.13121,7.42355 8.55585,10.32371 0.30881,0.62865 0.63685,1.29469 0.72899,1.48009 0.19527,0.39294 0.21838,0.74241 0.0491,0.74241 -0.0651,0 -0.1589,-0.12748 -0.20835,-0.2833 -0.0495,-0.1558 -0.18777,-0.42727 -0.30738,-0.60325 -0.1196,-0.17597 -0.49581,-0.74858 -0.83602,-1.27245 -0.6773,-1.04296 -2.31844,-3.27011 -2.85431,-3.8735 -2.37693,-2.67645 -5.12656,-5.42934 -6.85149,-6.85961 -0.31433,-0.26065 -0.85725,-0.71956 -1.2065,-1.01984 -1.31894,-1.13398 -5.362,-4.21548 -6.858,-5.22696 -0.4191,-0.28337 -0.87087,-0.63646 -1.00394,-0.78465 -0.31005,-0.3453 -0.80994,-0.34359 -1.5004,0.005 -0.88503,0.44699 -2.90872,1.64109 -3.58269,2.114 -0.34429,0.24159 -1.05867,0.73298 -1.5875,1.09199 -0.52881,0.359 -1.93302,1.34293 -3.12047,2.18651 -3.7088,2.63477 -7.21265,4.75623 -9.11225,5.51715 -0.52942,0.21206 -0.73025,0.35873 -0.73025,0.53332 0,0.35761 1.4329,2.38359 2.19433,3.10259 0.36474,0.34441 1.085,0.8765 1.60058,1.1824 0.7273,0.43154 0.97797,0.65748 1.11836,1.00808 1.49541,3.73456 2.26145,4.51173 6.49711,6.59152 0.84905,0.41689 2.12849,1.17769 2.84322,1.69067 2.72387,1.955 4.14924,2.52019 6.35576,2.52019 0.9174,0 1.30892,0.0756 2.59815,0.50204 2.31815,0.7667 3.73358,0.92525 5.63133,0.6308 l 0.88398,-0.13715 0.98551,0.5074 c 1.68793,0.86905 3.04929,1.09769 4.29173,0.72078 0.91921,-0.27884 1.13859,-0.24232 1.83075,0.3048 0.80763,0.6384 1.83434,0.9669 3.80328,1.21689 0.86989,0.11044 1.60807,0.22728 1.64042,0.25962 0.17912,0.17911 0.56034,0.007 0.78213,-0.35393 z m -21.96372,-13.38296 c -0.009,-1.25787 0.0258,-1.57071 0.18967,-1.70667 0.18161,-0.15073 0.1918,-0.035 0.10755,1.22261 -0.13685,2.04285 -0.28447,2.28328 -0.29722,0.48406 z m 0.37227,-2.52379 c -0.006,-0.64064 0.34427,-1.98429 0.76132,-2.921 0.12439,-0.2794 0.26451,-0.63659 0.31139,-0.79375 0.0469,-0.15716 0.13158,-0.28575 0.18825,-0.28575 0.0567,0 0.17404,-0.17145 0.26084,-0.381 0.0868,-0.20955 0.20926,-0.381 0.27214,-0.381 0.0629,0 0.17941,-0.14288 0.25898,-0.3175 0.0795,-0.17463 0.19263,-0.3175 0.25127,-0.3175 0.17615,0 0.12023,0.33859 -0.0839,0.508 -0.10477,0.087 -0.19049,0.2543 -0.19049,0.37188 0,0.11758 -0.14288,0.40743 -0.31751,0.64412 -0.17462,0.23669 -0.3175,0.51475 -0.3175,0.61792 0,0.10317 -0.0775,0.27781 -0.17232,0.38808 -0.0948,0.11028 -0.23358,0.4291 -0.30843,0.7085 -0.0749,0.2794 -0.2234,0.7366 -0.3301,1.016 -0.10669,0.2794 -0.19651,0.68281 -0.19957,0.89648 -0.003,0.21365 -0.0895,0.4994 -0.19204,0.635 -0.17211,0.22754 -0.18692,0.19764 -0.19234,-0.38848 z m 18.4128,-4.70406 c -0.94209,-0.82044 -2.55474,-1.96344 -2.77022,-1.96344 -0.0613,0 -0.2102,-0.10916 -0.33094,-0.24258 -0.12074,-0.13342 -0.3582,-0.27739 -0.52768,-0.31992 -0.32517,-0.0816 -0.4001,-0.25468 -0.17145,-0.396 0.23151,-0.14307 2.49664,1.04754 3.47129,1.82459 0.6559,0.52292 1.65739,1.92903 1.37277,1.92739 -0.0502,0 -0.51989,-0.37381 -1.04377,-0.83004 z m -28.21871,-1.01449 c -0.0456,-0.0456 -0.002,-0.31353 0.0979,-0.5954 0.0994,-0.28187 0.18105,-0.60532 0.18135,-0.71877 6.3e-4,-0.23357 0.42642,-1.10123 0.9115,-1.85728 0.34218,-0.53331 0.80017,-0.97639 1.43746,-1.39068 1.20717,-0.78472 2.14056,-1.06466 1.20263,-0.36068 -1.15571,0.86744 -2.75966,2.82838 -3.06812,3.75102 -0.076,0.22735 -0.2373,0.52764 -0.35843,0.66734 -0.12114,0.1397 -0.243,0.329 -0.27081,0.42069 -0.0278,0.0917 -0.0879,0.12937 -0.13348,0.0838 z m 23.98539,-10.68562 c -0.15427,-0.15426 -0.0878,-0.28954 0.10582,-0.21526 0.10478,0.0402 0.19051,0.12414 0.19051,0.18652 0,0.13314 -0.17496,0.15011 -0.29633,0.0287 z m -1.13385,-0.55033 c -0.26064,-0.1397 -0.6098,-0.254 -0.77589,-0.254 -0.1661,0 -0.55207,-0.0903 -0.85772,-0.20071 -0.65364,-0.23608 -3.26606,-0.27855 -3.83423,-0.0623 -0.3847,0.14639 -1.32558,0.18931 -1.19058,0.0543 0.045,-0.045 0.41167,-0.22386 0.81492,-0.39755 0.98254,-0.42321 3.22163,-0.54504 4.09867,-0.22302 0.31433,0.11541 0.77153,0.26917 1.016,0.3417 0.24448,0.0725 0.53023,0.20744 0.635,0.29984 0.10478,0.0924 0.34353,0.20616 0.53056,0.25284 0.39464,0.0985 0.59475,0.44293 0.25733,0.44293 -0.12108,0 -0.4334,-0.1143 -0.69406,-0.254 z m -90.009821,20.19304 c 4.72506,-0.40403 8.66144,-1.57582 12.10839,-3.60445 1.24375,-0.73199 1.98861,-1.28891 1.98861,-1.48688 0,-0.0636 -0.37373,-0.11571 -0.83051,-0.11571 -4.98918,0 -11.27563,-2.19657 -15.61599,-5.45643 -3.1966,-2.40083 -5.57925,-5.30764 -6.79814,-8.29367 -0.36323,-0.88982 -0.44017,-0.96239 -1.78552,-1.68409 -1.11932,-0.60046 -6.67989,-3.36181 -6.7697,-3.36181 -0.0286,0 -0.55766,-0.23315 -1.17579,-0.51811 -1.19525,-0.55102 -2.10532,-0.96093 -2.52085,-1.13544 -0.26174,-0.10992 -0.85729,-0.35803 -3.048,-1.26981 -2.30482,-0.95926 -5.62999,-2.21393 -6.57314,-2.48019 -0.33227,-0.0938 -0.6616,-0.20607 -0.73185,-0.24949 -0.0703,-0.0434 -0.51276,-0.187 -0.98337,-0.31908 -1.08074,-0.30333 -1.19761,-0.20296 -1.09781,0.94278 0.17847,2.04885 0.74822,4.14377 1.58647,5.83327 1.43339,2.88902 4.58542,5.58123 9.38719,8.0178 0.38418,0.19494 1.09856,0.56833 1.5875,0.82975 0.48896,0.26141 1.40336,0.74975 2.03201,1.08519 3.62709,1.93531 6.03795,3.62096 8.07357,5.64493 1.89067,1.87987 2.85606,3.23072 4.17598,5.8434 0.4411,0.87312 0.82761,1.61607 0.85891,1.651 0.19783,0.22071 4.09286,0.30141 6.13204,0.12704 z m -22.987,-4.83152 c 0.45402,-0.0718 1.397,-0.31995 2.0955,-0.55143 3.85943,-1.27904 5.5388,-1.72861 7.0472,-1.8865 0.17391,-0.0182 0.33362,-0.12458 0.35491,-0.23641 0.0916,-0.48101 -2.51495,-2.82864 -4.22711,-3.80723 -1.15179,-0.65831 -2.71775,-1.47442 -3.4925,-1.82014 -1.71352,-0.76463 -4.68187,-2.28838 -5.9055,-3.03149 -2.87905,-1.74842 -4.77491,-3.75956 -6.14818,-6.52201 -0.77585,-1.56069 -1.46085,-4.04905 -1.6723,-6.07492 -0.0727,-0.69635 -0.19912,-1.34678 -0.28096,-1.44539 -0.0818,-0.0986 -0.52135,-0.42548 -0.97668,-0.72637 -0.45534,-0.30089 -1.15615,-0.84058 -1.55735,-1.19931 -0.41422,-0.37037 -0.82336,-0.63417 -0.94673,-0.61041 -0.11949,0.023 -0.43993,0.44161 -0.71211,0.93021 -1.78589,3.20606 -2.95896,4.72508 -5.18751,6.71737 -1.89455,1.6937 -1.98831,1.98612 -1.42938,4.45801 0.11056,0.48895 0.30349,1.20332 0.42873,1.5875 0.63321,1.94237 1.11358,4.1731 1.24436,5.7785 l 0.0931,1.143 1.4605,0.0865 c 1.02674,0.0608 1.77057,0.18472 2.50457,0.41711 1.10329,0.34932 3.60493,1.578 4.98843,2.45005 2.91918,1.84004 6.05601,3.45302 7.81503,4.01852 1.30909,0.42087 3.08622,0.54902 4.50397,0.3248 z m 48.831501,-0.88853 c 3.86351,-0.25237 5.97241,-0.55587 7.34727,-1.05737 1.05673,-0.38546 2.00244,-1.30542 4.08314,-3.97195 3.60764,-4.62341 5.26883,-6.49046 7.42135,-8.34097 1.83259,-1.57547 4.10895,-3.24736 5.36924,-3.94346 2.16841,-1.19769 2.63417,-1.41212 4.48099,-2.06303 2.55816,-0.90161 5.28223,-1.0801 7.366,-0.48262 1.78575,0.51201 2.05011,0.52442 2.47616,0.11624 0.32145,-0.30797 0.37072,-0.46403 0.45108,-1.42875 0.0874,-1.04958 0.76876,-3.42739 1.61036,-5.62008 0.89453,-2.3306 1.84452,-4.78597 2.34163,-6.05223 1.06574,-2.71473 1.74754,-5.07737 2.19828,-7.61784 0.21514,-1.21254 0.261,-1.89069 0.22279,-3.29462 -0.0712,-2.61792 -0.54961,-4.7423 -0.9688,-4.30237 -0.0637,0.0669 -0.61404,1.09311 -1.22295,2.28056 -4.19469,8.18016 -7.99566,12.45277 -12.18271,13.6944 -0.73335,0.21746 -1.22716,0.26433 -2.73634,0.2597 -1.01282,-0.003 -2.21235,-0.0772 -2.66563,-0.16472 -0.74115,-0.14306 -1.83061,-0.32829 -3.77715,-0.64218 -2.15638,-0.34774 -5.82212,-0.25024 -7.37329,0.1961 -1.76657,0.50832 -2.81487,0.88636 -3.58293,1.2921 -1.16684,0.61641 -3.00443,1.96427 -4.6355,3.40012 -2.8424,2.50221 -3.97035,3.46719 -5.334,4.5633 -1.31501,1.05703 -1.60843,1.27194 -2.907421,2.12952 -0.64418,0.42527 -2.56436,1.26891 -3.51724,1.54531 -0.44651,0.12952 -1.18648,0.20585 -1.99555,0.20585 -1.27765,0 -1.72234,-0.10265 -3.00978,-0.69479 -0.82027,-0.37726 -1.52683,-0.47882 -2.26507,-0.32556 -0.3872,0.0804 -0.84507,0.25712 -1.0175,0.39275 -0.17242,0.13563 -0.3448,0.2466 -0.38306,0.2466 -0.0723,0 -4.22572,3.11293 -5.66887,4.24877 -0.45403,0.35734 -1.36843,0.99059 -2.032,1.40722 -1.13024,0.70962 -1.6454,0.98267 -2.83266,1.50139 -0.78504,0.34299 -2.68513,0.71662 -3.64434,0.71662 -1.03528,0 -2.77463,-0.36059 -4.01944,-0.83328 -1.10231,-0.41858 -1.44156,-0.4986 -1.44156,-0.34004 0,0.53383 1.31904,2.58351 2.56422,3.9846 1.42776,1.60651 4.09677,3.56259 6.36804,4.66702 4.96169,2.41269 10.88723,3.84587 17.38106,4.20384 1.41855,0.0782 2.6649,0.16113 2.76967,0.18429 0.42913,0.0949 2.85704,0.064 4.762511,-0.0604 z m 29.78149,-3.04681 c 1.11187,-0.41554 2.45245,-1.12357 3.19122,-1.68547 5.61298,-4.26918 7.98328,-5.95779 11.09629,-7.90503 0.9779,-0.61169 2.09232,-1.32353 2.47649,-1.58186 0.9485,-0.63781 1.72643,-0.85657 3.302,-0.92854 1.26198,-0.0576 2.52555,-0.3509 3.23851,-0.75158 0.13969,-0.0785 0.3683,-0.20552 0.50799,-0.28223 1.59849,-0.87779 2.76157,-2.18436 3.73603,-4.19697 0.40584,-0.8382 0.97969,-2.2098 1.27523,-3.048 0.67635,-1.91822 0.9367,-2.57101 1.46886,-3.683 1.2739,-2.6619 2.09922,-5.514 2.71955,-9.398 0.3884,-2.43193 0.53458,-4.13759 0.6049,-7.05869 0.056,-2.3251 0.0395,-2.6371 -0.14915,-2.82575 -0.11664,-0.11663 -0.3554,-0.21206 -0.53058,-0.21206 -1.09489,0 -5.67892,-2.57123 -6.89856,-3.86948 -0.16613,-0.17684 -0.40078,-0.32152 -0.52144,-0.32152 -0.28518,0 -2.10605,1.41151 -3.8337,2.97179 -1.27333,1.14999 -4.14667,4.23877 -4.57609,4.9192 -0.1043,0.16528 -0.22952,0.64341 -0.27825,1.06251 -0.20983,1.80438 -1.58231,6.38238 -3.03824,10.13422 -0.30366,0.78253 -0.75384,1.99428 -1.00042,2.69278 -0.24657,0.6985 -0.65603,1.85276 -0.90991,2.56503 -0.25388,0.71227 -0.53707,1.56952 -0.62932,1.905 -0.56057,2.03864 -0.83435,3.13124 -0.96462,3.84965 -0.19198,1.05872 -0.39663,1.43324 -0.98096,1.79526 -0.42324,0.26222 -0.63536,0.29686 -1.81283,0.296 -0.73342,-5.1e-4 -1.98807,-0.10929 -2.78811,-0.2417 -1.39838,-0.23142 -1.50765,-0.23227 -2.82609,-0.0221 -3.1301,0.49907 -5.92264,1.91134 -9.87053,4.99181 -2.04388,1.59481 -6.99426,6.1573 -6.99426,6.44624 0,0.30304 0.50165,0.5978 3.12612,1.83681 3.19395,1.50784 6.03488,2.50848 7.98637,2.81295 1.06233,0.16575 3.08898,0.0259 3.8735,-0.26732 z M 75.535729,171.37087 c 1.07365,-0.29618 2.75563,-1.09083 3.89205,-1.83877 0.70725,-0.46549 3.00295,-2.17129 4.60518,-3.42186 1.21497,-0.9483 2.34664,-1.77509 2.84563,-2.07901 0.26193,-0.15954 0.47625,-0.36698 0.47625,-0.46099 0,-0.14965 -1.21291,-0.82436 -1.48194,-0.82436 -0.0988,0 -0.94456,-0.31356 -2.07406,-0.76899 -1.04312,-0.42059 -2.59569,-1.03529 -3.175,-1.25706 -2.03226,-0.77795 -5.9038,-2.60678 -7.85177,-3.709 -0.72119,-0.40807 -1.34984,-0.74504 -1.397,-0.74882 -0.0472,-0.004 -0.40006,-0.21898 -0.78423,-0.47822 -0.64776,-0.43711 -0.76078,-0.59394 -1.55564,-2.15872 -0.47143,-0.92805 -1.10712,-2.07016 -1.41266,-2.53803 -3.0538,-4.67627 -7.65153,-8.45374 -14.04971,-11.54314 -2.11734,-1.02237 -3.81283,-1.81702 -3.87685,-1.81702 -0.22815,0 -3.37392,-1.61659 -3.64496,-1.87312 -1.4894,-1.40969 -0.0435,-3.4862 5.81446,-8.3503 3.23975,-2.69009 4.37435,-3.7346 4.37435,-4.027 0,-0.13706 -0.33556,-0.6301 -0.74569,-1.09564 -3.68681,-4.18492 -5.12667,-8.34025 -4.72221,-13.62794 0.0814,-1.06366 0.17467,-1.97722 0.20737,-2.03012 0.0327,-0.0529 0.11795,-0.4281 0.18946,-0.83378 0.19631,-1.11372 0.85979,-3.31193 1.33425,-4.4206 0.36763,-0.85905 0.81582,-2.060597 0.81582,-2.187127 0,-0.22472 -0.363,-0.29332 -1.12141,-0.2119 -2.18555,0.23462 -4.46254,1.450287 -6.60625,3.527017 -2.6559,2.57293 -5.78153,6.86421 -8.7987,12.08001 -0.36365,0.62865 -0.8428,1.42875 -1.06477,1.778 -0.22197,0.34925 -1.08195,1.778 -1.91107,3.175 -2.45625,4.1386 -4.00793,6.41523 -6.59307,9.67338 -1.56673,1.9746 -3.06151,3.66578 -4.38236,4.95814 -0.74153,0.72555 -0.89137,0.94143 -0.89137,1.28429 0,1.01648 1.28423,2.69453 4.82849,6.30919 2.96428,3.02317 4.5485,4.71151 5.88451,6.27127 1.46454,1.70983 1.57182,1.86438 2.8758,4.14273 1.3187,2.30406 1.8843,3.10037 2.85689,4.02222 1.82398,1.72881 3.8356,2.68581 9.79793,4.6612 4.23292,1.40242 7.22488,2.50749 10.01488,3.69897 0.62865,0.26847 1.74513,0.74586 2.48105,1.06087 2.5415,1.08789 4.52041,2.08445 6.47716,3.26184 2.39062,1.43845 3.70146,2.10593 4.73565,2.41139 1.07679,0.31803 2.44916,0.31274 3.63354,-0.014 z m 20.01234,-8.10657 c 1.07234,-0.089 1.42507,-0.17827 2.24976,-0.56962 1.20845,-0.57346 2.207681,-1.24107 3.822361,-2.5538 0.68633,-0.55798 1.60663,-1.30025 2.04512,-1.6495 0.43849,-0.34925 1.29924,-1.03505 1.91277,-1.524 1.54997,-1.23525 2.17007,-1.77776 4.06526,-3.55659 4.22319,-3.96392 7.088,-5.98474 11.43,-8.06265 3.33676,-1.59685 3.70004,-1.75869 4.572,-2.03689 1.49594,-0.47729 3.73777,-1.38069 5.207,-2.09829 4.44171,-2.16943 6.85894,-4.73644 8.12824,-8.63188 0.8714,-2.67429 1.05268,-5.13324 0.71608,-9.7132 -0.45583,-6.20243 -0.009,-11.24398 1.31682,-14.858 0.11511,-0.31378 0.25247,-0.6281 0.30524,-0.6985 0.16753,-0.22349 0.62644,-1.73759 0.89485,-2.95241 0.35414,-1.60281 0.34486,-2.85981 -0.0265,-3.58634 -0.41885,-0.819487 -1.06701,-1.009627 -3.90525,-1.145587 -2.89022,-0.13845 -5.55427,-0.57772 -7.493,-1.2355 -1.49842,-0.50839 -3.48461,-1.50785 -4.1275,-2.07698 -0.40403,-0.35767 -0.91386,-0.43866 -1.00221,-0.15919 -0.26585,0.84102 -0.76385,4.437387 -0.96871,6.995757 -0.31843,3.97664 -0.39452,4.96867 -0.57228,7.46125 -0.10462,1.46685 -0.15426,2.83845 -0.11031,3.048 0.0439,0.20955 0.54466,1.32412 1.1127,2.47682 1.66664,3.38201 1.87154,4.03453 1.87426,5.96868 0.004,2.4899 -0.84936,4.42407 -3.13597,7.112 -1.13387,1.33287 -1.9018,1.99643 -7.48448,6.46724 -2.44475,1.95785 -5.33082,4.28014 -6.4135,5.16066 -1.08267,0.88051 -2.62572,2.13459 -3.429,2.78683 -0.80327,0.65224 -2.34632,1.90815 -3.429,2.7909 -1.08267,0.88275 -2.39712,1.86756 -2.921,2.18847 -1.626661,0.99643 -1.811321,1.11376 -2.921001,1.85592 -1.01757,0.68055 -1.12375,0.72194 -1.85086,0.72147 -1.42325,-8.9e-4 -3.93413,-0.98485 -6.46763,-2.53447 -4.57357,-2.79743 -6.64795,-3.93455 -8.52244,-4.67176 -3.54828,-1.3955 -6.34827,-1.93826 -9.99901,-1.93826 -1.31096,0 -1.86777,-0.0451 -1.96058,-0.15875 -0.0713,-0.0873 -0.2521,-0.75883 -0.40179,-1.49225 -0.78284,-3.83576 -1.8137,-6.40991 -3.68229,-9.19499 -1.06282,-1.5841 -3.20641,-3.81281 -4.94212,-5.13835 -1.31943,-1.00763 -1.63133,-1.08996 -2.35209,-0.62091 -0.24149,0.15716 -0.97269,0.62597 -1.62489,1.04179 -4.60728,2.93752 -7.5993,5.98795 -7.5993,7.74767 0,0.63063 0.32329,1.28184 0.82712,1.66613 0.37553,0.28643 3.40107,1.70466 3.63659,1.70466 0.12731,0 2.12692,0.94093 4.06991,1.91512 1.61209,0.80828 4.12922,2.3297 5.15573,3.11626 0.35395,0.27122 1.03848,0.7959 1.52118,1.16597 0.82907,0.63563 3.03343,2.78663 3.99587,3.89915 1.01233,1.17019 2.49288,3.34729 3.09005,4.54381 0.86452,1.73224 1.98804,2.74896 5.51655,4.99218 1.21104,0.76991 4.80382,2.59382 6.47701,3.28813 0.45402,0.1884 0.99695,0.41851 1.2065,0.51135 0.82952,0.36751 4.64157,1.52151 5.461,1.65318 0.2794,0.0449 0.81585,0.16654 1.19213,0.27033 0.37627,0.1038 1.34782,0.23373 2.159,0.28874 2.04051,0.13838 1.96267,0.13792 3.3816,0.0202 z m 73.658261,-1.1351 c 0.48895,-0.26736 1.46235,-0.9229 2.16309,-1.45676 0.98314,-0.74898 1.41818,-0.99932 1.905,-1.09623 2.4232,-0.48235 4.19323,-1.74826 5.81702,-4.16031 0.33776,-0.50172 0.88069,-1.12492 1.2065,-1.38489 1.00104,-0.79872 1.43091,-1.40098 2.33845,-3.27626 0.56237,-1.16204 1.3218,-2.23879 2.5351,-3.59444 0.87869,-0.98176 1.38974,-1.94267 1.96849,-3.70125 1.00816,-3.06335 2.05348,-4.80206 4.1961,-6.97952 0.64612,-0.65662 1.17475,-1.24265 1.17475,-1.30229 0,-0.17409 -0.38638,-0.3239 -1.27,-0.49241 -0.75951,-0.14484 -3.09811,-0.75752 -6.096,-1.59708 -0.66357,-0.18583 -1.5607,-0.41459 -1.9936,-0.50836 -1.0181,-0.22051 -1.25801,-0.35701 -1.91841,-1.09155 -1.0167,-1.13081 -2.4717,-1.7273 -3.86322,-1.58377 -2.2232,0.22931 -2.34274,0.23105 -2.71415,0.0396 -0.62971,-0.32463 -2.8866,-0.72578 -4.08324,-0.72578 -2.22836,0 -4.69099,0.96377 -6.44811,2.52354 -0.98325,0.87281 -2.60127,2.86881 -2.60127,3.20894 0,0.28865 0.26898,0.40128 1.4605,0.61158 1.68082,0.29666 2.9944,0.86984 3.36599,1.46874 0.36164,0.58286 0.42858,2.36308 0.26496,7.0462 -0.26052,7.45579 -0.69142,10.08501 -2.05507,12.53932 -0.45386,0.81689 -0.46196,1.12995 -0.0438,1.69175 0.62201,0.83561 1.56257,2.47842 1.83336,3.20218 0.36649,0.97953 0.51993,1.10911 1.31085,1.10696 0.52078,-0.001 0.84275,-0.10298 1.54668,-0.48789 z m 2.2225,-7.87737 c -0.72378,-0.26257 -1.47957,-0.68159 -1.9685,-1.09137 -0.41798,-0.35031 -0.28721,-0.41943 0.27547,-0.14561 0.19774,0.0962 0.55956,0.26478 0.80404,0.37454 1.09386,0.49114 1.36058,0.61809 1.77799,0.84629 l 0.44451,0.243 -0.381,-0.01 c -0.20956,-0.005 -0.63818,-0.10306 -0.95251,-0.21709 z m 5.6515,-5.99698 c -1.00369,-0.50497 -1.32547,-0.69014 -1.49659,-0.86126 -0.24442,-0.24443 0.37091,-0.16696 0.89192,0.11229 0.26066,0.1397 0.56777,0.254 0.68249,0.254 0.11472,0 0.27668,0.0821 0.35992,0.18233 0.0832,0.10029 0.31487,0.21826 0.51477,0.26217 0.19989,0.0439 0.43154,0.16188 0.51476,0.26216 0.27785,0.33478 -0.64599,0.2015 -1.46727,-0.21169 z m -6.7945,-4.69882 c 0,-0.3835 2.97126,-2.98933 4.39709,-3.85629 1.57572,-0.95811 2.58785,-1.51053 3.41018,-1.86125 0.49072,-0.2093 1.00653,-0.43278 1.14623,-0.49664 0.37953,-0.17347 1.32256,-0.50594 1.9685,-0.69401 0.31433,-0.0915 0.73239,-0.22907 0.92902,-0.30568 0.19664,-0.0766 0.62526,-0.13746 0.9525,-0.13524 0.52543,0.004 0.5687,0.024 0.37008,0.17469 -0.1237,0.0939 -0.44489,0.20583 -0.71375,0.24882 -0.26887,0.043 -0.56043,0.16441 -0.64791,0.26981 -0.0875,0.1054 -0.2529,0.19164 -0.36762,0.19164 -0.11472,0 -0.40776,0.1063 -0.65119,0.23622 -0.24345,0.12993 -0.5855,0.27809 -0.76013,0.32926 -0.30727,0.09 -0.73319,0.27211 -2.00025,0.85507 -1.92129,0.88397 -4.71911,2.67267 -6.9034,4.41346 -0.9968,0.79442 -1.12935,0.86838 -1.12935,0.63014 z m 11.7475,-1.46733 c -0.13969,-0.0295 -0.38258,-0.0812 -0.53975,-0.11469 -0.15716,-0.0335 -0.28575,-0.11649 -0.28575,-0.18434 0,-0.12365 2.40274,-0.0548 3.048,0.0874 0.29753,0.0655 0.30153,0.0764 0.0635,0.17346 -0.26222,0.10688 -1.8368,0.13319 -2.286,0.0382 z m -9.7155,-4.04466 c 0,-0.41376 0.77637,-2.03491 1.45714,-3.04266 0.51417,-0.76116 1.4738,-1.8465 1.6326,-1.8465 0.20533,0 0.0316,0.35319 -0.76969,1.56477 -0.88343,1.3358 -1.15276,1.78393 -1.46385,2.43573 -0.10002,0.20955 -0.27643,0.45943 -0.39202,0.5553 -0.1156,0.0959 -0.21018,0.24965 -0.21018,0.34175 0,0.0921 -0.0572,0.20278 -0.127,0.24595 -0.0723,0.0447 -0.127,-0.0648 -0.127,-0.25434 z m -39.878,12.69848 c 2.2538,-0.47252 4.36201,-2.04372 6.23035,-4.64331 0.85972,-1.1962 2.37991,-3.77539 3.54991,-6.02283 1.36929,-2.63027 1.86553,-3.49355 2.99311,-5.207 0.95324,-1.44852 1.40312,-1.92091 5.42101,-5.69224 3.61768,-3.39568 4.84927,-5.36698 4.81455,-7.70626 -0.008,-0.52388 -0.16301,-1.6383 -0.34495,-2.4765 -0.18194,-0.8382 -0.40702,-1.89716 -0.50019,-2.35323 -0.0932,-0.45608 -0.25301,-1.14188 -0.35519,-1.524 -0.95415,-3.56814 -0.91694,-7.63587 0.0987,-10.79127 0.10117,-0.31433 0.61508,-1.90862 1.142,-3.54288 1.375,-4.264557 1.60844,-5.350557 1.68487,-7.838217 0.1243,-4.04584 -0.47258,-5.370531 -2.90439,-6.445994 -1.17555,-0.519882 -3.53145,-1.167427 -6.27229,-1.724004 -5.45458,-1.107655 -5.69215,-1.165686 -8.89,-2.17151 -2.494,-0.784444 -5.86065,-2.225265 -7.91636,-3.38796 -0.65195,-0.368739 -1.22475,-0.670434 -1.2729,-0.670434 -0.0481,0 -0.37197,-0.187193 -0.71963,-0.415985 -0.34766,-0.228791 -1.08931,-0.697757 -1.64811,-1.042145 -0.5588,-0.34439 -1.61607,-1.064327 -2.3495,-1.599864 -2.04388,-1.492412 -2.21227,-1.558824 -3.74011,-1.4751 -1.42098,0.07787 -2.42684,0.3829 -3.77826,1.14577 -0.83069,0.468925 -1.99243,1.372842 -2.17541,1.692626 -0.21536,0.376386 -0.0251,0.481146 6.20128,3.414609 1.75036,0.824651 4.52261,2.608831 5.13197,3.302859 0.3618,0.412067 0.39236,0.518809 0.39026,1.3634 -0.003,1.06389 -0.22667,2.578573 -0.69903,4.72633 -0.5066,2.303402 -0.76726,4.454972 -0.58173,4.801642 0.27304,0.51019 3.82356,2.29529 5.98203,3.0076 1.55194,0.51215 1.64333,0.52646 4.07917,0.63881 3.95639,0.18249 5.67258,0.51693 6.75446,1.31627 0.19588,0.14471 0.56393,0.57617 0.81789,0.958787 0.41594,0.62662 0.46714,0.79822 0.51599,1.72888 0.0685,1.30445 -0.13354,2.0381 -1.11736,4.05801 -0.69451,1.42592 -1.06808,2.40962 -1.57523,4.14791 -0.6052,2.07436 -0.84943,6.27253 -0.57881,9.94909 0.072,0.9779 0.13577,3.20675 0.14175,4.953 0.0153,4.46489 -0.32267,6.66137 -1.53491,9.97578 -1.3635,3.72796 -2.132,4.53016 -5.53445,5.77713 -1.22236,0.44798 -1.92921,0.72842 -2.54,1.00772 -0.30277,0.13845 -3.3356,1.44573 -4.572,1.97072 -0.1397,0.0593 -0.68262,0.30618 -1.2065,0.54858 -0.52387,0.24239 -1.35255,0.62112 -1.8415,0.84162 -2.72981,1.23104 -5.69403,2.8742 -8.34785,4.62749 -0.52874,0.34932 -0.85185,0.76459 -0.70733,0.9091 0.0267,0.0267 0.61768,-0.0172 1.31334,-0.0974 1.95897,-0.22601 10.28759,-0.18096 12.25034,0.0662 1.6759,0.21109 2.83254,0.18298 4.191,-0.10183 z m -36.161171,-1.24727 c 1.83693,-0.86253 5.277471,-3.25911 9.681681,-6.74398 0.9779,-0.77377 1.95844,-1.54929 2.17898,-1.72337 0.22055,-0.17409 1.39927,-1.11662 2.61939,-2.09452 1.22012,-0.9779 2.66314,-2.1209 3.2067,-2.54 0.54356,-0.4191 1.39366,-1.09416 1.88911,-1.50014 0.49545,-0.40597 1.32944,-1.08932 1.85332,-1.51856 2.34522,-1.92153 3.46142,-2.96616 4.33874,-4.06052 1.20493,-1.50304 2.6326,-3.34245 3.01216,-3.88088 0.81411,-1.15488 0.86122,-3.54933 0.1192,-6.0579 -0.47457,-1.60439 -2.39774,-5.40279 -2.81693,-5.56365 -0.0937,-0.0359 -0.52863,0.17007 -0.96651,0.45783 l -0.79615,0.5232 0.0828,0.76731 c 0.21579,2.00076 0.22601,2.42167 0.0811,3.33921 -0.59293,3.75455 -3.11714,7.04915 -7.8285,10.21773 -2.21634,1.49057 -4.50387,2.72678 -7.45235,4.02734 -1.58327,0.69837 -2.36677,1.01193 -4.53755,1.81593 -0.38417,0.14229 -0.89852,0.3371 -1.143001,0.43292 -0.59019,0.23132 -2.49867,0.8112 -5.1435,1.56282 -3.02171,0.85874 -4.45041,1.12569 -7.90333,1.47678 -0.75623,0.0769 -0.80692,0.064 -1.143,-0.28964 -0.19341,-0.20355 -0.69456,-0.8496 -1.11366,-1.43567 -1.72994,-2.41912 -4.80069,-5.18115 -7.43321,-6.6859 -1.99035,-1.13768 -2.83552,-1.36595 -6.78316,-1.83209 -0.62445,-0.0737 -1.35194,-0.24455 -1.61663,-0.37959 -0.65963,-0.33652 -0.68196,-0.38757 -1.49472,-3.41803 -1.89643,-7.07106 -2.05927,-13.68892 -0.44252,-17.98421 0.67643,-1.79713 1.30299,-2.89628 2.44761,-4.29374 0.98045,-1.19704 0.98665,-1.20336 2.11631,-2.155177 0.48802,-0.41119 0.93797,-0.83439 0.99989,-0.94043 0.0626,-0.10729 0.0751,-1.15578 0.0281,-2.36388 -0.0997,-2.56468 0.0669,-4.90007 0.43058,-6.035987 0.35764,-1.116936 0.93246,-1.770691 2.1898,-2.490504 1.73663,-0.994203 6.61378,-4.16143 8.4149,-5.464644 2.21616,-1.603523 5.6848,-4.677209 5.62553,-4.984984 -0.0339,-0.17585 -1.28774,-1.138245 -1.50946,-1.158574 -0.0412,-0.0038 -0.58414,-0.293859 -1.2065,-0.644622 -2.61592,-1.474332 -4.61548,-1.62368 -7.03707,-0.525604 -0.81611,0.370067 -2.79945,1.720845 -4.74121,3.229068 -6.0498,4.69906 -9.03631,6.885936 -10.87979,7.966731 -0.24448,0.143331 -0.6731,0.40055 -0.9525,0.571597 -1.14765,0.702583 -3.24958,1.622447 -4.7625,2.084198 -0.76472,0.233397 -2.28137,0.472467 -3.4925,0.550522 l -0.508,0.03274 0.0233,0.985277 c 0.0128,0.541903 0.11182,1.399156 0.21999,1.905006 0.10817,0.50584 0.25278,1.51979 0.32136,2.25322 0.0686,0.73342 0.1907,1.87985 0.27139,2.54761 l 0.14672,1.21411 -0.36439,0.7319 c -0.20041,0.40254 -0.46065,0.913457 -0.57829,1.135387 -0.58658,1.10649 -1.31948,3.28039 -1.76305,5.22949 -0.40927,1.79835 -0.41275,5.48563 -0.007,7.3583 0.78626,3.62836 2.02673,6.23738 4.06973,8.55966 0.51032,0.58009 1.2581,1.16921 2.67666,2.10877 3.14381,2.08224 5.27127,4.05326 6.88548,6.37914 1.77942,2.56392 3.1006,5.79974 3.72122,9.11393 0.33217,1.7739 0.32312,1.76025 1.11053,1.67493 2.26301,-0.2452 3.31947,-0.22567 4.91977,0.091 2.53855,0.50226 3.32761,0.77086 6.096,2.07513 1.06548,0.50198 3.98095,2.16816 6.6675,3.81045 3.22711,1.97274 5.465,3.02989 6.51083,3.07564 0.1583,0.007 0.81552,-0.23519 1.4605,-0.53804 z m 53.224161,-11.07062 c 1.6488,-1.99047 5.42836,-5.72422 6.87651,-6.79317 1.10125,-0.81287 4.26235,-2.8205 4.81267,-3.05653 0.14703,-0.0631 0.48029,-0.24424 0.74058,-0.40261 0.26028,-0.15837 1.07617,-0.65062 1.81307,-1.09389 2.63622,-1.58574 3.13877,-2.1909 2.86798,-3.45355 -0.16631,-0.77544 -0.86115,-2.32617 -1.74198,-3.88771 -1.86627,-3.30849 -2.39231,-4.63609 -2.96144,-7.47379 -0.14009,-0.6985 -0.34593,-1.7272 -0.45742,-2.286 -0.37776,-1.89352 -0.58285,-4.05488 -0.64472,-6.7945 -0.0832,-3.683567 0.14269,-5.260717 1.29138,-9.016997 2.04054,-6.672649 2.87315,-11.883113 2.84118,-17.780002 -0.017,-3.134839 -0.0385,-3.244489 -0.63074,-3.221562 -0.24065,0.0093 -0.66616,0.07691 -0.94556,0.150213 -0.2794,0.0733 -1.32309,0.22211 -2.31933,0.330685 -2.91479,0.317674 -6.43292,-0.04767 -9.74567,-1.012064 -1.97609,-0.575269 -5.15423,-1.726183 -6.477,-2.345547 -0.2794,-0.130824 -1.10807,-0.493448 -1.8415,-0.805832 -0.73342,-0.312384 -2.00707,-0.887004 -2.83032,-1.276932 -0.82326,-0.389928 -1.52254,-0.708961 -1.55397,-0.708961 -0.0314,0 -0.70088,-0.309819 -1.48767,-0.688487 -0.78679,-0.378669 -2.05919,-0.953288 -2.82754,-1.276932 -0.76835,-0.323646 -1.6267,-0.697051 -1.90745,-0.829791 -0.4847,-0.229171 -2.87167,-1.012968 -4.37905,-1.437929 -0.38417,-0.108305 -1.28358,-0.26619 -1.99869,-0.350854 -1.51673,-0.17957 -3.01427,-0.02762 -4.12082,0.418125 -0.63645,0.256375 -1.24648,0.679488 -1.24648,0.864544 0,0.04587 0.55721,0.446185 1.23824,0.889589 0.68104,0.443404 2.00695,1.353175 2.94647,2.021712 0.93952,0.668538 2.03587,1.445119 2.43633,1.725737 2.4627,1.725697 6.58906,5.402722 7.99827,7.127306 1.34643,1.647755 2.27168,3.513036 2.27168,4.579632 0,0.638998 -0.20157,0.566803 4.191,1.501015 1.5566,0.331054 2.99853,0.609902 4.6201,0.893457 0.55033,0.09623 1.17898,0.230507 1.397,0.298387 0.21802,0.06788 0.76788,0.182045 1.22191,0.2537 2.46254,0.388643 4.93988,0.945553 6.09599,1.370391 0.87048,0.319872 2.17643,1.111383 2.6144,1.584526 0.71259,0.769825 0.9374,1.317292 1.09599,2.668943 0.24854,2.118265 -0.002,4.350051 -0.79476,7.088931 -0.35396,1.22237 -0.69097,2.39395 -0.7489,2.6035 -0.0962,0.34794 -0.3651,1.239987 -1.05274,3.492497 -0.1386,0.45402 -0.38586,1.40726 -0.54946,2.1183 -0.26446,1.14947 -0.38662,1.85933 -0.82655,4.8032 -0.3891,2.60382 0.17809,5.42941 1.56525,7.79752 1.28242,2.18932 1.41633,2.51425 1.41331,3.42954 -0.003,0.95303 -0.15364,1.48789 -0.76611,2.72262 -0.93131,1.87754 -2.70157,3.97256 -7.34792,8.69599 -1.5367,1.56219 -2.81339,2.9581 -2.83707,3.10204 -0.0237,0.14393 0.0186,0.38175 0.0939,0.52849 0.32056,0.62455 0.65604,1.98964 0.721,2.9338 0.0968,1.40642 0.1497,1.61209 0.40231,1.56344 0.11691,-0.0225 0.78037,-0.7264 1.47436,-1.56419 z m -58.661971,-2.23812 c 1.25373,-0.13963 2.32487,-0.2819 2.38029,-0.31615 0.0554,-0.0343 0.4584,-0.11826 0.89549,-0.18666 0.85703,-0.13413 3.39628,-0.80952 5.23971,-1.39365 7.264511,-2.30192 14.489601,-6.74572 18.054891,-11.10467 0.9984,-1.22066 1.65953,-2.2923 2.27216,-3.683 0.29604,-0.67203 0.40363,-3.27693 0.15469,-3.74538 -0.0925,-0.174 -0.25623,-0.33334 -0.36393,-0.35408 -0.38784,-0.0747 -4.96467,3.46596 -7.05943,5.46121 l -1.16562,1.11024 -0.80288,-0.29896 c -0.44159,-0.16444 -1.06531,-0.33702 -1.38606,-0.38352 -0.90306,-0.13093 -2.72195,0.32893 -4.263,1.07779 -1.25569,0.6102 -3.79548,2.23355 -5.247951,3.35432 -4.39691,3.3928 -7.17606,5.14464 -8.84946,5.57826 -0.70839,0.18356 -0.81399,0.18072 -1.57584,-0.0424 -3.89958,-1.14207 -7.66392,-3.61087 -10.29131,-6.74946 -1.27047,-1.51767 -2.88983,-3.88186 -3.8217,-5.57952 -0.17254,-0.31433 -0.44727,-0.8001 -0.61052,-1.0795 -0.16325,-0.2794 -0.60607,-1.07215 -0.98404,-1.76166 -1.38902,-2.53391 -3.066,-5.07642 -4.39547,-6.66411 -0.52755,-0.63 -0.56052,-0.84384 -0.19888,-1.28973 1.09968,-1.35585 2.29969,-3.73253 2.97201,-5.8862 0.25423,-0.81441 0.42696,-1.53784 0.38383,-1.60762 -0.30965,-0.50103 -2.64935,2.23694 -3.68714,4.31478 -0.4707,0.94242 -0.91261,2.21404 -1.34752,3.87754 -0.27882,1.06646 -0.29883,1.37686 -0.29883,4.6355 0,3.13384 0.0307,3.65552 0.29906,5.08 0.56198,2.98306 1.20678,5.41272 1.72271,6.49133 0.46462,0.97135 0.87939,1.33373 1.78923,1.56323 1.37427,0.34666 2.15035,0.57479 2.666,0.78368 0.2794,0.11319 0.79375,0.3207 1.143,0.46115 1.5469,0.62206 1.98239,0.82963 3.2385,1.54362 2.41792,1.3744 4.03987,2.6385 6.7945,5.29545 0.8382,0.80848 1.663,1.56411 1.8329,1.67917 0.35871,0.24295 0.89833,0.22129 4.51061,-0.181 z m 0.34948,-6.98074 c 0.90242,-0.18652 2.38111,-0.99109 5.05451,-2.7502 1.22237,-0.80433 2.53682,-1.66126 2.921,-1.90428 0.38417,-0.24303 0.841371,-0.54031 1.016001,-0.66062 0.64859,-0.44686 3.01605,-1.7673 3.95012,-2.20316 2.06444,-0.96332 4.22886,-1.48546 6.16918,-1.48824 l 1.1202,-0.002 2.7305,-2.04377 c 3.21803,-2.40869 5.71751,-4.19125 6.83932,-4.87762 0.44375,-0.2715 0.85435,-0.61865 0.91244,-0.77144 0.0653,-0.17161 0.0303,-0.61064 -0.0915,-1.14863 -0.10843,-0.47895 -0.23328,-1.10196 -0.27744,-1.38446 -0.0971,-0.62093 -0.52725,-1.20087 -0.89074,-1.20087 -0.17519,0 -0.38102,0.18411 -0.60342,0.53975 -1.77635,2.84053 -2.52849,3.77825 -3.0305,3.77825 -0.36033,0 -3.17433,1.27336 -4.49358,2.03338 -0.70942,0.4087 -3.54264,1.84128 -4.20657,2.127 -2.45531,1.05663 -5.8291,2.12674 -7.46496,2.36774 -0.50055,0.0737 -1.708291,0.40851 -2.631541,0.72942 -0.56048,0.19482 -2.54432,0.62375 -3.48573,0.75366 -0.4503,0.0621 -1.07895,0.19632 -1.397,0.29817 -2.64726,0.84778 -6.27487,0.79486 -8.70626,-0.127 -2.88863,-1.09522 -5.22507,-3.20566 -6.71567,-6.06608 -0.5489,-1.05331 -0.7115,-1.73529 -0.41373,-1.73529 0.11075,0 0.29654,0.18574 0.41285,0.41275 0.11632,0.22701 0.25269,0.44132 0.30305,0.47625 0.0504,0.0349 0.19265,0.26071 0.31622,0.50174 0.3459,0.67473 2.55807,2.81846 3.60922,3.49755 0.51752,0.33434 1.36998,0.80613 1.89437,1.04841 1.02232,0.47234 3.09471,1.1753 3.4649,1.1753 0.48728,0 0.3262,-0.24455 -0.46639,-0.70807 -1.61558,-0.94483 -2.91204,-2.34889 -3.21601,-3.48293 -0.24767,-0.924 -1.29935,-4.97688 -1.41773,-5.46357 -0.1809,-0.74367 -0.7555,-1.94429 -1.10901,-2.31721 -0.4446,-0.46902 -0.88205,-0.56785 -3.20257,-0.72353 -3.29692,-0.22117 -3.32579,-0.2336 -3.05219,-1.31423 0.90591,-3.57812 2.54643,-6.884847 4.11839,-8.301257 1.36036,-1.22574 2.23335,-1.57482 4.20309,-1.68069 1.65249,-0.0888 1.55634,0.0118 1.95287,-2.04351 0.53666,-2.78175 1.70113,-6.612768 2.4251,-7.978426 0.0621,-0.117192 0.36708,-0.729358 0.67768,-1.36037 0.83155,-1.689387 1.9912,-3.330481 3.10531,-4.39453 1.5015,-1.434026 1.51431,-1.438011 4.61393,-1.435377 l 2.61368,0.0022 2.522561,1.804739 c 1.52925,1.094083 2.64009,1.804739 2.82103,1.804739 0.16415,0 1.10396,-0.461108 2.08847,-1.024684 2.24107,-1.282895 5.37323,-2.912316 5.5982,-2.912316 0.24174,0 1.02412,0.543709 2.4671,1.7145 3.58954,2.912438 5.22306,3.973581 6.46176,4.197598 0.95934,0.173492 0.90859,-0.001 0.85507,2.939684 -0.0449,2.467502 -0.23057,4.233953 -0.67577,6.429663 -0.15857,0.78203 -0.15792,1.94828 0.002,3.42673 0.62314,5.764137 0.70279,7.034027 0.50733,8.088827 -0.2883,1.55578 -0.28811,1.62247 0.007,2.37795 0.15756,0.40345 0.36508,0.93357 0.46115,1.17805 0.0961,0.24447 0.28756,0.65585 0.42553,0.91416 0.13798,0.25831 0.25087,0.55397 0.25087,0.657 0,0.26352 0.64926,1.00595 0.77065,0.88125 0.0551,-0.0566 0.16139,-1.37013 0.23619,-2.91896 0.0748,-1.54882 0.18958,-3.23475 0.25504,-3.7465 0.0655,-0.51175 0.15421,-1.95915 0.1972,-3.21645 0.043,-1.2573 0.13325,-2.605797 0.20058,-2.996667 0.0673,-0.39087 0.20288,-1.64817 0.30123,-2.794 0.20975,-2.4438 0.50645,-4.849528 0.77382,-6.274335 0.38798,-2.067602 0.69424,-4.210028 0.69426,-4.856771 2e-5,-0.57476 -0.0504,-0.710688 -0.36877,-0.99437 -0.62421,-0.556166 -2.15672,-1.455088 -3.88571,-2.279226 -2.5587,-1.219631 -3.88396,-1.839133 -3.93433,-1.839133 -0.0253,0 -0.60779,-0.323164 -1.29436,-0.718142 -2.10118,-1.208799 -2.76638,-1.810185 -4.46971,-4.040956 -1.61939,-2.120839 -2.30623,-2.606902 -3.68373,-2.606902 -1.12098,0 -1.93551,0.308139 -3.19136,1.207295 -3.26828,2.339994 -4.07105,2.722946 -5.715001,2.726277 -0.85657,0.0017 -1.43654,-0.06698 -4.318,-0.511637 -0.45403,-0.07006 -1.12405,-0.162127 -1.48894,-0.204587 l -0.66344,-0.0772 -1.05106,1.065757 c -1.09593,1.11125 -2.58012,2.403851 -4.33649,3.776701 -1.82413,1.425821 -4.4328,3.377091 -5.46648,4.088898 -2.22841,1.534516 -2.70446,1.866651 -3.31309,2.311485 -0.34925,0.25526 -0.94757,0.678181 -1.32959,0.939825 -1.26578,0.866923 -2.63375,2.287043 -3.0843,3.201899 l -0.41211,0.836802 -0.0763,3.43199 c -0.079,3.55549 -0.0846,3.59997 -0.80953,6.416497 -0.35572,1.38216 -1.4581,4.74435 -1.9246,5.86992 -0.16559,0.39953 -0.30108,0.88538 -0.30108,1.07966 0,0.19427 0.31944,1.03896 0.70987,1.87707 0.9676,2.07712 1.0544,2.25767 1.19042,2.47635 0.0652,0.10477 0.50215,0.8763 0.97105,1.7145 2.18966,3.91423 4.57338,7.15461 7.11701,9.67474 1.76268,1.7464 3.19457,2.84859 4.96872,3.82467 1.53256,0.84316 3.82182,1.22679 5.38843,0.90298 z m -59.77206,-9.61516 c 0.99296,-1.26195 3.51166,-4.8133 6.08907,-8.58555 4.69604,-6.87304 7.94832,-10.22973 11.58731,-11.959307 0.50562,-0.24031 1.19966,-0.49706 1.54231,-0.57055 0.34265,-0.0735 0.90051,-0.23292 1.23969,-0.35431 l 0.61669,-0.2207 -1.3e-4,-3.23241 c -1e-4,-1.77782 -0.0505,-3.833493 -0.11205,-4.56816 -0.0908,-1.084478 -0.0788,-1.362822 0.0637,-1.479624 0.1083,-0.08875 0.97831,-0.164832 2.27105,-0.198596 2.07783,-0.05427 2.35792,-0.09751 4.445,-0.686291 1.17156,-0.330504 1.23387,-0.355932 3.1115,-1.269683 2.15437,-1.048427 2.56889,-1.423606 2.24838,-2.034969 -0.0675,-0.128744 -0.1902,-0.822323 -0.27268,-1.541286 -0.45581,-3.973438 0.94648,-7.486447 5.24282,-13.134265 1.13037,-1.485956 1.20853,-1.624963 0.98191,-1.74625 -0.31388,-0.167984 -2.11941,-0.168649 -3.15147,-0.0011 -0.7698,0.124927 -3.59766,1.00037 -4.05855,1.256436 -0.12563,0.0698 -0.63366,0.298691 -1.12896,0.508653 -0.87829,0.372307 -4.81549,2.354218 -5.06845,2.551355 -0.14122,0.110058 -3.93662,2.013011 -4.6355,2.324167 -2.20988,0.983887 -4.30015,1.694444 -6.096,2.072248 -0.79938,0.168169 -1.67271,0.228388 -3.3655,0.232062 -1.97545,0.0043 -2.4499,-0.03526 -3.4925,-0.291097 -1.38756,-0.340484 -2.43868,-0.679527 -2.98268,-0.962068 -0.65208,-0.33867 -0.71849,-0.104324 -0.42852,1.512126 0.43032,2.39883 0.17314,5.710097 -0.6954,8.9535 -0.1777,0.663575 -0.40671,1.520825 -0.50892,1.905 -0.19071,0.716857 -0.90044,2.707798 -1.60719,4.508492 -0.21932,0.5588 -0.44508,1.15888 -0.50168,1.3335 -0.0566,0.17463 -0.25592,0.6604 -0.44291,1.0795 -0.187,0.4191 -0.71216,1.70498 -1.16703,2.8575 -0.45487,1.15253 -0.96098,2.409827 -1.12467,2.793997 -0.46437,1.08979 -1.43625,4.06982 -1.86385,5.715 -0.32484,1.2498 -0.74276,4.36038 -0.73984,5.50657 0.003,1.15903 0.39766,3.58724 0.75642,4.65343 0.34583,1.02775 1.40802,3.24762 1.77748,3.71475 0.15192,0.19209 0.37209,0.3461 0.48926,0.34224 0.11716,-0.004 0.55905,-0.44678 0.98196,-0.98425 z m 63.23906,0.55097 c 2.20636,-0.19887 3.36551,-0.46663 3.36551,-0.77743 0,-0.92021 -1.75999,-2.26179 -3.8735,-2.95264 -1.63543,-0.53457 -4.31663,-0.46711 -6.2865,0.15816 -1.66554,0.52868 -1.905,0.66457 -1.905,1.08109 0,0.28521 0.13503,0.47672 0.60325,0.85554 1.41005,1.14084 2.35877,1.42928 5.93725,1.8051 0.0699,0.007 1.0414,-0.0691 2.15899,-0.16982 z m 6.985011,-1.40306 c 0.92169,-0.31733 2.2244,-0.81347 2.68619,-1.02303 0.2201,-0.0999 0.45586,-0.18161 0.52389,-0.18161 0.16184,0 1.8293,-0.75626 3.25256,-1.47515 1.75097,-0.88443 4.16059,-2.33639 5.54359,-3.34039 2.1409,-1.55422 4.53792,-3.69957 5.73045,-5.12881 0.62254,-0.7461 0.72872,-1.11111 0.53429,-1.83674 -0.0664,-0.2479 -0.14969,-0.16026 -0.6033,0.635 -0.67427,1.18214 -0.81505,1.37877 -1.50516,2.1024 -1.62773,1.70677 -3.37153,2.93076 -5.99521,4.20809 -3.36203,1.63679 -5.7302,2.29966 -8.1988,2.29493 -2.5824,-0.005 -2.73294,-0.24354 -0.34925,-0.55353 2.80286,-0.36449 3.42771,-0.4712 3.76885,-0.64363 0.17979,-0.0909 0.53876,-0.20357 0.7977,-0.25043 0.44169,-0.0799 0.87121,-0.24392 2.2597,-0.86272 2.73907,-1.22071 4.94027,-2.63307 6.49137,-4.1651 1.19436,-1.17968 1.63029,-1.79402 2.02881,-2.85916 l 0.26106,-0.69776 -0.27264,-0.72871 c -0.14995,-0.40079 -0.32045,-0.78655 -0.37888,-0.85725 -0.0584,-0.0707 -0.22941,-0.44287 -0.37996,-0.82704 -0.38826,-0.99079 -0.44615,-2.37932 -0.20511,-4.919697 0.16144,-1.70147 0.17752,-2.38054 0.0722,-3.048 -0.28083,-1.77984 -1.13793,-2.74527 -2.85437,-3.215161 l -0.635,-0.173837 0.56593,-0.098 c 1.38341,-0.239556 2.91834,0.667758 3.58682,2.120198 0.2786,0.60533 0.28965,0.74179 0.23659,2.921 -0.0306,1.2573 -0.0541,3.22897 -0.0522,4.381497 l 0.004,2.0955 0.65541,1.26618 c 0.36048,0.6964 0.65981,1.1536 0.66519,1.016 0.005,-0.1376 0.0281,-3.39343 0.0505,-7.235177 0.0224,-3.84175 0.10437,-7.808419 0.18219,-8.814814 0.16633,-2.151231 0.17165,-2.136102 -1.03588,-2.950046 -1.05629,-0.711997 -2.5864,-1.898217 -4.6441,-3.60033 -2.3263,-1.924312 -2.56298,-2.097314 -2.86925,-2.097314 -0.56373,0 -6.82989,3.922916 -6.90058,4.320092 -0.0184,0.103624 0.41098,0.648798 0.95426,1.211498 0.54329,0.562701 1.39613,1.568737 1.89519,2.235637 1.84171,2.461058 3.48107,6.436017 2.75282,6.674757 -0.079,0.0259 -0.18344,-0.11257 -0.23214,-0.3077 -0.0487,-0.19513 -0.16182,-0.44051 -0.25136,-0.54528 -0.0895,-0.10478 -0.45593,-0.74604 -0.8142,-1.42503 -0.62845,-1.191034 -1.66236,-2.788605 -2.48869,-3.845474 -0.21846,-0.2794 -0.48826,-0.650875 -0.59956,-0.8255 -0.30028,-0.47112 -2.03901,-2.447223 -3.27414,-3.721133 -1.22533,-1.26379 -3.017731,-2.532786 -4.451811,-3.151823 -0.83072,-0.358583 -1.09865,-0.412254 -2.0955,-0.41976 -1.03823,-0.0078 -1.20553,0.02597 -1.82514,0.368612 -0.89882,0.497047 -2.26956,1.778163 -3.03426,2.835879 -0.55851,0.772508 -2.1891,3.509304 -2.1891,3.67419 0,0.03779 -0.11142,0.303574 -0.2476,0.590625 -0.76803,1.618935 -1.41983,3.283831 -1.99423,5.093914 -0.17733,0.5588 -0.42579,1.33032 -0.55214,1.7145 -0.47453,1.44281 -0.4382,5.701177 0.0675,7.906367 0.48257,2.10459 1.20301,3.67684 2.31291,5.04763 0.84624,1.04514 2.29553,2.26566 3.01527,2.5393 0.48289,0.1836 0.40375,0.42863 -0.11145,0.34503 -1.15706,-0.18777 -2.93242,-1.39645 -3.99173,-2.7176 -1.48046,-1.84641 -2.39839,-4.75748 -2.5154,-7.977227 -0.0891,-2.45119 0.0108,-2.27367 -1.22887,-2.18374 -1.8057,0.131 -3.19079,0.74334 -4.34851,1.92246 -1.01025,1.028927 -1.72043,2.469557 -2.0696,4.198277 -0.44764,2.21617 -0.45258,2.29802 -0.15666,2.59395 0.14495,0.14495 0.42398,0.26355 0.62006,0.26355 0.19607,0 0.95331,0.11072 1.68275,0.24604 2.17494,0.40349 3.32284,1.1894 3.49057,2.38981 0.17392,1.24474 0.59391,2.64267 1.45927,4.85715 0.15012,0.38417 0.34729,0.9271 0.43814,1.2065 0.24931,0.76669 0.4635,1.18575 0.64086,1.25381 0.0878,0.0337 0.38014,-0.0434 0.64955,-0.17145 0.63694,-0.3026 1.80288,-0.79177 2.84291,-1.19275 2.82006,-1.08724 5.65696,-1.6411 6.98144,-1.36303 0.75469,0.15845 1.12159,0.33067 0.98833,0.46393 -0.0461,0.0461 -0.78347,0.1651 -1.63858,0.26445 -2.33224,0.27095 -2.49099,0.55856 -0.6515,1.18034 1.25375,0.42379 3.02893,1.29298 3.84175,1.88106 0.24448,0.17688 0.68676,0.57708 0.98286,0.88934 0.491071,0.51788 0.580291,0.56214 1.016001,0.5039 0.2627,-0.0351 0.76339,-0.16222 1.11265,-0.28246 z m -6.159501,-6.98314 c -0.087,-0.10478 -0.21735,-0.1905 -0.28977,-0.1905 -0.28037,0 -1.61742,-1.12559 -3.08085,-2.5936 -2.03041,-2.03677 -3.03156,-3.5481 -3.19378,-4.82131 -0.0619,-0.48568 -0.0423,-0.60815 0.0904,-0.56394 0.18276,0.0609 0.30621,0.24184 0.50482,0.73985 0.13209,0.33122 0.16575,0.38929 0.87937,1.51728 0.63651,1.00609 2.43891,3.04515 4.05965,4.59269 0.77616,0.74112 1.41121,1.38405 1.41121,1.42875 0,0.14765 -0.22022,0.0845 -0.381,-0.10922 z m 7.048501,-0.0235 c -0.42503,-0.1169 -2.930611,-1.15421 -3.972391,-1.64457 -2.64614,-1.24551 -4.94876,-2.79997 -6.64553,-4.48629 -2.67662,-2.66012 -3.92358,-5.29635 -3.92358,-8.294887 0,-2.62953 0.97641,-4.94221 2.78616,-6.599149 1.07172,-0.981228 1.86187,-1.303643 3.19408,-1.303314 0.99512,2.54e-4 1.13709,0.03238 1.61925,0.366524 0.85498,0.592499 0.72615,0.688 -0.90025,0.667349 -1.26437,-0.01605 -1.49841,0.01616 -2.03426,0.280034 -1.44923,0.713648 -2.65179,2.442566 -3.32221,4.776336 -0.27296,0.95016 -0.32687,1.39987 -0.32739,2.7305 -5e-4,1.39504 0.04,1.7046 0.3263,2.491207 0.3996,1.09795 1.5551,2.53305 2.62707,3.26272 0.40163,0.27339 0.73025,0.56851 0.73025,0.65582 0,0.20364 1.92615,1.72992 2.64143,2.09305 0.30027,0.15244 0.57602,0.35554 0.61278,0.45134 0.0831,0.21665 2.42219,1.63544 4.365781,2.64813 0.80328,0.41853 1.5809,0.86882 1.72804,1.00062 0.14715,0.13181 0.46993,0.2725 0.7173,0.31264 0.47331,0.0768 0.26853,0.17484 4.18941,-2.00562 0.61064,-0.33958 1.185,-0.61742 1.27635,-0.61742 0.0914,0 0.2204,-0.0513 0.28675,-0.11408 0.30462,-0.28801 1.85946,-0.77522 2.72464,-0.85376 0.52361,-0.0475 1.17351,-0.16354 1.44423,-0.25779 0.27072,-0.0943 0.67077,-0.17221 0.889,-0.17324 0.21823,-0.001 0.53966,-0.0843 0.71428,-0.18505 0.17463,-0.10075 0.43611,-0.23757 0.58106,-0.30405 0.30879,-0.14161 0.65416,-0.6303 0.69178,-0.97882 0.0565,-0.52341 -0.0197,-0.71333 -0.49427,-1.2318 -0.6655,-0.72709 -0.72387,-0.97852 -0.38092,-1.64094 0.40169,-0.77589 0.40569,-2.38906 0.009,-3.507677 -0.3112,-0.87689 -0.28035,-1.11723 0.11615,-0.90503 0.3945,0.21113 0.72528,0.85929 0.9469,1.855407 0.19445,0.87401 0.19181,0.9569 -0.0616,1.93462 -0.3604,1.39036 -0.34158,1.57548 0.24322,2.39214 0.2794,0.39018 0.508,0.7913 0.508,0.89139 0,0.18413 -0.48813,0.95082 -0.65042,1.0216 -0.0485,0.0211 -0.21642,0.14971 -0.37327,0.28575 -0.15684,0.13603 -0.34944,0.24733 -0.42798,0.24733 -0.0786,0 -0.28412,0.0997 -0.45682,0.22156 -0.5236,0.36945 -1.66413,0.78846 -2.52643,0.92814 -0.44848,0.0726 -0.85881,0.15891 -0.91184,0.19168 -0.053,0.0328 -0.51623,0.11282 -1.02933,0.17788 -0.89405,0.11335 -1.3682,0.3246 -3.14891,1.40293 -2.53595,1.53568 -3.67953,2.00987 -4.3815,1.81679 z m -2.286,-4.99424 c 0.2794,-0.0545 0.59372,-0.0496 0.6985,0.0108 0.12282,0.0708 -0.0576,0.10597 -0.508,0.099 -0.693411,-0.0107 -0.694801,-0.0115 -0.1905,-0.10978 z m -4.254511,-0.60865 c 0,-0.59714 -0.35361,-0.96004 -1.06563,-1.09361 -0.23806,-0.0447 -0.50949,-0.17355 -0.60317,-0.28643 -0.15504,-0.18682 -0.0793,-0.19973 0.84449,-0.14396 1.90848,0.11523 2.89812,0.91765 1.9742,1.60074 -0.21206,0.15678 -0.55753,0.31945 -0.76772,0.36149 -0.37459,0.0749 -0.38216,0.0662 -0.38217,-0.43823 z m 6.604001,-1.15483 c -0.4199,-0.13926 -0.22071,-0.20805 1.143,-0.39474 0.59373,-0.0813 1.36526,-0.22285 1.71451,-0.3146 0.34925,-0.0918 0.84713,-0.20344 1.1064,-0.24821 1.23954,-0.21404 2.7648,-1.2436 3.19952,-2.1597 0.2686,-0.56604 0.26455,-2.360187 -0.007,-3.055507 -0.52747,-1.35113 -0.2569,-1.79122 0.44002,-0.7157 1.14184,1.76216 1.66755,3.432157 1.41364,4.490587 -0.26731,1.11427 -0.98684,1.6847 -2.72369,2.15932 -0.69566,0.1901 -1.4414,0.2539 -3.429,0.29339 -1.397,0.0278 -2.68288,0.003 -2.8575,-0.0548 z m -3.726811,-0.24551 c -0.29631,-0.32742 -0.26266,-0.48371 0.13906,-0.64597 0.57766,-0.23333 1.678851,-1.10395 2.164011,-1.71091 0.0901,-0.11268 0.21974,-0.20487 0.28817,-0.20487 0.13933,0 0.0235,0.62897 -0.15082,0.81915 -0.18479,0.20158 -0.12394,0.45085 0.11006,0.45085 0.43338,0 1.85976,-1.67213 2.44849,-2.87034 0.50794,-1.033807 0.55929,-1.227607 0.60227,-2.273157 0.0389,-0.94704 0.005,-1.21838 -0.19595,-1.58266 -0.33531,-0.60685 -0.70542,-0.67404 -3.32917,-0.60439 -2.355991,0.0625 -2.895161,0.1806 -4.428961,0.96978 -0.55245,0.28425 -1.61537,1.27858 -2.39243,2.23802 -0.33593,0.41479 -0.42988,0.46995 -0.53446,0.3138 -0.24825,-0.37064 0.30747,-1.67081 1.02588,-2.40019 1.42763,-1.44941 3.57925,-2.06328 8.811481,-2.51399 0.87959,-0.0758 0.92695,-0.0414 1.25956,0.91263 0.15619,0.44801 0.24129,1.20531 0.289,2.57179 0.0624,1.78754 0.0456,1.997947 -0.21882,2.730497 -0.49866,1.38175 -1.32077,2.37769 -2.78954,3.37942 -0.94178,0.64231 -2.683191,0.87871 -3.097831,0.42054 z m -2.83207,-4.15136 c -0.11815,-0.30791 0.52712,-0.900627 1.23121,-1.130917 1.09313,-0.35755 4.321571,-0.20716 4.588901,0.21377 0.1346,0.21191 0.12617,0.623707 -0.0174,0.850707 -0.10024,0.15847 -0.15603,0.1504 -0.38356,-0.0555 -0.15196,-0.13752 -0.79336,-0.35843 -1.494121,-0.514587 l -1.22785,-0.27364 -0.83139,0.247 c -0.45726,0.135847 -0.91711,0.319477 -1.02188,0.408077 -0.10478,0.0886 -0.31994,0.22804 -0.47814,0.30987 -0.23758,0.12291 -0.30123,0.11338 -0.36575,-0.0548 z m 10.500191,-0.28364 c 0.002,-0.12224 0.11473,-0.450847 0.2497,-0.730247 0.13496,-0.2794 0.24732,-0.63943 0.24969,-0.80006 0.002,-0.16063 0.0987,-0.47464 0.21413,-0.69781 0.30945,-0.59841 0.38233,-2.53993 0.13564,-3.61343 -0.10841,-0.47174 -0.23099,-1.14086 -0.27242,-1.48693 -0.13411,-1.12051 -0.52051,-1.351127 -3.62905,-2.165904 -0.45402,-0.119004 -1.20795,-0.325235 -1.67539,-0.458291 -1.43241,-0.407732 -1.929321,-0.435528 -2.411211,-0.134882 -0.50125,0.312722 -1.93132,1.765857 -2.95957,3.007307 -0.79295,0.95736 -0.95483,1.08762 -0.95483,0.76836 0,-0.73122 2.33107,-4.102418 3.22016,-4.656993 0.48388,-0.301825 1.10286,-0.277099 3.320341,0.132636 2.24064,0.414014 2.96371,0.5121 3.79603,0.514941 0.68807,0.0024 0.77875,0.03695 1.1313,0.431717 0.63742,0.713747 1.29439,2.802969 1.43988,4.578979 0.0556,0.6783 0.009,1.16088 -0.1925,1.97686 -0.27393,1.1116 -0.74903,2.3905 -1.0007,2.69375 -0.0786,0.0946 -0.20185,0.32736 -0.27402,0.517157 -0.14687,0.3863 -0.3938,0.46464 -0.38718,0.12284 z m 59.63083,-11.163655 c 0.70325,-0.617977 2.00913,-1.746021 2.90196,-2.506766 2.84634,-2.425248 4.01483,-4.207081 4.44353,-6.775967 0.0401,-0.240444 0.35517,-0.759339 0.75622,-1.245563 0.92253,-1.118414 1.25564,-2.040346 1.32737,-3.673639 0.0306,-0.697037 -0.0142,-1.725737 -0.0997,-2.286 -0.11518,-0.755247 -0.11897,-1.112004 -0.0146,-1.379643 0.43353,-1.11206 0.57598,-2.335088 0.57927,-4.973016 0.002,-1.801672 0.0626,-2.962218 0.18606,-3.576881 0.16286,-0.810928 0.15897,-1.128853 -0.0357,-2.923353 -0.15223,-1.403074 -0.33277,-2.368894 -0.59549,-3.185876 -0.43628,-1.356687 -0.45109,-1.625762 -0.16792,-3.052332 0.12902,-0.649969 0.16401,-1.099742 0.0912,-1.172538 -0.0728,-0.0728 -0.67674,-4.96e-4 -1.57446,0.188471 -0.94485,0.198894 -2.10313,0.332964 -3.29786,0.381722 -4.26394,0.174018 -6.22033,0.569899 -7.40173,1.497769 -0.39217,0.308002 -0.55521,0.362003 -0.889,0.294444 -1.77244,-0.358737 -2.66294,-0.194942 -4.66327,0.85775 -0.66357,0.349213 -1.29222,0.679896 -1.397,0.734852 -1.02602,0.538162 -2.68311,0.682181 -3.66721,0.318719 -0.76732,-0.283401 -1.59423,-0.259299 -2.24442,0.06542 -0.51281,0.256113 -1.44283,1.003867 -2.72437,2.190439 -0.89662,0.830187 -1.80677,1.550353 -2.2225,1.758562 -0.20955,0.104952 -0.73483,0.221439 -1.1673,0.25886 -0.97433,0.08431 -1.97867,0.537854 -2.62918,1.187301 -0.69258,0.691452 -1.93735,3.369837 -1.76946,3.807366 0.22942,0.597843 4.84111,3.15607 7.33017,4.066237 1.20863,0.44196 2.82691,0.934243 3.07798,0.936328 0.67743,0.0056 0.64507,-0.781703 -0.0852,-2.073177 -0.20374,-0.360294 -0.49081,-0.876803 -0.63795,-1.147798 l -0.26753,-0.492718 0.36024,0.258051 c 0.71195,0.509998 1.34343,1.417517 1.49931,2.154678 0.0478,0.226213 0.13973,0.443897 0.20419,0.483746 0.0645,0.03985 0.11723,0.205622 0.11723,0.368386 0,0.162765 0.10566,0.426413 0.23479,0.585884 0.20429,0.252296 0.49704,0.327423 2.25425,0.578506 2.40982,0.344332 4.26296,0.392941 4.49129,0.11781 0.26618,-0.320727 -0.24374,-6.674121 -0.62221,-7.752625 -0.0736,-0.20955 -0.18936,-0.7239 -0.25737,-1.143 -0.068,-0.4191 -0.15595,-0.962025 -0.19542,-1.2065 l -0.0718,-0.4445 0.25169,0.4445 c 0.50868,0.898371 0.8489,1.948078 1.27602,3.937 0.27533,1.282192 0.76855,4.65162 0.76741,5.242735 0,0.194281 0.0791,0.38384 0.17655,0.421245 0.16298,0.06254 2.51424,-1.646886 5.66477,-4.118462 1.36073,-1.06748 4.11944,-3.783592 4.61065,-4.53946 0.86543,-1.331706 1.48455,-1.640303 0.79506,-0.396293 -1.37888,2.487843 -3.50355,4.91971 -7.37262,8.438616 -0.8206,0.746339 -1.10266,1.076837 -1.00359,1.175912 0.0991,0.09907 0.60825,0.09374 1.81164,-0.01896 1.54009,-0.144244 1.69133,-0.139291 1.89261,0.06199 0.19466,0.194667 0.21741,0.529463 0.20655,3.039973 -0.0141,3.261559 -0.24091,7.297679 -0.49337,8.77966 -0.0962,0.564603 -0.21516,1.369452 -0.26441,1.788552 -0.0492,0.4191 -0.14273,0.904032 -0.20774,1.077625 -0.065,0.173596 -0.19689,0.659371 -0.29304,1.0795 -0.0962,0.420132 -0.29083,1.163925 -0.43258,1.652875 -0.14177,0.48895 -0.25943,0.962448 -0.26146,1.052218 -0.006,0.25844 0.31913,0.0319 1.71944,-1.198624 z m 2.17366,-10.03256 c -0.036,-0.129268 -0.10117,-0.49878 -0.14483,-0.821135 -0.0437,-0.322357 -0.16095,-0.693832 -0.26063,-0.8255 -0.0997,-0.13167 -0.18307,-0.316487 -0.1853,-0.410705 -0.002,-0.09422 -0.0952,-0.363516 -0.20673,-0.598438 -0.11146,-0.234924 -0.17543,-0.500735 -0.14214,-0.590694 0.0357,-0.09651 0.11754,-0.02039 0.19956,0.185688 0.0764,0.192087 0.19535,0.34925 0.26424,0.34925 0.0689,0 0.18615,0.226187 0.26059,0.502638 0.0744,0.276451 0.18532,0.533523 0.2464,0.571271 0.17257,0.106658 0.31125,1.595678 0.16247,1.744461 -0.0863,0.08626 -0.1496,0.05132 -0.19363,-0.106836 z m 3.93166,-4.661282 c -0.1225,-0.269088 -0.27643,-0.554838 -0.34205,-0.635 -1.11888,-1.366688 -1.74763,-2.241252 -1.61131,-2.241252 0.0936,0 0.49465,0.289173 0.89119,0.642607 0.82487,0.735192 1.39769,1.74035 1.32963,2.333177 l -0.0447,0.389716 z m -5.96294,-12.782252 c -0.0424,-0.244475 -0.11349,-1.158875 -0.158,-2.032 -0.0445,-0.873125 -0.13799,-1.657016 -0.20772,-1.74198 -0.0697,-0.08496 -0.0996,-0.227839 -0.0664,-0.3175 0.0376,-0.101634 0.11593,-0.04346 0.20794,0.15448 0.0812,0.174625 0.23003,0.460375 0.33078,0.635 0.19846,0.343991 0.24634,2.829879 0.066,3.429 -0.0912,0.303013 -0.0991,0.297219 -0.17262,-0.127 z M 66.173399,83.529631 c 0.61245,-0.471338 1.61461,-1.332151 3.60637,-3.097713 2.30013,-2.038911 4.05442,-3.421259 5.70057,-4.491935 1.96184,-1.276014 2.94979,-1.72998 4.81816,-2.213952 2.64825,-0.685985 5.77862,0.09332 8.45131,2.103946 1.06717,0.802812 1.395,0.855536 1.67978,0.270154 0.31174,-0.640777 1.05439,-1.431088 1.71863,-1.828923 0.5731,-0.343249 0.6791,-0.361478 2.06462,-0.355021 1.53976,0.0072 1.87389,0.08172 4.7625,1.062531 0.62865,0.213456 1.223601,0.388789 1.322131,0.389631 0.0985,8.89e-4 0.64145,-0.332338 1.2065,-0.740403 2.8423,-2.05263 5.07121,-3.059994 6.84634,-3.094228 1.95865,-0.03777 3.48483,0.885966 5.34134,3.232913 0.26245,0.331787 0.55577,0.60325 0.65182,0.60325 0.096,0 0.69725,-0.318386 1.336,-0.707525 1.75219,-1.067468 2.67319,-1.486795 4.71965,-2.148824 l 1.86578,-0.603581 0.80122,0.382735 c 0.79727,0.380852 1.15429,0.609688 3.42186,2.193309 2.25475,1.574663 2.84365,1.983514 3.85635,2.677325 1.1518,0.789107 3.36553,2.13169 3.937,2.387722 1.00183,0.448835 1.88563,0.759559 1.98527,0.697977 0.23037,-0.142373 0.0927,-0.719417 -0.39303,-1.646996 -0.63181,-1.206629 -1.02485,-1.714154 -2.53879,-3.278272 -1.90653,-1.969722 -4.17965,-3.736035 -8.99006,-6.985669 -6.55949,-4.431208 -8.2594,-5.693308 -10.36259,-7.693718 -0.85751,-0.815601 -2.6664,-3.188766 -4.04359,-5.304962 -0.11703,-0.179838 -0.64685,-0.767799 -1.17737,-1.306581 -2.12448,-2.157555 -3.92367,-2.420151 -7.18233,-1.048281 -2.609851,1.098722 -6.499091,3.679753 -10.858501,7.206072 -1.8135,1.466933 -2.77473,2.1617 -3.8222,2.762648 -1.10243,0.632481 -4.08186,2.08889 -5.6393,2.756617 -1.32989,0.570164 -1.58664,0.684129 -2.667,1.183771 -0.52388,0.242281 -1.35255,0.616115 -1.8415,0.830743 -2.21857,0.973851 -4.57673,2.362755 -6.09834,3.591791 -3.33067,2.690236 -4.7765,5.636936 -5.20197,10.602001 -0.0778,0.907445 0.0197,1.960698 0.18141,1.960698 0.0485,0 0.29236,-0.157163 0.54196,-0.34925 z M 113.09721,201.19755 c -0.0709,-0.52865 -0.0333,-0.71993 0.1128,-0.57383 0.14058,0.14059 0.21593,1.11116 0.0863,1.11116 -0.0699,0 -0.15943,-0.2418 -0.19907,-0.53733 z m 10.37557,-4.47229 c -0.14716,-0.14348 -0.56975,-0.63236 -0.93908,-1.08638 -0.95121,-1.16934 -1.87505,-2.02526 -2.94645,-2.72982 -0.5098,-0.33525 -1.08325,-0.71654 -1.27433,-0.84731 -0.19108,-0.13078 -0.50541,-0.30402 -0.6985,-0.38499 l -0.35108,-0.14722 0.30494,-0.0522 c 0.32153,-0.055 1.46513,0.25737 2.10806,0.57582 1.27151,0.62981 2.84872,2.16921 3.54026,3.45539 0.2458,0.45717 0.61542,1.42546 0.55684,1.45876 -0.0182,0.0103 -0.15351,-0.0986 -0.30066,-0.24206 z m -16.84569,-3.31881 c -0.0524,-0.0527 -0.0953,-0.67916 -0.0953,-1.39203 0,-1.04809 0.0625,-1.48757 0.32657,-2.29659 0.17961,-0.55025 0.39952,-1.08618 0.48869,-1.19095 0.0892,-0.10478 0.1976,-0.29051 0.24095,-0.41275 0.0433,-0.12224 0.13776,-0.22225 0.2098,-0.22225 0.1974,0 0.15726,0.47683 -0.0692,0.82251 -0.31937,0.48743 -0.75672,2.33899 -0.91169,3.85971 -0.052,0.51054 -0.13745,0.8851 -0.18983,0.83235 z m 16.22424,-9.08233 c -1.08406,-0.76396 -2.49532,-1.45315 -3.32196,-1.6223 -0.33827,-0.0692 -0.84363,-0.18442 -1.12303,-0.25598 -0.27941,-0.0716 -0.84577,-0.16664 -1.2586,-0.21123 -1.06019,-0.11454 -0.65731,-0.30735 0.6473,-0.30979 1.06492,-0.002 2.60699,0.30292 3.52809,0.69761 0.95306,0.40838 2.58116,1.87762 2.45743,2.21764 -0.0221,0.0608 -0.44028,-0.17139 -0.92923,-0.51595 z M 107.75637,49.565964 c -0.11469,-0.06419 -0.20853,-0.19959 -0.20853,-0.300894 0,-0.137099 0.16737,-0.184189 0.65468,-0.184189 0.63519,0 0.64818,0.0072 0.43627,0.241339 -0.27328,0.301978 -0.61145,0.395386 -0.88242,0.243744 z M 18.230039,49.382755 c -0.22383,-0.223834 -0.031,-0.301874 0.74588,-0.301874 0.61213,0 0.82205,0.04252 0.78372,0.15875 -0.0569,0.172568 -1.37666,0.296056 -1.5296,0.143124 z"
       style="fill:#000000;stroke-width:1" />
  </g>
</svg>
