<?xml version="1.0" encoding="UTF-8" standalone="no"?>
<!-- Created with Inkscape (http://www.inkscape.org/) -->

<svg
   xmlns:dc="http://purl.org/dc/elements/1.1/"
   xmlns:cc="http://creativecommons.org/ns#"
   xmlns:rdf="http://www.w3.org/1999/02/22-rdf-syntax-ns#"
   xmlns:svg="http://www.w3.org/2000/svg"
   xmlns="http://www.w3.org/2000/svg"
   xmlns:sodipodi="http://sodipodi.sourceforge.net/DTD/sodipodi-0.dtd"
   xmlns:inkscape="http://www.inkscape.org/namespaces/inkscape"
   width="210mm"
   height="297mm"
   viewBox="0 0 210 297"
   version="1.1"
   id="svg8"
   inkscape:version="0.92.2 (5c3e80d, 2017-08-06)"
   sodipodi:docname="Steinbock_auf_Stein_V1.svg">
  <defs
     id="defs2" />
  <sodipodi:namedview
     id="base"
     pagecolor="#ffffff"
     bordercolor="#666666"
     borderopacity="1.0"
     inkscape:pageopacity="0.0"
     inkscape:pageshadow="2"
     inkscape:zoom="1.0873216"
     inkscape:cx="534.26972"
     inkscape:cy="677.12584"
     inkscape:document-units="mm"
     inkscape:current-layer="layer1"
     showgrid="false"
     inkscape:window-width="1920"
     inkscape:window-height="1017"
     inkscape:window-x="-8"
     inkscape:window-y="-8"
     inkscape:window-maximized="1" />
  <metadata
     id="metadata5">
    <rdf:RDF>
      <cc:Work
         rdf:about="">
        <dc:format>image/svg+xml</dc:format>
        <dc:type
           rdf:resource="http://purl.org/dc/dcmitype/StillImage" />
        <dc:title></dc:title>
      </cc:Work>
    </rdf:RDF>
  </metadata>
  <g
     inkscape:label="Ebene 1"
     inkscape:groupmode="layer"
     id="layer1">
    <path
       style="fill:#000000;stroke-width:0.30424613"
       d="m 111.14321,160.8512 c -0.16734,-0.0563 -1.81027,-0.53556 -3.65096,-1.0651 -1.84069,-0.52953 -4.44199,-1.29084 -5.78067,-1.69175 -2.210131,-0.66194 -4.767246,-1.10173 -8.855506,-1.52307 -1.200498,-0.12362 -1.651618,-0.34775 -2.396607,-1.19018 -0.85191,-0.96334 -1.081398,-1.05023 -3.199581,-1.21136 -1.255015,-0.0953 -3.548269,-0.16002 -5.096123,-0.14373 -1.966115,0.0216 -2.814276,-0.0776 -2.814276,-0.32672 0,-0.1962 -0.407618,-0.92668 -0.905815,-1.62338 -0.963641,-1.34757 -2.152043,-4.43907 -2.113392,-5.49773 0.0127,-0.35031 0.279612,0.23214 0.592938,1.29427 0.313328,1.06218 0.811556,2.29437 1.107178,2.73821 0.4693,0.70463 0.552046,0.73563 0.652205,0.24421 0.194191,-0.95276 -0.235803,-2.61625 -0.63735,-2.46571 -0.231035,0.0865 -0.581719,-0.5446 -0.937394,-1.6872 -0.312552,-1.00406 -0.689058,-1.82557 -0.836677,-1.82557 -0.625609,0 -0.189447,-0.80407 0.722323,-1.33164 3.741902,-2.16508 12.700352,-6.95665 12.700352,-6.79298 0,0.16722 -6.1881,3.73421 -9.583753,5.52442 -1.506018,0.79399 -2.906849,1.60354 -3.112955,1.79903 -0.293825,0.27866 -0.06507,0.86056 1.05944,2.69495 l 1.434176,2.33953 1.678777,0.18446 c 0.923327,0.10134 2.089509,0.24508 2.591516,0.31918 0.502006,0.074 2.854425,0.2782 5.227597,0.45359 4.355808,0.3219 9.332519,1.11375 16.122647,2.56527 l 3.70396,0.79178 3.11478,-1.56306 c 3.93632,-1.97534 5.50061,-3.14549 6.40559,-4.79168 0.4021,-0.73144 0.98568,-1.35279 1.32646,-1.41233 0.54825,-0.0958 1.7249,-0.32726 5.47643,-1.07746 0.66933,-0.13391 1.9826,-0.33431 2.91831,-0.44544 1.54147,-0.18303 1.74161,-0.29352 2.12972,-1.17502 0.25662,-0.58278 1.35514,-1.66897 2.73949,-2.70874 l 2.31107,-1.73586 0.36074,-2.18434 c 0.19835,-1.20139 0.30645,-2.23861 0.24011,-2.30497 -0.19093,-0.19117 -1.34141,-0.37329 -3.71331,-0.58822 l -2.19958,-0.19932 -0.21729,2.74502 -0.21728,2.74504 -1.44529,0.93653 c -2.24804,1.45667 -2.45037,1.48481 -2.45037,0.34078 v -0.9814 l -1.04456,0.79674 c -0.57451,0.43819 -1.13957,0.79672 -1.25569,0.79672 -0.11612,0 -0.14654,-0.67222 -0.0676,-1.4938 0.10302,-1.07195 0.41206,-1.83281 1.09445,-2.6944 0.86377,-1.09061 1.7205,-2.77695 1.51012,-2.97244 -0.0465,-0.0431 -1.27871,-0.12697 -2.73819,-0.1859 l -2.65359,-0.10732 -0.36807,1.43637 c -0.2055,0.80197 -0.81789,1.94421 -1.3865,2.5861 -0.7452,0.84127 -0.98937,1.37418 -0.91016,1.98639 0.12321,0.95214 -0.0332,1.02229 -0.86912,0.38998 -0.87734,-0.66359 -1.07321,-0.5658 -0.89483,0.44669 0.10891,0.61815 0.0366,0.9121 -0.22385,0.91073 -0.60936,-0.002 -2.03458,-1.0478 -2.95531,-2.16614 -0.74638,-0.90655 -0.8613,-1.33686 -0.98399,-3.68454 -0.0764,-1.46196 -0.19778,-2.71052 -0.26973,-2.77458 -0.0719,-0.064 -2.21996,-0.18734 -4.77335,-0.27382 -4.31562,-0.14637 -4.69703,-0.11451 -5.41639,0.45136 -0.42562,0.33479 -0.72889,0.65368 -0.67393,0.70863 0.24807,0.24807 5.95676,1.35193 6.99159,1.35193 0.63535,0 1.15517,0.0601 1.15517,0.13368 0,0.0735 -0.75301,1.18318 -1.67335,2.46595 -0.92035,1.28277 -1.67336,2.43864 -1.67336,2.56861 0,0.12984 1.19373,0.33572 2.65272,0.45725 3.2807,0.27327 3.83946,0.47994 4.54521,1.68121 0.62894,1.07052 0.0204,1.04196 6.5237,0.30629 2.21324,-0.25037 3.64511,-0.27117 4.56369,-0.0664 1.3071,0.29155 1.28494,0.29931 -0.94329,0.33052 -2.37561,0.0333 -7.16854,0.79171 -7.91372,1.25225 -0.34355,0.21225 -0.26435,0.3955 0.39535,0.91442 0.45373,0.3569 0.82234,0.74166 0.81913,0.85502 -0.0129,0.45345 -2.1192,2.59405 -2.33763,2.37564 -0.12879,-0.12889 0.0546,-0.76141 0.40761,-1.40581 l 0.64177,-1.17164 -1.96737,-1.77363 c -2.49836,-2.25236 -2.55476,-2.28134 -4.22299,-2.17052 l -1.39435,0.0927 2.05394,1.50506 c 2.28412,1.67374 2.21591,2.13938 -0.13861,0.94623 -1.84019,-0.93248 -2.27867,-0.97979 -1.26535,-0.13655 1.94385,1.61768 2.80378,2.45105 2.66862,2.58621 -0.14855,0.14853 -2.13378,-0.88564 -4.25174,-2.21494 -2.26581,-1.42209 -0.81426,0.35317 2.14375,2.62186 0.71889,0.55136 1.23562,1.07394 1.14828,1.16129 -0.0873,0.0874 -0.33325,0.0216 -0.54646,-0.14853 -0.21322,-0.16913 -1.20913,-0.75388 -2.21314,-1.29968 l -1.82548,-0.99237 0.91274,0.97924 c 0.502,0.53859 1.29372,1.1782 1.75936,1.4214 0.46565,0.24318 0.76916,0.56751 0.67448,0.72071 -0.0947,0.15308 -1.63596,-0.66613 -3.42508,-1.82074 -1.78911,-1.15457 -3.30992,-2.04225 -3.37958,-1.97259 -0.0697,0.0697 0.67394,0.87772 1.65245,1.79568 0.9785,0.91796 1.69555,1.75257 1.59343,1.85468 -0.10212,0.10205 -1.30496,-0.50855 -2.67298,-1.35701 -1.36803,-0.84849 -2.546381,-1.5427 -2.618567,-1.5427 -0.07218,0 0.657437,0.70336 1.621387,1.56301 0.96395,0.85968 1.88955,1.70304 2.05688,1.87418 0.33066,0.33817 -1.65338,-0.78328 -2.90383,-1.64135 -0.948997,-0.6512 -3.980673,-1.98493 -4.398073,-1.93486 -1.02689,0.12314 -2.048134,0.59323 -2.409301,1.10887 -0.229622,0.32784 -0.494584,0.47134 -0.588793,0.31893 -0.0942,-0.15236 0.342342,-0.7787 0.970112,-1.3917 1.064521,-1.03949 3.508686,-2.00416 5.161351,-2.03713 1.191004,-0.0239 2.807814,-1.20024 4.794154,-3.4885 3.13127,-3.60724 3.2193,-3.79239 0.97168,-2.04379 -1.12952,0.87872 -2.05367,1.5137 -2.05367,1.41105 0,-0.10253 0.54931,-0.81066 1.22068,-1.57338 0.67136,-0.76273 1.15682,-1.45061 1.07878,-1.52863 -0.078,-0.0781 -1.0654,0.69162 -2.19414,1.71034 -1.12874,1.01874 -2.10783,1.79665 -2.17575,1.72874 -0.0679,-0.068 0.48289,-0.91909 1.22401,-1.8915 2.05724,-2.69926 2.03565,-2.78503 -0.23659,-0.93979 -1.15905,0.94125 -2.160395,1.65834 -2.225202,1.59351 -0.0648,-0.0649 0.602422,-0.94922 1.482732,-1.96538 0.88031,-1.01616 1.53804,-1.91009 1.46163,-1.98649 -0.0764,-0.0764 -1.34799,0.83109 -2.825703,2.01672 -2.558164,2.05251 -2.637352,2.09245 -1.654517,0.83455 1.007055,-1.28891 1.212349,-1.54275 2.060484,-2.5476 0.524436,-0.62133 0.379036,-0.7501 -0.89628,-0.79363 -2.282227,-0.0778 -3.258114,0.0565 -3.417158,0.47106 -0.09046,0.23573 0.02396,1.14291 0.25427,2.01595 l 0.418736,1.58735 -1.960176,1.88451 -1.960176,1.88453 v -1.01012 c 0,-0.55558 -0.102677,-1.00378 -0.228185,-0.99604 -0.125507,0.007 -0.638917,0.54906 -1.140923,1.2029 -0.502006,0.65384 -1.01542,1.19516 -1.140923,1.2029 -0.125507,0.007 -0.228184,-0.8219 -0.228184,-1.84366 0,-1.61651 0.121866,-2.01162 0.938304,-3.04246 0.985918,-1.24483 0.966468,-1.38423 -0.121626,-0.87168 -0.539769,0.25425 -0.52297,0.21153 0.08945,-0.22807 1.595277,-1.14506 1.831665,-1.55544 1.845255,-3.20337 0.0072,-0.87851 0.131784,-3.43765 0.276773,-5.68699 0.238055,-3.69338 0.207055,-4.23317 -0.319957,-5.5702 -0.547724,-1.38959 -0.555182,-1.60287 -0.121435,-3.47317 0.425622,-1.83525 1.039547,-3.40648 1.050174,-2.68774 0.0024,0.16745 -0.188752,1.12571 -0.424977,2.12972 -0.373151,1.58606 -0.370591,2.07946 0.01941,3.76199 0.327654,1.41321 0.4012,2.89317 0.272154,5.47643 -0.464308,9.29483 -0.419177,8.92305 -1.224291,10.08484 -0.416963,0.60166 -0.758117,1.18926 -0.758117,1.30579 0,0.43148 0.743722,0.19117 1.463352,-0.47273 l 0.741954,-0.68456 -0.210409,0.68456 c -0.180368,0.58678 -0.09887,0.68455 0.570701,0.68455 0.915138,0 0.939013,-0.0846 0.299189,-1.06117 -0.394174,-0.60157 -0.463425,-1.48597 -0.380308,-4.85682 0.05589,-2.26673 0.2043,-4.12151 0.329805,-4.12172 0.125508,-2.2e-4 0.228185,1.83271 0.228185,4.0732 0,3.67249 0.0615,4.14436 0.624574,4.79188 l 0.624574,0.71826 -0.202407,-0.76061 c -0.111326,-0.41833 -0.323924,-0.89068 -0.472452,-1.04965 -0.148529,-0.15907 -0.27005,-3.01793 -0.27005,-6.35326 0,-5.60312 0.04794,-6.14178 0.630292,-7.08406 0.346661,-0.56091 0.586254,-1.33008 0.532431,-1.70926 -0.08821,-0.62143 -0.150806,-0.58439 -0.634574,0.37542 l -0.536711,1.06486 0.219201,-1.67335 c 0.120548,-0.92034 0.203964,-1.94718 0.18535,-2.28185 -0.01869,-0.33467 -0.05809,-1.01922 -0.08775,-1.52123 -0.02966,-0.50201 0.21659,-2.41876 0.547202,-4.25945 0.330617,-1.84069 0.553124,-3.39785 0.494458,-3.46035 -0.287206,-0.306 -1.045651,0.3212 -1.045651,0.86473 0,0.33991 -0.145511,0.61802 -0.323371,0.61802 -0.177852,0 -0.298997,-0.23958 -0.26921,-0.53243 0.100881,-0.99174 -0.01485,-1.69977 -0.240893,-1.47372 -0.123735,0.12361 -0.314813,1.41297 -0.424608,2.86499 -0.156459,2.06899 -0.173157,1.84512 -0.07721,-1.03513 0.102533,-3.07813 -0.0038,-4.28898 -0.654357,-7.45403 -0.868512,-4.225257 -0.814079,-6.365496 0.223417,-8.78387 0.50502,-1.177216 0.564391,-1.793662 0.397032,-4.122415 -0.158615,-2.20703 -0.09501,-3.003819 0.327829,-4.107322 0.303065,-0.79092 0.601614,-2.699142 0.706941,-4.518558 l 0.182332,-3.14945 -1.92791,0.123136 -1.927912,0.123135 -1.042313,-2.06976 c -0.66606,-1.322608 -0.903649,-2.070646 -0.65818,-2.072227 0.211271,-0.0014 1.530032,0.506773 2.930575,1.129208 l 2.546446,1.1317 0.724202,-0.841947 c 0.398308,-0.463053 0.724199,-1.045529 0.724199,-1.294364 0,-0.248835 -0.599317,-1.096915 -1.331817,-1.884577 -0.7325,-0.787686 -1.656646,-1.813666 -2.053661,-2.279977 -1.397146,-1.641013 -3.805891,-4.032435 -5.201341,-5.163919 -2.391569,-1.939174 -5.253509,-1.890087 -6.397158,0.10972 -0.433321,0.757717 -0.494949,1.332526 -0.331458,3.091572 l 0.200826,2.160818 -0.996008,-0.709205 c -0.993814,-0.707672 -1.851841,-2.244282 -1.82655,-3.271149 0.0074,-0.298209 0.207558,0.0048 0.444942,0.67478 0.383877,1.082469 1.576349,2.478336 1.868023,2.186667 0.260981,-0.260981 -0.599389,-2.034544 -0.986974,-2.034544 -0.234629,0 -0.426606,-0.136791 -0.426606,-0.304246 0,-0.167455 0.273821,-0.304246 0.608492,-0.304246 0.786495,0 0.786495,-0.796071 0,-1.216985 -0.898966,-0.481116 -0.739493,-0.912738 0.337229,-0.912738 0.998402,0 1.008423,-0.04983 0.40758,-2.025393 -0.132718,-0.436413 -0.05735,-0.408959 0.340059,0.123855 0.609776,0.817535 1.35181,0.912762 1.151767,0.147811 -0.07721,-0.295215 -0.0046,-0.877092 0.161323,-1.293046 0.282625,-0.708486 0.302909,-0.714595 0.320975,-0.09655 0.03965,1.356267 0.932023,2.382487 0.932023,1.071833 0,-0.302689 0.201018,-0.816098 0.446693,-1.140923 0.423623,-0.560076 0.447194,-0.541342 0.456369,0.362748 0.0077,0.76682 0.155693,0.981253 0.755985,1.096005 0.621718,0.118823 0.778,-0.0016 0.936146,-0.721663 0.295519,-1.345462 0.882052,-1.48932 0.66691,-0.163622 -0.222483,1.370976 0.195987,1.694915 0.866845,0.671067 0.277599,-0.423669 0.718212,-0.770318 0.979138,-0.770318 0.375823,0 0.336937,0.146373 -0.187123,0.704174 -0.76366,0.812864 -0.843773,1.50403 -0.233072,2.010875 0.339579,0.281823 0.595841,0.188297 1.235424,-0.451386 0.88571,-0.885716 1.479843,-0.782056 0.666809,0.116428 -0.566825,0.62634 -0.670065,1.741653 -0.188752,2.03912 0.174043,0.107564 0.594722,-0.158113 0.934821,-0.590525 0.877865,-1.116033 1.262298,-0.973708 0.678234,0.251087 -0.272034,0.570449 -0.415861,1.242402 -0.319617,1.493225 0.13533,0.352662 0.466879,0.18662 1.462895,-0.732969 1.463543,-1.351141 2.324042,-1.624052 1.110807,-0.352303 -1.217423,1.276133 -1.529505,2.339605 -0.863462,2.942347 0.509078,0.460706 0.5985,0.413775 1.391542,-0.730598 0.466129,-0.672623 1.068482,-1.218781 1.338559,-1.213702 0.44103,0.0072 0.439329,0.03953 -0.01677,0.305564 -0.72499,0.423069 -1.655729,2.967693 -1.238202,3.385229 0.230604,0.2307 0.456829,0.07187 0.778436,-0.546565 0.249343,-0.479391 0.832949,-1.213894 1.296901,-1.632245 l 0.843549,-0.760615 -0.62799,0.912738 c -1.377966,2.002778 -1.419008,4.709011 -0.04276,2.819739 0.309248,-0.424531 0.931973,-1.014122 1.383834,-1.310175 0.798693,-0.523327 0.794465,-0.505432 -0.151908,0.642678 -0.883138,1.071402 -1.314111,2.55653 -0.745288,2.568293 0.125508,0.0024 0.730337,-0.579146 1.344076,-1.292735 1.397361,-1.624698 1.784648,-1.389159 0.527232,0.320656 l -0.935147,1.271605 h 0.747805 c 0.43439,0 1.293418,-0.484182 2.049618,-1.155249 L 101.9549,71.98119 99.094928,69.088504 C 95.408234,65.35962 94.551755,64.63827 91.477703,62.673151 88.06605,60.492234 87.553632,60.29639 85.259101,60.29639 c -1.570197,0 -2.326615,0.179194 -3.712701,0.879463 -2.184611,1.103743 -2.755545,1.735425 -3.085101,3.413426 l -0.26232,1.335664 -0.03332,-1.301047 c -0.0294,-1.147535 0.119686,-1.452692 1.263419,-2.586092 2.041896,-2.023452 5.774608,-2.865519 8.360973,-1.886134 3.478484,1.31717 9.680625,6.006848 12.856489,9.721262 2.15448,2.519828 2.3705,2.476922 5.93279,-1.178367 1.67336,-1.717026 3.65856,-3.602849 4.41158,-4.190715 1.59408,-1.24451 4.83984,-3.119984 5.0448,-2.915013 0.0774,0.07738 -0.77342,0.673965 -1.89076,1.325699 -1.82101,1.06213 -8.06043,6.580891 -7.99623,7.07262 0.0141,0.108522 0.56785,0.66352 1.23042,1.233442 0.91229,0.78474 1.29011,0.950781 1.55677,0.684099 0.26667,-0.266659 0.0638,-0.64735 -0.83579,-1.56864 -1.30906,-1.3406 -1.02865,-1.659172 0.40133,-0.455914 0.85487,0.719314 1.57671,0.983122 1.57671,0.576223 0,-0.101336 -0.42223,-0.717518 -0.9383,-1.369108 -1.0876,-1.373228 -0.95123,-1.496603 0.46241,-0.418374 0.59915,0.456992 1.20504,0.689488 1.50093,0.575959 0.71295,-0.273582 0.62022,-0.57536 -0.45475,-1.479882 -1.29799,-1.092195 -0.85684,-1.370185 0.5145,-0.324225 1.03415,0.788788 1.13211,0.808528 1.60557,0.32365 0.47076,-0.482122 0.43859,-0.571863 -0.48457,-1.352194 -0.54384,-0.459699 -0.9888,-0.928526 -0.9888,-1.041839 0,-0.467006 0.85396,-0.155717 1.52123,0.55459 0.68406,0.728155 1.51009,0.974594 1.91374,0.570953 0.10433,-0.10445 -0.17467,-0.686207 -0.61997,-1.293046 l -0.80963,-1.103384 0.92537,0.84614 c 1.4355,1.31257 2.53782,0.603126 1.45809,-0.938396 -0.86741,-1.238401 -0.26888,-1.479786 0.7717,-0.311217 0.56832,0.638222 1.17592,1.048475 1.41624,0.956243 0.50214,-0.192609 0.55156,-1.413451 0.092,-2.272191 -0.18089,-0.338001 -0.26502,-0.678421 -0.18695,-0.756495 0.0781,-0.0781 0.44365,0.481308 0.8124,1.243049 0.88756,1.833454 1.52892,1.832568 1.52892,-0.0021 0,-0.847242 0.11842,-1.313888 0.30425,-1.199041 0.16734,0.103491 0.30425,0.727603 0.30425,1.387074 0,0.862957 0.1279,1.199018 0.45637,1.199018 0.30221,0 0.45636,-0.302258 0.45636,-0.894772 0,-0.492136 0.13692,-0.979408 0.30425,-1.082828 0.18375,-0.113553 0.30425,0.301084 0.30425,1.046894 0,1.351859 0.48718,1.617032 1.36257,0.741666 0.75923,-0.75925 0.44068,-1.41762 -1.05833,-2.187338 -1.15139,-0.591244 -1.74189,-0.68774 -3.71344,-0.606863 -1.57143,0.06444 -2.24338,-0.0048 -2.03811,-0.209619 0.5838,-0.583146 4.29009,-0.290854 5.74894,0.453399 1.86929,0.953656 3.30855,2.126488 3.83897,3.128345 0.49935,0.943139 0.32911,2.603029 -0.39696,3.870657 -0.26062,0.455004 -0.35035,0.516116 -0.22327,0.152123 0.42434,-1.215954 0.66591,-3.357655 0.42934,-3.806478 -0.42778,-0.811619 -1.51801,-1.639336 -1.76932,-1.343307 -0.1316,0.154998 -0.39703,0.653459 -0.58983,1.107648 -0.45037,1.060956 0.0156,1.371263 0.83238,0.554398 0.79763,-0.797627 0.79308,-0.500784 -0.01,0.626508 l -0.62922,0.883631 0.8574,0.0096 c 0.80689,0.0096 0.82373,0.03522 0.28584,0.44245 -0.36385,0.275499 -0.51241,0.658969 -0.4088,1.055183 0.1023,0.391232 0.0158,0.622411 -0.23256,0.622411 -0.43709,0 -0.88577,0.89307 -0.59485,1.183997 0.10129,0.101335 0.37692,-0.07954 0.61251,-0.401653 0.23559,-0.32219 0.504,-0.510151 0.59646,-0.41768 0.0925,0.09247 -0.27742,0.54302 -0.82198,1.001234 -1.12368,0.94551 -1.34568,0.702018 -0.88208,-0.967455 0.48169,-1.73461 0.41193,-2.104018 -0.619,-3.278192 -0.85234,-0.970761 -1.09744,-1.07545 -2.51778,-1.07545 -3.27661,0 -8.11229,3.432878 -11.01323,7.818382 -1.52094,2.299286 -1.91555,3.134478 -1.48097,3.134478 0.0929,0 0.95621,-0.534707 1.91858,-1.188237 1.63191,-1.108222 3.99753,-2.290806 3.99753,-1.998418 0,0.07091 -0.60734,1.125016 -1.34964,2.342384 l -1.34963,2.213378 -1.61677,0.0012 -1.61676,0.0012 0.0137,2.128549 c 0.0168,2.633286 0.34926,6.446831 0.59712,6.847861 0.1195,0.193328 -0.097,0.191651 -0.61307,-0.0048 -1.14799,-0.436437 -1.3667,-0.38232 -1.3667,0.338168 0,0.53648 0.12759,0.609451 0.77958,0.445805 0.67499,-0.169372 1.07297,0.104689 2.9664,2.043887 2.24819,2.3024 4.02558,3.542574 5.18016,3.614468 0.92007,0.05725 3.1649,-0.60533 4.6111,-1.361035 0.92467,-0.483176 1.76922,-0.635706 3.50054,-0.632161 3.394,0.0072 4.218,0.476972 6.21975,3.547941 1.98577,3.046414 3.07325,5.865671 3.57209,9.260411 0.3329,2.26551 0.30264,2.83756 -0.32193,6.08492 -0.37915,1.97137 -0.96393,4.74806 -1.29951,6.1704 -0.33558,1.42236 -0.67559,3.74985 -0.75561,5.17218 -0.08,1.42237 -0.33565,3.27065 -0.56813,4.10733 -0.23237,0.83667 -0.46817,2.99302 -0.52383,4.79188 l -0.10109,3.27065 2.28953,0.002 c 1.25925,0.002 2.80173,0.0879 3.42776,0.19142 l 1.13821,0.18805 -0.18806,1.25366 c -0.10349,0.68954 -0.20482,1.38591 -0.22543,1.54752 -0.0216,0.1617 1.19485,0.53156 2.70087,0.82218 1.50602,0.29059 3.44886,0.67979 4.3174,0.86485 l 1.57918,0.33651 -1.17945,1.82483 c -0.64869,1.00368 -1.87875,3.18625 -2.73347,4.85019 -0.85469,1.66394 -1.68753,3.02533 -1.85077,3.02533 -0.16315,0 -0.94446,0.48591 -1.73605,1.07979 -0.79161,0.59388 -2.73994,1.9816 -4.32964,3.08381 -1.58967,1.10221 -3.51337,2.60372 -4.27487,3.33672 l -1.38456,1.33267 -2.72276,0.15044 c -2.6805,0.14805 -4.27069,0.46478 -6.06947,1.20903 -0.50201,0.2077 -1.93957,0.75882 -3.19459,1.22468 -1.25501,0.46588 -2.5519,1.03122 -2.88197,1.25629 -0.6139,0.41864 -0.69768,0.43635 -1.22535,0.2589 z m 0.9211,-0.87563 c 0.33007,-0.22974 1.07932,-0.51987 1.66499,-0.64502 0.58567,-0.12505 1.91273,-0.5648 2.94902,-0.97701 1.54874,-0.61607 2.10982,-1.04838 3.15183,-2.42851 1.1312,-1.49826 1.19039,-1.65503 0.54982,-1.45593 -0.39483,0.12266 -1.08129,0.47899 -1.52546,0.79169 -0.44805,0.31546 -1.32846,0.56937 -1.97759,0.57035 -1.17485,0.002 -3.93093,0.41675 -5.19266,0.78184 -0.53196,0.1538 -0.75298,0.0266 -1.03764,-0.59826 -0.19894,-0.4366 -0.44341,-0.79384 -0.54327,-0.79384 -0.0999,0 -0.5537,0.61611 -1.00853,1.36911 l -0.82697,1.3691 -2.51752,0.0192 c -2.01858,0.0144 -2.36678,0.0807 -1.75691,0.32976 0.6218,0.25379 6.74753,1.98169 7.31027,2.06202 0.0883,0.012 0.43055,-0.16506 0.76062,-0.39459 z m -3.3372,-3.87027 c 0.73143,-1.15865 0.81642,-2.10141 0.18944,-2.10141 -0.14747,0 -0.83514,0.41074 -1.52814,0.91274 -0.693,0.50201 -1.32502,0.91274 -1.4045,0.91274 -0.0795,0 0.13823,-0.47917 0.48379,-1.06486 0.59666,-1.01125 0.59997,-1.06424 0.0658,-1.0525 -0.30937,0.007 -1.0331,0.41471 -1.6083,0.90644 -0.5752,0.49173 -1.0892,0.85066 -1.14224,0.79763 -0.053,-0.0529 0.12381,-0.53792 0.393,-1.07752 0.26919,-0.53959 0.40498,-1.06555 0.30175,-1.16878 -0.20284,-0.20291 -1.71537,0.50531 -2.88018,1.34848 l -0.72254,0.52304 0.65266,-1.27932 c 0.617,-1.20941 0.62204,-1.27932 0.0922,-1.27932 -0.30826,0 -1.09828,0.40693 -1.755598,0.90429 -1.592786,1.20515 -1.78143,1.15165 -1.042999,-0.29579 0.537435,-1.05346 0.55598,-1.21699 0.138013,-1.21699 -0.265569,0 -0.918677,0.32207 -1.451352,0.71572 -1.685064,1.24528 -1.828903,1.27252 -1.297878,0.24563 0.623201,-1.20515 0.612732,-1.26559 -0.219177,-1.26559 -0.385375,0 -1.275294,0.42259 -1.9776,0.93906 -1.458999,1.07296 -1.519817,1.02862 -0.638378,-0.4653 l 0.638543,-1.08226 h -0.656807 c -0.361238,0 -1.286144,0.48054 -2.055348,1.06788 -0.769203,0.58732 -1.451108,1.01532 -1.515342,0.95107 -0.06423,-0.0642 0.176127,-0.61321 0.534117,-1.21998 0.643282,-1.09028 0.643764,-1.10321 0.04116,-1.10321 -0.335367,0 -1.183309,0.4792 -1.884316,1.06486 -0.701004,0.58568 -1.32307,1.06486 -1.382367,1.06486 -0.05929,0 0.0924,-0.47918 0.337114,-1.06486 0.24471,-0.58566 0.367836,-1.06486 0.273613,-1.06486 -0.320579,0 -2.1167,0.98436 -2.651128,1.45295 -0.623103,0.54633 -0.664876,0.38759 -0.178763,-0.67931 0.548288,-1.20335 0.09968,-1.24709 -1.313234,-0.12816 -0.71053,0.56276 -1.214819,0.81885 -1.120641,0.56911 0.771994,-2.0472 0.559429,-2.2963 -0.906769,-1.06257 -1.165914,0.98107 -1.296862,0.95864 -1.068546,-0.18302 0.162353,-0.81181 0.108187,-0.92793 -0.387913,-0.8315 -0.498626,0.097 -0.562166,0.33773 -0.469735,1.78024 0.05879,0.91748 0.127257,1.68339 0.152123,1.70201 0.02487,0.0192 2.067391,0.11738 4.538919,0.21944 4.405423,0.18207 4.487381,0.17392 4.17268,-0.41416 -0.24499,-0.45778 -0.224759,-0.59982 0.0854,-0.59982 0.223514,0 0.792883,0.61144 1.265245,1.35873 0.472363,0.7473 1.154789,1.55264 1.516504,1.78964 0.676778,0.44344 1.033395,0.50141 6.721257,1.09241 1.840689,0.19118 3.483613,0.39981 3.650953,0.46344 0.16733,0.0637 1.63741,0.12649 3.26683,0.13967 l 2.96258,0.024 0.78612,-1.2453 z m 14.92328,0.39459 2.46581,-0.21417 4.49505,-5.17219 c 3.29987,-3.79697 4.86871,-5.36582 5.90034,-5.9005 1.23308,-0.63909 7.01359,-6.21791 7.02835,-6.78314 0.002,-0.11523 -0.64486,-0.30395 -1.43971,-0.41938 -0.79482,-0.11547 -1.71899,-0.26953 -2.05366,-0.34245 -0.33467,-0.0728 -1.39572,-0.20866 -2.35791,-0.30176 -1.56646,-0.1514 -1.74939,-0.10972 -1.74924,0.39988 9e-5,0.31297 -0.65023,2.0539 -1.44517,3.86874 -1.23048,2.8092 -1.63943,3.44012 -2.75108,4.24409 -1.41266,1.0217 -4.01857,4.00978 -4.01857,4.60794 0,0.62773 -1.30505,1.56989 -2.7382,1.97676 -2.0139,0.57175 -2.54629,0.92436 -3.92484,2.59944 -1.42452,1.73094 -1.52758,2.06511 -0.56216,1.82282 0.37685,-0.0946 1.7948,-0.26834 3.15099,-0.38611 z m -8.39986,-1.17102 c 2.01718,-0.14349 2.92074,-0.36742 4.10732,-1.01848 0.83667,-0.45905 2.73285,-1.29769 4.21373,-1.86364 2.03946,-0.77937 2.76101,-1.20522 2.97492,-1.75569 0.15524,-0.39971 0.24436,-0.76083 0.19788,-0.80247 -0.0465,-0.0417 -0.92347,-0.17104 -1.94881,-0.28759 l -1.86423,-0.21178 0.16324,0.85395 0.16324,0.85395 -0.98451,-0.82841 c -1.47131,-1.23802 -2.03714,-1.05605 -1.05891,0.34056 0.76824,1.09682 0.337,1.05181 -1.01562,-0.10588 -1.5346,-1.31356 -2.23444,-1.38933 -1.17219,-0.12697 1.18393,1.407 0.95112,1.63957 -0.584,0.58338 -1.65546,-1.139 -2.39536,-0.92663 -1.18245,0.33937 0.99394,1.03746 0.82392,1.09555 -0.79259,0.27087 -2.00421,-1.02245 -2.37742,-0.70264 -1.03781,0.88941 0.95403,1.13381 0.73192,1.19784 -0.6085,0.17536 -0.97442,-0.74322 -2.00464,-1.00701 -2.00464,-0.51329 0,0.13607 0.4093,0.63947 0.90956,1.11874 1.19668,1.14651 0.94979,1.31961 -0.4883,0.34239 -1.34302,-0.9126 -1.58041,-0.84612 -0.86695,0.24275 0.63059,0.96242 0.40131,0.99735 -0.7857,0.11978 -0.66426,-0.49111 -0.99215,-0.57762 -1.24208,-0.32768 -0.5584,0.5584 0.85519,2.31227 1.67556,2.07891 0.35518,-0.10109 1.80953,-0.26642 3.23188,-0.36749 z m 17.25723,-3.37864 c 1.82253,-1.29685 4.00433,-2.83301 4.84844,-3.41366 1.1076,-0.76194 1.84193,-1.60872 2.63843,-3.04246 0.60701,-1.0927 1.59907,-2.85182 2.20454,-3.90921 0.8489,-1.48247 0.96377,-1.83688 0.50189,-1.54842 -0.32943,0.20579 -0.98998,1.09689 -1.46788,1.98036 -0.50189,0.9278 -0.9572,1.46347 -1.07794,1.2681 -0.19525,-0.31586 -1.14574,1.5243 -1.1949,2.31328 -0.012,0.18878 -0.12481,0.0788 -0.25142,-0.24414 -0.19189,-0.49 -0.32698,-0.35158 -0.81529,0.83553 -0.70633,1.71717 -1.0559,1.83316 -0.85653,0.28419 0.14421,-1.12116 0.1308,-1.11064 -0.78462,0.6085 -1.0387,1.95081 -1.35905,2.18561 -1.16342,0.85275 0.18039,-1.22952 -0.17273,-0.91782 -0.67104,0.59241 -0.46581,1.41147 -0.89863,1.88889 -0.68118,0.75142 0.2204,-1.15348 -0.17991,-0.89273 -0.72638,0.47295 -0.35396,0.88463 -0.59021,1.14111 -0.85143,0.92431 -0.25152,-0.20866 -0.49521,-0.10781 -0.8007,0.33177 -0.24153,0.34751 -0.89036,1.23222 -1.44186,1.96603 -0.5515,0.73381 -0.93967,1.3342 -0.86257,1.3342 0.0771,0 1.63133,-1.06105 3.45386,-2.35791 z m -4.62291,-4.41157 c 0.67126,-1.37646 0.69195,-1.49669 0.14972,-0.86964 -0.74825,0.86519 -1.10817,0.67984 -0.62389,-0.32128 0.22303,-0.46084 -0.052,-0.28287 -0.78194,0.50637 -0.61913,0.66934 -1.03595,0.96468 -0.9263,0.65629 0.10972,-0.30837 0.2768,-0.92448 0.37142,-1.36911 l 0.17201,-0.80841 -0.66491,0.76062 c -0.36569,0.41835 -0.85128,1.02617 -1.07906,1.35075 -0.56855,0.81011 -0.83743,0.42959 -0.39014,-0.5521 0.59749,-1.31135 1.3e-4,-1.32797 -1.10969,-0.0309 -1.14473,1.33784 -1.182,1.33375 -0.77505,-0.0853 0.35714,-1.24527 -0.05,-1.27735 -0.93961,-0.074 -0.75835,1.02572 -1.365,1.23919 -0.86463,0.30425 0.52728,-0.98523 -0.45495,-0.76594 -1.18944,0.26555 l -0.62237,0.87405 2.65532,0.4585 c 1.46043,0.25217 3.3718,0.47494 4.24749,0.49506 l 1.59217,0.0367 z m 4.1709,-2.35635 c 0.23142,-0.002 1.62343,-2.62598 2.4722,-4.66114 l 0.48409,-1.16076 -1.24343,1.00863 c -0.68389,0.55476 -1.49222,1.21402 -1.79628,1.46501 -0.30405,0.25101 -1.33691,1.94576 -2.29519,3.76611 l -1.74237,3.30974 1.94859,-1.86299 c 1.07171,-1.02466 2.04928,-1.86373 2.17239,-1.8646 z m -41.144911,-5.85834 c 0,-0.50215 -0.535684,0.0692 -0.708759,0.75592 -0.167599,0.66501 -0.15816,0.6685 0.267523,0.0987 0.242681,-0.32482 0.441236,-0.70942 0.441236,-0.85464 z m 2.586092,0.0762 c 0.10342,-0.16745 0.04305,-0.30424 -0.134156,-0.30424 -0.177205,0 -0.322201,0.13703 -0.322201,0.30424 0,0.16746 0.06037,0.30425 0.13418,0.30425 0.07379,0 0.218793,-0.13703 0.322201,-0.30425 z m 21.329779,-1.08975 c -0.10157,-0.26467 -0.18468,-0.60696 -0.18468,-0.76061 0,-0.15357 -0.13691,-0.27936 -0.30425,-0.27936 -0.16733,0 -0.30424,0.34229 -0.30424,0.76062 0,0.49577 0.17023,0.76061 0.48892,0.76061 0.32083,0 0.42543,-0.16554 0.30424,-0.48126 z m 13.80107,-1.28931 c 0.005,-0.24416 -0.25865,-0.36337 -0.67499,-0.30424 -0.49736,0.0707 -0.7117,0.33469 -0.78388,0.96565 l -0.0994,0.86842 0.77432,-0.56417 c 0.42587,-0.31031 0.77863,-0.74485 0.78388,-0.96566 z m -12.18802,0.0633 c -0.19196,-0.48337 -0.41004,-0.71532 -0.48461,-0.51543 -0.14664,0.39308 0.47384,1.75412 0.69765,1.53029 0.0748,-0.0747 -0.0211,-0.53147 -0.21304,-1.01486 z m 9.00402,0.18446 c 0.24042,-0.389 -0.04,-0.3846 -0.78163,0.012 -0.32367,0.1732 -0.58849,0.45186 -0.58849,0.6192 0,0.34943 1.06814,-0.14302 1.37012,-0.63154 z m -11.07904,-0.62061 c 1.46858,-0.74922 1.74917,-1.33004 1.02765,-2.12731 -0.69356,-0.76639 -0.97755,-0.75172 -1.69222,0.0874 l -0.58303,0.68456 0.15042,-0.91274 c 0.0838,-0.50864 -0.12838,-1.75457 -0.47934,-2.81428 -0.65091,-1.9654 -1.05842,-2.53195 -0.76594,-1.06486 0.16659,0.83562 0.28398,1.72426 0.66314,5.02006 0.1107,0.96219 0.25939,1.74942 0.33044,1.74942 0.0711,0 0.67805,-0.28 1.34888,-0.62225 z m 13.86261,-0.47451 c 0.61714,-0.16554 0.66606,-0.41521 0.84878,-4.33134 0.1066,-2.2856 0.40309,-4.95064 0.65875,-5.92226 0.25648,-0.97477 0.4292,-2.67938 0.38536,-3.80308 -0.0728,-1.86678 1.04687,-8.11657 1.86383,-10.40325 0.3833,-1.07291 0.6215,-2.77851 0.81742,-5.85295 0.14853,-2.33158 0.0673,-2.98612 -0.66175,-5.32431 -0.93308,-2.99287 -1.97271,-5.194343 -3.1587,-6.688574 -0.6754,-0.850955 -0.93633,-0.978427 -1.67479,-0.818063 -0.67058,0.145655 -0.8178,0.09774 -0.6307,-0.204827 0.13416,-0.217285 -0.25937,-0.08385 -0.87467,0.296508 -0.6153,0.380284 -1.11873,0.538516 -1.11873,0.351656 0,-0.250033 -0.16743,-0.250177 -0.63401,-3.12e-4 -0.3487,0.186621 -1.27285,0.403809 -2.05366,0.482626 -0.78081,0.07882 -1.89884,0.301611 -2.48451,0.495083 -0.58567,0.193567 -1.40714,0.383805 -1.82547,0.42295 -0.41834,0.03905 -1.22742,0.166496 -1.79795,0.282805 -0.88267,0.180152 -1.00884,0.137509 -0.84623,-0.286351 0.1371,-0.357262 0.0218,-0.498029 -0.40783,-0.498029 -0.41543,0 -0.60191,0.209858 -0.60862,0.684553 -0.01,0.677822 -0.0144,0.678565 -0.4884,0.07618 -0.4458,-0.566641 -0.46646,-0.482937 -0.30048,1.216984 l 0.17824,1.825477 -0.87653,-2.682541 c -0.48209,-1.475425 -0.94666,-2.752684 -1.03237,-2.838424 -0.0857,-0.08576 -0.31069,0.590022 -0.49994,1.501634 -0.18926,0.911613 -0.53913,1.915074 -0.77752,2.229909 -0.38585,0.5096 -0.43449,0.280217 -0.4431,-2.089716 -0.005,-1.464167 0.0105,-2.696363 0.0353,-2.738215 0.0247,-0.04192 -0.25423,-0.662562 -0.61993,-1.379385 -0.59756,-1.171323 -0.71219,-1.256081 -1.13158,-0.836677 -0.87126,0.871246 -2.9171,0.576654 -5.97045,-0.859723 -1.55074,-0.729519 -3.260195,-1.49737 -3.798794,-1.706317 -0.775342,-0.30082 -1.0999,-0.705707 -1.558502,-1.944277 -0.951617,-2.570184 -1.026618,-3.174772 -0.203486,-1.640533 0.842256,1.56991 1.229825,1.910642 0.756138,0.664742 -0.432125,-1.136563 -0.363105,-1.554458 0.144529,-0.875007 0.426153,0.570378 0.43534,0.567167 0.268762,-0.09391 -0.266376,-1.057243 0.02894,-0.829298 1.28112,0.9888 1.176963,1.708905 1.647983,2.179696 1.035213,1.034724 -0.531824,-0.993711 0.20416,-0.456393 3.05907,2.233334 1.47656,1.391124 2.64204,2.26625 2.84703,2.137772 0.34837,-0.218482 0.50334,-0.253722 1.488,-0.339438 0.29283,-0.02539 0.53243,-0.232137 0.53243,-0.459244 0,-0.285177 -0.40003,-0.408528 -1.29305,-0.39873 -1.38368,0.01437 -2.66215,-0.506078 -2.66215,-1.085392 0,-0.263736 0.0934,-0.261005 0.36509,0.0096 0.43764,0.437635 1.76463,0.488662 1.76463,0.0678 0,-0.51154 -1.60807,-1.419871 -1.75156,-0.989375 -0.20955,0.62864 -0.68197,0.415788 -0.68951,-0.31069 -0.0129,-1.246163 -1.59146,-3.685714 -2.80531,-4.335507 -0.84161,-0.450524 -1.249037,-0.937916 -1.569449,-1.877486 -0.238007,-0.697945 -0.355973,-1.345798 -0.262126,-1.439635 0.219752,-0.21968 1.640145,0.117147 2.133955,0.505983 0.25574,0.201473 0.39277,0.187818 0.41834,-0.04192 0.0208,-0.187818 0.0619,-0.512643 0.091,-0.721806 0.0291,-0.209139 -0.19343,-0.996394 -0.4946,-1.749415 l -0.54758,-1.369107 0.989,1.140946 c 0.54395,0.627514 1.09168,1.140923 1.21718,1.140923 0.31761,-2.4e-5 0.28637,-1.033047 -0.0419,-1.384343 -0.14853,-0.159071 -0.36161,-0.631299 -0.47351,-1.04965 -0.19917,-0.744588 -0.18595,-0.741378 0.62664,0.152124 l 0.83009,0.912738 -0.18314,-0.912738 c -0.10074,-0.502007 -0.27585,-1.152327 -0.38914,-1.44517 -0.36649,-0.947331 0.38096,-0.563406 0.78036,0.400839 0.26748,0.645744 0.45988,0.814661 0.6245,0.54829 0.16262,-0.263113 0.30313,-0.125292 0.44394,0.435838 0.2088,0.831958 0.7379,1.138096 0.76129,0.44051 0.007,-0.209139 0.27509,0.09894 0.59574,0.684554 l 0.58299,1.064861 0.0127,-0.977468 c 0.0113,-0.858477 -0.20744,-1.12698 -1.79603,-2.205785 -0.99483,-0.67557 -2.12833,-1.228315 -2.5189,-1.228315 -0.39274,0 -1.18208,0.455794 -1.76611,1.019847 -0.6007,0.580128 -1.521178,1.105779 -2.134929,1.219141 -0.593416,0.10948 -1.523487,0.574833 -2.066822,1.033813 -0.971056,0.820315 -0.993165,0.896712 -1.297874,4.485475 -0.170497,2.008024 -0.534898,4.267063 -0.80979,5.02006 -0.275726,0.755297 -0.547449,2.596729 -0.606078,4.107323 l -0.10627,2.738215 1.242625,-2.551595 c 1.286115,-2.64088 1.812641,-3.084576 1.248197,-1.051829 -0.528375,1.902856 -0.352207,2.174809 0.461956,0.713086 0.464691,-0.834305 0.692303,-1.072001 0.582679,-0.608492 -0.09894,0.41835 -0.23173,0.982858 -0.295064,1.2545 -0.06334,0.271617 -0.185422,1.024638 -0.271291,1.673353 -0.146062,1.103384 -0.09753,1.054608 0.752161,-0.756327 0.499555,-1.064717 0.963811,-1.880289 1.031674,-1.81242 0.06787,0.0678 -0.148457,0.996777 -0.480687,2.064274 -0.842929,2.708341 -0.583994,2.925697 0.623276,0.523183 1.177545,-2.34339 1.789137,-2.722907 0.948567,-0.588656 -0.635989,1.614804 -1.254969,3.727015 -1.0922,3.727015 0.05841,0 0.621709,-0.954494 1.251812,-2.121075 0.630098,-1.166604 1.181408,-2.085307 1.225118,-2.041587 0.0437,0.0436 -0.23451,1.100868 -0.61826,2.349259 -1.226629,3.990272 -1.190059,4.20988 0.27662,1.66128 1.86962,-3.248774 2.11302,-3.422841 1.26035,-0.901431 -1.23591,3.65469 -1.16198,4.037513 0.26222,1.3578 0.75594,-1.422339 1.30659,-2.312271 1.22368,-1.9776 -0.54696,2.207797 -1.07093,4.61 -1.06179,4.867938 0.006,0.167455 0.61313,-0.859483 1.34933,-2.281846 0.7362,-1.422338 1.34304,-2.517624 1.34852,-2.433969 0.005,0.08361 -0.38337,1.486997 -0.86412,3.118523 -0.48074,1.631526 -0.82417,2.966399 -0.76317,2.966399 0.061,0 0.66793,-1.014912 1.34873,-2.25535 1.37623,-2.507562 2.69197,-4.004669 1.54689,-1.760123 -0.56438,1.106282 -1.83677,5.409688 -1.85156,6.262298 -0.003,0.14805 0.29214,-0.10805 0.65491,-0.5693 0.75353,-0.95797 2.2681,-1.677525 3.53098,-1.677525 0.89535,0 2.733,1.160235 3.2222,2.034355 1.04394,1.86543 0.7479,4.71577 -0.84872,8.17144 -0.98636,2.13485 -1.14843,2.32761 -1.84509,2.19443 -0.56114,-0.10732 -0.76237,-0.0168 -0.75854,0.34423 0.007,0.61664 1.02213,4.45395 1.49249,5.63938 0.19417,0.48931 0.32561,1.51616 0.29212,2.28185 -0.0411,0.94017 0.16062,1.8243 0.62142,2.72317 0.37528,0.73206 0.61321,1.59535 0.52872,1.91843 -0.35912,1.3733 1.89251,7.52701 3.15262,8.61616 0.53019,0.45826 0.66122,0.49046 0.53071,0.13032 -0.84757,-2.33804 -1.75715,-5.66674 -1.76503,-6.45925 -0.009,-0.94036 -0.0257,-0.95262 -0.48784,-0.36459 l -0.47815,0.60849 0.15801,-0.60849 c 0.0869,-0.33467 0.2406,-1.29305 0.34154,-2.12972 0.17472,-1.44826 0.16188,-1.48475 -0.26789,-0.76062 -0.54657,0.92096 -0.58957,0.6119 -0.12884,-0.92594 0.18928,-0.63175 0.2455,-1.53756 0.12494,-2.01288 l -0.21923,-0.86425 -0.43129,0.91273 -0.43129,0.91274 0.16597,-1.3439 c 0.1,-0.8097 0.0357,-1.42443 -0.16181,-1.54648 -0.23043,-0.1423 -0.23391,-0.44938 -0.0117,-1.03379 0.17383,-0.45719 0.31604,-1.11738 0.31604,-1.46709 0,-0.62179 -0.0139,-0.62337 -0.62385,-0.0714 l -0.62385,0.56458 0.62385,-1.45538 c 0.82731,-1.93004 0.78666,-2.09005 -0.17241,-0.67863 -0.59064,0.86921 -0.86148,1.0663 -1.0488,0.76322 -0.1389,-0.22471 -0.13823,-0.48068 0.002,-0.56877 0.23813,-0.15021 1.23512,-2.31692 1.23512,-2.68431 0,-0.0925 -0.36623,0.16386 -0.81384,0.56958 l -0.81384,0.7376 0.63298,-1.06486 c 0.34813,-0.58567 0.91779,-1.61651 1.26591,-2.29074 0.81528,-1.57903 3.67913,-9.84298 3.68717,-10.639717 0.003,-0.334671 0.14927,-0.813846 0.32424,-1.064861 0.22945,-0.329185 0.27916,0.13703 0.17835,1.673353 l -0.13974,2.129725 0.76142,-2.224808 c 0.41878,-1.22362 0.80208,-2.181995 0.85179,-2.129723 0.0497,0.05223 -0.0879,1.121926 -0.30588,2.376931 -0.21794,1.25503 -0.35334,2.32688 -0.30088,2.38193 0.0525,0.0551 0.47788,-1.07449 0.94539,-2.51003 0.4675,-1.435559 0.93725,-2.610117 1.04386,-2.610117 0.10661,0 0.0204,0.92316 -0.19165,2.051481 -0.21203,1.128326 -0.34156,2.095446 -0.28783,2.149156 0.0537,0.0537 0.39673,-0.80099 0.76225,-1.899362 0.36551,-1.098353 0.79416,-1.997029 0.95256,-1.997029 0.27034,0 0.12526,2.196322 -0.22608,3.422771 -0.0839,0.29284 -0.0813,0.53243 0.006,0.53243 0.24395,0 1.03095,-1.861748 1.25248,-2.962903 0.31855,-1.583469 0.88927,-1.627717 0.64595,-0.05007 -0.53185,3.448403 -0.51711,3.490113 0.41992,1.187518 1.00261,-2.463723 0.99204,-2.499777 0.44579,1.521235 l -0.14465,1.06486 0.60799,-1.21699 c 0.33439,-0.66934 0.83512,-1.969979 1.11272,-2.890335 0.67725,-2.245361 0.86303,-1.495238 0.26661,1.07648 -0.26218,1.130475 -0.42198,2.110125 -0.35511,2.176985 0.0669,0.0668 0.20262,-0.20123 0.30167,-0.59598 0.29469,-1.174106 1.73143,-4.267187 1.9026,-4.095995 0.087,0.08696 0.005,1.008229 -0.18422,2.047002 -0.1883,1.038773 -0.27951,1.951653 -0.20243,2.028623 0.0769,0.0769 0.43902,-0.75869 0.80452,-1.857072 0.36553,-1.098352 0.72265,-1.997028 0.79363,-1.997028 0.53289,0 -0.88502,6.35302 -2.18498,9.78995 l -0.76843,2.03166 1.21544,3.80188 c 0.66851,2.09103 1.44443,4.24466 1.72429,4.78586 0.39217,0.75836 0.46583,1.42636 0.32138,2.91353 -0.11835,1.21854 -0.0745,1.92954 0.11954,1.92954 0.16889,0 0.30688,-0.27928 0.30688,-0.62061 0,-0.63779 1.10003,-3.03034 1.39325,-3.03034 0.0901,0 0.0827,0.13152 -0.0168,0.29248 -0.38961,0.63037 -1.32309,5.55659 -0.98979,5.22329 0.40053,-0.40056 0.9413,-0.46495 0.7059,-0.0841 -0.0882,0.14278 -0.29188,1.65716 -0.45263,3.36544 -0.16075,1.70829 -0.41967,3.26867 -0.57543,3.46753 -0.15572,0.19884 -0.53421,1.0461 -0.84099,1.88278 -0.30679,0.83668 -0.88993,1.9662 -1.29585,2.51003 l -0.73806,0.9888 1.17704,-0.005 c 0.64737,-0.002 1.47173,-0.0831 1.83192,-0.17991 z m -0.1114,-19.32129 c -0.343,-0.56724 -0.79161,-1.57896 -0.99692,-2.24831 -0.2053,-0.66934 -0.65762,-1.96547 -1.00516,-2.8803 l -0.63185,-1.66334 0.70401,-2.5961 c 0.93614,-3.45221 1.7933,-7.500407 1.88642,-8.909234 0.10828,-1.636892 0.47153,-1.504102 2.07589,0.758555 0.92774,1.308449 1.04532,1.720169 1.25975,4.411569 0.27943,3.50717 -0.48351,8.46968 -1.84848,12.02344 l -0.82002,2.13502 z m 2.60917,-6.86274 c 0.45014,-2.24142 0.44453,-7.02698 -0.01,-8.34668 -0.55823,-1.62156 -1.83089,-3.411539 -2.10742,-2.964081 -0.2994,0.484422 -0.0304,0.937964 0.39888,0.672647 0.21465,-0.132718 0.27432,0.07498 0.1732,0.603533 -0.0848,0.443191 -0.057,0.805821 0.0616,0.805821 0.30346,0 0.18494,2.50193 -0.14446,3.04761 -0.23884,0.39564 -0.20363,0.39531 0.28635,-0.002 0.51636,-0.41962 0.54226,-0.40235 0.34215,0.22807 -0.12481,0.39303 -0.0889,0.68215 0.0846,0.68215 0.17344,0 0.26165,0.70964 0.20818,1.67336 -0.051,0.92033 0.0343,1.67334 0.18949,1.67334 0.25399,0 0.178,1.00253 -0.22471,2.9664 -0.0771,0.3765 -0.0192,0.68456 0.12769,0.68456 0.14733,0 0.42383,-0.77586 0.61429,-1.7241 z M 99.839801,82.903728 c -0.374419,-0.07307 -0.819049,-0.524501 -1.038401,-1.054057 -0.210984,-0.509361 -0.713405,-1.412109 -1.116492,-2.006084 -0.725872,-1.069629 -0.727225,-1.085632 -0.141391,-1.671461 0.585844,-0.585854 0.5935,-0.577397 0.799815,0.882409 0.31788,2.24917 0.436426,2.488662 1.635086,3.303179 0.612582,0.416242 0.979322,0.738192 0.814972,0.71541 -0.16434,-0.02396 -0.59346,-0.09894 -0.953598,-0.169372 z m 19.990829,50.094492 c 0.3417,-1.24804 0.89719,-3.02215 1.23443,-3.94251 l 0.61316,-1.67336 -1.69261,1.66297 c -1.84273,1.81043 -2.07979,1.82993 -0.97775,0.0805 0.39317,-0.62418 0.94994,-1.59068 1.23725,-2.1478 l 0.52239,-1.0129 -0.94352,0.69759 c -0.51894,0.38366 -1.0184,1.04484 -1.1099,1.46928 -0.0915,0.42443 -0.70286,1.90892 -1.35858,3.29886 -1.27879,2.71065 -1.43589,3.40562 -0.76984,3.40562 0.2323,0 0.93765,-1.02888 1.5674,-2.28637 0.62976,-1.25752 1.20079,-2.23061 1.26897,-2.16243 0.0682,0.0683 -0.0773,0.85745 -0.32337,1.75395 -0.24604,0.89649 -0.52337,2.16815 -0.6163,2.82592 -0.28249,1.9994 0.62433,0.67494 1.34827,-1.96924 z m -19.61157,-0.79579 c 0.89506,-0.67763 1.17996,-0.71296 5.78068,-0.7174 2.66157,-0.002 5.00456,-0.10972 5.20664,-0.23812 0.66216,-0.42084 -0.77364,-6.0902 -2.24228,-8.85381 -0.51878,-0.97623 -0.71259,-1.84064 -0.71626,-3.19459 -0.003,-1.2773 -0.31887,-2.79997 -1.01129,-4.88212 l -1.00626,-3.02588 -2.25936,-0.39787 c -1.24264,-0.21872 -2.71626,-0.43164 -3.2747,-0.47295 l -1.015348,-0.075 -1.375767,3.65095 c -1.129949,2.9986 -1.393124,4.08586 -1.472892,6.08493 -0.05342,1.33868 -0.297296,2.91316 -0.541951,3.49883 -0.27018,0.64677 -0.531046,2.76662 -0.664435,5.39927 l -0.219608,4.33443 1.935688,-0.19884 c 1.333381,-0.13703 2.228634,-0.42067 2.877143,-0.91163 z m 26.09329,-0.63669 c 0.10373,-0.62751 0.18399,-2.64694 0.17824,-4.48764 -0.01,-2.89448 -0.10541,-3.52846 -0.71395,-4.69181 l -0.70354,-1.34508 -0.78007,1.34508 c -0.87788,1.51376 -3.56603,8.63313 -3.56603,9.44436 0,0.66115 0.52034,0.79655 3.23084,0.84073 l 2.16597,0.0352 z m -9.18275,-0.60849 c 0.65903,-1.12748 1.39181,-3.97514 1.76722,-6.86756 0.51909,-3.99928 0.50274,-4.07031 -1.59263,-6.91695 -1.04585,-1.42086 -2.24358,-3.23038 -2.66163,-4.0212 -0.56223,-1.06357 -0.93843,-1.43787 -1.44517,-1.43787 -0.66724,0 -0.68507,0.0834 -0.68507,3.20436 0,2.1642 0.14857,3.55995 0.45769,4.29979 0.25174,0.60248 0.52628,2.3437 0.61008,3.86936 0.21436,3.90221 0.40545,5.28072 0.98554,7.10946 0.43858,1.38266 0.61203,1.59729 1.2908,1.59729 0.53403,0 0.94011,-0.26685 1.27317,-0.83668 z m 2.6598,-5.05598 c 0.74567,-1.20652 0.81409,-1.6338 0.17694,-1.10501 -0.59887,0.49702 -0.57842,0.17608 0.054,-0.84739 0.49043,-0.7937 0.48891,-0.80618 -0.0389,-0.31977 -0.30213,0.2784 -0.59401,0.82604 -0.64863,1.21699 -0.0546,0.39092 -0.18997,1.01884 -0.30077,1.39534 -0.28989,0.98496 0.0262,0.84302 0.75742,-0.34016 z m 6.38417,-5.54921 c 0.22615,-0.81895 0.19453,-1.37876 -0.12457,-2.20578 -0.23501,-0.60955 -0.64826,-1.99821 -0.9181,-3.0859 -0.26984,-1.08767 -0.70379,-2.72216 -0.96434,-3.63219 -0.43866,-1.53209 -0.5053,-1.61143 -0.90009,-1.0715 -0.46902,0.64141 -0.3824,1.856 0.38967,5.46431 0.38967,1.82116 1.82239,5.62855 2.11803,5.62855 0.0529,0 0.23262,-0.49386 0.3993,-1.09749 z m -1.96075,-0.95617 c -0.12661,-0.29284 -0.52415,-1.60228 -0.88344,-2.90984 -0.64464,-2.34607 -0.65894,-2.36677 -1.08525,-1.57022 -0.38852,0.72595 -0.37686,0.83807 0.11588,1.11383 0.38001,0.21273 0.49408,0.52088 0.37231,1.00605 -0.11626,0.46319 -0.022,0.75831 0.27866,0.87373 0.24981,0.0958 0.4542,0.49806 0.4542,0.89377 0,0.76282 0.22275,1.12511 0.69175,1.12511 0.15735,0 0.1825,-0.23959 0.0559,-0.53243 z m -15.9794,-5.29614 c -0.73013,-2.75364 -1.36163,-4.18496 -1.06248,-2.40819 0.26851,1.59483 1.40963,5.27225 1.5824,5.0995 0.0842,-0.0843 -0.14976,-1.29529 -0.51992,-2.69131 z m -10.976805,0.1102 c 1.086085,-2.72163 1.4716,-4.3218 1.041219,-4.3218 -0.243687,0 -0.846779,1.76638 -2.10355,6.16098 -0.08375,0.29285 -0.09192,0.53243 -0.01821,0.53243 0.07376,0 0.559976,-1.0672 1.080495,-2.37161 z m 25.148585,-2.43301 -0.20665,-0.82333 -0.41626,0.76033 c -0.36447,0.6657 -0.35235,0.80893 0.0974,1.15115 0.62772,0.47764 0.81909,0.0815 0.52554,-1.08815 z m -24.817946,-1.96485 c 0.0093,-0.29284 -0.188369,-0.53243 -0.43937,-0.53243 -0.269447,0 -0.457739,0.28038 -0.459715,0.68455 -0.0019,0.3765 -0.07496,1.2322 -0.162473,1.90154 l -0.159142,1.21698 0.601847,-1.3691 c 0.331017,-0.753 0.609498,-1.6087 0.618846,-1.90154 z m 20.766816,1.23042 1.61227,-0.36684 -2.12972,-0.22184 c -1.17135,-0.12194 -2.60801,-0.36763 -3.19257,-0.54587 -1.60361,-0.48892 -1.82749,-0.41682 -1.82749,0.58868 v 0.91274 h 1.96263 c 1.07944,0 2.68814,-0.16506 3.57488,-0.36687 z m -10.40545,-0.79408 c 0,-0.13655 -0.58187,-0.55648 -1.29305,-0.93322 l -1.29304,-0.68499 1.05337,0.9332 c 1.05599,0.93555 1.53272,1.14861 1.53272,0.68501 z m -3.64025,-1.86151 c -0.17322,-0.32367 -0.31495,-1.51478 -0.31495,-2.64693 0,-1.60103 -0.0811,-1.97732 -0.36509,-1.69336 -0.72512,0.72511 -1.70777,0.33438 -3.932147,-1.56356 -3.515025,-2.999175 -5.739871,-5.634377 -5.741515,-6.800454 -0.0019,-1.326681 -0.478629,-1.516703 -0.88447,-0.352519 -0.183625,0.526777 -0.333882,1.072432 -0.333882,1.212529 0,0.140145 0.774474,1.180738 1.721053,2.31251 0.946579,1.131772 1.939183,2.327024 2.205784,2.656144 0.266604,0.32913 -0.244903,-0.0144 -1.136682,-0.76062 -2.176529,-1.824278 -2.790155,-2.246126 -2.790155,-1.918139 0,0.151644 0.753009,1.019344 1.673353,1.928249 0.920345,0.90891 1.673354,1.7665 1.673354,1.90576 0,0.13918 -0.606537,-0.16411 -1.347863,-0.67416 -0.741325,-0.51003 -1.434324,-0.92735 -1.539998,-0.92735 -0.105672,0 -0.113577,0.49424 -0.01749,1.09835 0.179769,1.1311 2.985064,4.68213 4.221748,5.34397 0.559199,0.29927 0.551361,0.23717 -0.107684,-0.85399 -0.390923,-0.64721 -1.103187,-1.75864 -1.582811,-2.46981 -0.479621,-0.71117 -0.728549,-1.29305 -0.553177,-1.29305 0.175385,0 0.32006,0.10278 0.321524,0.22831 0.0015,0.12553 0.904912,1.18656 2.007662,2.35791 1.874537,1.99113 1.933446,1.79133 0.222651,-0.75518 -1.129958,-1.68196 -0.828431,-1.74659 0.581304,-0.12457 0.711177,0.81823 1.823841,2.03547 2.472591,2.70498 1.03013,1.06309 1.11065,1.10168 0.63568,0.30456 -0.29913,-0.50201 -0.86052,-1.38415 -1.24755,-1.9603 -1.220575,-1.81707 -0.474221,-1.44017 1.95135,0.9854 1.2892,1.2892 2.38415,2.344 2.43323,2.344 0.0491,0 -0.0525,-0.26481 -0.22574,-0.58849 z m -7.800598,0.0311 c 0.08603,-0.13919 -0.52199,-0.92129 -1.351152,-1.73799 -0.829162,-0.81669 -1.507566,-1.41175 -1.507566,-1.32234 0,0.74902 1.063491,3.00118 1.467643,3.108 0.863707,0.2283 1.228213,0.21585 1.391075,-0.0477 z m 13.278638,-1.13594 c 0.36873,-0.59663 0.92557,-1.86306 1.23741,-2.81428 l 0.56699,-1.7295 -0.14774,1.44517 c -0.0813,0.79484 -0.22213,2.09549 -0.31303,2.89033 -0.15667,1.36985 -0.14266,1.40552 0.26888,0.68456 0.61659,-1.08022 0.89789,-3.11666 0.6647,-4.8121 -0.18079,-1.31465 -0.33006,-1.53222 -1.56137,-2.27595 -2.40938,-1.455327 -4.50443,-0.799976 -5.40748,1.69154 -0.55696,1.53663 -0.84023,3.63361 -0.45902,3.39799 0.14873,-0.092 0.27175,-0.46707 0.27338,-0.83373 0.003,-0.7724 1.45387,-4.02697 1.68961,-3.79124 0.0871,0.0872 -0.0699,0.72878 -0.34882,1.42596 -0.7376,1.84342 -0.33132,1.84787 0.46143,0.005 0.77028,-1.79055 1.19622,-1.87191 0.49082,-0.0937 -0.55683,1.40365 -1.0921,4.11324 -0.77368,3.91644 0.12326,-0.0762 0.53242,-0.96288 0.90922,-1.97046 0.37681,-1.00756 0.78942,-1.83192 0.91691,-1.83192 0.12749,0 0.0425,0.99258 -0.18887,2.20578 -0.23137,1.21317 -0.41003,2.34269 -0.39703,2.51003 0.034,0.43713 1.48614,-2.6479 1.50374,-3.19458 0.008,-0.25102 0.21726,-0.79866 0.46484,-1.21699 0.43789,-0.73992 0.44494,-0.72751 0.25903,0.45637 -0.10512,0.66934 -0.36426,2.07266 -0.57589,3.11852 -0.21163,1.04584 -0.34421,1.90154 -0.29463,1.90154 0.0496,0 0.39185,-0.48816 0.76059,-1.08479 z m 10.55165,-14.322539 c 1.20846,-0.399832 2.85139,-0.80218 3.65095,-0.8941 0.79957,-0.09199 1.79604,-0.248931 2.21436,-0.348949 0.75762,-0.18111 0.75702,-0.182787 -0.15212,-0.400742 -2.34393,-0.562113 -4.6002,-0.319315 -7.19251,0.773983 -2.65081,1.117972 -3.56968,1.269712 -4.54095,0.749906 -0.32367,-0.173204 -0.58849,-0.244954 -0.58849,-0.15931 0,0.08553 0.51341,0.426352 1.14092,0.757334 1.31625,0.69428 2.14324,0.621979 5.46784,-0.47805 z M 105.74993,83.94516 c -0.35132,-0.875223 -0.83036,-1.749559 -1.06454,-1.943007 -0.23418,-0.193328 -0.50524,-1.12159 -0.60236,-2.062573 -0.0971,-0.940983 -0.2612,-1.76319 -0.36463,-1.827105 -0.10342,-0.06396 -0.44363,0.07067 -0.756,0.299071 -0.90614,0.662562 -0.70996,2.801532 0.44456,4.84724 0.87108,1.543462 2.24242,2.734573 2.77172,2.407449 0.11549,-0.07139 -0.0774,-0.845876 -0.42875,-1.721075 z m 1.59292,-2.633933 c -0.32939,-2.688961 -0.47308,-3.151199 -1.14349,-3.678551 -0.42172,-0.331724 -0.90361,-0.603126 -1.07086,-0.603126 -0.41279,0 -0.10376,4.125529 0.34999,4.672238 0.19249,0.231898 0.56399,1.142384 0.82557,2.023237 0.42888,1.444163 0.52179,1.555344 0.94557,1.13158 0.41283,-0.412841 0.42416,-0.84384 0.0932,-3.545378 z m -9.025115,2.854979 c -0.09908,-0.258202 -0.245412,-0.404241 -0.325163,-0.32449 -0.07975,0.07977 -0.05476,0.291022 0.05553,0.469498 0.300004,0.485404 0.475348,0.391112 0.269622,-0.144937 z m 2.595785,-4.511252 c -0.34115,-0.748733 -0.8753,-1.092531 -0.8753,-0.563382 0,0.357142 0.95537,1.64772 1.10729,1.495789 0.0729,-0.07283 -0.0315,-0.492448 -0.23199,-0.932407 z m -7.568712,-2.46619 c 0,-0.135593 -2.405576,-1.376198 -2.66859,-1.376198 -0.06619,0 -0.06665,0.160986 -0.001,0.35786 0.06562,0.196922 0.658886,0.524741 1.318399,0.728729 0.659512,0.203869 1.233339,0.385195 1.275172,0.402731 0.04183,0.01677 0.07606,-0.0333 0.07606,-0.113074 z m 16.652322,-0.68187 c -0.89299,-0.134875 -0.85994,-0.694328 0.041,-0.694328 0.29281,0 0.79814,-0.212973 1.12296,-0.473163 0.5661,-0.453518 0.56194,-0.459244 -0.10026,-0.137989 -0.37996,0.184225 -0.82463,0.252405 -0.98817,0.151405 -0.32885,-0.203151 -2.12406,0.755153 -2.12406,1.133951 0,0.131281 0.65033,0.218243 1.44517,0.193089 0.90328,-0.02851 1.12951,-0.09319 0.60334,-0.172726 z m 2.05882,-2.666418 0.60849,-0.495442 -0.60849,0.298736 c -0.33467,0.164341 -0.88232,0.521674 -1.21699,0.794178 l -0.60849,0.495442 0.60849,-0.298736 c 0.33467,-0.164341 0.88232,-0.521674 1.21699,-0.794178 z m -4.71582,0.147571 c 0,-0.166736 -0.51342,-0.873498 -1.14092,-1.570293 -0.67932,-0.754339 -0.89336,-1.135389 -0.52903,-0.941798 0.33654,0.178715 0.87118,0.611631 1.18808,0.961801 0.57822,0.638917 1.39461,0.860849 1.39461,0.379086 0,-0.327316 -2.07949,-2.480636 -2.39558,-2.480636 -0.13011,0 -0.56812,0.352926 -0.97335,0.784285 l -0.73679,0.78426 1.3183,1.193339 c 1.32007,1.194921 1.87468,1.458202 1.87468,0.889956 z M 93.238784,121.04136 c -0.134132,-0.81018 -0.171815,-1.54512 -0.08373,-1.63318 0.254539,-0.25456 0.551988,1.27381 0.434554,2.23281 -0.08696,0.71018 -0.15253,0.59809 -0.350827,-0.59963 z"
       id="path826"
       inkscape:connector-curvature="0" />
  </g>
</svg>
