<?xml version="1.0" encoding="UTF-8" standalone="no"?>
<!-- Created with Inkscape (http://www.inkscape.org/) -->

<svg
   xmlns:dc="http://purl.org/dc/elements/1.1/"
   xmlns:cc="http://creativecommons.org/ns#"
   xmlns:rdf="http://www.w3.org/1999/02/22-rdf-syntax-ns#"
   xmlns:svg="http://www.w3.org/2000/svg"
   xmlns="http://www.w3.org/2000/svg"
   xmlns:sodipodi="http://sodipodi.sourceforge.net/DTD/sodipodi-0.dtd"
   xmlns:inkscape="http://www.inkscape.org/namespaces/inkscape"
   width="210mm"
   height="297mm"
   viewBox="0 0 210 297"
   version="1.1"
   id="svg2526"
   inkscape:version="0.92.2 (5c3e80d, 2017-08-06)"
   sodipodi:docname="Bergsteiger.svg">
  <defs
     id="defs2520" />
  <sodipodi:namedview
     id="base"
     pagecolor="#ffffff"
     bordercolor="#666666"
     borderopacity="1.0"
     inkscape:pageopacity="0.0"
     inkscape:pageshadow="2"
     inkscape:zoom="1.3794118"
     inkscape:cx="265.88486"
     inkscape:cy="591.42857"
     inkscape:document-units="mm"
     inkscape:current-layer="layer1"
     showgrid="false"
     inkscape:window-width="1920"
     inkscape:window-height="1017"
     inkscape:window-x="-8"
     inkscape:window-y="-8"
     inkscape:window-maximized="1" />
  <metadata
     id="metadata2523">
    <rdf:RDF>
      <cc:Work
         rdf:about="">
        <dc:format>image/svg+xml</dc:format>
        <dc:type
           rdf:resource="http://purl.org/dc/dcmitype/StillImage" />
        <dc:title></dc:title>
      </cc:Work>
    </rdf:RDF>
  </metadata>
  <g
     inkscape:label="Ebene 1"
     inkscape:groupmode="layer"
     id="layer1">
    <path
       style="fill:#000000;stroke-width:0.1;stroke:#000000;stroke-opacity:1;stroke-miterlimit:4;stroke-dasharray:none"
       d="m 112.24593,185.37709 c -0.63749,-2.19505 -4.12241,-12.40349 -7.45258,-21.83103 -0.50119,-1.41883 -0.84837,-2.57969 -0.77152,-2.57969 0.25215,0 1.46379,2.94264 3.8653,9.38741 1.30032,3.48958 2.43265,6.40661 2.51629,6.48229 0.0836,0.0757 0.0865,-0.51725 0.006,-1.31761 -0.0801,-0.80037 -1.29513,-4.84849 -2.70007,-8.99584 -3.8495,-11.36364 -3.67769,-10.7539 -3.69026,-13.09687 -0.006,-1.16417 0.0916,-2.96251 0.21748,-3.99632 0.19336,-1.58831 0.1451,-2.14195 -0.31139,-3.57188 -0.29712,-0.93072 -0.61319,-2.02226 -0.70237,-2.42565 -0.20682,-0.93547 -0.42926,-0.8236 -3.584836,1.80278 -1.304031,1.08535 -2.486721,1.97336 -2.628199,1.97336 -0.249431,0 -0.733176,0.75604 -1.354325,2.11667 -0.317979,0.69653 -0.219194,1.54021 0.708265,6.04894 0.453647,2.20535 0.452716,2.22818 -0.289507,7.08545 -0.634815,4.15435 -0.716687,5.29001 -0.555191,7.70092 0.10419,1.55538 0.294722,3.02469 0.423405,3.26514 0.128685,0.24045 0.303916,1.37535 0.389406,2.52201 0.167976,2.25308 -0.146069,3.32575 -1.023128,3.49465 -0.261599,0.0504 -2.163607,-0.74528 -4.226687,-1.76813 -3.846843,-1.90723 -6.264587,-2.68061 -6.264587,-2.00389 0,1.82605 1.301805,5.19602 2.926871,7.57674 1.047395,1.53443 1.053666,1.55689 0.273754,0.98027 -2.133648,-1.57747 -3.494522,-4.4115 -4.007898,-8.34647 -0.168357,-1.29044 -0.642316,-3.22014 -1.053243,-4.28822 -0.61799,-1.60627 -0.663197,-1.86599 -0.261527,-1.50249 0.267086,0.24171 0.735232,1.01974 1.040325,1.72894 l 0.554715,1.28947 1.387981,-0.40986 c 1.080698,-0.31912 3.133592,-1.36864 4.662223,-2.3835 0.05458,-0.0362 -0.149334,-1.46982 -0.453147,-3.18574 -0.303813,-1.71592 -0.740717,-4.60814 -0.970897,-6.42715 -0.230182,-1.81901 -0.717949,-5.09169 -1.083926,-7.27262 -0.373518,-2.22585 -0.639143,-4.77539 -0.605525,-5.81196 l 0.05989,-1.84664 -1.229317,-0.75548 c -0.676125,-0.41551 -1.334799,-0.69028 -1.463723,-0.6106 -0.128921,0.0797 -0.304522,0.53471 -0.390223,1.01119 -0.587502,3.26636 -0.641835,3.96499 -0.446633,5.74323 0.160523,1.46232 0.115398,2.33093 -0.178445,3.43496 -0.386718,1.45299 -0.359426,4.58509 0.05323,6.10792 0.307702,1.13554 -0.81466,-0.79162 -1.367404,-2.3479 -0.461423,-1.29917 -0.461095,-1.40909 0.0097,-3.23668 0.331637,-1.28738 0.474499,-2.70967 0.447128,-4.45153 -0.02776,-1.76682 0.135075,-3.35676 0.525698,-5.13293 0.670533,-3.04893 0.508796,-4.57841 -0.799333,-7.55886 -1.091187,-2.48617 -1.211223,-3.21876 -0.691936,-4.22296 0.236178,-0.45671 0.456121,-0.82967 0.488765,-0.8288 0.03264,8e-4 0.08015,0.62596 0.105579,1.38906 0.02867,0.86058 0.394812,2.28244 0.964163,3.74419 l 0.917935,2.35672 1.549379,0.48366 c 1.634741,0.5103 3.932478,0.65197 4.176278,0.2575 0.285163,-0.4614 -0.449402,-3.42489 -2.119296,-8.54997 -0.93403,-2.86662 -1.698234,-5.64887 -1.698234,-6.18278 0,-0.69732 -0.219503,-1.22074 -0.779317,-1.85833 -1.242718,-1.41538 -1.655611,-3.5796 -1.035301,-5.42664 0.402204,-1.19759 0.904039,-1.74067 1.764305,-1.90931 0.873403,-0.17122 3.885129,0.39284 5.945463,1.11351 0.84124,0.29425 1.687425,0.47441 1.880415,0.40036 0.35696,-0.13698 6.461412,1.55777 7.378022,2.04832 0.59357,0.31767 0.51724,0.3935 1.10429,-1.09705 0.25791,-0.65484 0.52502,-1.33131 0.59356,-1.50326 0.0753,-0.1888 -0.5912,-0.06 -1.68268,0.32515 -0.99401,0.35078 -2.140131,0.6403 -2.546928,0.64337 -1.017608,0.008 -1.90214,-0.95668 -2.975374,-3.24388 -0.830104,-1.76907 -0.896898,-1.84325 -0.905701,-1.00592 -0.01535,1.45913 -0.274426,0.77734 -0.512993,-1.34996 -0.180019,-1.60524 -0.397708,-2.23857 -1.171612,-3.40863 -0.636783,-0.96275 -1.117769,-2.15918 -1.457266,-3.62489 -0.294987,-1.27352 -0.80621,-2.61992 -1.223323,-3.22181 -0.42274,-0.61001 -0.759404,-1.503 -0.821047,-2.17781 -0.09476,-1.03735 -0.08349,-1.06396 0.121055,-0.28589 0.323316,1.22984 2.147131,3.90425 3.022285,4.43182 1.708669,1.03004 4.159033,3.64923 4.934895,5.2749 0.429741,0.90044 1.025361,1.858 1.323597,2.1279 0.535244,0.48439 0.566266,0.4667 2.402482,-1.36951 l 1.86024,-1.86024 -1.79652,-1.73245 c -1.75605,-1.69343 -2.981489,-2.71964 -5.348481,-4.47894 -0.646985,-0.48088 -1.441643,-1.4028 -1.776312,-2.06078 -0.578265,-1.13691 -2.066972,-5.568606 -3.280751,-9.766379 -0.761291,-2.632865 -1.076502,-2.072656 -1.029055,1.828879 0.02035,1.673489 0.0094,3.399896 -0.02421,3.836458 -0.149558,1.93916 -0.550058,-1.809981 -0.62181,-5.820833 -0.07035,-3.932677 -0.131263,-4.384446 -0.857642,-6.36104 -0.776026,-2.111694 -2.16313,-4.763931 -2.378742,-4.548319 -0.06182,0.06182 0.19185,0.800338 0.5637,1.64116 0.371851,0.840822 0.627179,1.577683 0.567394,1.637469 -0.14007,0.140065 -3.539286,-5.077839 -4.767479,-7.318229 -0.799997,-1.4593 -3.348326,-7.026041 -3.348326,-7.31431 0,-0.05171 0.15087,-0.09402 0.335269,-0.09402 0.184399,0 1.132464,1.599573 2.106814,3.554606 1.331536,2.671728 2.243616,4.101052 3.672178,5.754687 1.04535,1.210045 2.15111,2.537923 2.457249,2.950839 0.306139,0.412916 1.353397,1.280681 2.327238,1.928367 1.976329,1.314421 1.947291,1.273656 4.97073,6.978168 2.894478,5.461195 5.310306,9.092057 6.330706,9.514723 0.43362,0.17961 1.65839,1.088824 2.72171,2.020474 2.43303,2.13174 2.93834,2.14936 3.05272,0.10647 0.0448,-0.80037 0.19112,-1.779998 0.32513,-2.176966 0.15047,-0.445738 0.14851,-0.780552 -0.005,-0.875509 -0.50074,-0.30948 -0.22844,-0.950373 0.54132,-1.274032 1.2457,-0.523772 2.64949,-2.335252 2.64949,-3.418934 0,-0.984109 0.84594,-2.308726 1.47441,-2.308726 0.20772,0 0.37768,0.117733 0.37768,0.26163 0,0.143897 0.98226,0.754048 2.18281,1.355892 1.20055,0.601844 2.52411,1.335534 2.94125,1.630423 1.66538,1.177311 2.27892,4.47761 1.21875,6.555722 -0.62365,1.22246 -2.4284,2.63175 -3.37023,2.63175 -0.62322,0 -0.63415,0.0275 -0.24597,0.61998 1.2407,1.89354 1.08075,6.13265 -0.4962,13.15096 -0.77225,3.43692 -1.64347,6.29774 -2.12897,6.99089 -0.20132,0.28742 -0.36809,0.88304 -0.37062,1.3236 -0.004,0.72385 -0.44136,3.07096 -0.92546,4.96821 -0.17434,0.68328 -0.13293,0.72761 0.67969,0.72761 1.19233,0 3.01362,1.12262 3.42241,2.10954 0.38707,0.93447 0.25146,2.06514 -0.54033,4.50504 -1.23863,3.81683 -2.31776,4.73034 -5.16733,4.37432 -2.20327,-0.27529 -2.69803,-1.14705 -1.83001,-3.2245 0.56652,-1.35588 0.50111,-1.37312 -0.41445,-0.10922 -0.5525,0.76271 -1.22773,1.29305 -2.11667,1.66247 -1.57509,0.65458 -1.61873,0.93824 -0.59464,3.86486 0.63637,1.81862 0.71575,2.44609 0.75904,5.99978 0.0451,3.69957 0.11207,4.1841 0.98793,7.14375 3.20314,10.82389 4.4433,15.49209 4.69805,17.6844 0.33463,2.87975 1.43759,8.56213 1.98137,10.20786 0.2125,0.64314 0.32718,1.22853 0.25484,1.30087 -0.0723,0.0723 -0.14338,-0.0371 -0.15789,-0.2433 -0.0145,-0.20616 -0.1038,-0.10563 -0.19844,0.22339 -0.13064,0.4542 -0.35262,-0.0235 -0.92211,-1.98438 z m -16.633101,-8.33985 c 0.04717,-0.90296 -0.02951,-1.51878 -0.189127,-1.51878 -0.446704,0 -0.816263,0.95921 -0.816263,2.11867 0,0.90016 0.08243,1.07944 0.463021,1.00701 0.365241,-0.0695 0.479777,-0.40885 0.542369,-1.6069 z m -2.59289,-3.28147 c 0,-0.42768 -1.351029,-2.42482 -1.741779,-2.57477 -0.406394,-0.15594 -3.095762,1.17088 -3.412693,1.68369 -0.07621,0.12332 0.724942,0.36679 1.780347,0.54105 1.055404,0.17425 2.037979,0.35432 2.1835,0.40013 0.493271,0.15531 1.190625,0.12596 1.190625,-0.0501 z m 1.606325,-7.10086 c -0.153678,-2.18281 -0.517649,-5.33796 -0.808823,-7.01145 -0.291177,-1.67349 -0.512361,-3.81662 -0.491522,-4.7625 0.02085,-0.94589 0.07906,-1.36261 0.129373,-0.92605 0.296373,2.57144 1.481828,6.4823 1.964907,6.4823 0.442968,0 0.260877,-4.13598 -0.281739,-6.39939 -0.290023,-1.20976 -0.528148,-2.77314 -0.529166,-3.47417 -0.0016,-1.16396 -0.04891,-1.25967 -0.543936,-1.10255 -0.298143,0.0946 -1.127575,-0.0385 -1.84318,-0.29582 -1.253085,-0.4506 -1.320954,-0.4499 -1.839169,0.0191 -0.496009,0.44888 -0.537872,0.79915 -0.535522,4.48083 0.0026,3.99602 0.413602,8.72897 1.205426,13.87944 0.385934,2.51034 0.497916,2.81819 1.326562,3.64684 0.497777,0.49777 0.905047,1.02014 0.905047,1.1608 0,0.14068 0.119063,0.25577 0.264584,0.25577 0.154167,0 0.275886,-0.96614 0.291666,-2.3151 0.03003,-2.56686 0.271925,-2.07363 0.679717,1.38597 l 0.218675,1.85517 0.08326,-1.45521 c 0.04579,-0.80036 -0.04248,-3.24114 -0.19616,-5.42396 z m 0.620993,-19.34289 c 0.313947,-0.12047 0.417502,-0.53364 0.414465,-1.65364 -0.0026,-0.94683 -0.08803,-1.36049 -0.233596,-1.1307 -0.132784,0.20961 -0.660826,0.35629 -1.252717,0.34798 l -1.023178,-0.0144 0.09168,1.30567 c 0.08667,1.23435 0.132459,1.30566 0.838259,1.30566 0.410614,0 0.934905,-0.0723 1.165087,-0.1606 z m 1.737381,-2.93103 c 0.005,-1.37089 -0.335298,-2.2962 -1.236226,-3.36131 l -0.696227,-0.8231 0.187873,1.19063 c 0.103333,0.65484 0.362606,1.45761 0.576164,1.78393 0.213561,0.32632 0.463042,1.13868 0.554403,1.80523 0.199927,1.45862 0.607944,1.06298 0.614013,-0.59538 z m 4.838402,-1.89387 c 0.68809,-0.47341 1.25096,-0.94433 1.25083,-1.04648 -1.3e-4,-0.10215 -0.73112,-0.45158 -1.62442,-0.77652 -1.40035,-0.50938 -1.568717,-0.52761 -1.22169,-0.1323 0.22138,0.25218 0.49131,0.75617 0.59985,1.11997 0.1771,0.5936 0.0976,0.55967 -0.77519,-0.33073 -0.9635,-0.98297 -1.961223,-1.43747 -1.123504,-0.5118 0.239106,0.26421 0.507074,0.88928 0.595481,1.38906 l 0.160743,0.90868 -0.511599,-0.79375 c -0.530367,-0.82288 -1.391102,-1.65334 -1.391102,-1.34218 0,0.0978 0.185785,0.5371 0.412856,0.9762 0.227068,0.43911 0.366903,0.99874 0.31074,1.24364 -0.07169,0.3126 -0.224843,0.16936 -0.514054,-0.48079 l -0.411938,-0.92604 0.02188,1.19063 c 0.01204,0.65484 -0.06858,1.64617 -0.179152,2.20294 l -0.201027,1.01232 1.675122,-1.42105 c 0.921316,-0.78157 2.238094,-1.80838 2.926184,-2.2818 z m -9.089235,0.28915 c -0.126724,-0.5457 -0.228467,-1.28984 -0.226094,-1.65365 0.0032,-0.49146 0.168846,-0.28746 0.64452,0.79375 0.728371,1.65561 0.811635,1.3694 0.266205,-0.91504 -0.472337,-1.97829 -0.331306,-2.19704 0.262961,-0.40787 0.247933,0.74645 0.49819,1.30979 0.556123,1.25186 0.05793,-0.0579 -0.299165,-1.94088 -0.793552,-4.18433 -1.257337,-5.70558 -1.36049,-6.68957 -0.413739,-3.9467 l 0.776266,2.24896 -0.121962,-3.43959 c -0.151712,-4.27862 -0.671047,-6.78136 -1.715717,-8.26822 -0.93508,-1.3309 -0.763326,-1.44825 0.428683,-0.29292 l 0.857959,0.83157 0.175942,-0.70101 c 0.249891,-0.99564 -0.08045,-2.49961 -0.834191,-3.79785 -0.670076,-1.15414 -0.822894,-1.23067 -3.810603,-1.90836 -2.736707,-0.62075 -3.66335,-0.16348 -3.898623,1.92385 -0.149412,1.32559 0.239483,2.78529 1.103832,4.14315 0.324209,0.50933 0.739476,1.69561 0.922813,2.63619 0.183335,0.94059 0.804461,3.02418 1.380276,4.63021 1.380789,3.85123 2.342856,7.58059 2.347685,9.10059 0.0041,1.29289 0.43448,2.43536 0.985925,2.61723 0.235209,0.0776 0.287692,-0.14168 0.184994,-0.77285 l -0.143375,-0.88116 0.548933,0.99219 c 0.301911,0.5457 0.59308,0.99219 0.647039,0.99219 0.05396,0 -0.0056,-0.44649 -0.1323,-0.99219 z m -2.36375,0 c -0.01069,-0.52412 -0.509027,-0.72761 -1.781887,-0.72761 -1.590609,0 -1.767247,0.19901 -0.529167,0.59618 1.037202,0.33272 2.31665,0.40549 2.311054,0.13143 z m 23.669775,-4.38723 c 0.40942,-1.04315 0.80313,-2.3948 0.87491,-3.00367 0.1129,-0.95769 0.0317,-1.19864 -0.60203,-1.78594 -0.4029,-0.37339 -0.86398,-0.67864 -1.02463,-0.67835 -0.32049,5.3e-4 -2.31359,6.15941 -2.26887,7.01092 0.0159,0.302 0.17106,0.0748 0.36152,-0.52917 0.18355,-0.58208 0.53316,-1.41552 0.7769,-1.85208 l 0.44316,-0.79375 -0.17187,0.79375 c -0.0945,0.43656 -0.27351,1.06939 -0.39772,1.40628 -0.12422,0.3369 -0.22119,0.87268 -0.21549,1.19063 0.008,0.45731 0.092,0.39007 0.40094,-0.32184 0.48269,-1.11216 0.81808,-0.89743 0.41305,0.26445 -0.8508,2.44059 0.35591,0.98479 1.41013,-1.70123 z m -7.31958,1.00915 c 1.22747,-1.22747 1.35782,-1.74001 0.29831,-1.17298 -0.85941,0.45994 -3.67996,0.15186 -6.03964,-0.65969 -1.079595,-0.3713 -2.011867,-0.62612 -2.071716,-0.56627 -0.204171,0.20417 2.708166,2.3473 4.034606,2.969 1.89422,0.8878 2.39634,0.81204 3.77844,-0.57006 z m 2.14533,-2.00925 c 0.25,-0.71714 0.23628,-0.78117 -0.10641,-0.49677 -0.21637,0.17957 -0.3934,0.55004 -0.3934,0.82327 0,0.72335 0.17329,0.61015 0.49981,-0.3265 z m -1.07364,-1.10759 c 1.13554,-1.06034 2.64375,-3.96808 3.18419,-6.13894 1.10438,-4.43611 0.99767,-5.80463 -0.27543,-3.53223 -0.33832,0.60388 -0.87743,1.26953 -1.19801,1.47922 -0.53416,0.34938 -0.51594,0.25769 0.21797,-1.09733 0.44045,-0.81322 0.75403,-1.68723 0.69684,-1.94224 -0.0759,-0.33835 -0.2131,-0.21339 -0.5077,0.46238 -0.45468,1.04292 -1.55046,2.15743 -1.17062,1.19062 0.11434,-0.29104 0.25644,-1.00542 0.31577,-1.5875 l 0.10787,-1.05833 -0.38659,0.79375 -0.38659,0.79375 -0.0119,-0.83401 c -0.01,-0.69297 -0.15285,-0.88314 -0.84517,-1.12448 -0.45828,-0.15976 -0.8683,-0.29047 -0.91116,-0.29047 -0.0429,0 0.16302,0.54472 0.45752,1.21049 0.66829,1.51077 0.90339,3.64365 0.54478,4.94242 -0.23717,0.85895 -0.21479,0.99006 0.16811,0.98496 0.58553,-0.008 1.46431,-0.71176 2.28626,-1.83146 0.52281,-0.71219 0.6677,-0.79891 0.66316,-0.39688 -0.0203,1.7965 -3.19968,6.31781 -5.54316,7.88278 -0.3598,0.24027 -0.53627,0.43686 -0.39215,0.43686 0.14412,0 0.67663,-0.27853 1.18335,-0.61896 0.50672,-0.34043 1.27655,-0.84644 1.71073,-1.12448 l 0.78942,-0.50552 -0.60151,0.84937 c -0.63666,0.89903 -1.92184,1.92875 -2.40723,1.92875 -0.15944,0 -0.28989,0.12066 -0.28989,0.26814 0,0.37651 1.84093,-0.43077 2.60117,-1.14066 z m -6.06365,-1.12956 c 1.78065,-0.5288 3.48168,-2.07561 4.44925,-4.04589 1.30806,-2.66359 0.87737,-6.11081 -0.99775,-7.98592 -0.85189,-0.8519 -1.06011,-0.59183 -0.52523,0.656 1.46145,3.40942 1.12482,6.97711 -0.8304,8.80091 -1.11033,1.03569 -3.12482,1.74809 -5.308907,1.87742 -2.005904,0.11878 -2.353395,0.37128 -1.16876,0.84925 0.905801,0.36547 2.869037,0.29747 4.381797,-0.15177 z m -6.444661,-1.6858 c -0.6542,-0.72289 -0.940773,-0.46299 -0.940773,0.85321 v 1.10286 l 0.711552,-0.71156 c 0.6927,-0.6927 0.698772,-0.72567 0.229221,-1.24451 z m 5.739921,-3.43839 c -1.734936,-1.25679 -1.552903,-1.38751 0.74982,-0.53847 1.19276,0.43979 2.21531,0.75295 2.27234,0.69591 0.057,-0.057 -0.24555,-0.24835 -0.6724,-0.42516 -0.70491,-0.29198 -2.19518,-1.60184 -1.82247,-1.60184 0.0861,0 0.712,0.23812 1.39097,0.52917 0.67898,0.29104 1.34369,0.52916 1.47715,0.52916 0.36686,0 0.2849,-2.33119 -0.13779,-3.91916 -0.63316,-2.37865 -0.75104,-2.46847 -5.219082,-3.97679 -2.231776,-0.75341 -4.133201,-1.36863 -4.225388,-1.36715 -0.09219,0.002 -0.252581,0.7961 -0.35643,1.76583 -0.103849,0.96972 -0.348039,2.29219 -0.542645,2.93881 -0.219636,0.7298 -0.268994,1.39069 -0.130146,1.74259 0.300781,0.76232 2.841871,3.18473 3.895675,3.71373 1.288664,0.64689 1.645896,0.50718 0.570921,-0.22328 -0.524767,-0.35659 -1.02729,-0.83902 -1.116722,-1.07208 -0.177308,-0.46205 -0.02537,-0.40398 1.243118,0.47508 0.722032,0.50037 2.964659,1.47198 3.456559,1.49755 0.13098,0.007 -0.24409,-0.33695 -0.83348,-0.7639 z m 11.13143,-5.94288 c 0.34968,-0.91125 2.31853,-9.54491 2.71504,-11.9058 0.5391,-3.20986 0.41416,-6.26537 -0.28791,-7.04114 -1.06476,-1.17655 -4.08339,-0.28221 -5.31155,1.57367 -0.57201,0.86437 -1.1714,1.29715 -2.95251,2.1318 -1.73777,0.81435 -2.69699,1.49705 -4.31304,3.0697 l -2.078255,2.02245 -0.84563,-0.49545 c -0.550132,-0.32232 -1.271497,-1.2482 -2.064345,-2.64962 -0.799539,-1.41324 -1.7769,-2.66454 -2.84158,-3.63802 -0.892575,-0.81612 -1.683708,-1.48385 -1.758074,-1.48385 -0.200798,0 0.204816,1.63381 0.592717,2.38747 0.185486,0.36038 0.724249,1.07195 1.197252,1.58128 0.655794,0.70614 0.936075,1.33441 1.180346,2.64583 0.283012,1.51939 1.549051,4.90289 1.756823,4.69512 0.04311,-0.0431 -0.205497,-1.08435 -0.55245,-2.31387 -0.346953,-1.22952 -0.595225,-2.2711 -0.551714,-2.3146 0.04351,-0.0435 0.338224,0.54877 0.654923,1.31618 0.666078,1.61402 2.115793,3.84073 2.628667,4.03753 0.630079,0.24179 4.33713,-1.18815 7.71917,-2.97753 l 3.30729,-1.74984 -2.11667,2.05253 c -2.09836,2.03478 -2.14021,2.30324 -0.24576,1.57627 0.85226,-0.32704 0.13525,0.41029 -1.29311,1.32975 -1.12453,0.72389 -1.45311,1.11591 -1.82445,2.17664 -0.24909,0.71155 -0.36815,1.36969 -0.26458,1.46253 0.10357,0.0928 1.02175,0.44088 2.0404,0.77342 1.01865,0.33254 2.56646,0.93376 3.43958,1.33606 1.89049,0.87104 1.88932,0.87081 2.06942,0.40149 z m -4.00618,-3.7011 c 0.82656,-0.33996 1.94738,-0.8804 2.49072,-1.20098 l 0.98788,-0.58287 -0.40188,0.61195 c -0.60721,0.92458 -2.31591,1.79413 -3.52121,1.79194 l -1.05833,-0.002 1.50282,-0.61811 z m -1.21971,-1.2514 c 0.10013,-0.16201 0.73224,-0.53615 1.40468,-0.83143 0.67244,-0.29527 1.72864,-0.88281 2.34711,-1.30564 1.33509,-0.91277 1.46985,-0.65164 0.26458,0.51269 -1.28894,1.24515 -4.61282,2.58947 -4.01637,1.62438 z m -5.34597,-5.46837 c 0.0965,-0.15613 0.62027,-0.42798 1.16394,-0.60412 0.54368,-0.17613 1.70288,-0.67628 2.576,-1.11143 1.2994,-0.6476 1.50093,-0.69444 1.11049,-0.25808 -0.78396,0.87616 -5.31047,2.71798 -4.85043,1.97363 z m 7.83147,-8.80472 c 0.005,-0.22685 -0.15466,-0.63697 -0.35531,-0.91138 -0.32571,-0.44543 -0.47794,-0.46504 -1.41976,-0.18286 -0.58021,0.17384 -1.18614,0.31607 -1.34651,0.31607 -0.16037,0 -1.16988,-0.766 -2.24335,-1.70223 -1.07347,-0.93623 -2.35719,-1.92755 -2.85272,-2.20295 -1.598663,-0.888494 -3.205872,-3.365455 -7.411257,-11.421905 -1.826144,-3.498429 -2.142461,-3.946991 -3.417983,-4.846949 -0.773083,-0.545456 -1.455039,-0.942304 -1.515457,-0.881885 -0.229936,0.229936 0.971807,2.511369 1.840201,3.49351 0.49892,0.564271 1.154991,1.384398 1.457937,1.822505 0.56488,0.816909 2.521331,5.445071 2.367015,5.599387 -0.04721,0.04721 -0.400555,-0.479595 -0.785209,-1.170679 -0.384657,-0.691084 -0.702271,-1.133692 -0.705811,-0.983574 -0.01164,0.493769 1.82449,6.645293 2.348183,7.867017 0.450723,1.051493 0.670311,1.248253 1.818759,1.629713 1.578245,0.52421 3.509182,1.71373 4.996912,3.07827 0.60527,0.55515 1.55777,1.12162 2.11666,1.25881 0.5589,0.13719 1.67102,0.42043 2.47138,0.62941 1.44411,0.37707 1.45968,0.3748 2.04101,-0.29893 0.32219,-0.37339 0.59008,-0.8645 0.59531,-1.09135 z m 5.47098,-1.85604 c 0.69068,-1.46767 0.6998,-1.83118 0.0465,-1.85344 -0.58784,-0.02 -0.58422,-0.0315 0.0878,-0.27775 1.04781,-0.38396 1.68259,-2.347194 0.75893,-2.347194 -0.12577,0 -0.58241,0.297657 -1.01477,0.661459 -0.43235,0.363802 -0.82844,0.661458 -0.88019,0.661458 -0.0518,0 -0.11768,-0.47625 -0.1465,-1.058333 -0.0288,-0.582084 -0.0634,-1.266693 -0.0769,-1.521355 -0.0135,-0.254661 0.0553,-0.863163 0.15288,-1.352229 0.12459,-0.624485 0.0687,-0.958043 -0.18765,-1.120427 -0.62867,-0.398175 -1.72092,-0.261341 -2.4421,0.305937 l -0.69318,0.54526 0.72365,0.668618 c 0.4317,0.398875 0.54568,0.612606 0.28252,0.529778 -0.25435,-0.08005 -0.50773,0.03475 -0.59844,0.271132 -0.11642,0.303398 -0.2468,0.335703 -0.50155,0.12428 -0.2529,-0.209889 -0.63816,-0.140261 -1.45208,0.262435 -1.19149,0.589505 -1.35836,0.869241 -0.67495,1.131488 0.38699,0.148502 0.39065,0.214624 0.0345,0.62362 -0.2191,0.251627 -0.34445,0.606332 -0.27855,0.788233 0.0659,0.1819 0.0132,0.33073 -0.11715,0.33073 -0.13032,0 -0.22954,0.50602 -0.22048,1.12448 0.0148,1.01356 0.0854,1.13246 0.71503,1.2054 0.59043,0.0684 2.26019,-0.26547 4.59311,-0.91835 0.41972,-0.11746 0.46344,-0.0789 0.2114,0.18619 -0.24909,0.26203 -0.19191,0.49377 0.26459,1.07231 0.67604,0.85678 0.99445,0.84693 1.4136,-0.0437 z m -13.66368,65.61415 c -7e-5,-0.0606 -0.23771,-0.73532 -0.52809,-1.4993 -0.29037,-0.76399 -0.4329,-1.38907 -0.31672,-1.38907 0.28246,0 1.21679,2.62677 1.00844,2.83511 -0.0899,0.0899 -0.16356,0.11389 -0.16363,0.0533 z m 2.28061,-3.26986 c -1.30207,-3.53567 -3.42631,-10.68235 -3.821615,-12.85725 -0.267515,-1.47184 0.0325,-1.77732 0.445325,-0.45344 0.14747,0.47294 0.98307,3.12208 1.85688,5.88697 1.65449,5.2351 3.05042,10.43192 2.85472,10.62762 -0.0625,0.0625 -0.66336,-1.37929 -1.33531,-3.2039 z m -0.68621,2.03626 c -0.54643,-1.15831 -2.6105,-7.74539 -2.38296,-7.60477 0.11317,0.0699 0.64266,1.16942 1.17664,2.44328 1.29095,3.07967 2.33833,7.56109 1.20632,5.16149 z M 81.550976,93.310239 c -0.414334,-1.194467 -0.703151,-2.322314 -0.641815,-2.506327 0.174029,-0.522085 1.587129,3.319023 1.485558,4.038067 -0.06471,0.458109 -0.304524,0.02275 -0.843743,-1.53174 z m 2.530388,-1.733428 c -0.456417,-1.053606 -1.070134,-2.538526 -1.363811,-3.299824 -0.293676,-0.761298 -0.95328,-2.216841 -1.465786,-3.234541 -0.937397,-1.861422 -1.300493,-3.223651 -0.457716,-1.717223 0.24856,0.444295 0.840653,1.361289 1.31576,2.037766 0.475107,0.676477 1.108916,1.801245 1.408464,2.499483 0.52663,1.227564 1.630371,5.392557 1.471224,5.551703 -0.04306,0.04305 -0.451715,-0.783759 -0.908135,-1.837364 z m 1.663975,-2.240477 c -0.259506,-0.694468 -1.597125,-3.816694 -2.972488,-6.938279 -1.375365,-3.121585 -2.83361,-6.514866 -3.24055,-7.540625 -0.71846,-1.811002 -1.858195,-5.398557 -1.858195,-5.849062 0,-0.482365 0.482526,0.336448 0.788609,1.338213 0.17785,0.582084 1.737889,4.034896 3.466751,7.672917 2.684848,5.649692 3.237089,7.039136 3.785764,9.525 0.353306,1.600729 0.61078,2.942837 0.572159,2.982461 -0.03862,0.03963 -0.282544,-0.496157 -0.54205,-1.190625 z"
       id="path3082"
       inkscape:connector-curvature="0" />
  </g>
</svg>
