<?xml version="1.0" encoding="UTF-8" standalone="no"?>
<!-- Created with Inkscape (http://www.inkscape.org/) -->

<svg
   xmlns:dc="http://purl.org/dc/elements/1.1/"
   xmlns:cc="http://creativecommons.org/ns#"
   xmlns:rdf="http://www.w3.org/1999/02/22-rdf-syntax-ns#"
   xmlns:svg="http://www.w3.org/2000/svg"
   xmlns="http://www.w3.org/2000/svg"
   xmlns:sodipodi="http://sodipodi.sourceforge.net/DTD/sodipodi-0.dtd"
   xmlns:inkscape="http://www.inkscape.org/namespaces/inkscape"
   version="1.1"
   id="svg3056"
   width="288"
   height="288"
   viewBox="0 0 288 288"
   sodipodi:docname="Hirsch.svg"
   inkscape:version="0.92.2 (5c3e80d, 2017-08-06)">
  <metadata
     id="metadata3062">
    <rdf:RDF>
      <cc:Work
         rdf:about="">
        <dc:format>image/svg+xml</dc:format>
        <dc:type
           rdf:resource="http://purl.org/dc/dcmitype/StillImage" />
        <dc:title></dc:title>
      </cc:Work>
    </rdf:RDF>
  </metadata>
  <defs
     id="defs3060" />
  <sodipodi:namedview
     pagecolor="#ffffff"
     bordercolor="#666666"
     borderopacity="1"
     objecttolerance="10"
     gridtolerance="10"
     guidetolerance="10"
     inkscape:pageopacity="0"
     inkscape:pageshadow="2"
     inkscape:window-width="1920"
     inkscape:window-height="1017"
     id="namedview3058"
     showgrid="false"
     inkscape:zoom="2.2640321"
     inkscape:cx="161.69492"
     inkscape:cy="134.84746"
     inkscape:window-x="-8"
     inkscape:window-y="-8"
     inkscape:window-maximized="1"
     inkscape:current-layer="svg3056" />
  <path
     style="fill:#000000;stroke-width:0.47999999;stroke:#000000;stroke-opacity:1;fill-opacity:1"
     d="m 128.98216,259.32262 c -2.5822,-0.7457 -3.08672,-2.0183 -2.29683,-5.79352 0.36767,-1.75732 0.90357,-4.02199 1.19088,-5.03262 0.28731,-1.01062 0.74089,-4.10549 1.00796,-6.87749 0.26708,-2.772 0.90608,-6.552 1.42002,-8.4 1.38007,-4.96244 2.87527,-14.27995 2.87688,-17.9277 9.6e-4,-2.59169 -0.35587,-4.09539 -1.89755,-7.9923 -1.04443,-2.64 -2.58301,-7.02387 -3.41906,-9.74195 -1.23553,-4.01677 -2.22775,-6.02792 -5.30005,-10.74284 -4.11929,-6.32169 -6.25814,-11.79532 -6.90666,-17.67521 -0.18927,-1.716 -0.62849,-3.81062 -0.97605,-4.65471 -0.80195,-1.94766 -4.22106,-7.04749 -6.27189,-9.35495 -1.81676,-2.04411 -3.59806,-7.21796 -3.60482,-10.47034 -0.002,-1.188 0.52253,-3.68654 1.16667,-5.55232 1.46,-4.22893 2.33176,-15.88261 1.23866,-16.55818 -0.53211,-0.32887 -0.44108,-2.57004 0.52895,-13.02336 1.50116,-16.176779 1.50072,-16.194237 -0.51223,-20.386816 -1.60885,-3.350928 -1.70351,-3.4452 -4.04738,-4.030953 -5.313766,-1.327954 -5.893106,-1.778405 -9.911616,-7.706501 -2.19636,-3.240082 -2.31712,-3.562992 -1.54382,-4.128447 0.46141,-0.337387 1.63149,-0.61343 2.60019,-0.61343 2.51406,0 6.215246,-0.553574 6.215246,-0.929597 0,-0.175507 -0.981296,-0.795859 -2.180666,-1.37856 -9.51587,-4.623163 -15.33743,-9.674376 -18.37384,-15.942489 -1.44302,-2.978842 -2.41368,-4.209375 -5.31421,-6.736944 -4.45934,-3.885956 -6.31177,-7.010372 -6.64928,-11.215136 -0.13447,-1.675202 0.0152,-4.128422 0.33264,-5.451597 0.58761,-2.44942 2.42839,-4.777111 3.33482,-4.216911 0.31281,0.193329 0.46115,2.507411 0.39553,6.170289 -0.0831,4.638721 0.0778,6.385189 0.77156,8.374861 1.39034,3.98742 4.3127,5.649665 5.83853,3.320959 0.77959,-1.18981 1.65392,-9.920194 1.67403,-16.715617 0.006,-2.024408 0.14199,-4.022408 0.30224,-4.44 0.43997,-1.146551 1.50546,-0.9133 2.45758,0.538003 0.71339,1.087405 0.89129,2.776268 1.09973,10.44 l 0.24865,9.142739 1.12246,-2.4 c 5.08512,-10.872942 6.31874,-13.105018 8.16444,-14.772494 1.9353,-1.74843 3.41579,-1.967184 3.41579,-0.504711 0,0.385047 -1.08163,2.53131 -2.40361,4.769475 -1.32198,2.238163 -3.0539,5.357628 -3.84872,6.932142 -1.33776,2.650105 -1.39115,2.945112 -0.71863,3.971507 0.68133,1.039835 0.63928,1.192303 -0.67645,2.45285 -1.79204,1.716885 -3.28535,5.190122 -3.68181,8.563399 -0.29128,2.478322 -0.20198,2.808278 1.42243,5.255558 0.95328,1.43617 2.13609,2.975794 2.62846,3.421388 0.86506,0.782865 0.90554,0.675897 1.20152,-3.174653 0.49487,-6.438111 2.32428,-11.094298 5.47152,-13.926034 0.91532,-0.823565 2.52529,-0.710525 2.52529,0.177307 0,0.232666 -0.77662,2.299143 -1.72583,4.592175 -1.58373,3.825888 -1.71217,4.489473 -1.56,8.059622 0.21125,4.956101 1.69711,8.152339 4.516136,9.714687 l 1.89858,1.052222 0.0115,-5.612222 c 0.0103,-5.006895 0.14447,-5.896964 1.24422,-8.252218 1.39753,-2.993002 3.47699,-5.28 4.80083,-5.28 1.20333,0 1.13888,0.656088 -0.56362,5.737723 -1.77334,5.29308 -1.89011,8.45028 -0.47033,12.716727 1.17414,3.528307 1.96497,4.195065 4.48972,3.785352 1.53779,-0.249548 1.78892,-0.143031 2.19771,0.932179 0.60355,1.587456 3.15753,2.421072 7.21786,2.355902 4.34561,-0.06975 6.72543,-0.512779 8.47986,-1.578633 0.82317,-0.500088 2.19451,-0.90925 3.04742,-0.90925 2.15853,0 4.16432,-2.226134 4.66996,-5.182963 0.46485,-2.718293 0.46128,-9.159048 -0.007,-11.977037 -0.30306,-1.825109 -0.23898,-2.04 0.60824,-2.04 2.47064,0 3.86437,3.903653 3.86437,10.823626 0,2.231006 0.10184,4.056374 0.22631,4.056374 0.87724,0 5.49093,-2.48519 6.34918,-3.420019 2.16693,-2.360285 3.59751,-6.601411 4.14444,-12.286642 0.54342,-5.648837 1.11344,-6.74688 2.68529,-5.172725 0.58453,0.585389 0.75215,1.807416 0.74314,5.41764 -0.0102,4.105824 -0.18928,5.091053 -1.50139,8.261746 -0.81937,1.98 -1.29739,3.672917 -1.06227,3.762034 1.10858,0.420182 8.94035,-5.08862 10.1931,-7.169736 0.41308,-0.686237 0.98119,-2.738237 1.26246,-4.56 0.68406,-4.430516 -0.003,-6.583546 -4.03537,-12.640188 -3.22117,-4.838571 -3.52368,-5.513708 -2.69899,-6.023398 0.92044,-0.56886 3.40482,1.264761 5.85306,4.319905 1.37129,1.71126 2.67052,3.111383 2.88714,3.111383 1.20595,0 -0.22439,-8.112791 -2.70174,-15.324073 -1.3739,-4.000448 -1.51942,-5.315927 -0.58766,-5.315927 1.60035,0 5.37832,6.533282 6.59742,11.408985 0.34779,1.390941 0.85921,2.453361 1.1365,2.360932 0.27729,-0.09243 1.12756,-1.824471 1.8895,-3.848984 1.3684,-3.63592 1.95885,-4.230331 3.08425,-3.104933 1.46693,1.466926 0.15099,7.031911 -3.27326,13.842426 -1.64436,3.27047 -1.78676,3.806924 -1.15061,4.334876 1.01487,0.842271 2.79274,-0.110923 8.04809,-4.314939 4.15877,-3.326806 5.24216,-3.872392 5.82307,-2.93246 0.93409,1.511392 -2.95305,5.286385 -8.87129,8.615337 -4.48883,2.524925 -4.66227,2.698493 -6.0099,6.01427 -1.62032,3.986698 -3.99339,7.738263 -6.7101,10.607938 -2.34481,2.476838 -2.56557,2.586418 -9.6,4.765248 -11.49998,3.561984 -15.16794,5.330218 -16.59741,8.001206 -0.65413,1.222239 -0.11641,2.810098 0.95162,2.810098 0.46723,0 2.12667,-0.918 3.68765,-2.04 l 2.83814,-2.04 6.12651,-0.16837 6.12651,-0.168374 -0.46576,1.225037 c -1.3159,3.461078 -5.10543,8.104353 -7.6906,9.423211 -2.27906,1.16269 -7.11928,2.408496 -9.3575,2.408496 -3.98678,0 -4.88879,1.962696 -4.12489,8.9754 0.6162,5.656847 1.22678,8.904727 2.49029,13.246707 1.0627,3.65194 1.75044,4.17789 5.46306,4.17789 3.12642,0 6.35306,0.80839 12.43176,3.11462 3.81824,1.44862 8.17427,2.59221 14.50855,3.80894 9.79063,1.88063 12.13486,2.50262 21.32396,5.65777 6.88,2.36232 10.92372,4.76975 15.30862,9.11404 6.94805,6.88369 7.23658,7.93241 7.16198,26.03176 -0.0316,7.67409 -0.20412,18.05688 -0.38331,23.07288 l -0.32581,9.12 1.62587,4.8 c 1.61415,4.76537 1.62388,4.84676 1.3486,11.28 -0.1525,3.564 -0.41521,7.85208 -0.5838,9.52905 -0.17917,1.7823 0.0485,6.72144 0.54794,11.88842 0.66162,6.84454 0.7296,9.11336 0.30123,10.05353 -0.3183,0.6986 -0.55321,3.6323 -0.55321,6.90892 v 5.69474 l -1.5463,1.30113 c -0.85046,0.71561 -2.251,1.63717 -3.1123,2.0479 -1.36636,0.65157 -1.72823,0.65995 -2.83851,0.0658 -2.70562,-1.448 -2.79553,-2.21582 -0.90305,-7.71143 2.36135,-6.85717 3.14593,-11.8607 3.15994,-20.1519 0.013,-7.67277 -0.39241,-10.06928 -3.19795,-18.90559 -0.92212,-2.90428 -1.90252,-6.8916 -2.17868,-8.8607 -0.54377,-3.87726 -1.12232,-5.29017 -3.58643,-8.75868 -0.88261,-1.24237 -2.50065,-4.05037 -3.59564,-6.24 -3.22846,-6.45589 -6.17665,-9.48578 -7.0264,-7.22114 -0.17335,0.462 -0.63293,1.07822 -1.02128,1.36938 -0.60493,0.45355 -0.61982,0.96928 -0.10389,3.6 0.7981,4.0695 1.55084,5.80056 4.20539,9.6711 2.87921,4.19811 2.84383,4.90915 -0.7798,15.66813 -3.03375,9.00758 -4.90673,16.65329 -6.0161,24.5585 -0.37654,2.68318 -0.78636,4.98025 -0.9107,5.10459 -0.12434,0.12434 -0.6545,-0.003 -1.17813,-0.28344 -0.78209,-0.41856 -1.08093,-0.31281 -1.67405,0.59241 -0.93153,1.42169 -1.77003,4.45831 -1.77344,6.42244 -0.003,1.82797 -0.56331,2.19897 -4.83558,3.2028 -2.82383,0.66351 -3.13827,0.65822 -3.6871,-0.062 -0.33,-0.43305 -0.6,-1.03627 -0.6,-1.34049 0,-1.13459 1.92522,-5.97752 5.44986,-13.70926 1.99725,-4.38122 4.2341,-9.88922 4.97076,-12.24 1.26333,-4.03147 1.33668,-4.75128 1.29183,-12.67787 -0.0399,-7.04649 -0.18557,-8.67447 -0.90212,-10.08 -1.60652,-3.15123 -9.0721,-13.98388 -10.41757,-15.11602 -1.66602,-1.40186 -4.77005,-2.03362 -12.02953,-2.44834 l -5.63678,-0.32201 -1.24996,2.73028 c -0.68749,1.50166 -2.5859,5.15263 -4.21869,8.11327 -3.51729,6.37765 -3.81409,7.08674 -5.06168,12.09298 -0.52721,2.11554 -1.29576,4.80213 -1.70788,5.9702 -0.91647,2.59755 -0.52642,6.10541 1.94109,17.45738 2.21386,10.185 2.20816,13.76599 -0.0219,13.76599 -1.5477,0 -2.01862,0.75861 -3.75068,6.042 -1.54917,4.72549 -1.90261,5.19517 -4.2862,5.69591 -1.01186,0.21257 -1.54542,0.82363 -2.34783,2.68889 -1.55789,3.6214 -2.94336,4.31556 -6.54021,3.27683 z m 3.27694,-1.72737 c 0.39403,-1.03638 0.58436,-1.16024 0.92813,-0.60401 0.34511,0.55839 0.55319,0.57899 1.03023,0.10195 0.40387,-0.40387 0.7073,-3.36105 0.93537,-9.11599 0.67132,-16.93939 2.51956,-27.37224 6.22629,-35.14583 1.06677,-2.23719 2.46276,-6.08121 3.10219,-8.54226 0.77032,-2.96478 2.79823,-7.90884 6.00997,-14.65237 2.66605,-5.59776 5.17194,-10.68416 5.56866,-11.30311 0.71979,-1.12302 0.72344,-1.1234 1.76051,-0.17998 1.7812,1.62037 3.12905,2.07508 6.19438,2.08974 1.63045,0.008 3.55681,0.3205 4.2808,0.69489 2.14832,1.11093 12.20348,0.92818 15.65602,-0.28455 1.51141,-0.53089 2.82001,-1.17889 2.90801,-1.44 0.088,-0.26111 0.6962,-0.47474 1.35155,-0.47474 1.73993,0 2.83898,-0.73548 3.50623,-2.34635 0.4041,-0.9756 0.4397,-1.69061 0.11319,-2.27404 -0.38867,-0.69451 -0.0436,-1.25714 1.8764,-3.05976 2.00208,-1.87965 2.35263,-2.47571 2.35263,-4.00027 0,-1.87505 1.78375,-5.93059 3.08256,-7.0085 0.96589,-0.80163 0.97223,-0.86976 -0.41574,4.47223 -0.64524,2.48343 -1.28677,6.39179 -1.42562,8.68526 -0.24936,4.11912 -0.22921,4.21615 1.65318,7.96003 1.04809,2.08455 1.90562,4.2048 1.90562,4.71167 0,0.50687 1.15695,2.40166 2.571,4.21065 4.07823,5.21728 5.72078,9.16906 4.64591,11.17748 -0.42458,0.79335 -0.10508,2.31461 1.64412,7.82815 1.93502,6.09928 2.22586,7.62 2.67457,13.98467 0.55096,7.8149 0.21827,12.56365 -1.44734,20.65865 -1.29905,6.31347 -1.27631,7.00013 0.23174,7.00013 1.21213,0 1.60424,0.65351 0.72,1.2 -0.61876,0.38242 -0.62693,3.93254 -0.01,4.31387 1.25145,0.77342 3.84994,-2.2841 3.84994,-4.53003 0,-0.68743 -0.31164,-0.98384 -1.0344,-0.98384 -0.9523,0 -0.97456,-0.0667 -0.28057,-0.84 0.47397,-0.52817 0.83495,-2.08734 0.97238,-4.2 0.12023,-1.848 0.50659,-4.27604 0.85859,-5.39565 0.51796,-1.64748 0.52577,-2.35155 0.0409,-3.69234 -0.32948,-0.91119 -0.81326,-4.85475 -1.07506,-8.76347 -0.39995,-5.97142 -0.34415,-8.05487 0.34933,-13.04156 1.05767,-7.60559 0.57318,-11.38051 -1.75244,-13.65424 -2.69223,-2.63216 -4.18209,-6.42049 -3.09105,-7.85976 0.61395,-0.80991 0.66287,-0.77761 0.67703,0.44702 0.008,0.726 0.21228,1.32 0.45307,1.32 0.91455,0 1.0413,-3.94393 0.29921,-9.3101 -0.56187,-4.06303 -0.63155,-5.83007 -0.25745,-6.5291 0.38274,-0.71515 0.24477,-2.49297 -0.54356,-7.00435 -0.84011,-4.80768 -0.94782,-6.35629 -0.52589,-7.5612 0.29184,-0.83339 0.67829,-4.43216 0.85877,-7.99728 0.4284,-8.46202 -0.0653,-10.87406 -3.11458,-15.21605 -2.61372,-3.72179 -8.74158,-9.65828 -11.85003,-11.47996 -3.50691,-2.05518 -16.64092,-5.95453 -21.78428,-6.4675 -7.94286,-0.79219 -9.78125,-1.24585 -15.34051,-3.78557 l -5.43078,-2.48102 -7.32056,-0.17291 -7.32056,-0.17292 -0.33164,1.52898 -0.33165,1.52897 -0.7343,-1.68 c -0.40387,-0.924 -1.02025,-2.328 -1.36972,-3.12 -0.95239,-2.15832 -1.24993,-4.53683 -1.59058,-12.7145 -0.27635,-6.633956 -0.40263,-7.452279 -1.17275,-7.599635 -1.38706,-0.265396 -2.16584,0.763148 -2.7657,3.652648 -0.41086,1.979077 -0.41793,2.752587 -0.0263,2.883107 0.29432,0.0981 0.53301,0.53838 0.53043,0.97838 -0.008,1.38059 -2.20272,5.51867 -3.98824,7.52 l -1.71296,1.92 0.27575,-1.8 c 0.24274,-1.58451 0.15791,-1.8 -0.70866,-1.8 -0.58636,0 -1.92286,1.05292 -3.30529,2.60397 l -2.32088,2.60397 0.002,-1.52397 c 0.003,-2.19866 -1.11523,-1.93768 -2.72659,0.63603 -2.3117,3.69229 -3.23031,5.97126 -3.59468,8.91794 -0.30525,2.46849 -0.39424,2.65278 -0.67705,1.40206 -0.17909,-0.792 -0.35803,-3.06 -0.39767,-5.04 -0.0634,-3.16849 -0.15133,-3.49543 -0.73342,-2.72756 -0.98849,1.30395 -1.35759,5.90466 -0.76828,9.57642 0.92444,5.7599 5.06986,17.33976 5.65031,15.78367 0.13284,-0.35612 -0.23137,-2.24043 -0.80935,-4.18735 -1.71333,-5.77139 -0.99221,-5.93142 1.62998,-0.36171 1.99471,4.2369 2.28023,5.18061 1.8,5.94958 -0.84455,1.35235 -0.69846,2.76703 0.48319,4.67899 0.72623,1.17506 0.87549,1.76482 0.48,1.89665 -0.96827,0.32276 -0.64566,1.29573 0.98145,2.95998 l 1.5554,1.5909 0.56569,-3.37865 c 0.31114,-1.85826 0.81282,-3.84038 1.11485,-4.40473 0.42061,-0.78592 0.3797,-2.05944 -0.1748,-5.44113 -0.66693,-4.06734 -1.49946,-15.39303 -0.95084,-12.93506 0.13259,0.59401 0.42749,1.08001 0.65533,1.08001 0.22786,0 0.56709,-0.486 0.75385,-1.08001 0.49231,-1.56576 4.22055,-8.00641 4.64512,-8.02459 1.14361,-0.0489 -0.0662,5.06665 -1.44584,6.11371 -0.64046,0.48608 -0.8092,1.48003 -0.83522,4.92001 -0.0356,4.70512 0.38886,5.31593 2.08042,2.99379 l 0.95943,-1.31709 0.34368,3.48774 c 0.18902,1.91826 0.53129,3.6037 0.7606,3.74542 0.22931,0.14172 0.41693,0.0275 0.41693,-0.25383 0,-0.28132 0.5611,-0.99607 1.24689,-1.58832 0.68578,-0.59226 1.67286,-1.90776 2.19348,-2.92335 1.60971,-3.14004 1.5108,-1.56868 -0.15106,2.39984 -0.86754,2.07168 -1.52372,4.10474 -1.45819,4.51792 0.0655,0.41318 -0.20847,2.14118 -0.60889,3.84 -1.00892,4.2804 -0.98082,4.93022 0.18621,4.30565 0.5107,-0.27329 1.41478,-0.49689 2.00912,-0.49689 0.59434,0 1.57969,-0.46885 2.18966,-1.04189 0.60998,-0.57305 1.24197,-0.90896 1.40445,-0.74649 0.16247,0.16247 -0.19898,2.27318 -0.80323,4.69047 -0.82805,3.31263 -0.97033,4.60052 -0.5777,5.22922 0.28651,0.45877 0.6649,2.11091 0.84088,3.67141 0.63503,5.63128 1.301,8.56354 2.20632,9.71447 1.20962,1.53778 1.19908,4.63116 -0.0379,11.12281 -1.69425,8.89147 -1.02146,11.44789 0.92648,3.52042 0.69075,-2.81109 0.931,-3.3363 0.95167,-2.08042 0.0319,1.93786 -1.08362,7.00975 -2.18066,9.91465 -0.72302,1.91454 -0.71047,2.05256 0.31248,3.43617 l 1.06576,1.44151 -1.27397,1.67026 c -0.70068,0.91864 -2.00633,3.80037 -2.90145,6.40383 -1.94044,5.64383 -2.09989,5.40515 -0.51463,-0.77037 1.58689,-6.18192 0.95753,-6.67832 -1.2375,-0.97605 -0.8734,2.26893 -1.00525,3.55081 -0.93802,9.12 0.0678,5.62024 -0.11944,7.40345 -1.41155,13.44 -1.77733,8.30341 -2.49446,12.17598 -3.73323,20.16 l -0.93094,6 1.17761,0.97456 c 0.8428,0.69749 1.14428,1.37982 1.0604,2.4 -0.26899,3.27127 0.56787,4.27179 1.507,1.8017 z m 19.88056,-85.37335 c -1.70144,-1.48969 -2.13651,-1.64905 -3.82198,-1.4 -2.22568,0.32888 -2.24934,0.35922 1.25997,-1.6157 2.43533,-1.37052 2.69191,-1.42987 2.46721,-0.57064 -0.14557,0.55669 0.28325,1.87017 1.02225,3.13119 0.70016,1.19473 1.20991,2.16413 1.13278,2.15422 -0.0771,-0.01 -1.00423,-0.77449 -2.06023,-1.69907 z m 8.20224,-0.61457 c -0.13993,-0.22641 -0.0323,-1.14441 0.23914,-2.04 1.18591,-3.9125 3.91627,-14.27973 4.23697,-16.08783 0.1931,-1.08872 0.18317,-3.55106 -0.0221,-5.47185 -0.23964,-2.24277 -0.19258,-3.82978 0.13154,-4.4354 0.28705,-0.53637 0.36975,-1.843 0.19177,-3.02988 -0.18216,-1.21474 -0.0951,-2.49383 0.2083,-3.06077 0.38906,-0.72696 0.35646,-1.30977 -0.12857,-2.29828 -0.3574,-0.72838 -0.5679,-1.68265 -0.46779,-2.12061 0.10011,-0.43795 -0.80204,-2.75563 -2.00476,-5.15041 -1.20271,-2.39478 -2.18676,-4.49558 -2.18676,-4.66846 0,-0.95412 2.294,2.86642 4.39304,7.3164 1.7665,3.74498 2.25319,5.20769 1.82153,5.47447 -0.46214,0.28562 -0.47512,2.36535 -0.0602,9.65416 0.61364,10.77986 0.2287,14.12882 -2.33815,20.34248 -2.24008,5.42263 -3.24553,6.81934 -4.01397,5.57598 z m 36.99439,-25.50834 c -1.58623,-4.74051 -4.2394,-9.12833 -7.82307,-12.9378 -2.47269,-2.62848 -3.34249,-3.86127 -2.98005,-4.22371 0.56559,-0.56559 3.28649,0.1432 3.28649,0.85612 0,0.22038 0.486,0.54788 1.08,0.72777 0.594,0.1799 1.80112,0.76388 2.68249,1.29776 1.19233,0.72223 1.43805,1.0733 0.96,1.3716 -0.52165,0.32553 -0.52835,0.56148 -0.0356,1.25459 2.13651,3.00513 2.52857,3.83541 2.32966,4.93367 -0.11954,0.66 0.20849,2.46981 0.72895,4.0218 0.52047,1.55199 0.88064,3.38799 0.80038,4.08 -0.11933,1.02899 -0.30684,0.77727 -1.02929,-1.3818 z m -51.91663,0.51332 -1.44,-0.33309 1.53344,-0.36242 c 1.96165,-0.46363 2.47102,-1.93255 3.2474,-9.36482 0.53629,-5.13391 0.61093,-5.39743 0.9474,-3.34472 0.64674,3.94555 -1.21805,14.04549 -2.54701,13.79494 -0.16568,-0.0312 -0.94923,-0.20669 -1.74123,-0.38989 z m -15.6924,109.48937 c 0.12648,-1.7162 0.0137,-2.00269 -0.78864,-2.00269 -1.45479,0 -2.10092,2.58604 -0.93696,3.75 0.96978,0.96978 1.57015,0.36186 1.7256,-1.74731 z m 80.01786,-2.51503 c 0.18142,-1.0738 0.18275,-2.09946 0.003,-2.27925 -0.53615,-0.53615 -1.68841,1.43159 -1.68841,2.88333 0,2.14414 1.29987,1.67826 1.68547,-0.60408 z m -70.81523,-1.88243 c 0.5467,-0.29258 1.46686,-2.21494 2.39787,-5.00951 0.88481,-2.65589 2.19462,-5.43039 3.16132,-6.69644 2.14981,-2.81551 2.12824,-4.02205 -0.22821,-12.76699 -1.03333,-3.83476 -2.02432,-7.89029 -2.20219,-9.01229 -0.17787,-1.122 -0.4779,-2.04 -0.66673,-2.04 -0.18883,0 -0.81981,1.47941 -1.40217,3.28759 -1.03415,3.21092 -1.04052,3.37601 -0.2734,7.08 0.66489,3.21036 0.70138,4.47782 0.23774,8.25824 -0.31325,2.55418 -1.07528,5.73896 -1.78018,7.44 -0.67786,1.6358 -1.2937,3.83817 -1.36854,4.89417 -0.0748,1.056 -0.30025,2.622 -0.50091,3.48 -0.32655,1.3963 -0.25448,1.56 0.68673,1.56 0.57835,0 1.45076,-0.21365 1.93867,-0.47477 z m 40.92456,-4.08459 c 0.81486,-0.33125 1.38934,-1.94158 2.03182,-5.69545 0.21429,-1.25203 0.99271,-2.57795 2.39527,-4.08 1.89316,-2.02742 2.16942,-2.6518 3.10837,-7.02519 2.64836,-12.33532 3.62313,-16.33839 5.5924,-22.96616 2.36084,-7.94566 2.6522,-10.62201 1.19777,-11.00235 -0.50577,-0.13226 -1.63977,-1.34857 -2.52,-2.70289 -1.45485,-2.23845 -2.122,-2.72244 -7.33475,-5.32118 -3.15388,-1.57232 -5.84017,-2.75291 -5.96954,-2.62355 -0.22937,0.22937 1.25407,2.36137 5.75837,8.27595 l 2.21451,2.90785 0.34718,8.38674 c 0.50239,12.13599 -0.50401,16.46875 -6.96363,29.98006 -4.43263,9.27155 -4.35473,8.94915 -2.06498,8.5454 l 1.85242,-0.32663 -1.57612,0.98612 c -1.70703,1.06804 -2.27852,2.02473 -1.86039,3.11435 0.26172,0.68203 1.30591,0.55725 3.7913,-0.45307 z m -42.36178,-5.50757 c 0.80472,-1.50364 1.98551,-11.0551 1.64631,-13.31706 -0.33482,-2.23271 -0.99364,-2.6953 -1.39003,-0.97601 -0.33302,1.44442 -1.20838,11.17645 -1.20889,13.44 -4.5e-4,2.02964 0.21815,2.2254 0.95261,0.85307 z m -2.75107,-40.91845 1.65465,-5.62538 -0.82787,-3.73462 c -2.15173,-9.70668 -1.2322,-8.18355 -8.30915,-13.76346 -7.49197,-5.90714 -7.75252,-6.17872 -8.45342,-8.81116 -0.29873,-1.122 -0.75083,-2.04 -1.00465,-2.04 -0.73074,0 -0.53669,3.69394 0.29708,5.65542 1.02561,2.41278 2.58759,7.37942 2.59523,8.25208 0.003,0.38912 1.23271,2.53183 2.73179,4.76158 3.03903,4.5203 4.95895,8.85126 6.61888,14.93092 1.47339,5.39646 2.11751,6.97505 2.62701,6.43816 0.2287,-0.24099 1.1604,-2.96958 2.07045,-6.06354 z m -24.37914,-52.33462 c -0.66621,-3.11651 -2.67466,-9 -3.07233,-9 -1.6019,0 -1.77089,9.41986 -0.17851,9.95065 0.37167,0.12389 0.46952,-0.47233 0.30932,-1.88472 l -0.23433,-2.06593 1.47741,2.28 c 0.81257,1.254 1.60217,2.28 1.75466,2.28 0.15249,0 0.12719,-0.702 -0.0562,-1.56 z m 14.20104,-43.33234 c 0.8153,-0.4216 1.41616,-1.11976 1.41616,-1.64546 0,-0.74659 -0.48039,-0.97315 -2.63396,-1.24222 -4.9157,-0.61418 -8.0107,0.71009 -6.23789,2.66901 1.07482,1.18766 5.33996,1.31276 7.45569,0.21867 z m -6.21604,-3.83644 c 2.13105,-0.72612 2.13877,-0.73702 2.12551,-2.999997 -0.01,-1.69295 -0.19663,-2.27123 -0.73331,-2.27123 -0.43193,0 -0.66015,0.35099 -0.5704,0.87726 0.11371,0.66684 -0.10754,0.83954 -0.9224,0.72 -1.48556,-0.21793 -1.63857,-1.10589 -0.4034,-2.341058 0.89561,-0.895608 1.44712,-1.014629 3.88454,-0.83832 3.28409,0.237547 4.53815,1.1233 3.99834,2.824078 l -0.35198,1.109 -1.13823,-1.32327 c -1.30831,-1.520996 -2.31572,-1.246618 -1.8747,0.51059 0.1678,0.66853 0.046,1.49901 -0.27676,1.88797 -0.39966,0.481567 -0.42303,0.847727 -0.0762,1.194537 0.34681,0.34681 0.73784,0.1607 1.27566,-0.60715 l 0.77553,-1.107237 v 1.049907 c 0,2.4804 3.42086,2.33901 4.04993,-0.16739 0.46443,-1.850417 -1.72661,-6.145391 -3.51235,-6.885066 l -1.36534,-0.565541 1.12249,-2.729155 c 0.61737,-1.501037 1.12761,-3.080707 1.13387,-3.510384 0.0145,-0.992597 0.85651,-1.691174 2.55112,-2.116493 l 1.33436,-0.3349 -0.92841,1.616308 c -0.51062,0.888975 -1.28699,2.881268 -1.72527,4.427319 -0.74583,2.630952 -0.74484,2.868504 0.0155,3.708681 0.93658,1.034904 1.64409,0.798322 1.64409,-0.549753 0,-0.513379 0.432,-1.739429 0.96,-2.724567 0.528,-0.985132 0.96,-2.239065 0.96,-2.786515 0,-0.547449 0.30034,-1.406102 0.66742,-1.908115 0.57685,-0.78889 0.84045,-0.833904 1.94259,-0.331742 1.74043,0.792998 1.70999,0.815788 1.70999,-1.280223 0,-2.089896 -0.93553,-3.182659 -2.39744,-2.800358 -1.23122,0.321969 -1.2417,-0.368463 -0.0186,-1.225152 0.92968,-0.651173 0.92512,-0.69696 -0.30167,-3.027216 -1.58947,-3.019147 -1.49557,-2.949231 -2.03951,-1.518543 -0.27295,0.717912 -1.44129,1.7525 -2.83676,2.512013 -1.30497,0.710251 -2.83664,1.91892 -3.40371,2.685927 -1.21074,1.637601 -1.86298,1.711267 -4.26143,0.481272 -2.41278,-1.237349 -4.13206,-3.17498 -4.15879,-4.686956 -0.0144,-0.812841 -0.36943,-1.378396 -1.01536,-1.617297 -0.80786,-0.298786 -1.32309,0.03936 -2.76,1.811285 -0.97172,1.198257 -1.76674,2.551291 -1.76674,3.006734 0,0.507763 1.43898,1.750454 3.72,3.212558 3.59559,2.30473 3.74839,2.479493 4.56883,5.225717 1.06133,3.552456 1.05259,4.041245 -0.0722,4.041245 -0.71385,0 -1.17002,-0.855067 -2.1739,-4.074864 -1.07741,-3.455621 -1.49204,-4.18944 -2.72845,-4.82881 -0.80188,-0.414667 -2.03762,-0.686976 -2.74609,-0.605136 -1.02002,0.117836 -1.32107,0.4373 -1.44639,1.534844 -0.13418,1.17528 -0.0247,1.334092 0.72,1.044436 0.48305,-0.187876 1.09214,-0.379593 1.35355,-0.426033 0.87307,-0.155103 2.57101,4.020878 2.90573,7.146461 0.33881,3.163708 0.55874,3.517339 1.56298,2.513102 1.031,-1.031002 0.60701,0.20472 -0.624,1.81867 -1.44664,1.89664 -1.47373,2.38249 -0.24526,4.397327 1.09747,1.79998 1.06825,1.79374 3.89306,0.83123 z m -6.37739,-12.351227 c -0.13226,-1.371706 -0.3387,-1.578154 -1.71041,-1.710413 -1.18316,-0.114077 -1.56,0.0385 -1.56,0.631555 0,1.474239 0.97416,2.638858 2.2073,2.638858 1.07996,0 1.19697,-0.171701 1.06311,-1.56 z m 21.66031,0.02381 c 0.39804,-0.709162 0.56661,-1.446485 0.3746,-1.638494 -0.45264,-0.452645 -2.74532,1.696574 -2.74532,2.573544 0,1.09032 1.58473,0.465278 2.37072,-0.93505 z m 12.52086,-3.98687 c 1.67094,-0.440789 3.13531,-1.251437 4.28033,-2.369516 1.98306,-1.936411 5.11516,-6.860361 4.65594,-7.319577 -0.44441,-0.444423 -9.63321,0.631387 -10.8206,1.266859 -0.90102,0.482213 -3.87142,4.999901 -3.88275,5.905286 -0.0101,0.805215 1.42661,0.282725 2.30974,-0.84 0.51916,-0.66 1.26439,-1.2 1.65607,-1.2 0.39168,0 0.98047,-0.323318 1.30843,-0.718483 0.53333,-0.642624 4.70658,-2.161517 5.93889,-2.161517 0.26587,0 0.0106,0.440415 -0.56712,0.978701 -0.57778,0.538282 -1.05051,1.247712 -1.05051,1.576507 0,0.328796 -0.648,0.980592 -1.44,1.448439 -0.792,0.467846 -1.44,1.037664 -1.44,1.266264 0,0.658637 -3.2054,1.541198 -5.16947,1.423344 -3.00363,-0.180235 -3.47053,-0.04003 -3.47053,1.042051 0,0.947592 0.1718,0.993845 2.57585,0.693475 1.41672,-0.177005 3.7188,-0.623333 5.11573,-0.991833 z m -38.89158,-1.649724 c 0,-0.592272 -1.94661,-1.947216 -2.79751,-1.947216 -0.36515,0 -1.2958,-0.531701 -2.06811,-1.181554 -2.20514,-1.855507 -6.174376,-2.610648 -6.174376,-1.174665 0,0.951758 2.76886,3.401985 4.559996,4.035254 2.18391,0.772138 6.48,0.949935 6.48,0.268181 z m -0.0129,-3.027216 c -0.0196,-0.910334 -2.39829,-3.495053 -4.49407,-4.883304 -1.6326,-1.08144 -2.37079,-1.236696 -5.880006,-1.236696 -5.67951,0 -5.30462,1.295381 0.68946,2.382317 2.714016,0.492144 6.735186,2.559461 7.553316,3.883224 0.41459,0.670833 2.14632,0.552581 2.1313,-0.145541 z m 27.85291,-4.104 c 0,-0.4752 -0.22411,-1.088107 -0.49801,-1.362014 -0.72614,-0.726135 6.27096,-3.84336 16.47853,-7.341236 9.22304,-3.160497 11.26936,-4.207214 13.75125,-7.033934 1.67495,-1.907654 4.16465,-6.782395 3.70088,-7.246162 -0.14622,-0.146227 -2.00811,1.574688 -4.13752,3.824261 -3.16537,3.343997 -4.5958,4.448861 -7.84131,6.056607 -3.66069,1.81342 -5.95983,2.483904 -5.50874,1.606478 3.21599,-6.255461 4.39189,-10.51668 4.12888,-14.962272 -0.21358,-3.609936 -1.20296,-3.72768 -1.55519,-0.185078 -0.67025,6.741115 -2.68544,12.715555 -5.18878,15.383236 -0.97131,1.035072 -8.41577,4.238333 -8.84725,3.806856 -0.11572,-0.115723 0.0443,-1.672795 0.35552,-3.460156 0.83734,-4.808367 0.0602,-11.742586 -1.31599,-11.742586 -0.54031,0 -0.6048,0.381797 -0.30402,1.8 0.54422,2.566046 0.33291,9.846379 -0.34545,11.901806 -0.77837,2.358495 -3.08517,4.883136 -4.80741,5.261405 -2.03919,0.447879 -2.11119,0.928997 -0.42623,2.848051 1.66394,1.895127 2.36084,2.144487 2.36084,0.844738 z m -30.24,-1.717229 c 0,-1.143096 -1.30484,-1.807008 -3.2065,-1.631496 l -1.833496,0.169219 2.159996,1.027848 c 2.61014,1.242048 2.88,1.282752 2.88,0.434429 z m 5.76,-1.82076 c 0,-0.208176 -0.83674,-0.805373 -1.85942,-1.327104 -2.38806,-1.218302 -3.43958,-3.719928 -3.77862,-8.989589 -0.21837,-3.393993 -0.0778,-4.444171 1.04965,-7.84331 1.28961,-3.887976 1.34123,-4.741061 0.24594,-4.064131 -2.04983,1.266859 -3.56155,9.106157 -2.80498,14.545685 0.2705,1.944825 0.3903,3.637564 0.26623,3.761635 -0.51756,0.517565 -5.234056,-2.005733 -6.549506,-3.503947 -3.22262,-3.670359 -3.75139,-11.090597 -1.20213,-16.869288 1.47141,-3.335405 1.23276,-4.466243 -0.4881,-2.312861 -1.98049,2.478254 -2.8641,6.220915 -2.87194,12.164568 -0.004,2.969817 -0.0767,5.399817 -0.16165,5.4 -0.085,1.82e-4 -1.12075,-0.565911 -2.30168,-1.257984 -1.18094,-0.692079 -2.26831,-1.137168 -2.41638,-0.989093 -0.59137,0.59137 2.29217,2.704843 7.28917,5.342554 2.89488,1.528089 6.991416,3.805574 9.103416,5.061076 2.112,1.255508 4.164,2.393127 4.56,2.52804 0.68164,0.232234 1.92,-0.829564 1.92,-1.646251 z M 83.739674,54.863617 c 0,-2.316447 2.31283,-8.663655 3.8685,-10.616488 1.65437,-2.076733 1.70709,-2.308146 0.52589,-2.308146 -1.22081,0 -2.22105,1.227694 -3.67049,4.505131 -1.51551,3.426835 -2.35337,7.154631 -1.96018,8.721211 0.41636,1.658943 1.23628,1.458845 1.23628,-0.301708 z m 83.040386,-1.044634 c 2.2e-4,-0.066 0.32212,-1.662134 0.71535,-3.54696 0.49051,-2.351179 1.37694,-4.500672 2.82374,-6.847323 1.15984,-1.881199 2.88993,-5.771848 3.84466,-8.645886 1.74346,-5.248391 2.10303,-7.239831 1.30722,-7.239831 -0.49946,0 -0.67179,0.391478 -2.43734,5.536848 -1.59751,4.65566 -3.70662,9.060969 -4.82084,10.069325 -0.75171,0.680286 -0.98431,0.515707 -2.87321,-2.032982 -2.68223,-3.619134 -5.31711,-6.373191 -6.09739,-6.373191 -0.97627,0 -0.80544,0.332317 2.26682,4.409514 4.34948,5.772203 4.55546,6.269305 4.48767,10.830486 -0.0324,2.178 0.13055,3.96 0.36204,3.96 0.23149,0 0.42107,-0.054 0.42128,-0.12 z M 82.669964,41.105723 c 0.40747,-6.331007 0.33344,-14.043862 -0.1567,-16.32674 -0.61919,-2.883885 -1.05771,-0.255913 -1.36165,8.16 -0.34673,9.600844 -0.81771,12.703498 -1.9971,13.156075 -1.00954,0.387394 -0.85103,1.489661 0.26516,1.843925 0.58791,0.186595 0.96,0.726254 0.96,1.392346 0,0.598209 0.15511,1.242768 0.34469,1.432348 0.72477,0.724762 1.53679,-3.306139 1.9456,-9.657954 z m -11.74996,-1.673702 c -0.48161,-1.778867 -0.59946,-3.78352 -0.39582,-6.733038 0.31615,-4.579089 -0.27957,-5.634494 -1.21921,-2.16 -0.72111,2.666451 -0.3381,8.33999 0.69774,10.335694 1.19334,2.299142 1.71025,1.486175 0.91729,-1.442656 z m 98.509116,-3.013038 c -0.58785,-5.545004 -3.70609,-14.64 -5.01934,-14.64 -0.76954,0 -0.61506,1.271925 0.39581,3.259122 1.54403,3.035274 2.83905,7.927866 3.20311,12.101262 0.31544,3.6162 0.41429,3.909573 1.03721,3.078374 0.51097,-0.681821 0.6098,-1.661475 0.38321,-3.798758 z m -79.428616,0.198728 c 0.81106,-1.6067 2.43705,-4.46774 3.61331,-6.357868 2.07519,-3.334619 2.13398,-4.702514 0.1242,-2.890118 -0.94566,0.852791 -5.18952,8.846766 -5.88709,11.089258 -0.6862,2.205975 0.71044,1.009648 2.14958,-1.841272 z"
     id="path3609"
     inkscape:connector-curvature="0" />
</svg>
