<?xml version="1.0" encoding="UTF-8" standalone="no"?>
<!-- Created with Inkscape (http://www.inkscape.org/) -->

<svg
   xmlns:dc="http://purl.org/dc/elements/1.1/"
   xmlns:cc="http://creativecommons.org/ns#"
   xmlns:rdf="http://www.w3.org/1999/02/22-rdf-syntax-ns#"
   xmlns:svg="http://www.w3.org/2000/svg"
   xmlns="http://www.w3.org/2000/svg"
   xmlns:sodipodi="http://sodipodi.sourceforge.net/DTD/sodipodi-0.dtd"
   xmlns:inkscape="http://www.inkscape.org/namespaces/inkscape"
   width="210mm"
   height="297mm"
   viewBox="0 0 210 297"
   version="1.1"
   id="svg8"
   inkscape:version="0.92.2 (5c3e80d, 2017-08-06)"
   sodipodi:docname="ElchV1.svg">
  <defs
     id="defs2" />
  <sodipodi:namedview
     id="base"
     pagecolor="#ffffff"
     bordercolor="#666666"
     borderopacity="1.0"
     inkscape:pageopacity="0.0"
     inkscape:pageshadow="2"
     inkscape:zoom="1.5286865"
     inkscape:cx="411.28642"
     inkscape:cy="805.74271"
     inkscape:document-units="mm"
     inkscape:current-layer="layer1"
     showgrid="false"
     inkscape:window-width="1920"
     inkscape:window-height="1017"
     inkscape:window-x="-8"
     inkscape:window-y="-8"
     inkscape:window-maximized="1" />
  <metadata
     id="metadata5">
    <rdf:RDF>
      <cc:Work
         rdf:about="">
        <dc:format>image/svg+xml</dc:format>
        <dc:type
           rdf:resource="http://purl.org/dc/dcmitype/StillImage" />
        <dc:title></dc:title>
      </cc:Work>
    </rdf:RDF>
  </metadata>
  <g
     inkscape:label="Ebene 1"
     inkscape:groupmode="layer"
     id="layer1">
    <path
       style="fill:#000000;stroke-width:0.21338437"
       d="m 68.623199,125.94613 c 0.09888,-0.51723 0.06002,-0.56701 -0.342445,-0.43873 -0.977758,0.31163 -1.583239,0.34918 -1.732639,0.10739 -0.08558,-0.13846 0.198217,-0.96762 0.630646,-1.84259 0.631097,-1.27694 1.067331,-1.82425 2.210817,-2.77372 1.711223,-1.4209 2.745806,-1.96549 5.209757,-2.74233 2.560734,-0.80735 3.499494,-1.65624 4.778429,-4.32094 l 0.970892,-2.02289 -0.545112,-1.21466 c -0.902596,-2.01126 -1.218783,-3.74409 -1.34738,-7.38419 -0.130737,-3.700754 0.09692,-6.537684 0.802459,-9.999814 0.922512,-4.52685 3.110192,-10.17629 5.380777,-13.89527 0.141971,-0.23253 0.827496,-1.24077 1.523392,-2.24053 1.209345,-1.73741 1.278136,-1.90733 1.556579,-3.8449 0.160223,-1.11493 0.31733,-2.1967 0.349123,-2.40391 0.05453,-0.35543 0.563262,-1.0329 0.563262,-0.75008 0,0.0727 -0.135955,0.69203 -0.302119,1.37634 -0.166164,0.6843 -0.345305,1.69046 -0.398094,2.23591 l -0.09598,0.99173 1.497457,-1.68835 c 0.823601,-0.92859 1.542246,-1.64356 1.59699,-1.58881 0.05473,0.0548 -0.471776,0.75231 -1.170038,1.55016 -6.034717,6.89537 -9.765856,15.36413 -10.754412,24.40985 -0.362257,3.314804 -0.13283,9.059504 0.441415,11.052884 0.555291,1.92756 0.952976,2.74189 1.168627,2.39296 0.08541,-0.1382 0.343729,-0.89609 0.57403,-1.68419 0.331202,-1.1334 0.390299,-1.77377 0.282719,-3.06362 -0.158655,-1.90221 0.145784,-2.80482 1.592212,-4.7206 0.618337,-0.81899 0.874288,-1.36797 0.878066,-1.883384 0.003,-0.4001 0.23488,-1.77891 0.515433,-3.06401 l 0.510099,-2.33656 -0.517933,-1.02208 c -1.066992,-2.10562 -1.164105,-5.59067 -0.212931,-7.64134 0.190528,-0.41076 0.291519,-0.55667 0.224424,-0.32426 -0.06709,0.23243 -0.229569,1.18331 -0.361056,2.11307 -0.264849,1.8728 -0.02355,3.98555 0.619237,5.42179 l 0.354151,0.79132 0.178467,-1.22696 c 0.514902,-3.53997 0.590902,-3.78144 0.486921,-1.54703 -0.05462,1.17361 -0.298023,3.04605 -0.540908,4.16099 -0.491969,2.25833 -1.003265,4.98791 -0.9486,5.06416 0.01956,0.0273 0.329446,-0.0613 0.688617,-0.19685 1.329722,-0.50191 2.406724,0.447154 2.418351,2.131074 0.0048,0.70448 0.06427,0.61664 0.547931,-0.81023 1.234732,-3.642654 3.455231,-7.577114 6.141844,-10.882604 2.167801,-2.66718 5.021077,-5.50033 6.032504,-5.98995 1.48666,-0.71968 2.67708,-0.29749 3.46281,1.22812 0.36376,0.70627 0.28847,2.35332 -0.18291,4.00168 -0.23263,0.81346 -0.38076,1.52124 -0.32918,1.57283 0.0516,0.0516 0.71418,-0.50193 1.47242,-1.23002 1.47209,-1.41359 2.61332,-3.31022 3.20677,-5.32943 0.4657,-1.5845 0.43132,-4.44025 -0.0855,-7.10208 -0.23437,-1.20712 -0.42642,-2.23825 -0.42677,-2.29141 -4.3e-4,-0.0531 -0.38949,0.28293 -0.86474,0.74684 -1.21543,1.18647 -2.21753,2.70767 -3.05935,4.64414 -0.79752,1.83458 -1.10189,2.29999 -0.86335,1.32015 0.47655,-1.95748 2.06514,-4.60194 3.86021,-6.42592 1.08711,-1.10463 3.85057,-3.06925 4.31724,-3.06925 0.41156,0 0.64064,-0.77497 0.6218,-2.1035 -0.0103,-0.72665 0.0547,-1.39084 0.1444,-1.47596 0.0897,-0.0851 0.11492,0.85348 0.056,2.08578 -0.0882,1.84335 -0.24413,2.63646 -0.87971,4.47393 -0.89179,2.57819 -1.05672,3.99726 -0.26123,2.24767 l 0.4851,-1.06691 -0.0973,1.73319 c -0.0587,1.04603 -0.005,1.89203 0.13547,2.13384 0.21429,0.36891 0.23541,0.35838 0.26646,-0.13281 0.0602,-0.95153 0.12652,-1.37726 0.29939,-1.92046 0.16007,-0.50291 0.17933,-0.50903 0.3366,-0.10668 0.0918,0.23473 0.17356,0.69466 0.1818,1.02208 0.008,0.32742 0.22696,0.99957 0.48602,1.49368 l 0.47102,0.89839 0.15922,-1.36123 c 0.18595,-1.58965 0.87713,-2.74731 2.00197,-3.35307 0.40572,-0.21851 0.7377,-0.47467 0.7377,-0.56924 0,-0.0946 -0.24424,-0.67287 -0.54275,-1.28512 -0.41916,-0.85974 -0.45031,-1.00695 -0.1368,-0.64661 l 0.40593,0.46656 0.44937,-0.60779 0.44935,-0.60779 -0.54435,-2.09931 c -0.33712,-1.30007 -0.55767,-2.76885 -0.57929,-3.85794 -0.0401,-2.01991 -0.1581,-2.11197 -1.53243,-1.19569 l -0.84972,0.56653 0.51956,-0.56892 c 0.57641,-0.63118 1.88639,-1.07545 2.49831,-0.84729 0.52272,0.19491 2.02358,1.39428 1.89974,1.51813 -0.0532,0.0532 -0.5042,-0.20289 -1.00219,-0.56912 -0.49799,-0.36621 -0.98253,-0.66585 -1.07678,-0.66585 -0.3357,0 -0.16379,2.83333 0.29239,4.81928 l 0.46374,2.0188 0.69162,-1.29447 c 1.90161,-3.55914 3.99495,-4.81713 8.47434,-5.09267 l 2.12743,-0.13086 -0.80263,-0.56973 c -1.57838,-1.12038 -4.42599,-3.7148 -5.11278,-4.65819 -0.38448,-0.52813 -0.89137,-1.48836 -1.1264,-2.13385 -0.49856,-1.369137 -0.82933,-3.053617 -0.50399,-2.56659 0.23142,0.346426 0.27889,0.270591 0.53061,-0.847562 0.1864,-0.828036 0.93613,-1.917059 1.45087,-2.107474 0.7962,-0.294529 1.52512,0.159464 2.09632,1.305659 l 0.52936,1.062258 0.18678,-0.649293 c 0.2533,-0.880536 0.0396,-1.593849 -0.74544,-2.487926 -0.66835,-0.761225 -1.28513,-0.917909 -2.20117,-0.559183 -0.28364,0.111056 -0.33367,0.210368 -0.16004,0.317674 0.6284,0.388365 0.20992,0.66461 -1.01751,0.67167 -0.69827,0.0035 -1.33869,0.0764 -1.42316,0.160884 -0.0845,0.08445 0.0715,0.393249 0.3468,0.686193 0.88475,0.941776 0.18386,0.567356 -0.95606,-0.510739 -1.45595,-1.376976 -2.67975,-1.986578 -3.96806,-1.976608 -1.40481,0.01064 -2.59135,0.671375 -4.23332,2.356445 -0.75585,0.775701 -1.21414,1.170311 -1.01843,0.876905 0.77479,-1.161487 0.80449,-1.246311 0.40992,-1.170641 -0.20383,0.03903 -0.57722,0.07841 -0.82976,0.0874 -0.54106,0.01928 -1.46621,1.309171 -1.10088,1.534962 0.12642,0.07818 -0.047,0.196873 -0.38536,0.263861 -1.62677,0.322074 -2.68973,0.357745 -4.45613,0.149494 -5.499863,-0.648371 -5.855606,-0.673373 -6.288331,-0.441776 -0.539665,0.288817 -0.545219,0.656886 -0.02514,1.66571 1.629565,3.160957 5.084961,4.633007 7.700461,3.280527 1.08432,-0.56071 3.11322,-2.451061 3.26865,-3.045476 0.0706,-0.269988 -0.26707,-0.09095 -1.08475,0.575114 -2.20336,1.794852 -3.6298,2.238952 -5.47162,1.703522 -1.392905,-0.40493 -2.739454,-1.474291 -2.644405,-2.100048 0.06021,-0.396431 0.268861,-0.425868 3.478205,-0.490574 1.87779,-0.03785 4.01429,-0.201734 4.7478,-0.364143 1.19808,-0.265269 1.3334,-0.260999 1.33112,0.04199 -0.005,0.67523 -0.61838,2.622975 -1.56627,4.974155 -0.53323,1.32263 -1.02676,2.93291 -1.09673,3.5784 l -0.12724,1.17362 0.53917,-0.96024 0.53916,-0.96023 -0.12513,0.8747 c -0.085,0.59419 -0.0159,1.08597 0.21555,1.5335 0.32654,0.63145 0.81427,1.12217 0.75051,0.75509 -0.0168,-0.0968 -0.0162,-0.41596 0.002,-0.70936 l 0.032,-0.53346 0.42845,0.57395 c 0.23565,0.31569 1.0488,1.06148 1.80701,1.65734 0.7582,0.59585 1.37856,1.18087 1.37856,1.30006 0,0.11919 -0.76819,-0.41367 -1.70708,-1.18413 -1.39891,-1.14795 -1.70707,-1.32254 -1.70707,-0.96715 0,0.92089 -0.92945,0.12632 -1.37781,-1.17786 -0.2689,-0.7822 -0.27104,-0.78333 -0.41273,-0.21878 -0.20831,0.82996 -0.55669,0.45608 -0.55669,-0.59746 0,-1.09078 0.43175,-2.60883 1.42458,-5.00893 0.91134,-2.203105 0.81087,-2.539549 -0.12239,-0.40985 -0.96262,2.19669 -1.91854,3.40119 -3.68222,4.63978 -1.55548,1.09237 -4.294658,2.15578 -5.47286,2.12467 -0.375166,-0.009 -0.114864,-0.14707 0.747064,-0.39366 0.72757,-0.20814 1.775381,-0.55127 2.328466,-0.7625 l 1.00562,-0.38405 -1.26155,-0.39178 c -0.693851,-0.21549 -1.778465,-0.78595 -2.410254,-1.2677 -0.631788,-0.48175 -1.518632,-1.06872 -1.970762,-1.30439 -0.967677,-0.50438 -3.255005,-0.77761 -3.478771,-0.41554 -0.09125,0.14762 0.01611,0.24036 0.278215,0.24036 0.830633,0 0.647989,0.38092 -0.247,0.51512 -0.499389,0.0749 -1.186184,0.31867 -1.526207,0.54172 l -0.618228,0.40555 0.888234,-0.11914 c 0.488528,-0.0655 0.888233,-0.0685 0.888233,-0.007 0,0.0619 -0.466225,0.41172 -1.036056,0.77738 -0.569832,0.36566 -1.21339,0.86079 -1.430132,1.10028 -0.389701,0.43062 -0.387674,0.43302 0.182519,0.21623 0.634513,-0.24124 0.765957,-0.0124 0.242447,0.42205 -0.395173,0.32797 -0.928608,1.31694 -1.176449,2.18111 -0.151005,0.52652 -0.131392,0.57944 0.133311,0.35977 0.51169,-0.42468 0.352016,-0.0188 -0.32307,0.8213 -0.348389,0.43352 -0.666568,1.00534 -0.707064,1.27069 -0.0405,0.26536 -0.199952,0.60119 -0.354347,0.7463 -0.428103,0.40237 -0.08747,-0.84491 0.428726,-1.56985 0.22692,-0.31868 0.41352,-0.80466 0.414666,-1.07994 0.0011,-0.27529 0.231439,-0.9931 0.51176,-1.59514 l 0.509675,-1.09462 -0.45656,0.1194 c -0.438021,0.1146 -0.442747,0.0984 -0.11639,-0.39907 0.187089,-0.28516 0.745853,-0.83054 1.241695,-1.21198 0.900883,-0.69299 0.757878,-0.99799 -0.164889,-0.35165 -0.268427,0.18801 -0.531194,0.29869 -0.583929,0.24597 -0.221211,-0.22122 0.838338,-1.22606 1.766667,-1.67546 0.56712,-0.27453 0.867502,-0.52129 0.69267,-0.569 -0.88995,-0.24286 -0.957832,-0.30593 -0.52209,-0.4851 0.692775,-0.28486 3.476329,-0.22996 4.221195,0.0833 0.377654,0.15881 1.43154,0.82423 2.341966,1.47874 1.158918,0.83315 2.007289,1.26877 2.828999,1.45267 l 1.17368,0.26266 1.13731,-0.7833 c 1.26778,-0.87315 2.09513,-1.92454 3.12486,-3.97101 l 0.69347,-1.3782 -0.74997,0.65849 c -1.10622,0.97127 -2.45862,1.42164 -3.93489,1.31041 -2.07404,-0.15628 -3.866426,-1.32346 -5.182928,-3.375046 -0.730778,-1.138815 -0.866785,-1.920985 -0.426322,-2.451712 0.344074,-0.414586 2.167992,-0.41578 5.01508,-0.0035 1.17361,0.170037 2.97209,0.312198 3.99662,0.315924 l 1.86275,0.0071 0.43544,-0.853535 0.43545,-0.853534 -0.69784,-8.52e-4 c -0.38381,-4.25e-4 -2.04216,-0.0984 -3.68521,-0.217487 -5.457344,-0.39571 -10.633195,-1.634061 -14.37128,-3.438407 -1.839116,-0.887727 -2.483817,-1.340111 -3.855758,-2.705556 -1.629297,-1.621586 -2.653943,-3.220406 -2.432953,-3.796292 0.193976,-0.505497 0.729418,-0.332344 1.679013,0.542962 0.9562,0.881396 2.534186,1.765789 3.617299,2.027338 l 0.640153,0.154591 -0.456843,-0.497484 c -1.289913,-1.404658 -2.925602,-5.037926 -2.808249,-6.237811 0.114025,-1.165841 0.670008,-0.928022 2.042814,0.873799 1.839879,2.41486 4.004473,4.289307 4.444786,3.848994 0.06965,-0.06965 -0.08726,-0.685388 -0.348679,-1.368315 -0.591667,-1.545656 -0.728442,-4.863687 -0.213681,-5.18372 0.484155,-0.301005 0.73528,0.03841 1.744915,2.358416 0.511251,1.174783 1.222978,2.482943 1.581617,2.907022 1.262284,1.492606 2.832727,0.735391 3.82748,-1.845484 0.790756,-2.051601 2.430976,-3.130422 2.280176,-1.499732 -0.2532,2.737882 -0.13901,4.158533 0.43268,5.383183 0.70773,1.516064 2.41195,3.349541 4.0232,4.328324 1.28795,0.782383 4.02143,1.896988 4.20414,1.714272 0.22381,-0.223804 -0.58124,-1.132476 -1.21316,-1.369313 -0.36117,-0.135372 -0.96876,-0.362593 -1.35018,-0.504944 -1.52523,-0.569212 -3.6343,-3.201739 -3.28804,-4.104083 0.19851,-0.517294 0.66291,-0.396289 1.65264,0.430608 1.65817,1.385355 3.46171,2.005365 4.90886,1.687513 1.00869,-0.221545 2.20744,-1.441517 3.4287,-3.489421 0.60382,-1.012517 1.29686,-2.062113 1.5401,-2.332436 0.41388,-0.459986 0.45969,-0.467631 0.71443,-0.119253 0.37957,0.519084 0.33979,2.636098 -0.0725,3.857404 -0.18955,0.561568 -0.73239,1.675519 -1.20629,2.475441 -1.06248,1.79343 -1.3652,3.560108 -0.61004,3.560108 0.34383,0 0.45392,-0.131446 0.45392,-0.541963 0,-0.817663 0.75733,-2.135634 1.54221,-2.683901 0.94181,-0.657879 0.96216,-0.699735 1.12395,-2.310639 0.17588,-1.751343 -0.1735,-4.39182 -0.90075,-6.807742 -0.70582,-2.344702 -0.74707,-3.126121 -0.16503,-3.126121 0.29619,0 0.80187,0.550901 1.6527,1.80054 1.71481,2.518538 1.90194,2.607323 2.52529,1.198124 0.32624,-0.737507 0.40677,-1.329167 0.36143,-2.655382 -0.0627,-1.833404 0.17821,-2.455723 0.76276,-1.97058 0.46651,0.38717 1.20349,2.251813 1.55353,3.930564 0.17274,0.8285 0.36892,1.595095 0.43594,1.703544 0.0671,0.108454 0.41,0.139553 0.76216,0.06912 0.55164,-0.110322 0.60354,-0.08376 0.37476,0.191887 -0.34018,0.409901 -0.9399,0.409894 -1.2801,-1.4e-5 -0.14605,-0.175979 -0.39753,-0.949626 -0.55885,-1.719215 -0.34686,-1.654739 -1.15827,-3.765785 -1.4887,-3.873177 -0.16377,-0.05322 -0.22763,1.027429 -0.21339,3.611699 0.0166,2.996895 -0.052,3.921778 -0.36574,4.937548 -0.21233,0.687442 -0.41819,1.215568 -0.45748,1.173614 -0.0393,-0.04195 0.048,-0.65242 0.19406,-1.356588 0.146,-0.704169 0.32814,-2.000478 0.40474,-2.880689 l 0.13928,-1.600383 -0.43248,0.800191 c -0.7452,1.378764 -1.24406,1.136511 -2.99112,-1.452508 -0.57852,-0.857341 -1.14279,-1.614999 -1.25393,-1.683684 -0.45831,-0.28325 -0.4356,0.397183 0.0662,1.985922 1.32903,4.207098 1.57928,8.722968 0.57358,10.350228 -0.27132,0.43902 -0.45312,0.838407 -0.40399,0.887537 0.0491,0.0492 0.4968,-0.112239 0.99481,-0.358655 0.49801,-0.246405 1.35698,-0.491793 1.90882,-0.54531 l 1.00333,-0.09734 -0.85353,0.756825 -0.85354,0.756813 0.89498,0.0083 c 0.63984,0.0059 1.06566,0.158175 1.4937,0.534736 l 0.59869,0.526718 -0.64015,0.01431 c -0.35208,0.0083 -0.8802,0.15154 -1.17361,0.319259 l -0.53346,0.304961 0.5974,0.0071 c 1.24553,0.01573 2.64805,-1.178743 3.14226,-2.676213 0.28608,-0.866816 0.14682,-2.164232 -0.33161,-3.08941 -0.48677,-0.941292 -0.41043,-1.48189 0.20923,-1.48189 0.3806,0 0.70475,0.263861 1.18922,0.968007 0.56904,0.827067 0.8318,1.439723 1.40003,3.264235 0.19321,0.620341 5.76423,-5.048452 6.74763,-6.866042 0.76411,-1.412298 0.49411,-1.482482 -1.30615,-0.339524 -2.5392,1.612101 -3.71292,1.81777 -3.99353,0.699779 -0.0976,-0.388584 0.13374,-1.110679 0.8326,-2.599736 1.03282,-2.200604 1.43549,-3.569096 1.43497,-4.876852 -2.2e-4,-0.7884 -0.0409,-0.744818 -1.37509,1.475656 -1.88576,3.138513 -2.93419,4.639077 -3.7686,5.393788 -0.68205,0.616904 -0.53275,0.277474 0.29488,-0.670395 0.21947,-0.251355 0.42163,-0.610935 0.44925,-0.799067 0.0276,-0.188132 0.29532,-0.606627 0.59492,-0.929989 0.29961,-0.323361 1.14959,-1.596172 1.88887,-2.828466 0.73927,-1.232295 1.51509,-2.424172 1.72404,-2.648615 0.37202,-0.399597 0.38283,-0.396445 0.52039,0.151648 0.23868,0.95096 -0.49923,3.966583 -1.4256,5.825975 -1.67601,3.364095 -0.69653,3.707349 3.2677,1.145147 0.77262,-0.499378 1.40046,-0.775234 1.51154,-0.664146 0.36737,0.36737 -0.28809,1.953565 -1.31933,3.192719 -1.72442,2.072111 -3.46943,3.894049 -4.75994,4.96979 -1.14486,0.954337 -1.20063,1.043051 -0.866,1.377686 0.27781,0.277817 0.60448,0.332198 1.46317,0.243566 1.89499,-0.195572 3.93583,-1.457542 4.94065,-3.055057 0.34673,-0.551266 0.72685,-0.91708 0.91378,-0.8794 0.47543,0.09583 0.30666,1.963408 -0.28412,3.143748 -0.73751,1.47352 -1.87369,2.107817 -5.51672,3.079799 l -3.13353,0.836042 0.32554,0.629519 c 0.21407,0.413958 0.28986,0.967429 0.22132,1.616272 -0.0574,0.542708 -0.14098,1.971203 -0.18592,3.174416 -0.0717,1.917709 -0.0368,2.201919 0.28203,2.303119 0.20005,0.0635 0.75513,0.49528 1.2335,0.95952 0.78594,0.76272 0.86975,0.94556 0.86975,1.89733 0,0.5793 -0.10018,1.31668 -0.22256,1.63863 -0.19659,0.51711 -0.15304,0.64237 0.37342,1.07409 0.32779,0.26879 1.02808,0.65348 1.55622,0.85486 1.51754,0.57866 2.73606,1.51225 3.24448,2.48586 0.38799,0.74296 0.47215,1.27771 0.49358,3.13621 0.0318,2.76358 -0.0766,3.17439 -1.16413,4.40988 -0.67412,0.76585 -0.86686,1.15736 -0.86686,1.76084 0,1.03336 -0.4315,1.59444 -1.46413,1.90383 -0.69156,0.2072 -1.02091,0.19787 -1.7381,-0.0492 -0.82926,-0.28571 -0.95504,-0.27273 -2.00163,0.20641 -0.99929,0.45749 -1.16838,0.63583 -1.60758,1.69546 -0.38903,0.93863 -0.66115,1.2711 -1.31225,1.60327 -0.98749,0.50377 -2.27482,0.5379 -3.34966,0.0888 -1.67821,-0.70121 -2.38956,-1.83166 -2.91408,-4.63096 -0.19243,-1.02691 -0.42632,-2.0738 -0.51975,-2.32639 -0.16498,-0.44597 -0.19433,-0.4372 -1.01372,0.30307 -1.26879,1.14629 -1.87436,2.50647 -1.71499,3.85211 l 0.12879,1.08749 -0.64788,-0.64788 c -0.35634,-0.35634 -0.78207,-1.0245 -0.94607,-1.48481 -0.25253,-0.70877 -0.30294,-0.75522 -0.32918,-0.30344 -0.017,0.2934 -0.0186,0.86953 -0.004,1.2803 l 0.0275,0.74684 -0.43423,-0.50569 c -0.23882,-0.27812 -0.4938,-0.87827 -0.56662,-1.33365 -0.13886,-0.86839 -0.41134,-1.08874 -0.56208,-0.45454 -0.0701,0.29502 -0.13947,0.2503 -0.33028,-0.21296 -0.30078,-0.73022 -0.0939,-1.90289 0.81232,-4.60383 0.36712,-1.09419 0.63573,-2.08469 0.59692,-2.20111 -0.0729,-0.21861 -3.20194,1.72091 -3.4662,2.14849 -0.0817,0.13225 0.0473,1.07793 0.28665,2.10149 0.90317,3.86168 0.8012,6.96822 -0.30888,9.4099 -0.51114,1.12428 -0.51729,1.20431 -0.30622,3.985 0.31734,4.18081 1.49333,9.52796 2.55176,11.602654 0.39835,0.78084 0.4648,0.81552 2.05316,1.07175 3.57441,0.57662 5.20332,1.52946 5.68344,3.32459 0.2163,0.80868 0.3615,0.9546 1.4447,1.4518 0.66234,0.30403 1.46167,0.75525 1.7763,1.00275 0.499,0.39251 0.5396,0.50939 0.3179,0.91504 -0.13978,0.25579 -0.23003,0.71278 -0.20056,1.01556 0.0726,0.74527 -0.3468,1.03907 -2.27688,1.59513 -1.15533,0.33285 -1.66382,0.58389 -1.71644,0.84739 -0.0675,0.33792 0.0574,0.35951 1.2803,0.22151 0.7453,-0.0841 2.25582,-0.33805 3.35672,-0.56434 3.15457,-0.64842 5.37479,-0.75691 6.52224,-0.31869 1.16827,0.44617 1.8155,1.18613 2.88943,3.30349 0.45195,0.89104 1.28561,2.10558 1.85258,2.69898 1.14613,1.19954 2.67237,3.65352 2.58043,4.14901 -0.035,0.18854 -0.34393,0.34759 -0.75178,0.387 -0.60056,0.0581 -0.67636,0.13091 -0.57134,0.54929 0.0775,0.30864 -0.007,0.58916 -0.23611,0.77881 -0.77804,0.64573 -5.90402,-1.21106 -8.83137,-3.199 -1.48226,-1.00658 -2.14628,-1.91685 -2.14746,-2.94381 -6.4e-4,-0.57063 -0.0834,-0.6935 -0.46716,-0.6935 -0.25651,0 -0.6839,-0.20436 -0.94976,-0.45413 -0.47022,-0.44175 -0.50842,-0.44434 -1.40075,-0.0952 -1.36505,0.53417 -3.09387,1.78232 -3.59756,2.59732 -0.68447,1.10748 -1.41323,1.5795 -2.43864,1.5795 -1.21865,0 -1.90364,-0.66113 -2.35433,-2.27238 -0.39419,-1.40918 -1.11374,-2.21029 -1.98099,-2.20554 -1.1876,0.007 -3.41571,0.68762 -5.37605,1.64339 -1.11494,0.54358 -2.6026,1.20077 -3.30592,1.46042 -1.218932,0.44998 -1.293609,0.51986 -1.59586,1.49313 -0.1744,0.56157 -0.618534,1.34066 -0.986965,1.73132 -0.575572,0.61028 -0.811985,0.71028 -1.679352,0.71028 -1.960119,0 -3.237796,-1.14803 -4.071632,-3.65848 l -0.344097,-1.03599 h -1.427487 c -1.550463,0 -3.802786,-0.54483 -5.674831,-1.37274 l -1.185373,-0.52423 v 0.54215 c 0,0.70348 -0.582158,1.67845 -1.199506,2.00884 -0.480499,0.25715 -0.564039,0.48566 -0.836231,2.28743 -0.193005,1.27759 -0.871288,1.97468 -2.803313,2.88103 -2.47036,1.1589 -4.646889,1.65918 -7.834952,1.8009 l -2.751628,0.1223 z m 3.791343,0.008 c 0.997573,-0.0558 2.025024,-0.17999 2.283226,-0.27589 0.467259,-0.17352 0.467651,-0.17835 0.08389,-1.02712 -0.78593,-1.73823 -2.065514,-2.57464 -4.295386,-2.80771 -1.160885,-0.12134 -1.338652,-0.0848 -1.833587,0.37683 -0.301439,0.28115 -0.785297,0.97728 -1.075239,1.54694 l -0.527168,1.03574 0.720075,-0.54922 c 0.918555,-0.70062 2.664736,-1.47722 2.939577,-1.30736 0.384324,0.23752 0.221517,0.56721 -0.869756,1.76123 -1.152784,1.26133 -1.130299,1.57554 0.102139,1.4273 0.362156,-0.0435 1.47466,-0.1249 2.472232,-0.18074 z m -2.327882,-1.97864 0.7275,-0.76686 -0.640153,0.14993 c -0.734553,0.17204 -2.424952,1.20532 -2.985908,1.82517 -0.375452,0.41487 -0.363959,0.41473 0.895364,-0.0106 0.827271,-0.27937 1.531424,-0.70038 2.003197,-1.19768 z m 9.262875,0.0881 c 1.564388,-0.79631 1.967066,-1.32744 2.223595,-2.93295 0.26729,-1.67284 0.810942,-3.56516 1.0703,-3.72545 0.103806,-0.0641 0.06385,0.35676 -0.08877,0.93536 -0.230353,0.87322 -0.229282,1.0335 0.0063,0.94309 0.156102,-0.0598 0.457619,-0.36491 0.670044,-0.67779 0.333879,-0.4918 0.377442,-0.95065 0.32144,-3.38555 -0.08683,-3.77515 0.283779,-5.03394 2.227963,-7.56736 1.235995,-1.61061 1.357652,-1.99946 1.357652,-4.3395 0,-2.37373 -0.186303,-2.96851 -1.020957,-3.25947 -0.919674,-0.320594 -1.766733,0.18225 -2.808302,1.66711 -1.158558,1.65163 -1.508506,2.53749 -1.490352,3.77269 0.01124,0.76649 0.06064,0.91423 0.198386,0.59367 0.388807,-0.90481 0.221388,0.45593 -0.305607,2.4839 -0.67736,2.60659 -2.060853,5.97492 -3.037631,7.39557 -0.915986,1.33224 -1.902512,1.95738 -4.445291,2.81689 -1.890441,0.63901 -3.13095,1.28576 -4.232705,2.20675 l -0.605169,0.50588 1.396868,0.11212 c 2.211966,0.17756 3.707443,1.25751 4.402233,3.17906 l 0.280543,0.77589 1.406267,-0.47842 c 0.773446,-0.26313 1.88638,-0.7228 2.473187,-1.02149 z m 4.593735,-16.89353 c -0.286298,-0.75303 -0.282116,-2.04286 0.0066,-2.04286 0.124288,0 0.170491,0.0898 0.10267,0.19951 -0.06782,0.10975 -0.02221,0.65059 0.101346,1.20192 0.252695,1.12758 0.123619,1.52062 -0.210648,0.64143 z m 49.71259,16.52818 c 0,-0.11377 -0.48012,-0.94225 -1.06692,-1.84115 -1.10015,-1.68526 -1.34508,-2.30634 -0.69351,-1.75859 2.29349,1.92804 2.85446,2.35684 2.95359,2.25773 0.15641,-0.15643 -0.78485,-1.97248 -1.60598,-3.09856 -0.36621,-0.50222 -1.00214,-1.0735 -1.41317,-1.26951 -1.03907,-0.4955 -2.46379,-0.11082 -3.5682,0.96352 -0.82337,0.80092 -1.37925,2.09863 -1.1523,2.69005 0.33046,0.86115 6.54649,2.81386 6.54649,2.05651 z M 97.491816,122.9283 c 0.748396,-0.35513 1.178142,-1.0663 1.59704,-2.64288 0.139166,-0.52376 0.628985,-1.70005 1.088494,-2.61396 l 0.83546,-1.66165 h -0.75892 c -1.155089,0 -1.869658,-0.81286 -1.773724,-2.01771 0.07867,-0.98813 0.06873,-0.99023 -0.992959,-0.20847 -0.692964,0.51025 -2.88069,1.65095 -2.88069,1.50201 0,-0.0501 0.672161,-0.50597 1.493691,-1.01292 1.388501,-0.85681 1.494037,-0.9746 1.498594,-1.67281 0.0027,-0.41311 0.19752,-1.9994 0.43294,-3.5251 0.573731,-3.71823 0.786398,-9.131804 0.411356,-10.471334 -0.365944,-1.30702 -1.404011,-2.35044 -2.527167,-2.5402 -0.992305,-0.16765 -2.771592,0.23843 -4.893919,1.11693 l -1.430028,0.59193 -0.941519,2.343884 c -0.679393,1.69131 -0.981573,2.78944 -1.08538,3.94426 -0.155062,1.72501 -0.515272,2.60265 -1.626339,3.96252 -1.556609,1.90517 -2.326596,4.50089 -2.093996,7.05909 l 0.138749,1.52601 1.659701,0.65586 c 1.582928,0.62551 4.707735,1.30665 5.994421,1.30665 h 0.602736 l -0.316171,-0.89612 c -0.173895,-0.49287 -0.55513,-1.32367 -0.847187,-1.84621 -0.292057,-0.52256 -0.495654,-0.98546 -0.452434,-1.02867 0.21367,-0.21368 1.297338,1.87219 1.847812,3.55672 1.02591,3.1394 1.7919,4.29042 3.119826,4.68802 0.899593,0.26935 1.11566,0.25616 1.899613,-0.11579 z m -2.274869,-2.46031 c -0.226031,-0.14321 -0.206569,-0.18469 0.08784,-0.18723 0.208005,-0.001 0.825652,-0.41137 1.372548,-0.91015 1.005555,-0.9171 1.044049,-0.81353 0.148388,0.39922 -0.533137,0.72189 -1.149291,0.98929 -1.608773,0.69816 z m 39.079063,2.07574 c 0,-0.0446 -0.44438,-0.44512 -0.9875,-0.89017 l -0.9875,-0.80917 0.58909,0.89016 c 0.34177,0.51645 0.75634,0.89018 0.9875,0.89018 0.21912,0 0.39841,-0.0364 0.39841,-0.081 z m -6.95322,-2.90639 c 0.59561,-1.17362 2.08151,-2.1783 3.26761,-2.20941 l 0.8068,-0.0212 -1.06786,-2.01656 c -1.45498,-2.7476 -1.6968,-2.90165 -4.55165,-2.89969 -2.85748,0.002 -5.0669,0.42111 -5.73348,1.08769 -0.82456,0.82456 -0.55325,2.64497 0.3942,2.64497 0.35869,0 0.42452,-0.10266 0.34215,-0.53346 -0.1335,-0.69841 0.17915,-0.69363 0.3546,0.006 0.16208,0.64576 0.85339,1.38158 1.29802,1.38158 0.23978,0 0.32814,-0.28102 0.35222,-1.12027 0.0228,-0.79686 0.0738,-0.56586 0.17641,0.8002 0.0794,1.05625 0.28092,2.14694 0.44796,2.42375 0.16704,0.2768 0.92786,0.92595 1.69071,1.44253 1.371,0.92841 1.38901,0.93369 1.56099,0.45694 0.0957,-0.26527 0.39328,-0.91441 0.66132,-1.44253 z m -11.9318,0.24648 c 0.87241,-1.15953 2.38789,-2.5022 3.36592,-2.9821 0.98333,-0.48251 1.20374,-0.74635 0.82105,-0.98286 -0.34887,-0.21562 -0.41534,-1.29138 -0.12303,-1.99099 0.27949,-0.66891 0.27274,-0.69148 -0.17944,-0.60035 -1.20521,0.24289 -2.87807,0.30853 -3.45779,0.13568 l -0.6396,-0.19071 0.6935,-0.0183 c 0.48355,-0.0128 0.69351,-0.12092 0.69351,-0.35717 0,-0.27373 -0.15481,-0.31269 -0.80566,-0.20272 -1.59857,0.27007 -4.60486,0.16954 -5.42125,-0.18129 -0.43208,-0.18569 -0.84584,-0.4351 -0.91947,-0.55423 -0.18733,-0.30311 -0.53543,-0.27053 -0.53563,0.0501 -4.3e-4,0.63669 -1.34196,3.01842 -2.24245,3.98112 l -0.98148,1.04927 1.25243,-0.38979 c 3.2989,-1.02673 4.31394,-0.62269 4.96878,1.97788 0.49678,1.97292 2.44654,2.67076 3.51061,1.25649 z m -11.65393,-2.0155 c 1.71077,-1.0201 3.5377,-2.94393 4.2874,-4.51478 0.35498,-0.74381 0.64542,-1.49968 0.64542,-1.67974 0,-0.18007 -0.35367,-0.61891 -0.78594,-0.97522 l -0.78595,-0.64785 -0.38889,0.63947 c -0.48177,0.79222 -0.91997,0.97234 -1.67348,0.68792 -0.54396,-0.20531 -0.63412,-0.15291 -1.31673,0.7653 -1.01193,1.3612 -2.09508,3.25083 -3.13313,5.46596 -0.48291,1.03051 -0.878017,1.90754 -0.878017,1.94897 0,0.18373 2.990437,-1.07056 4.029317,-1.69003 z m -3.03176,-2.2022 c 0.28037,-0.0752 0.78721,-0.67728 1.2803,-1.5209 0.44892,-0.76803 1.18149,-1.81159 1.62793,-2.31902 0.70867,-0.80548 0.78174,-0.9845 0.57553,-1.41023 -0.2157,-0.44532 -0.19357,-0.43959 0.2552,0.0661 0.73968,0.83355 1.18124,0.90965 1.78355,0.30733 0.59846,-0.59845 0.65872,-0.92855 0.20154,-1.104 -0.17605,-0.0675 -0.32008,-0.21104 -0.32008,-0.31885 0,-0.31449 1.13289,0.35898 2.34658,1.39497 1.40686,1.20087 2.13499,1.54363 3.68153,1.73302 l 1.22696,0.15025 v -1.12009 c 0,-0.61606 0.11141,-1.49205 0.24765,-1.94666 0.28288,-0.94419 1.55048,-2.53041 2.0221,-2.53041 0.65976,0 0.014,-0.41368 -1.61978,-1.03754 -0.93199,-0.35589 -2.18251,-0.98275 -2.77894,-1.39303 -1.14193,-0.7855 -2.55626,-1.13637 -3.57633,-0.88723 -1.13599,0.27745 -2.24588,1.29012 -3.74298,3.41509 -0.83049,1.17879 -2.29635,2.95943 -3.25747,3.95701 -1.010311,1.04863 -1.809684,2.07515 -1.894926,2.43338 -0.18442,0.77501 0.188739,1.71227 0.799228,2.00742 0.571438,0.27626 0.572048,0.27633 1.142408,0.12335 z m -0.39799,-4.72881 c 0.9225,-0.90702 2.361,-2.62122 3.19666,-3.80934 1.52686,-2.17086 2.45081,-3.13555 3.2443,-3.3874 0.23536,-0.0747 0.42792,-0.21585 0.42792,-0.31368 0,-0.0978 -0.42377,-0.73951 -0.94171,-1.42597 -1.37555,-1.82311 -3.36399,-3.220644 -5.56651,-3.912314 -0.46944,-0.14742 -0.937158,-0.34486 -1.039363,-0.43876 -0.252028,-0.23153 1.433473,0.15833 2.362273,0.54641 0.66757,0.27893 0.7351,0.27745 0.62342,-0.0136 -0.91631,-2.38787 -0.94238,-3.97707 -0.11537,-7.03216 1.17136,-4.32712 1.19804,-5.22235 0.18792,-6.3037 -0.7779,-0.83274 -1.71575,-0.83821 -3.00983,-0.0175 -1.102139,0.69895 -4.553906,4.43179 -6.421251,6.94413 -1.260908,1.69644 -3.446436,5.23355 -3.314962,5.36503 0.03866,0.0387 0.931723,-0.25738 1.984581,-0.65786 3.964744,-1.50812 6.273825,-0.68772 6.951282,2.46971 0.333721,1.555374 0.129774,6.382934 -0.414201,9.804424 -0.723079,4.54803 -0.708382,4.30047 -0.240452,4.05003 0.22441,-0.12009 1.162792,-0.96046 2.085293,-1.86747 z M 97.487207,91.648966 c -0.756111,-0.28431 -1.577875,-0.81852 -1.259107,-0.81852 0.12257,0 0.676616,0.15461 1.231217,0.34359 0.679403,0.23149 1.491074,0.3163 2.488018,0.25997 0.888935,-0.0503 1.402125,-0.006 1.285465,0.11058 -0.29891,0.2989 -3.02615,0.37492 -3.745593,0.10443 z m 20.737663,20.100464 c 0.96054,-0.26031 1.92077,-0.60857 2.13383,-0.77391 0.37037,-0.2874 0.36612,-0.31866 -0.0964,-0.71105 -0.26607,-0.22575 -1.08227,-0.61125 -1.81376,-0.85667 -2.7284,-0.91539 -2.5098,-1.33749 0.37231,-0.71889 1.1114,0.23856 1.96823,0.3488 1.90408,0.245 -0.27804,-0.44989 -2.79615,-1.5058 -3.85051,-1.61462 -1.10289,-0.11377 -1.16879,-0.0905 -1.88424,0.66813 -1.00228,1.06274 -1.76906,3.72256 -1.23243,4.27513 0.25762,0.26529 2.57851,-0.001 4.4671,-0.51312 z m 2.0776,-2.362 c -0.22545,-0.0828 -0.74598,-0.21239 -1.15675,-0.28795 -0.68869,-0.12669 -0.67207,-0.10668 0.21339,0.25726 0.52812,0.21705 1.04865,0.34664 1.15674,0.28795 0.1081,-0.0587 0.0121,-0.17445 -0.21338,-0.25726 z m -3.07721,-2.94836 c 0,-0.58543 -0.86832,-1.76773 -1.62122,-2.20744 -1.6283,-0.95099 -8.40897,-1.96544 -8.14726,-1.21891 0.058,0.16539 0.28713,0.27868 0.50922,0.25175 0.86538,-0.1049 2.48164,0.3982 3.55106,1.10543 0.61624,0.40752 1.78285,0.98924 2.59247,1.29268 0.80961,0.30345 1.67117,0.69122 1.91458,0.86171 0.62055,0.43465 1.20115,0.39345 1.20115,-0.0853 z m -7.46846,-4.04319 c 0,-0.0939 -0.0862,-0.26193 -0.19159,-0.37342 -0.38016,-0.40224 -1.72327,-5.001774 -2.14585,-7.348564 -0.23758,-1.31939 -0.4949,-3.43524 -0.57183,-4.70188 l -0.13988,-2.30298 -0.7693,1.02292 c -0.72363,0.96218 -2.71499,2.77864 -3.0462,2.77864 -0.083,0 -0.21381,0.41969 -0.29073,0.93264 -0.11502,0.76699 -0.0488,1.07967 0.37282,1.76042 0.77768,1.25562 1.38117,2.81011 1.68824,4.34862 0.23073,1.15604 0.44698,1.580654 1.29858,2.549874 0.56196,0.63957 1.02175,1.23972 1.02175,1.33365 0,0.0939 0.62415,0.17079 1.387,0.17079 0.76285,0 1.38699,-0.0769 1.38699,-0.17071 z m -5.44484,-4.110674 c -0.30222,-1.16628 -1.60569,-4.13885 -1.95636,-4.46148 -0.328,-0.30177 0.13377,2.99877 0.55195,3.94515 0.39898,0.9029 1.47502,2.12876 1.68664,1.92149 0.0359,-0.0351 -0.0911,-0.66749 -0.28223,-1.40516 z m 18.45629,-14.87679 c 0.46617,-0.33892 1.59393,-2.15616 1.43607,-2.31402 -0.031,-0.031 -0.4623,-0.14749 -0.95859,-0.25899 -0.86436,-0.19421 -0.90817,-0.17947 -1.04118,0.35049 -0.0862,0.34365 -0.0447,0.58461 0.10952,0.63605 0.46798,0.15599 0.007,0.47312 -0.68682,0.47312 -1.17732,0 -1.98168,-1.03703 -2.48263,-3.20076 -0.14944,-0.64549 -0.4744,-1.46152 -0.72213,-1.81343 -0.24773,-0.35189 -0.80508,-1.31211 -1.23856,-2.13383 l -0.78812,-1.49404 -0.3396,0.81118 c -0.31809,0.75982 -0.31268,0.88817 0.0853,2.02714 0.2337,0.66879 0.58598,1.98417 0.78285,2.92306 0.19689,0.93889 0.53499,2.05906 0.75134,2.4893 0.92512,1.83954 3.56079,2.61834 5.0925,1.50473 z m -0.97806,-1.66426 c 0.29768,-0.77573 0.12034,-1.34679 -0.56397,-1.81611 -0.38142,-0.2616 -0.96897,-0.72425 -1.30565,-1.02811 -0.54239,-0.48951 -0.59923,-0.50384 -0.49875,-0.12571 0.0623,0.23473 0.17277,0.77952 0.24533,1.21066 0.0887,0.52724 0.37674,0.99882 0.8796,1.44035 0.84761,0.74421 1.0594,0.79853 1.24344,0.31892 z m 4.25727,-1.79631 c 1.49608,-0.70687 1.88973,-0.78636 1.72136,-0.34761 -0.15629,0.40729 0.43364,0.58502 1.41889,0.42748 1.02237,-0.16348 1.26851,-0.4414 1.37956,-1.55766 l 0.0866,-0.86967 -0.50636,0.33179 c -0.63669,0.41717 -0.82231,0.15714 -0.65301,-0.91474 l 0.12697,-0.80382 -0.35671,0.64015 c -0.94701,1.69956 -1.5579,1.80511 -2.38904,0.41276 -1.40045,-2.34614 -2.67673,-4.16838 -3.065,-4.37618 -0.68019,-0.36402 -1.96302,-0.27894 -2.86477,0.19 -1.10587,0.57509 -1.83827,1.70439 -1.96574,3.03093 -0.0857,0.89263 -0.0183,1.16724 0.43095,1.75394 0.61897,0.80836 2.38901,2.13112 2.58691,1.93322 0.0743,-0.0743 0.13511,-0.0311 0.13511,0.096 0,0.29911 0.98217,0.65516 1.86653,0.67666 0.38112,0.009 1.30264,-0.27123 2.04782,-0.62331 z m -3.67512,-1.8158 c -1.92762,-1.74148 -1.44887,-4.18917 0.71323,-3.64651 0.80458,0.20192 1.69989,1.88625 1.70815,3.21344 l 0.007,1.07525 -0.78623,0.0654 c -0.6524,0.0543 -0.93189,-0.0662 -1.64182,-0.70758 z m 2.27588,-0.21136 c 0.0533,-0.37203 -0.0607,-0.42677 -0.88901,-0.42677 -0.67078,0 -1.15581,-0.15201 -1.64937,-0.51691 l -0.69917,-0.51691 0.42625,0.72982 c 0.50842,0.87053 1.23589,1.28876 2.10995,1.21302 0.45404,-0.0394 0.65795,-0.17955 0.70135,-0.48225 z m -0.253,-0.83285 c 0.15919,-0.41483 -0.67556,-1.98312 -1.20691,-2.26748 -1.07647,-0.57612 -2.0369,0.22663 -1.47766,1.23506 0.54769,0.98761 2.42476,1.70949 2.68457,1.03242 z m 4.09178,0.45944 c 0.11991,-0.14671 0.62408,-1.17896 1.12039,-2.2939 1.14018,-2.5614 1.38193,-2.84702 2.28556,-2.70037 l 0.69599,0.11295 -0.005,-1.21355 c -0.009,-2.39044 -1.33974,-3.94068 -3.97013,-4.62581 -1.5585,-0.40594 -2.80026,-0.40661 -4.91141,-0.002 -3.12414,0.59774 -4.76214,1.80294 -6.25362,4.60126 -0.85153,1.59763 -0.80396,2.17694 0.34605,4.21412 l 0.80605,1.42788 0.14316,-1.12772 c 0.33487,-2.63764 2.8773,-4.34118 4.98571,-3.34068 0.58989,0.27992 1.07406,0.80987 1.82532,1.99792 2.0635,3.2632 2.39961,3.60147 2.93162,2.95058 z m 2.73799,-1.48661 c 0.28073,-0.55356 0.5083,-1.22573 0.50572,-1.49369 -0.004,-0.36979 -0.10207,-0.27265 -0.40889,0.40304 -0.22231,0.48964 -0.65231,1.05282 -0.95554,1.2515 -0.39274,0.25734 -0.55134,0.54787 -0.55134,1.00994 0,0.64606 0.002,0.64704 0.44983,0.24219 0.24741,-0.22358 0.67951,-0.85941 0.96022,-1.41298 z m 1.05793,-0.6211 c 0.40412,-0.78149 0.3894,-1.99277 -0.0293,-2.41148 -0.18443,-0.18442 -0.38278,-0.33531 -0.44079,-0.33531 -0.47118,0 -1.03326,0.66174 -1.57281,1.85169 -0.68069,1.50124 -0.84301,2.08956 -0.2839,1.02899 0.49615,-0.94111 1.15928,-1.60038 1.6098,-1.60038 0.61197,0 0.67175,0.51462 0.18704,1.61039 -0.34187,0.77286 -0.36685,0.93818 -0.10952,0.72459 0.18339,-0.15221 0.47116,-0.54303 0.63946,-0.86849 z m -0.9743,-0.85583 c 0,-0.38197 -0.63057,0.24076 -0.98645,0.97418 l -0.31816,0.6557 0.6523,-0.69687 c 0.35878,-0.38327 0.65231,-0.80313 0.65231,-0.93301 z m -4.1131,-10.90588 c 0.12662,-1.12339 -0.28609,-2.05515 -1.19788,-2.7044 -0.77662,-0.55302 -0.87716,-0.55306 -0.87716,-4.1e-4 0,0.24376 -0.27475,0.71794 -0.61056,1.05374 l -0.61056,0.61056 0.66391,0.61477 c 1.41609,1.31128 2.11133,1.78375 2.31906,1.57602 0.11377,-0.11378 0.2547,-0.6314 0.31319,-1.15028 z m -2.81219,-1.96469 c 0.28807,-0.28805 0.52376,-0.73505 0.52376,-0.99329 0,-0.45703 -0.0118,-0.45919 -0.42952,-0.0808 -0.23623,0.21379 -0.71511,0.38871 -1.06416,0.38871 -1.2896,0 -2.13385,-1.41552 -2.13385,-3.577731 0,-1.632416 0.35399,-2.638851 1.14775,-3.263236 0.6603,-0.519385 0.70279,-0.698612 0.16563,-0.698612 -0.54608,0 -1.04659,0.613055 -1.40812,1.724762 -0.53393,1.641866 -0.53198,2.628704 0.008,3.956847 0.44825,1.10289 2.04179,3.06714 2.48828,3.06714 0.0983,0 0.41435,-0.23569 0.70241,-0.52376 z m -0.0218,-1.44417 c 0.58029,-0.82849 0.42826,-2.503375 -0.36689,-4.041518 -0.86563,-1.674545 -1.48373,-1.904664 -1.97268,-0.734424 -0.1736,0.415472 -0.31564,1.094581 -0.31564,1.509107 0,0.657028 0.0669,0.753703 0.52137,0.753703 0.9564,0 1.52734,1.523562 0.96482,2.574642 -0.19077,0.35646 -0.14877,0.41274 0.30797,0.41274 0.30462,0 0.66972,-0.20108 0.86105,-0.47425 z m -1.16151,-0.80855 c 0,-0.7686 -0.67025,-1.607187 -1.14038,-1.426789 -0.48529,0.186229 -0.44661,0.789129 0.0506,0.789129 0.49772,0 0.73152,0.54016 0.45635,1.05433 -0.11283,0.21078 -0.14531,0.44305 -0.0723,0.51614 0.25313,0.25314 0.70562,-0.34505 0.70562,-0.93281 z m -18.4463,-0.95704 c 0.58051,-0.293017 1.43956,-0.874517 1.90901,-1.292225 l 0.85353,-0.759462 -0.74684,0.117087 c -0.41077,0.06434 -2.35523,0.179831 -4.32103,0.256565 -1.9658,0.07676 -3.57419,0.203496 -3.57419,0.281708 0,0.07818 0.264064,0.394941 0.586808,0.703828 1.378232,1.319049 3.501182,1.596829 5.292712,0.692529 z M 124.371,55.490842 c -0.31765,-0.649246 -0.7152,-1.233278 -0.88347,-1.297841 -0.56501,-0.216814 -0.51822,0.08504 0.1189,0.767078 0.3478,0.372328 0.7504,1.033661 0.89468,1.469641 0.14427,0.435969 0.30397,0.66869 0.35487,0.517126 0.0509,-0.151552 -0.16734,-0.806758 -0.48498,-1.456004 z m -13.85623,-2.696165 c -0.0452,-0.146703 -0.13809,-0.52304 -0.20643,-0.836303 -0.10074,-0.461811 -0.33623,-0.6384 -1.24478,-0.93339 -1.93633,-0.628715 -4.44712,-2.05508 -5.59485,-3.178425 -2.09646,-2.051899 -3.11464,-4.651724 -2.70967,-6.918912 0.11816,-0.661518 0.28081,-1.370801 0.36144,-1.576183 0.21432,-0.545894 -0.37169,-0.47636 -0.89915,0.106691 -0.238892,0.264064 -0.776386,1.200287 -1.194436,2.080498 -0.517132,1.088835 -0.963415,1.719744 -1.396198,1.973805 -1.630862,0.957383 -2.759284,0.06627 -4.255794,-3.360803 -0.563734,-1.290976 -1.117386,-2.347229 -1.230333,-2.347229 -0.300078,0 -0.371715,2.340622 -0.109116,3.565094 0.516822,2.409852 2.17938,4.797527 4.365833,6.269971 1.108507,0.746511 1.192529,0.960108 0.168434,0.428163 -0.973228,-0.505512 -2.15501,-1.538297 -3.058162,-2.672616 -0.510518,-0.641182 -1.032693,-1.082387 -1.281025,-1.082387 -0.230566,0 -0.678506,-0.134126 -0.995423,-0.298059 -0.717123,-0.370947 -2.691993,-2.427905 -3.759995,-3.916283 -0.756789,-1.054669 -1.406839,-1.450513 -1.401671,-0.853538 0.01238,1.429133 1.793475,4.850334 3.489136,6.702056 1.287397,1.405893 3.991124,3.375345 4.9716,3.621431 0.274504,0.06895 0.4991,0.212165 0.4991,0.318384 0,0.499019 -2.866067,-1.08201 -4.644636,-2.562153 -0.737842,-0.614037 -1.543178,-1.083854 -2.007055,-1.170878 -1.124937,-0.211042 -2.710553,-1.104528 -3.746323,-2.111039 -2.109446,-2.049858 -0.953265,0.657511 1.219464,2.855552 1.121205,1.134273 1.835583,1.625155 3.633347,2.496631 4.869153,2.360371 10.886563,3.564188 18.181523,3.637314 2.254,0.02259 2.90844,-0.03205 2.84517,-0.237392 z m 10.38911,-0.160032 h 0.87683 l -0.49808,-0.530195 c -0.27395,-0.291608 -0.81882,-0.590371 -1.21082,-0.663899 -1.10242,-0.20682 -0.83059,-0.731634 0.56759,-1.095812 l 0.74685,-0.19452 -0.51209,-0.276102 c -0.32263,-0.173952 -0.85554,-0.229031 -1.44035,-0.148867 -0.51054,0.07002 -0.92826,0.06233 -0.92826,-0.01703 0,-0.07936 0.25804,-0.413592 0.57339,-0.742762 0.37637,-0.392848 0.46802,-0.596864 0.26674,-0.593789 -0.41646,0.0059 -2.01431,0.744229 -2.75727,1.273253 l -0.60583,0.431391 0.41578,-0.90801 c 0.22868,-0.499409 0.5171,-1.088881 0.64094,-1.309928 0.19831,-0.353996 0.14592,-0.345492 -0.43944,0.07132 -1.17256,0.834942 -1.98322,2.997897 -1.12358,2.997897 0.57119,0 2.45864,0.992963 3.01681,1.587107 0.39897,0.424698 0.58114,0.482224 1.01035,0.319046 0.28798,-0.109518 0.91817,-0.199072 1.40044,-0.199072 z m -7.62632,-1.406047 c 0.4376,-0.109873 0.4854,-0.21899 0.38006,-0.868058 -0.10053,-0.619383 0.0995,-1.175136 1.20656,-3.353359 1.05313,-2.072024 1.35124,-2.877776 1.44428,-3.903768 0.0656,-0.723891 0.0211,-1.464647 -0.10124,-1.683244 -0.19055,-0.340479 -0.32869,-0.214601 -1.0802,0.984308 -2.77927,4.433802 -3.29099,4.897328 -5.40246,4.893472 -1.38267,-0.0024 -3.06347,-0.727505 -4.32134,-1.863909 -0.73507,-0.66409 -0.88275,-0.72721 -0.94501,-0.403903 -0.2202,1.143391 1.68619,3.175219 3.60966,3.847161 1.50714,0.526505 2.01204,1.009072 2.32841,2.225425 0.14284,0.549153 0.30249,1.162007 0.35479,1.361908 0.0807,0.308473 0.24112,0.251987 1.06053,-0.373474 0.53099,-0.405313 1.19067,-0.793465 1.46597,-0.862559 z m 13.85,0.33085 c 1.30201,-0.356633 2.71212,-0.740007 3.13356,-0.851938 1.72967,-0.459386 2.86421,-1.64862 3.27633,-3.434279 0.3777,-1.636497 0.19544,-1.816526 -0.67004,-0.661866 -0.92474,1.233739 -1.3728,1.617929 -2.68797,2.304749 -1.89494,0.989605 -3.9455,1.051117 -4.31489,0.129424 -0.079,-0.197181 -0.28267,-0.886639 -0.45252,-1.532124 -0.35243,-1.339271 -1.63321,-3.414148 -2.1075,-3.414148 -0.41714,0 -0.40157,0.195774 0.1042,1.310349 0.96043,2.116584 0.17123,4.647951 -1.76272,5.654008 -0.89381,0.464968 -0.50144,0.725045 0.87654,0.581015 0.97635,-0.102067 1.28098,-0.05807 1.50989,0.217701 0.37292,0.449345 0.3354,0.453023 3.09513,-0.302891 z m -26.51719,28.790058 c -0.016,-0.0726 -0.17283,-0.95658 -0.34856,-1.96428 -0.390723,-2.24057 -0.988242,-3.88926 -2.038057,-5.62346 -0.438921,-0.72505 -0.687902,-1.27602 -0.553291,-1.22437 0.436393,0.16746 1.609352,2.08434 2.03435,3.3246 0.556258,1.62331 1.140828,4.55067 1.026788,5.14184 -0.0507,0.26276 -0.10524,0.41831 -0.12123,0.34567 z m 18.69842,-14.52073 c 0.20136,-2.4281 -0.94906,-4.28539 -3.01223,-4.86303 -1.41745,-0.39687 -4.24497,-0.20353 -5.55169,0.3796 -0.6982,0.31158 -0.95513,0.36251 -0.78313,0.15525 0.14081,-0.16965 0.57682,-0.41434 0.96893,-0.54375 l 0.71292,-0.23528 -0.43889,-0.99216 c -0.60459,-1.3668 -0.63553,-3.536977 -0.0639,-4.485365 0.69989,-1.161274 1.88113,-1.832956 3.38645,-1.925633 1.10549,-0.068 1.42677,-0.0024 2.04892,0.420535 1.04822,0.712083 2.07798,2.147366 2.45745,3.425208 0.333,1.121335 0.40466,3.689745 0.12962,4.646305 -0.0918,0.31926 -0.0312,0.83109 0.15078,1.27468 0.35449,0.86394 0.42207,2.95207 0.11342,3.50366 -0.15566,0.27815 -0.18766,0.0731 -0.11858,-0.76002 z m -0.27626,-6.10949 c -0.006,-1.581722 -0.0971,-2.054638 -0.61852,-3.19583 -1.34544,-2.944592 -3.97568,-3.826618 -6.09452,-2.043726 -1.32365,1.113777 -1.5885,2.477353 -0.93415,4.809466 0.30472,1.086 0.41441,1.24096 0.87842,1.24096 0.45291,0 0.50794,-0.07 0.37738,-0.48012 -0.74618,-2.343804 -0.61562,-3.650835 0.47348,-4.739941 0.68479,-0.684774 2.11304,-1.456312 2.47289,-1.33583 0.13794,0.04624 -0.0207,0.226418 -0.35254,0.400512 l -0.60334,0.316551 0.85568,0.256363 c 2.0039,0.600376 3.36485,3.296163 2.72963,5.406855 -0.26431,0.87824 -0.25982,1.02935 0.0394,1.3286 0.56741,0.5674 0.78316,0.0215 0.77617,-1.96386 z m -0.96451,-0.36274 c 0.0289,-2.187357 -1.58822,-4.161008 -3.40916,-4.161008 -1.29102,0 -2.41368,1.820219 -2.04026,3.307988 0.13023,0.51888 0.15243,0.52521 0.66489,0.18942 0.92442,-0.605694 2.23473,0.21307 2.23473,1.39641 0,0.31263 0.1396,0.443 0.48011,0.44835 0.26406,0.005 0.72017,0.14266 1.01358,0.30777 0.50065,0.28174 0.54927,0.26488 0.79057,-0.27428 0.1414,-0.31597 0.2609,-0.86257 0.26554,-1.21465 z m -4.47026,0.43936 c 0,-0.28649 0.10017,-0.58281 0.22273,-0.65853 0.31195,-0.19279 0.84419,0.29818 0.84419,0.77875 0,0.22035 0.14404,0.40064 0.32007,0.40064 0.66933,0 0.15062,-1.19304 -0.65127,-1.49792 -0.8988,-0.34173 -1.53977,0.21861 -1.25965,1.10122 0.18097,0.57013 0.52393,0.48886 0.52393,-0.12416 z m 6.17182,3.50538 c -0.18503,-0.58522 -0.26731,-1.06406 -0.18286,-1.06406 0.18437,0 0.40276,0.50082 0.62807,1.44034 0.26062,1.08672 -0.0714,0.80609 -0.44521,-0.37628 z"
       id="path826"
       inkscape:connector-curvature="0"
       sodipodi:nodetypes="cccscssccssccccscccsccscccscccccsccccscscccsccccccccccsscscccsscccccccccccssccccccccccccsccsccccccccccccccccccccccccccccccccccscccccccccccccscsccsssccccccsccsccccsscccscccccccccccscccccccccsccccscccccccscccccccsscsscssccccccccccccssscccscccccccccccccccccccccccccccccccccccccscccccccsccccsccccccccccccsccccccsccccccscccccccccscsscccccccsccccsscccccccccccccccscccscccsccccccsccsccscsscccccccccccccccccccccccccccccccssccccsccccscscccsccccsccccsccsccscsccsccsccccsscsccsccccccccccccccccccscccccccssccscccccccccccccccsccccccccccccsccccsssccccccccscscscsccccccccccccscccccsccscsssccccsccccccccccccscccccccccccccccccscsccssccsssssccccccscccsccccccccccccccccccccccsccccccccsscccccccccccsccccccccccccccccccccscccccccsccccsscsscccscccsccscccsccscsscsccscccccsscscccscccccccccscccccccccccccccscssscsccscscccsccscccccccccccscscccccccsccccccccccccscccccccccccccscccccccsscsccccccccccccccccccccccscccccscccccsccsccccscssccscacc" />
  </g>
</svg>
