<?xml version="1.0" encoding="UTF-8" standalone="no"?>
<svg
   xmlns:dc="http://purl.org/dc/elements/1.1/"
   xmlns:cc="http://creativecommons.org/ns#"
   xmlns:rdf="http://www.w3.org/1999/02/22-rdf-syntax-ns#"
   xmlns:svg="http://www.w3.org/2000/svg"
   xmlns="http://www.w3.org/2000/svg"
   xmlns:sodipodi="http://sodipodi.sourceforge.net/DTD/sodipodi-0.dtd"
   xmlns:inkscape="http://www.inkscape.org/namespaces/inkscape"
   width="210mm"
   height="297mm"
   viewBox="0 0 210 297"
   version="1.1"
   id="svg8"
   sodipodi:docname="Box.svg"
   inkscape:version="1.0.1 (3bc2e813f5, 2020-09-07)">
  <defs
     id="defs2" />
  <sodipodi:namedview
     id="base"
     pagecolor="#ffffff"
     bordercolor="#666666"
     borderopacity="1.0"
     inkscape:pageopacity="0.0"
     inkscape:pageshadow="2"
     inkscape:zoom="0.35"
     inkscape:cx="400"
     inkscape:cy="331.42857"
     inkscape:document-units="mm"
     inkscape:current-layer="layer1"
     inkscape:document-rotation="0"
     showgrid="false"
     inkscape:window-width="1920"
     inkscape:window-height="1017"
     inkscape:window-x="-8"
     inkscape:window-y="-8"
     inkscape:window-maximized="1"
     showborder="false" />
  <metadata
     id="metadata5">
    <rdf:RDF>
      <cc:Work
         rdf:about="">
        <dc:format>image/svg+xml</dc:format>
        <dc:type
           rdf:resource="http://purl.org/dc/dcmitype/StillImage" />
        <dc:title></dc:title>
      </cc:Work>
    </rdf:RDF>
  </metadata>
  <g
     inkscape:label="Ebene 1"
     inkscape:groupmode="layer"
     id="layer1">
    <g
       id="box753"
       transform="rotate(90,166.24997,126.74999)">
      <path
         style="fill:none;stroke:#0000ff;stroke-width:0.1;stroke-linecap:butt;stroke-linejoin:miter"
         id="box753-lid"
         d="m 0,0 h 2.09091 v -4 h 4.18182 v 4 h 2.09091 2.09091 v -4 h 4.18182 v 4 h 2.09091 2.09091 v -4 h 4.18182 v 4 h 2.09091 2.09091 v -4 h 4.18182 v 4 h 2.09091 2.09091 v -4 h 4.18182 v 4 h 2.09091 2.09091 v -4 h 4.18182 v 4 h 2.09091 2.09091 v -4 h 4.18182 v 4 h 2.09091 2.09091 v -4 h 4.18182 v 4 h 2.09091 2.09091 v -4 h 4.18182 v 4 h 2.09091 2.09091 v -4 h 4.18182 v 4 h 2.09091 2.09091 v -4 h 4.18182 v 4 h 2.09091 v 2.09091 h 4 v 4.18182 h -4 v 2.09091 2.09091 h 4 v 4.18182 h -4 v 2.09091 2.09091 h 4 v 4.18182 h -4 v 2.09091 2.09091 h 4 v 4.18182 h -4 v 2.09091 2.09091 h 4 v 4.18182 h -4 v 2.09091 2.09091 h 4 v 4.18182 h -4 v 2.09091 2.09091 h 4 v 4.18182 h -4 v 2.09091 2.09091 h 4 v 4.18182 h -4 v 2.09091 2.09091 h 4 v 4.18182 h -4 v 2.09091 2.09091 h 4 v 4.18182 h -4 v 2.09091 2.09091 h 4 v 4.18182 h -4 v 2.09091 h -2.09091 v 4 h -4.18182 v -4 H 83.6364 81.54549 v 4 h -4.18182 v -4 h -2.09091 -2.09091 v 4 h -4.18182 v -4 h -2.09091 -2.09091 v 4 h -4.18182 v -4 h -2.09091 -2.09091 v 4 h -4.18182 v -4 h -2.09091 -2.09091 v 4 h -4.18182 v -4 H 41.8182 39.72729 v 4 h -4.18182 v -4 h -2.09091 -2.09091 v 4 h -4.18182 v -4 h -2.09091 -2.09091 v 4 h -4.18182 v -4 h -2.09091 -2.09091 v 4 h -4.18182 v -4 H 8.36364 6.27273 v 4 H 2.09091 v -4 H 0 V 89.90913 H -4 V 85.72731 H 0 V 83.6364 81.54549 H -4 V 77.36367 H 0 V 75.27276 73.18185 H -4 V 69.00003 H 0 V 66.90912 64.81821 H -4 V 60.63639 H 0 V 58.54548 56.45457 H -4 V 52.27275 H 0 V 50.18184 48.09093 H -4 V 43.90911 H 0 V 41.8182 39.72729 H -4 V 35.54547 H 0 V 33.45456 31.36365 H -4 V 27.18183 H 0 V 25.09092 23.00001 H -4 V 18.81819 H 0 V 16.72728 14.63637 H -4 V 10.45455 H 0 V 8.36364 6.27273 H -4 V 2.09091 H 0 V 0" />
      <path
         style="fill:none;stroke:#0000ff;stroke-width:0.1;stroke-linecap:butt;stroke-linejoin:miter"
         id="box753-longside1"
         d="m -4,96 v -4 h 4 m 96,0 v 4 3.83333 H 92 V 107.5 h 4 v 3.83333 3.83333 h -4 v 7.66667 h 4 v 3.83333 3.83333 h -4 v 7.66667 h 4 v 3.83333 3.83333 h -4 v 7.66667 h 4 v 3.83333 3.83333 h -4 v 7.66667 h 4 v 3.83333 3.83333 h -4 v 7.66667 h 4 v 3.83333 4 h -4 -2.09091 v -4 h -4.18182 v 4 h -2.09091 -2.09091 v -4 h -4.18182 v 4 h -2.09091 -2.09091 v -4 h -4.18182 v 4 h -2.09091 -2.09091 v -4 h -4.18182 v 4 h -2.09091 -2.09091 v -4 h -4.18182 v 4 H 50.1818 48.09089 v -4 h -4.18182 v 4 h -2.09091 -2.09091 v -4 h -4.18182 v 4 h -2.09091 -2.09091 v -4 h -4.18182 v 4 h -2.09091 -2.09091 v -4 h -4.18182 v 4 h -2.09091 -2.09091 v -4 h -4.18182 v 4 H 8.3636 6.27269 v -4 H 2.09087 v 4 H -4e-5 h -4 v -4 -3.83333 h 4 v -7.66667 h -4 v -3.83333 -3.83333 h 4 v -7.66667 h -4 v -3.83333 -3.83333 h 4 v -7.66667 h -4 v -3.83333 -3.83333 h 4 v -7.66667 h -4 v -3.83333 -3.83333 h 4 v -7.66667 h -4 V 111.33333 107.5 h 4 v -7.66667 h -4 V 96" />
      <path
         style="fill:none;stroke:#0000ff;stroke-width:0.1;stroke-linecap:butt;stroke-linejoin:miter"
         id="box753-base"
         d="m 0,192 m 92,0 v 2.09091 h 4 v 4.18182 h -4 v 2.09091 2.09091 h 4 v 4.18182 h -4 v 2.09091 2.09091 h 4 v 4.18182 h -4 v 2.09091 2.09091 h 4 v 4.18182 h -4 v 2.09091 2.09091 h 4 v 4.18182 h -4 v 2.09091 2.09091 h 4 v 4.18182 h -4 v 2.09091 2.09091 h 4 v 4.18182 h -4 v 2.09091 2.09091 h 4 v 4.18182 h -4 v 2.09091 2.09091 h 4 v 4.18182 h -4 v 2.09091 2.09091 h 4 v 4.18182 h -4 v 2.09091 2.09091 h 4 v 4.18182 h -4 v 2.09091 h -2.09091 v 4 h -4.18182 v -4 h -2.09091 -2.09091 v 4 h -4.18182 v -4 h -2.09091 -2.09091 v 4 h -4.18182 v -4 h -2.09091 -2.09091 v 4 h -4.18182 v -4 h -2.09091 -2.09091 v 4 h -4.18182 v -4 H 50.1818 48.09089 v 4 h -4.18182 v -4 h -2.09091 -2.09091 v 4 h -4.18182 v -4 h -2.09091 -2.09091 v 4 h -4.18182 v -4 h -2.09091 -2.09091 v 4 h -4.18182 v -4 h -2.09091 -2.09091 v 4 h -4.18182 v -4 H 8.3636 6.27269 v 4 H 2.09087 v -4 H -4e-5 v -2.09091 h -4 v -4.18182 h 4 v -2.09091 -2.09091 h -4 v -4.18182 h 4 v -2.09091 -2.09091 h -4 v -4.18182 h 4 v -2.09091 -2.09091 h -4 v -4.18182 h 4 v -2.09091 -2.09091 h -4 v -4.18182 h 4 v -2.09091 -2.09091 h -4 v -4.18182 h 4 v -2.09091 -2.09091 h -4 v -4.18182 h 4 v -2.09091 -2.09091 h -4 v -4.18182 h 4 v -2.09091 -2.09091 h -4 v -4.18182 h 4 v -2.09091 -2.09091 h -4 v -4.18182 h 4 v -2.09091 -2.09091 h -4 v -4.18182 h 4 V 192" />
      <path
         style="fill:none;stroke:#0000ff;stroke-width:0.1;stroke-linecap:butt;stroke-linejoin:miter"
         id="box753-longside2"
         d="m -4,288 v -4 h 4 m 96,0 v 4 3.83333 H 92 V 299.5 h 4 v 3.83333 3.83333 h -4 v 7.66667 h 4 v 3.83333 3.83333 h -4 v 7.66667 h 4 v 3.83333 3.83333 h -4 v 7.66667 h 4 v 3.83333 3.83333 h -4 v 7.66667 h 4 v 3.83333 3.83333 h -4 v 7.66667 h 4 v 3.83333 4 h -4 -2.09091 v -4 h -4.18182 v 4 h -2.09091 -2.09091 v -4 h -4.18182 v 4 h -2.09091 -2.09091 v -4 h -4.18182 v 4 h -2.09091 -2.09091 v -4 h -4.18182 v 4 h -2.09091 -2.09091 v -4 h -4.18182 v 4 H 50.1818 48.09089 v -4 h -4.18182 v 4 h -2.09091 -2.09091 v -4 h -4.18182 v 4 h -2.09091 -2.09091 v -4 h -4.18182 v 4 h -2.09091 -2.09091 v -4 h -4.18182 v 4 h -2.09091 -2.09091 v -4 h -4.18182 v 4 H 8.3636 6.27269 v -4 H 2.09087 v 4 H -4e-5 h -4 v -4 -3.83333 h 4 v -7.66667 h -4 v -3.83333 -3.83333 h 4 v -7.66667 h -4 v -3.83333 -3.83333 h 4 v -7.66667 h -4 v -3.83333 -3.83333 h 4 v -7.66667 h -4 v -3.83333 -3.83333 h 4 v -7.66667 h -4 V 303.33333 299.5 h 4 v -7.66667 h -4 V 288" />
      <path
         style="fill:none;stroke:#0000ff;stroke-width:0.1;stroke-linecap:butt;stroke-linejoin:miter"
         id="box753-endface2"
         d="m 92,0 h 4 3.83333 V -4 H 107.5 v 4 h 3.83333 3.83333 v -4 h 7.66667 v 4 h 3.83333 3.83333 v -4 h 7.66667 v 4 h 3.83333 3.83333 v -4 h 7.66667 v 4 h 3.83333 3.83333 v -4 h 7.66667 v 4 h 3.83333 3.83333 v -4 h 7.66667 v 4 h 3.83333 4 v 2.09091 h -4 v 4.18182 h 4 v 2.09091 2.09091 h -4 v 4.18182 h 4 v 2.09091 2.09091 h -4 v 4.18182 h 4 v 2.09091 2.09091 h -4 v 4.18182 h 4 v 2.09091 2.09091 h -4 v 4.18182 h 4 v 2.09091 2.09091 h -4 v 4.18182 h 4 v 2.09091 2.09091 h -4 v 4.18182 h 4 v 2.09091 2.09091 h -4 v 4.18182 h 4 v 2.09091 2.09091 h -4 v 4.18182 h 4 v 2.09091 2.09091 h -4 v 4.18182 h 4 v 2.09091 2.09091 h -4 v 4.18182 h 4 v 2.09091 h -4 -3.83333 v 4 h -7.66667 v -4 h -3.83333 -3.83333 v 4 h -7.66667 v -4 h -3.83333 -3.83333 v 4 h -7.66667 v -4 h -3.83333 -3.83333 v 4 h -7.66667 v -4 h -3.83333 -3.83333 v 4 h -7.66667 v -4 H 111.33333 107.5 v 4 h -7.66667 v -4 H 96 92" />
      <path
         style="fill:none;stroke:#0000ff;stroke-width:0.1;stroke-linecap:butt;stroke-linejoin:miter"
         id="box753-endface1"
         d="m 92,192 m 4,0 h 3.83333 v -4 H 107.5 v 4 h 3.83333 3.83333 v -4 h 7.66667 v 4 h 3.83333 3.83333 v -4 h 7.66667 v 4 h 3.83333 3.83333 v -4 h 7.66667 v 4 h 3.83333 3.83333 v -4 h 7.66667 v 4 h 3.83333 3.83333 v -4 h 7.66667 v 4 h 3.83333 4 v 2.09091 h -4 v 4.18182 h 4 v 2.09091 2.09091 h -4 v 4.18182 h 4 v 2.09091 2.09091 h -4 v 4.18182 h 4 v 2.09091 2.09091 h -4 v 4.18182 h 4 v 2.09091 2.09091 h -4 v 4.18182 h 4 v 2.09091 2.09091 h -4 v 4.18182 h 4 v 2.09091 2.09091 h -4 v 4.18182 h 4 v 2.09091 2.09091 h -4 v 4.18182 h 4 v 2.09091 2.09091 h -4 v 4.18182 h 4 v 2.09091 2.09091 h -4 v 4.18182 h 4 v 2.09091 2.09091 h -4 v 4.18182 h 4 v 2.09091 h -4 -3.83333 v 4 h -7.66667 v -4 h -3.83333 -3.83333 v 4 h -7.66667 v -4 h -3.83333 -3.83333 v 4 h -7.66667 v -4 h -3.83333 -3.83333 v 4 h -7.66667 v -4 h -3.83333 -3.83333 v 4 h -7.66667 v -4 H 111.33333 107.5 v 4 h -7.66667 v -4 H 96 92" />
    </g>
  </g>
</svg>
