<?xml version="1.0" encoding="UTF-8" standalone="no"?>
<svg
   xmlns:dc="http://purl.org/dc/elements/1.1/"
   xmlns:cc="http://creativecommons.org/ns#"
   xmlns:rdf="http://www.w3.org/1999/02/22-rdf-syntax-ns#"
   xmlns:svg="http://www.w3.org/2000/svg"
   xmlns="http://www.w3.org/2000/svg"
   xmlns:sodipodi="http://sodipodi.sourceforge.net/DTD/sodipodi-0.dtd"
   xmlns:inkscape="http://www.inkscape.org/namespaces/inkscape"
   sodipodi:docname="AloisiusV1.svg"
   inkscape:version="1.0 (4035a4fb49, 2020-05-01)"
   id="svg8"
   version="1.1"
   viewBox="0 0 210 297"
   height="297mm"
   width="210mm">
  <defs
     id="defs2">
    <ellipse
       ry="38.544647"
       rx="43.218658"
       cy="98.770378"
       cx="94.184677"
       id="path1075-9"
       style="opacity:1;fill:none;fill-opacity:1;stroke:#000000;stroke-width:0.09999999;stroke-linecap:round;stroke-linejoin:round;stroke-miterlimit:4;stroke-dasharray:none;stroke-dashoffset:0;stroke-opacity:1;paint-order:markers stroke fill" />
    <ellipse
       ry="38.544647"
       rx="43.218658"
       cy="98.770378"
       cx="94.184677"
       id="path1075-9-2"
       style="opacity:1;fill:none;fill-opacity:1;stroke:#000000;stroke-width:0.09999999;stroke-linecap:round;stroke-linejoin:round;stroke-miterlimit:4;stroke-dasharray:none;stroke-dashoffset:0;stroke-opacity:1;paint-order:markers stroke fill" />
  </defs>
  <sodipodi:namedview
     inkscape:document-rotation="0"
     inkscape:window-maximized="1"
     inkscape:window-y="-8"
     inkscape:window-x="-8"
     inkscape:window-height="1017"
     inkscape:window-width="1920"
     inkscape:snap-global="false"
     inkscape:guide-bbox="true"
     showguides="false"
     showgrid="false"
     inkscape:current-layer="layer4"
     inkscape:document-units="mm"
     inkscape:cy="559.89943"
     inkscape:cx="454.7039"
     inkscape:zoom="0.6549568"
     inkscape:pageshadow="2"
     inkscape:pageopacity="0.0"
     borderopacity="1.0"
     bordercolor="#666666"
     pagecolor="#ffffff"
     id="base">
    <sodipodi:guide
       inkscape:locked="false"
       id="guide866"
       orientation="0,1"
       position="65.309479,217.81225" />
    <sodipodi:guide
       inkscape:locked="false"
       id="guide1234"
       orientation="0,1"
       position="131.62739,82.451992" />
    <sodipodi:guide
       inkscape:locked="false"
       id="guide1637"
       orientation="0,1"
       position="18.478562,13.780623" />
  </sodipodi:namedview>
  <metadata
     id="metadata5">
    <rdf:RDF>
      <cc:Work
         rdf:about="">
        <dc:format>image/svg+xml</dc:format>
        <dc:type
           rdf:resource="http://purl.org/dc/dcmitype/StillImage" />
        <dc:title></dc:title>
      </cc:Work>
    </rdf:RDF>
  </metadata>
  <g
     style="display:inline"
     inkscape:label="Schriftarten"
     id="layer5"
     inkscape:groupmode="layer">
    <flowRoot
       transform="scale(0.26458333)"
       style="font-style:normal;font-variant:normal;font-weight:normal;font-stretch:normal;font-size:30.2362px;line-height:1.25;font-family:MuenchnerFraktur;-inkscape-font-specification:'MuenchnerFraktur, Normal';font-variant-ligatures:normal;font-variant-caps:normal;font-variant-numeric:normal;font-feature-settings:normal;text-align:center;writing-mode:lr-tb;text-anchor:middle;opacity:1;fill:#000000;fill-opacity:1;stroke:#000000;stroke-width:0.0377953;stroke-linecap:round;stroke-linejoin:round;stroke-miterlimit:4;stroke-dasharray:none;stroke-dashoffset:0;stroke-opacity:1"
       id="flowRoot2969"
       xml:space="preserve"><flowRegion
         id="flowRegion2971"><rect
           y="914.9303"
           x="307.1185"
           height="55.73632"
           width="222.37656"
           id="rect2973" /></flowRegion><flowPara
         id="flowPara2975" /></flowRoot>
    <flowRoot
       transform="matrix(0.26458333,0,0,0.26458333,-44.853277,-0.18557295)"
       style="font-style:normal;font-variant:normal;font-weight:normal;font-stretch:normal;font-size:30.2362px;line-height:1.25;font-family:MuenchnerFraktur;-inkscape-font-specification:'MuenchnerFraktur, Normal';font-variant-ligatures:normal;font-variant-caps:normal;font-variant-numeric:normal;font-feature-settings:normal;text-align:center;writing-mode:lr-tb;text-anchor:middle;display:inline;opacity:1;fill:#000000;fill-opacity:1;stroke:#000000;stroke-width:0.0377953;stroke-linecap:round;stroke-linejoin:round;stroke-miterlimit:4;stroke-dasharray:none;stroke-dashoffset:0;stroke-opacity:1"
       id="flowRoot2957"
       xml:space="preserve"><flowRegion
         style="font-style:normal;font-variant:normal;font-weight:normal;font-stretch:normal;font-size:30.2362px;font-family:MuenchnerFraktur;-inkscape-font-specification:'MuenchnerFraktur, Normal';font-variant-ligatures:normal;font-variant-caps:normal;font-variant-numeric:normal;font-feature-settings:normal;text-align:center;writing-mode:lr-tb;text-anchor:middle"
         id="flowRegion2959"><rect
           style="font-style:normal;font-variant:normal;font-weight:normal;font-stretch:normal;font-size:30.23622131px;font-family:MuenchnerFraktur;-inkscape-font-specification:'MuenchnerFraktur, Normal';font-variant-ligatures:normal;font-variant-caps:normal;font-variant-numeric:normal;font-feature-settings:normal;text-align:center;writing-mode:lr-tb;text-anchor:middle"
           y="909.24292"
           x="98.960411"
           height="140.47829"
           width="665.42346"
           id="rect2961" /></flowRegion><flowPara
         style="font-style:normal;font-variant:normal;font-weight:normal;font-stretch:normal;font-size:22.6772px;font-family:Arial;-inkscape-font-specification:'Arial, Normal';font-variant-ligatures:normal;font-variant-caps:normal;font-variant-numeric:normal;font-feature-settings:normal;text-align:center;writing-mode:lr-tb;text-anchor:middle"
         id="flowPara2981">Humbold Fraktur Gr. 12</flowPara><flowPara
         style="font-style:normal;font-variant:normal;font-weight:normal;font-stretch:normal;font-size:45.3543px;font-family:HumboldtFraktur;-inkscape-font-specification:'HumboldtFraktur, Normal';font-variant-ligatures:normal;font-variant-caps:normal;font-variant-numeric:normal;font-feature-settings:normal;text-align:center;writing-mode:lr-tb;text-anchor:middle"
         id="flowPara2983">I mog koa Manna!</flowPara></flowRoot>
    <flowRoot
       transform="matrix(0.26458333,0,0,0.26458333,-74.943374,-27.93233)"
       style="font-style:italic;font-variant:normal;font-weight:normal;font-stretch:normal;font-size:52.9134px;line-height:1.25;font-family:'Brush Script MT';-inkscape-font-specification:'Brush Script MT, Italic';font-variant-ligatures:normal;font-variant-caps:normal;font-variant-numeric:normal;font-feature-settings:normal;text-align:center;letter-spacing:0px;word-spacing:0px;writing-mode:lr-tb;text-anchor:middle;display:inline;opacity:1;fill:#000000;fill-opacity:1;stroke:#000000;stroke-width:0.0377953;stroke-linecap:round;stroke-linejoin:round;stroke-miterlimit:4;stroke-dasharray:none;stroke-dashoffset:0;stroke-opacity:1"
       id="flowRoot2914-9"
       xml:space="preserve"><flowRegion
         style="font-style:italic;font-variant:normal;font-weight:normal;font-stretch:normal;font-size:52.9134px;font-family:'Brush Script MT';-inkscape-font-specification:'Brush Script MT, Italic';font-variant-ligatures:normal;font-variant-caps:normal;font-variant-numeric:normal;font-feature-settings:normal;text-align:center;writing-mode:lr-tb;text-anchor:middle;stroke-width:0.0377953;stroke-miterlimit:4;stroke-dasharray:none"
         id="flowRegion2916-4"><rect
           ry="0"
           style="font-style:italic;font-variant:normal;font-weight:normal;font-stretch:normal;font-size:52.9133873px;font-family:'Brush Script MT';-inkscape-font-specification:'Brush Script MT, Italic';font-variant-ligatures:normal;font-variant-caps:normal;font-variant-numeric:normal;font-feature-settings:normal;text-align:center;writing-mode:lr-tb;text-anchor:middle;stroke-width:0.03779528;stroke-miterlimit:4;stroke-dasharray:none"
           y="284.3869"
           x="140.19975"
           height="207.98065"
           width="653.87311"
           id="rect2918-9" /></flowRegion><flowPara
         id="flowPara1172">Brush Script</flowPara><flowPara
         id="flowPara1174">Aloisius</flowPara></flowRoot>
  </g>
  <g
     style="display:inline"
     inkscape:label="Text1"
     id="layer1"
     inkscape:groupmode="layer">
    <g
       transform="rotate(2.809468,1519.8323,180.39833)"
       id="text1631"
       style="font-style:normal;font-variant:normal;font-weight:normal;font-stretch:normal;font-size:12.69999981px;line-height:1.25;font-family:HumboldtFraktur;-inkscape-font-specification:'HumboldtFraktur, Normal';font-variant-ligatures:normal;font-variant-caps:normal;font-variant-numeric:normal;font-feature-settings:normal;text-align:start;writing-mode:lr-tb;text-anchor:start;display:inline;fill:none;fill-opacity:1;stroke:#000000;stroke-width:0.1;stroke-linecap:round;stroke-miterlimit:4;stroke-dasharray:none;stroke-opacity:1"
       aria-label="I mog koa Manna!">
      <path
         inkscape:connector-curvature="0"
         id="path1640"
         style="font-style:normal;font-variant:normal;font-weight:normal;font-stretch:normal;font-size:12.69999981px;font-family:HumboldtFraktur;-inkscape-font-specification:'HumboldtFraktur, Normal';font-variant-ligatures:normal;font-variant-caps:normal;font-variant-numeric:normal;font-feature-settings:normal;text-align:start;writing-mode:lr-tb;text-anchor:start;fill:none;stroke-width:0.1;stroke-miterlimit:4;stroke-dasharray:none"
         d="m 69.05755,284.63589 c -0.245536,-0.13333 -0.558696,-0.11551 -0.950642,0.0474 l -0.0558,-0.0303 c -0.06697,-0.0364 -0.06408,-0.12151 0.0147,-0.2666 0.0303,-0.0558 0.08293,-0.0995 0.14065,-0.12594 1.090691,-0.49161 1.872962,-0.60154 2.375194,-0.32882 0.223214,0.12121 0.541113,0.46725 0.936477,1.04323 0.406525,0.58204 0.724425,0.92808 0.9588,1.05535 l 0.15625,0.0849 c 0.48597,0.24943 0.877916,0.0865 1.193058,-0.49383 0.0303,-0.0558 0.06666,-0.12277 0.09187,-0.1958 l 0.980589,-2.44455 -0.03156,-0.075 c -0.154329,-0.14161 -0.410066,-0.30938 -0.756047,-0.49725 -0.625,-0.33938 -1.015625,-0.5515 -1.177935,-0.62518 -0.262757,-0.12823 -0.535414,-0.13177 -0.794691,-0.0269 -0.259277,0.10489 -0.408207,0.13963 -0.46401,0.10933 -0.08929,-0.0485 -0.09757,-0.13969 -0.0309,-0.26246 0.103027,-0.18973 0.422909,-0.40622 0.960604,-0.67786 0.548856,-0.26557 0.909539,-0.3443 1.07695,-0.25339 l 1.752231,0.95148 c 0.111607,0.0606 0.248416,0.0482 0.421587,-0.0312 0.138729,-0.0692 0.266297,-0.14443 0.393866,-0.21967 0.281598,-0.0928 0.717227,-0.20305 1.289664,-0.32576 l 0.0303,-0.0558 -0.04464,-0.0242 c -0.677984,0.0509 -1.08649,0.0314 -1.253901,-0.0595 -0.07813,-0.0424 -0.132968,-0.10111 -0.15943,-0.15883 -0.419306,-0.37221 -0.980521,-0.74921 -1.672485,-1.12496 -0.79241,-0.43029 -1.41297,-0.56494 -1.844458,-0.40905 -0.397046,0.14569 -0.821874,0.60868 -1.297767,1.40523 -0.05358,0.0721 -0.133629,0.0864 -0.234075,0.0319 -0.111607,-0.0606 -0.124988,-0.16903 -0.0462,-0.31412 0.07878,-0.14509 0.205094,-0.35108 0.378926,-0.61798 0.179892,-0.27806 0.306201,-0.48405 0.384986,-0.62914 0.06667,-0.12277 0.152471,-0.3074 0.263478,-0.56505 0.122169,-0.2516 0.207975,-0.43623 0.274639,-0.559 0.09091,-0.16741 0.211454,-0.20311 0.367704,-0.11827 0.08929,0.0485 0.121808,0.0951 0.103627,0.12853 l -0.339384,0.625 c 0.122768,0.0667 0.375024,10e-4 0.740509,-0.21931 0.423207,-0.2471 0.688545,-0.36314 0.819293,-0.3644 0.375985,-0.0271 0.826253,0.10183 1.350806,0.38667 0.3125,0.16969 0.739787,0.47397 1.2707,0.90678 0.536974,0.42164 0.964261,0.72593 1.2656,0.88956 0.212053,0.11514 0.425067,0.20191 0.644141,0.27752 0.08418,0.0313 0.392245,-0.004 0.492691,0.0508 0.07813,0.0424 0.104587,0.10015 0.08545,0.16201 l -0.103027,0.18973 c -0.567337,0.13993 -0.982564,0.3191 -1.250782,0.52029 -0.250996,0.1961 -0.524975,0.56758 -0.809814,1.09213 -0.181813,0.33482 -0.421049,0.85524 -0.706549,1.5673 -0.2855,0.71207 -0.524737,1.23248 -0.71261,1.57846 -0.206054,0.37947 -0.847076,0.6817 -1.911905,0.91278 -0.841915,0.19315 -1.594844,0.27565 -2.247626,0.25357 -0.08514,-0.003 -0.175391,-0.023 -0.264677,-0.0715 -0.256696,-0.13939 -0.591817,-0.48033 -0.999302,-1.03399 -0.407485,-0.55365 -0.764927,-0.90672 -1.055105,-1.06429 z" />
      <path
         inkscape:connector-curvature="0"
         id="path1642"
         style="font-style:normal;font-variant:normal;font-weight:normal;font-stretch:normal;font-size:12.69999981px;font-family:HumboldtFraktur;-inkscape-font-specification:'HumboldtFraktur, Normal';font-variant-ligatures:normal;font-variant-caps:normal;font-variant-numeric:normal;font-feature-settings:normal;text-align:start;writing-mode:lr-tb;text-anchor:start;fill:none;stroke-width:0.1;stroke-miterlimit:4;stroke-dasharray:none"
         d="m 86.640523,287.77453 c -0.358208,-0.1298 -0.649805,0.11575 -0.870466,0.7247 l -0.865335,2.38805 c -0.08221,0.22687 -0.08741,0.4276 -0.02754,0.59789 l 0.513431,0.18604 -0.07355,0.20299 c -0.639945,0.20037 -1.110646,0.38101 -1.419718,0.52567 -0.08791,-0.0183 -0.14761,-0.04 -0.183431,-0.053 0.01194,0.004 -0.04776,-0.0173 -0.150896,-0.0682 -0.19242,-0.32638 -0.302297,-0.58233 -0.333959,-0.7559 -0.04256,-0.21804 5.37e-4,-0.48609 0.117357,-0.80848 0.125474,-0.34627 0.323461,-0.85537 0.582022,-1.53164 0.270501,-0.67194 0.468488,-1.18105 0.593961,-1.52732 0.06923,-0.19104 0.01801,-0.3852 -0.157973,-0.57055 -0.136877,-0.14415 -0.314941,-0.2492 -0.529866,-0.32708 -0.226865,-0.0822 -0.392821,-0.0343 -0.521749,0.13513 -0.09207,0.14225 -0.436122,1.01717 -1.020223,2.62911 -0.15576,0.42985 -0.176019,0.7467 -0.04451,0.94294 0.03149,0.0249 0.125976,0.0997 0.287773,0.21235 0.130304,0.0877 0.188965,0.14952 0.171658,0.19728 -0.02596,0.0716 -0.524868,0.25558 -1.484785,0.55613 l -0.119403,-0.0433 c -0.143283,-0.0519 -0.311654,-0.221 -0.488846,-0.51484 -0.177192,-0.29384 -0.236021,-0.50427 -0.188428,-0.63562 l 1.488376,-4.10745 -0.03046,-0.0651 -0.15747,-0.1246 -0.01955,-0.0206 c -0.0597,-0.0216 -0.252825,-0.0106 -0.312526,-0.0322 -0.107463,-0.0389 -0.13359,-0.11595 -0.086,-0.24729 0.03894,-0.10746 0.266677,-0.21405 0.679924,-0.34798 0.283112,-0.073 0.55861,-0.1623 0.829782,-0.23964 0.09985,0.0227 0.219251,0.0659 0.374475,0.12218 0.155223,0.0562 0.26718,0.2319 0.34781,0.53128 0.03928,0.18984 0.08288,0.36773 0.13842,0.54996 0.04447,-0.0109 0.291765,-0.0969 0.746199,-0.26993 0.401307,-0.13826 0.628005,-0.2047 0.663825,-0.19172 0.238806,0.0865 0.526579,0.29888 0.847055,0.64464 0.363909,0.37501 0.517221,0.6602 0.455608,0.86752 l 0.02388,0.009 c 0.08358,0.0303 0.329833,-0.0156 0.7192,-0.15814 0.445781,-0.14915 0.721279,-0.23844 0.817841,-0.24397 l 0.02821,-0.003 c 0.131343,0.0476 0.300754,0.17652 0.496293,0.38246 0.199865,0.19399 0.369276,0.32292 0.500619,0.37052 0.107462,0.0389 0.418781,-0.0374 0.550124,0.0102 0.131343,0.0476 0.173737,0.11698 0.134797,0.22445 -0.03894,0.10746 -0.146235,0.21717 -0.326211,0.34106 -0.204896,0.1554 -0.324131,0.26078 -0.373972,0.32377 -0.162501,0.22478 -0.514169,1.08344 -1.050677,2.56403 l -0.33748,0.93134 c -0.06923,0.19105 -0.0083,0.32118 0.182726,0.39041 l 0.119402,0.0433 c 0.06403,0.01 0.09985,0.0227 0.11179,0.027 0.119402,0.0433 0.161797,0.11266 0.13151,0.19624 -0.0649,0.1791 -0.281737,0.33017 -0.642896,0.46946 -0.263558,0.0936 -0.539056,0.18289 -0.806941,0.28845 -0.09985,-0.0227 -0.18343,-0.053 -0.243132,-0.0746 -0.0597,-0.0216 -0.171658,-0.19728 -0.340197,-0.51501 -0.168538,-0.31772 -0.234981,-0.54442 -0.191714,-0.66382 l 1.384535,-3.82089 c 0.03029,-0.0836 -0.05121,-0.19416 -0.22824,-0.33935 -0.172698,-0.15714 -0.303001,-0.24488 -0.410463,-0.28382 z" />
      <path
         inkscape:connector-curvature="0"
         id="path1644"
         style="font-style:normal;font-variant:normal;font-weight:normal;font-stretch:normal;font-size:12.69999981px;font-family:HumboldtFraktur;-inkscape-font-specification:'HumboldtFraktur, Normal';font-variant-ligatures:normal;font-variant-caps:normal;font-variant-numeric:normal;font-feature-settings:normal;text-align:start;writing-mode:lr-tb;text-anchor:start;fill:none;stroke-width:0.1;stroke-miterlimit:4;stroke-dasharray:none"
         d="m 89.81133,290.85572 c 0.233822,-0.884 0.433032,-1.48814 0.594382,-1.80016 0.06028,-0.12856 0.366824,-0.24452 0.93841,-0.36921 0.373718,-0.0719 0.73191,-0.13482 1.09335,-0.21 0.293556,-0.0669 0.522476,-0.13767 0.683511,-0.20017 0.08919,0.0104 0.150581,0.0267 0.21197,0.0429 0.06139,0.0162 0.280964,0.17941 0.655478,0.50179 0.508857,0.41047 0.782299,0.91631 0.814544,1.48972 0.01703,0.33292 -0.08324,0.91069 -0.297578,1.72102 l -0.123804,0.2694 -0.129902,0.49111 c -0.09418,0.35606 -0.196674,0.64423 -0.291963,0.85549 -0.09204,0.19898 -0.538315,0.39622 -1.314265,0.59821 -0.534754,0.13443 -1.066259,0.25658 -1.585487,0.38198 l -0.07367,-0.0195 c -0.09822,-0.026 -0.189949,-0.0765 -0.266151,-0.13608 -0.414594,-0.31985 -0.703876,-0.56715 -0.855568,-0.73864 -0.31566,-0.34623 -0.465214,-0.67479 -0.439632,-0.97017 0.04649,-0.47376 0.10059,-0.82728 0.155798,-1.036 z m 1.464386,0.82085 c -0.23707,0.89628 -0.01163,1.53393 0.682108,1.94075 0.03359,0.022 0.09497,0.0383 0.205474,0.0675 0.07367,0.0195 0.129273,0.008 0.166819,-0.0347 0.0097,-0.0368 0.05845,-0.221 0.158416,-0.54925 0.283646,-0.92337 0.419329,-1.38668 0.416082,-1.3744 l 0.279287,-1.05589 c 0.0617,-0.23328 -0.03945,-0.49649 -0.300219,-0.80193 -0.22718,-0.28341 -0.468063,-0.46536 -0.701341,-0.52706 -0.1105,-0.0292 -0.181631,-0.009 -0.241197,0.0676 l -0.07794,0.29466 c -0.04942,0.23653 -0.149386,0.56478 -0.287605,0.98801 -0.144714,0.44778 -0.244675,0.77603 -0.299883,0.98475 z" />
      <path
         inkscape:connector-curvature="0"
         id="path1646"
         style="font-style:normal;font-variant:normal;font-weight:normal;font-stretch:normal;font-size:12.69999981px;font-family:HumboldtFraktur;-inkscape-font-specification:'HumboldtFraktur, Normal';font-variant-ligatures:normal;font-variant-caps:normal;font-variant-numeric:normal;font-feature-settings:normal;text-align:start;writing-mode:lr-tb;text-anchor:start;fill:none;stroke-width:0.1;stroke-miterlimit:4;stroke-dasharray:none"
         d="m 94.75692,296.92117 c 0.30647,-0.25198 0.531577,-0.41602 0.685425,-0.47725 0.255419,-0.11949 0.534031,-0.157 0.820989,-0.10243 0.187146,0.0356 0.449765,0.15016 0.775379,0.34136 0.325614,0.19119 0.575756,0.3034 0.762902,0.33899 0.336864,0.0641 0.527528,-0.0548 0.584469,-0.35425 0.03322,-0.17467 0.02602,-0.40874 -0.03645,-0.69209 -0.08864,-0.41762 -0.135646,-0.64632 -0.143378,-0.67365 l -0.06238,-0.0119 c -0.212099,-0.0403 -0.490098,0.0619 -0.846473,0.30442 -0.343899,0.24487 -0.621898,0.34714 -0.809044,0.31155 -0.860873,-0.16371 -1.358948,-0.94359 -1.190497,-1.82941 l 0.500608,-2.63253 c 0.08541,-0.44915 0.341362,-0.77537 0.755374,-0.98105 0.414626,-0.14092 0.829252,-0.28185 1.231401,-0.42514 0.196023,-0.0791 0.392046,-0.15815 0.575592,-0.23959 0.292848,-0.11237 0.484126,-0.16649 0.546508,-0.15463 0.212099,0.0403 0.4676,0.19234 0.791455,0.46077 0.32623,0.25595 0.58173,0.40796 0.7564,0.44117 0.0873,0.0166 0.28397,0.002 0.34635,0.0142 0.18715,0.0356 0.2751,0.11695 0.249,0.25419 -0.0285,0.14972 -0.37061,0.31735 -0.40919,0.45222 -0.15376,0.33273 -0.30745,0.93696 -0.47115,1.79783 -0.253866,1.33498 -0.373638,2.10078 -0.371797,2.29505 -0.0024,0.0125 0.01133,0.14435 0.03874,0.40812 0.02143,0.15921 0.02029,0.30119 -0.0011,0.41348 -0.06406,0.33686 -0.540984,0.73742 -1.440881,1.18681 -0.889793,0.46425 -1.508173,0.65692 -1.857513,0.59049 -0.17467,-0.0332 -0.367175,-0.10861 -0.579887,-0.2137 -0.320256,-0.15139 -0.508016,-0.25173 -0.568025,-0.27607 0.02258,0.0172 -0.114661,-0.009 -0.426571,-0.0682 -0.137241,-0.0261 -0.217458,-0.0801 -0.238279,-0.17459 -0.0054,-0.0398 0.0011,-0.14199 0.03199,-0.30418 z m 2.870596,-1.975 c 0.137241,0.0261 0.27624,-0.025 0.441951,-0.14865 0.165712,-0.12362 0.256564,-0.26147 0.282662,-0.39872 l 0.47451,-2.49528 0.206659,-0.27096 0.01186,-0.0624 c -0.09093,-0.13365 -0.294157,-0.28864 -0.597191,-0.46261 -0.300661,-0.18645 -0.538327,-0.29629 -0.712997,-0.3295 -0.03743,-0.007 -0.07723,-0.002 -0.09682,0.0333 -0.06115,0.11764 -0.181009,0.61195 -0.34946,1.49778 l -0.132863,0.69868 -0.11151,0.58639 c -0.03735,0.26438 -0.07531,0.464 -0.101406,0.60124 -0.06406,0.33686 0.322792,0.68191 0.684608,0.75071 z" />
      <path
         inkscape:connector-curvature="0"
         id="path1648"
         style="font-style:normal;font-variant:normal;font-weight:normal;font-stretch:normal;font-size:12.69999981px;font-family:HumboldtFraktur;-inkscape-font-specification:'HumboldtFraktur, Normal';font-variant-ligatures:normal;font-variant-caps:normal;font-variant-numeric:normal;font-feature-settings:normal;text-align:start;writing-mode:lr-tb;text-anchor:start;fill:none;stroke-width:0.1;stroke-miterlimit:4;stroke-dasharray:none"
         d="m 106.21083,294.17941 c -0.10227,0.005 -0.1792,0.0121 -0.24252,0.007 -0.24064,-0.0179 -0.34803,-0.11503 -0.33485,-0.29234 0.0122,-0.16464 0.12487,-0.30909 0.35148,-0.44506 0.22755,-0.14863 0.36362,-0.26586 0.38288,-0.35358 0.0531,-0.19981 0.13396,-0.94517 0.23097,-2.24966 0.0236,-0.31663 0.034,-0.79978 0.0304,-1.4368 0.01,-0.64874 0.0205,-1.1319 0.044,-1.44852 0.0272,-0.0235 0.0671,-0.046 0.10697,-0.0685 0.11398,0.008 0.20588,0.14266 0.26304,0.40161 0.0581,0.24629 0.13733,0.37953 0.25131,0.38801 0.0127,9.4e-4 0.22379,-0.098 0.60802,-0.29863 0.38424,-0.20066 0.70935,-0.2911 0.96265,-0.27226 0.24063,0.0179 0.35085,0.077 0.34237,0.19102 -0.007,0.0886 -0.14077,0.18055 -0.4171,0.30009 -0.27633,0.11954 -0.426,0.24849 -0.47436,0.38498 -0.0667,0.21154 -0.12025,0.58961 -0.1617,1.14687 -0.0405,0.54459 -0.0251,0.85138 0.0588,0.9213 0.0896,-0.006 0.26272,-0.10781 0.5447,-0.30334 0.17594,-0.13974 0.36456,-0.27853 0.5405,-0.41827 0.0769,-0.007 0.14026,-0.002 0.19092,0.001 0.0633,0.005 0.15805,0.1009 0.28418,0.28857 0.13974,0.17595 0.20537,0.32092 0.19783,0.42224 l -0.0546,0.73457 c -0.17553,0.30532 -0.47582,0.5759 -0.91543,0.83611 -0.426,0.24849 -0.62728,0.38635 -0.61744,0.42528 0.13931,0.0104 0.46672,0.0602 0.60604,0.0705 0.18997,0.0141 0.60561,-0.095 0.79559,-0.0809 -0.0198,0.26597 -0.17699,0.49624 -0.45897,0.69177 -0.25382,0.15942 -0.49498,0.31977 -0.73613,0.48013 l -0.65858,-0.049 -0.13796,0.14256 c -0.0343,0.29036 -0.0668,0.55538 -0.0847,0.79602 -0.0565,0.7599 0.15587,1.15775 0.62447,1.19259 0.0887,0.007 0.29601,-0.0417 0.38466,-0.0351 0.13932,0.0104 0.2106,0.0793 0.20212,0.19333 -0.008,0.10132 -0.25057,0.287 -0.71551,0.54533 -0.46494,0.25834 -0.75487,0.38959 -0.88152,0.38018 -0.12665,-0.009 -0.34615,-0.14036 -0.67115,-0.39376 -0.325,-0.2534 -0.47646,-0.44296 -0.46798,-0.55694 l 0.14787,-1.98841 c 0.008,-0.11399 -0.0356,-0.20641 -0.12142,-0.251 z m 1.64935,-1.80034 c -0.0169,0.22798 0.0379,0.34667 0.17721,0.35703 0.23038,-0.18663 0.51141,-0.36949 0.53496,-0.68612 0.0245,-0.32929 -0.0519,-0.50053 -0.2419,-0.51465 -0.26596,-0.0198 -0.42694,0.26115 -0.47027,0.84374 z" />
      <path
         inkscape:connector-curvature="0"
         id="path1650"
         style="font-style:normal;font-variant:normal;font-weight:normal;font-stretch:normal;font-size:12.69999981px;font-family:HumboldtFraktur;-inkscape-font-specification:'HumboldtFraktur, Normal';font-variant-ligatures:normal;font-variant-caps:normal;font-variant-numeric:normal;font-feature-settings:normal;text-align:start;writing-mode:lr-tb;text-anchor:start;fill:none;stroke-width:0.1;stroke-miterlimit:4;stroke-dasharray:none"
         d="m 110.6723,294.25654 c 0.0113,-0.91433 0.0573,-1.54881 0.13776,-1.89074 0.0271,-0.13937 0.29617,-0.32655 0.82014,-0.58677 0.34492,-0.16084 0.67699,-0.30913 1.00921,-0.47012 0.26841,-0.13638 0.47317,-0.26085 0.61412,-0.36071 0.0891,-0.0116 0.15255,-0.0108 0.21604,-0.01 0.0635,7.9e-4 0.31622,0.10553 0.758,0.32692 0.59355,0.27409 0.98202,0.69804 1.15304,1.2463 0.0977,0.31874 0.1412,0.90352 0.13081,1.74166 l -0.0544,0.29144 -0.006,0.50797 c -0.005,0.36827 -0.0337,0.67273 -0.0747,0.90084 -0.0408,0.21541 -0.42553,0.51546 -1.12886,0.90047 -0.48587,0.26069 -0.97158,0.50869 -1.4446,0.75684 l -0.0762,-9.5e-4 c -0.10159,-10e-4 -0.20287,-0.0279 -0.29129,-0.0671 -0.48004,-0.20917 -0.82087,-0.37851 -1.00978,-0.50787 -0.39052,-0.25886 -0.61564,-0.54107 -0.66281,-0.83378 -0.0704,-0.47081 -0.10405,-0.82686 -0.10137,-1.04274 z m 1.62028,0.43923 c -0.0115,0.92703 0.36254,1.49051 1.1345,1.716 0.0379,0.0132 0.10144,0.014 0.21573,0.0154 0.0762,9.4e-4 0.1273,-0.0238 0.15333,-0.0743 4.7e-4,-0.0381 0.003,-0.22858 0.0198,-0.57129 0.0501,-0.96466 0.0688,-1.44706 0.0686,-1.43436 l 0.0136,-1.09212 c 0.003,-0.24128 -0.15926,-0.47191 -0.4866,-0.70459 -0.2894,-0.21951 -0.56736,-0.33726 -0.80864,-0.34025 -0.11429,-0.001 -0.17826,0.0359 -0.21746,0.12431 l -0.004,0.30477 c 0.01,0.24144 -0.007,0.58416 -0.0382,1.02831 -0.0312,0.46955 -0.0482,0.81227 -0.0508,1.02815 z" />
      <path
         inkscape:connector-curvature="0"
         id="path1652"
         style="font-style:normal;font-variant:normal;font-weight:normal;font-stretch:normal;font-size:12.69999981px;font-family:HumboldtFraktur;-inkscape-font-specification:'HumboldtFraktur, Normal';font-variant-ligatures:normal;font-variant-caps:normal;font-variant-numeric:normal;font-feature-settings:normal;text-align:start;writing-mode:lr-tb;text-anchor:start;fill:none;stroke-width:0.1;stroke-miterlimit:4;stroke-dasharray:none"
         d="m 116.72958,292.80369 c -0.01,-0.16482 0.15755,-0.35267 0.48731,-0.58815 0.24544,-0.15424 0.49162,-0.2958 0.72438,-0.4493 0.23129,-0.17886 0.58345,-0.46654 1.04455,-0.84961 0.10068,-0.0186 0.18943,-0.0238 0.2655,-0.0282 0.0887,-0.005 0.36017,0.0681 0.8262,0.20629 0.47871,0.13748 0.77475,0.19656 0.90154,0.18917 0.13946,-0.008 0.3529,-0.275 0.50504,-0.28386 0.1141,-0.007 0.18045,0.0404 0.1871,0.15448 0.006,0.10142 -0.0591,0.29603 -0.20764,0.58457 -0.14931,0.27585 -0.2106,0.53385 -0.19804,0.74939 l 0.20023,3.43587 c 0.0118,0.20285 0.11916,0.29837 0.32201,0.28655 l 0.22822,-0.0133 c 0.13946,-0.008 0.20581,0.0389 0.21246,0.153 l -0.008,0.0895 -1.10128,0.9674 -0.30429,0.0177 c -0.11854,-0.0694 -0.27733,-0.17467 -0.50247,-0.32693 -0.0537,-0.0478 -0.12445,-0.17085 -0.2004,-0.38269 -0.0745,-0.18648 -0.13036,-0.27227 -0.19375,-0.26858 -0.18206,0.15055 -0.435,0.39428 -0.75959,0.71851 -0.15522,0.17442 -0.33062,0.43908 -0.54615,0.45164 -0.11411,0.007 -0.30798,-0.0457 -0.5682,-0.14499 -0.68969,-0.26513 -0.96247,-0.57999 -1.05456,-1.28703 -0.0698,-0.54296 -0.12767,-1.09934 -0.15944,-1.64451 z m 1.85129,-0.54042 c -0.26625,0.0155 -0.29985,0.0938 -0.28212,0.39808 l 0.17215,2.95409 c 0.0237,0.40571 0.49928,0.70876 0.91767,0.68438 0.21554,-0.0126 0.55502,-0.2995 0.54246,-0.51504 l -0.1655,-2.83998 c 0.0202,-0.0902 0.0516,-0.20655 0.10536,-0.37506 l -0.002,-0.038 c -0.005,-0.0888 -0.19978,-0.15373 -0.57189,-0.20838 -0.32066,-0.0449 -0.55109,-0.0697 -0.71591,-0.0601 z" />
      <path
         inkscape:connector-curvature="0"
         id="path1654"
         style="font-style:normal;font-variant:normal;font-weight:normal;font-stretch:normal;font-size:12.69999981px;font-family:HumboldtFraktur;-inkscape-font-specification:'HumboldtFraktur, Normal';font-variant-ligatures:normal;font-variant-caps:normal;font-variant-numeric:normal;font-feature-settings:normal;text-align:start;writing-mode:lr-tb;text-anchor:start;fill:none;stroke-width:0.1;stroke-miterlimit:4;stroke-dasharray:none"
         d="m 136.18316,293.22246 c -0.0677,-0.3102 -0.18568,-0.79141 -0.34856,-1.41881 -0.16559,-0.6398 -0.28358,-1.12101 -0.35126,-1.43122 -0.0785,-0.35983 -0.13266,-0.60799 -0.15003,-0.74719 -0.0499,-0.28809 0.11822,-0.64973 0.49181,-1.08221 0.3736,-0.43248 0.54551,-0.71696 0.51844,-0.84105 -0.0189,-0.0868 -0.1,-0.16017 -0.24568,-0.23236 -0.60778,-0.28336 -1.1226,-0.37902 -1.55688,-0.28426 -0.90579,0.19762 -1.21216,1.05739 -0.93422,2.5696 0.16086,0.79683 0.33412,1.59095 0.49227,2.37536 0.19334,0.94573 0.31697,1.75067 0.38059,2.39973 -0.0528,0.11551 -0.24365,0.31314 -0.56288,0.57777 -0.31923,0.26463 -0.53603,0.40292 -0.67252,0.4327 -0.11167,0.0244 -0.17213,-0.0144 -0.19108,-0.10129 -0.0541,-0.24817 -0.10243,-0.5886 -0.12973,-1.0116 -0.0435,-0.49745 -0.0918,-0.83789 -0.12002,-1.02672 l 0.0377,-0.12521 -0.98272,-4.50414 c -0.10559,-0.48391 -0.43,-0.66011 -0.98837,-0.53828 l -0.17371,0.0379 c -0.0841,0.0314 -0.14619,0.0449 -0.18341,0.053 -0.34562,0.32238 -0.50625,0.53941 -0.47647,0.6759 0.0379,0.17371 0.11957,0.42887 0.22988,0.75577 0.11032,0.32689 0.18929,0.56964 0.22719,0.74335 0.14619,0.67004 0.18003,1.18261 0.0864,1.52801 -0.0237,0.0702 -0.18161,0.29959 -0.46835,0.71312 -0.22966,0.25809 -0.56175,0.64252 -0.99355,1.16569 -0.0291,0.0453 -0.0334,0.0853 -0.0253,0.1225 0.003,0.0124 0.0453,0.0291 0.13333,0.0749 0.2256,0.0808 0.54618,0.1798 0.94933,0.29982 0.50084,0.15071 0.80089,0.21523 0.90015,0.19357 0.13649,-0.0298 0.36457,-0.23553 0.51347,-0.26802 0.009,0.10198 6.8e-4,0.18184 -0.0284,0.22719 l -1.03212,1.52506 -0.12408,0.0271 c -0.41128,-0.15725 -0.83225,-0.29938 -1.24081,-0.44421 -0.51596,-0.16041 -0.94009,-0.19786 -1.2627,-0.12747 -0.18612,0.0406 -0.34359,0.15296 -0.45729,0.34675 -0.1013,0.19109 -0.18432,0.28719 -0.24636,0.30073 -0.11167,0.0244 -0.18996,-0.0366 -0.22515,-0.19785 -0.0217,-0.0993 0.0715,-0.32758 0.27681,-0.69734 0.13311,-0.22402 0.26351,-0.46045 0.40902,-0.68718 0.0555,-0.1031 0.10829,-0.21861 0.15138,-0.319 0.0539,-0.0508 0.15747,-0.11235 0.31607,-0.15995 l 0.44669,-0.0975 c 0.38465,-0.0839 0.58882,-0.51844 0.6098,-1.31594 0.003,-0.52069 -0.0537,-1.08018 -0.18635,-1.68818 -0.32216,-1.47656 -0.87895,-2.12201 -1.68547,-1.94604 -0.85616,0.1868 -1.15238,0.91437 -0.87624,2.17999 0.0108,0.0496 -0.0334,0.0853 -0.13265,0.10694 -0.13649,0.0298 -0.21906,0.009 -0.23801,-0.0781 l -0.60642,-2.77942 c 0.28539,-0.0623 0.45865,0.0169 0.50738,0.24027 0.0189,0.0869 -0.0203,0.26441 -10e-4,0.35126 0.0244,0.11168 0.0708,0.20553 0.13243,0.30908 l 0.062,-0.0135 c 0.0803,-0.10851 0.17936,-0.42909 0.29013,-0.93422 0.0715,-0.32757 0.0939,-0.7614 0.42887,-0.8345 l 1.19117,-0.25989 c 0.28539,-0.0623 0.64703,0.10581 1.10004,0.51392 0.46541,0.40541 0.71538,0.59784 0.75261,0.58972 0.062,-0.0135 0.11325,-0.0767 0.15634,-0.1771 0.18319,-0.35193 0.45526,-0.89225 0.81893,-1.60854 0.0663,-0.0535 0.15048,-0.0848 0.24974,-0.10648 0.40947,-0.0893 0.77314,-0.0907 1.11854,0.003 0.42526,0.1022 0.68605,0.34427 0.80179,0.69598 l 0.12724,0.58318 0.0744,-0.0162 c 0.28223,-0.67252 0.48911,-1.09462 0.59311,-1.2733 0.30772,-0.4961 0.64635,-0.79096 1.00618,-0.86947 0.32262,-0.0704 0.8142,-0.0217 1.47206,0.13378 0.72801,0.17913 1.1156,0.40654 1.17516,0.67952 0.0271,0.12408 -0.0909,0.3578 -0.34156,0.69846 -0.28516,0.36119 -0.43496,0.62785 -0.46181,0.80269 -0.0327,0.26711 0.10333,1.06935 0.39571,2.40943 l 0.24094,1.10432 c 0.1516,0.69485 0.23011,1.05469 0.24794,1.0768 0.067,0.12836 0.17123,0.24861 0.32509,0.35803 0.17168,0.13152 0.32712,0.1886 0.43879,0.16424 0.13649,-0.0298 0.29329,-0.32397 0.44218,-0.35646 0.12408,-0.0271 0.19425,-0.003 0.20778,0.0587 0.0244,0.11167 -0.13243,0.40586 -0.48549,0.87285 -0.45549,0.59334 -0.67703,0.88865 -0.68673,0.90377 l -0.11168,0.0244 c -0.8733,-0.36841 -1.35271,-0.71877 -1.46303,-1.04566 z" />
      <path
         inkscape:connector-curvature="0"
         id="path1656"
         style="font-style:normal;font-variant:normal;font-weight:normal;font-stretch:normal;font-size:12.69999981px;font-family:HumboldtFraktur;-inkscape-font-specification:'HumboldtFraktur, Normal';font-variant-ligatures:normal;font-variant-caps:normal;font-variant-numeric:normal;font-feature-settings:normal;text-align:start;writing-mode:lr-tb;text-anchor:start;fill:none;stroke-width:0.1;stroke-miterlimit:4;stroke-dasharray:none"
         d="m 138.80502,289.16651 c -0.052,-0.1567 0.0607,-0.38145 0.31818,-0.69437 0.19706,-0.2126 0.39813,-0.41314 0.58314,-0.62174 0.17702,-0.2327 0.44256,-0.60183 0.78858,-1.09134 0.0924,-0.0441 0.17681,-0.0721 0.24913,-0.0961 0.0844,-0.028 0.3655,-0.0276 0.85143,-0.0149 0.49798,0.009 0.79922,-0.011 0.91975,-0.051 0.13259,-0.044 0.26955,-0.35708 0.41419,-0.40508 0.10848,-0.036 0.18475,-0.008 0.22075,0.10069 0.032,0.0964 0.0197,0.30123 -0.049,0.61841 -0.0727,0.30513 -0.065,0.5702 0.003,0.77511 l 1.0841,3.2665 c 0.064,0.19286 0.19243,0.25729 0.38529,0.19328 l 0.21696,-0.072 c 0.13259,-0.044 0.20886,-0.0158 0.24486,0.0927 l 0.016,0.0884 -0.81284,1.21983 -0.28929,0.096 c -0.13248,-0.0363 -0.31313,-0.0968 -0.57004,-0.18549 -0.0642,-0.0322 -0.16449,-0.13274 -0.29276,-0.31765 -0.12027,-0.1608 -0.19649,-0.22918 -0.25676,-0.20917 -0.1368,0.19259 -0.31792,0.49356 -0.54735,0.89085 -0.10469,0.2087 -0.20549,0.50978 -0.4104,0.57779 -0.10848,0.036 -0.30929,0.0357 -0.58636,0.007 -0.73484,-0.0773 -1.07992,-0.31065 -1.35216,-0.96965 -0.20817,-0.5063 -0.40829,-1.02865 -0.58031,-1.54695 z m 1.64791,-1.00187 c -0.25313,0.084 -0.26529,0.16833 -0.16928,0.45761 l 0.93208,2.80847 c 0.12801,0.38571 0.66595,0.55509 1.06371,0.42308 0.20491,-0.068 0.4584,-0.43314 0.3904,-0.63805 l -0.89608,-2.69999 c -0.004,-0.0924 -0.004,-0.21285 0.005,-0.38955 l -0.012,-0.0362 c -0.028,-0.0844 -0.23281,-0.0967 -0.60636,-0.053 -0.32134,0.0397 -0.55031,0.0756 -0.707,0.12759 z" />
      <path
         inkscape:connector-curvature="0"
         id="path1658"
         style="font-style:normal;font-variant:normal;font-weight:normal;font-stretch:normal;font-size:12.69999981px;font-family:HumboldtFraktur;-inkscape-font-specification:'HumboldtFraktur, Normal';font-variant-ligatures:normal;font-variant-caps:normal;font-variant-numeric:normal;font-feature-settings:normal;text-align:start;writing-mode:lr-tb;text-anchor:start;fill:none;stroke-width:0.1;stroke-miterlimit:4;stroke-dasharray:none"
         d="m 145.2963,288.4191 -0.6751,-1.63111 c -0.034,-0.0821 -0.25575,-0.0866 -0.34962,-0.0477 -0.0821,0.034 -0.23388,0.16553 -0.29255,0.18981 -0.12908,0.0534 -0.21204,0.019 -0.25575,-0.0866 -0.0728,-0.17602 0.16383,-0.70006 0.73149,-1.55353 0.0656,-0.0409 0.1829,-0.0894 0.33545,-0.15258 0.15255,-0.0631 0.56935,0.0805 1.22209,0.42883 0.13231,-0.17846 0.33056,-0.5629 0.57816,-1.16019 l 0.28163,-0.11656 c 0.87446,-0.0458 1.32686,-0.0818 1.36206,-0.0964 0.14082,-0.0583 0.27837,-0.39011 0.40745,-0.44354 0.10562,-0.0437 0.17684,-0.004 0.23026,0.12462 0.0437,0.10561 0.0433,0.27071 -0.0129,0.50015 -0.0562,0.22945 -0.0732,0.38767 -0.0578,0.49126 0.0684,0.39777 0.24692,0.92866 0.52375,1.59754 0.40312,0.97397 0.66053,1.5959 0.78397,1.86094 0.0534,0.12908 0.20963,0.17439 0.44716,0.11732 0.23753,-0.0571 0.38887,-0.0235 0.44715,0.11731 0.0389,0.0939 -0.0712,0.35934 -0.31354,0.80327 -0.24721,0.43219 -0.43535,0.675 -0.54097,0.71871 -0.11734,0.0486 -0.34193,0.004 -0.67862,-0.14522 -0.32495,-0.15414 -0.51515,-0.28159 -0.55886,-0.38721 l -0.45168,-1.09132 c -0.10199,-0.24642 -0.25054,-0.63852 -0.44764,-1.14797 -0.19024,-0.52603 -0.33878,-0.91813 -0.44563,-1.17629 0.0243,0.0587 -0.005,-0.0117 -0.0943,-0.19464 -0.22338,-0.1412 -0.75874,-0.13954 -1.0521,-0.0181 -0.11735,0.0486 -0.18411,0.18616 -0.21201,0.41762 0.26592,0.74212 0.44158,1.23295 0.54358,1.47938 l 0.67024,1.61938 c 0.0729,0.17601 0.23391,0.23306 0.4949,0.16627 0.261,-0.0668 0.41922,-0.0498 0.45322,0.0323 0.0243,0.0587 -0.005,0.15337 -0.0955,0.30067 -0.15497,0.25657 -0.38842,0.65557 -0.67204,1.19905 -0.0773,0.0457 -0.15943,0.0797 -0.2533,0.11859 -0.0822,0.034 -0.295,-0.0154 -0.61509,-0.15777 -0.3201,-0.14241 -0.52487,-0.30507 -0.59772,-0.48109 z" />
      <path
         inkscape:connector-curvature="0"
         id="path1660"
         style="font-style:normal;font-variant:normal;font-weight:normal;font-stretch:normal;font-size:12.69999981px;font-family:HumboldtFraktur;-inkscape-font-specification:'HumboldtFraktur, Normal';font-variant-ligatures:normal;font-variant-caps:normal;font-variant-numeric:normal;font-feature-settings:normal;text-align:start;writing-mode:lr-tb;text-anchor:start;fill:none;stroke-width:0.1;stroke-miterlimit:4;stroke-dasharray:none"
         d="m 151.11141,285.92792 -0.79223,-1.57755 c -0.0399,-0.0794 -0.26138,-0.0677 -0.35218,-0.0221 -0.0794,0.0399 -0.22118,0.18214 -0.27793,0.21064 -0.12484,0.0627 -0.21008,0.0344 -0.26138,-0.0677 -0.0855,-0.17024 0.11235,-0.71015 0.61627,-1.60273 0.0624,-0.0455 0.17589,-0.10255 0.32343,-0.17664 0.14754,-0.0741 0.57371,0.0387 1.25011,0.33859 0.11895,-0.18764 0.28864,-0.58551 0.49203,-1.19926 l 0.27238,-0.13679 c 0.86879,-0.10944 1.31736,-0.17838 1.35141,-0.19548 0.13619,-0.0684 0.24919,-0.40936 0.37403,-0.47206 0.10214,-0.0513 0.17603,-0.0173 0.23873,0.1075 0.0513,0.10214 0.0629,0.26683 0.0236,0.49976 -0.0394,0.23293 -0.0448,0.39197 -0.0219,0.49417 0.0972,0.39172 0.31397,0.90819 0.63884,1.55509 0.47306,0.94199 0.77513,1.5435 0.91757,1.79884 0.0627,0.12484 0.22178,0.15864 0.45452,0.0844 0.23273,-0.0743 0.38612,-0.0518 0.45452,0.0844 0.0456,0.0908 -0.0448,0.36358 -0.25414,0.82399 -0.21504,0.44907 -0.38498,0.70495 -0.48713,0.75625 -0.11349,0.057 -0.34072,0.029 -0.6874,-0.0953 -0.33532,-0.13005 -0.53431,-0.24329 -0.58561,-0.34543 l -0.53005,-1.05549 c -0.11969,-0.23833 -0.29642,-0.61856 -0.53015,-1.11227 -0.22808,-0.51077 -0.40481,-0.89099 -0.5302,-1.14068 0.0285,0.0568 -0.006,-0.0113 -0.10824,-0.18724 -0.23309,-0.12454 -0.7669,-0.0839 -1.05063,0.0586 -0.11349,0.057 -0.17004,0.19908 -0.18099,0.43197 0.31932,0.72075 0.5303,1.19747 0.64999,1.4358 l 0.78653,1.5662 c 0.0855,0.17024 0.25028,0.21539 0.50571,0.12975 0.25544,-0.0856 0.41447,-0.0802 0.45437,-8e-4 0.0285,0.0567 0.006,0.15334 -0.0733,0.30683 -0.13584,0.26718 -0.33958,0.68215 -0.58282,1.24486 -0.0737,0.0512 -0.15319,0.0911 -0.24398,0.13674 -0.0795,0.0399 -0.29533,0.006 -0.62496,-0.1125 -0.32962,-0.1187 -0.54571,-0.26599 -0.6312,-0.43623 z" />
      <path
         inkscape:connector-curvature="0"
         id="path1662"
         style="font-style:normal;font-variant:normal;font-weight:normal;font-stretch:normal;font-size:12.69999981px;font-family:HumboldtFraktur;-inkscape-font-specification:'HumboldtFraktur, Normal';font-variant-ligatures:normal;font-variant-caps:normal;font-variant-numeric:normal;font-feature-settings:normal;text-align:start;writing-mode:lr-tb;text-anchor:start;fill:none;stroke-width:0.1;stroke-miterlimit:4;stroke-dasharray:none"
         d="m 155.82267,281.91652 c -0.0846,-0.14179 -0.0229,-0.38557 0.16098,-0.74664 0.14659,-0.25008 0.29969,-0.48926 0.43537,-0.73284 0.12267,-0.2654 0.30238,-0.68311 0.53472,-1.23571 0.0807,-0.063 0.1571,-0.10849 0.22255,-0.14752 0.0764,-0.0455 0.35094,-0.10579 0.82818,-0.19819 0.48814,-0.0989 0.77804,-0.18307 0.88712,-0.24812 0.11998,-0.0716 0.18621,-0.4068 0.3171,-0.48486 0.0982,-0.0585 0.17872,-0.0474 0.23727,0.0507 0.052,0.0873 0.0842,0.2899 0.0855,0.61444 -0.005,0.31362 0.0595,0.5708 0.17006,0.75623 l 1.76292,2.95591 c 0.10408,0.17452 0.24338,0.20974 0.4179,0.10565 l 0.19634,-0.11709 c 0.11998,-0.0716 0.20053,-0.0605 0.25908,0.0377 l 0.0346,0.0829 -0.53071,1.3664 -0.26177,0.15613 c -0.1372,-0.007 -0.32664,-0.027 -0.59663,-0.0582 -0.0696,-0.0176 -0.18924,-0.0942 -0.35437,-0.24706 -0.15211,-0.13108 -0.24128,-0.18142 -0.29582,-0.14889 -0.0921,0.21756 -0.20401,0.5505 -0.34239,0.98792 -0.0572,0.22637 -0.0907,0.54209 -0.27616,0.65268 -0.0982,0.0586 -0.29431,0.10159 -0.571,0.13353 -0.73422,0.083 -1.12151,-0.0705 -1.52943,-0.65529 -0.31244,-0.4495 -0.62049,-0.91642 -0.90021,-1.38544 z m 1.39313,-1.33362 c -0.22906,0.13661 -0.22275,0.22157 -0.0666,0.48335 l 1.51572,2.54143 c 0.20817,0.34904 0.76997,0.39844 1.12992,0.18377 0.18542,-0.11059 0.35422,-0.52179 0.24363,-0.70722 l -1.45717,-2.44326 c -0.0237,-0.0894 -0.0495,-0.20705 -0.0796,-0.38137 l -0.0195,-0.0327 c -0.0455,-0.0763 -0.24818,-0.0442 -0.60353,0.079 -0.30521,0.10809 -0.52106,0.19246 -0.66285,0.27703 z" />
      <path
         inkscape:connector-curvature="0"
         id="path1664"
         style="font-style:normal;font-variant:normal;font-weight:normal;font-stretch:normal;font-size:12.69999981px;font-family:HumboldtFraktur;-inkscape-font-specification:'HumboldtFraktur, Normal';font-variant-ligatures:normal;font-variant-caps:normal;font-variant-numeric:normal;font-feature-settings:normal;text-align:start;writing-mode:lr-tb;text-anchor:start;fill:none;stroke-width:0.1;stroke-miterlimit:4;stroke-dasharray:none"
         d="m 160.18904,273.68627 0.18316,-10e-4 c 0.16487,0.42511 0.32573,0.77628 0.45782,1.03958 0.33193,0.64943 0.77739,1.42138 1.36455,2.31215 0.53735,0.81713 0.8832,1.44181 1.04808,1.86692 0.0393,0.0808 0.0934,0.27413 0.16239,0.58012 l -0.24536,0.18128 c -0.52809,-0.48608 -0.98565,-0.95855 -1.3937,-1.40317 0.10302,0.12964 -0.44393,-0.54301 -1.64085,-2.01795 -0.11725,-0.15068 -0.44734,-0.52537 -0.97604,-1.10303 l 0.0656,-0.1977 c 0.33942,-0.3369 0.65719,-0.75115 0.97435,-1.25697 z m 5.04658,6.69056 0.0677,0.12283 c -0.15997,0.30752 -0.28778,0.68528 -0.37629,1.14378 l -0.0749,0.38797 -0.16862,0.0681 c -0.4418,-0.22249 -0.93247,-0.38124 -1.47204,-0.47626 l -0.0962,-0.16491 c 0.19433,-0.43808 0.32833,-0.94268 0.402,-1.51381 l 0.22122,-0.10362 c 0.2444,0.20266 0.41085,0.3354 0.52037,0.38398 0.1024,0.0381 0.35981,0.0786 0.73695,0.11484 0.0282,-0.004 0.11633,0.0133 0.23977,0.0371 z" />
    </g>
  </g>
  <g
     style="display:inline;opacity:1"
     inkscape:label="Zeichnung"
     id="layer4"
     inkscape:groupmode="layer">
    <path
       sodipodi:nodetypes="cccssc"
       inkscape:connector-curvature="0"
       transform="scale(0.26458333)"
       id="path1009"
       d="m 511.2804,432.85626 c 0.10037,2.70024 -0.0105,5.52898 -0.34373,8.4919 v 0 c -3.98959,35.47858 -52.73458,64.61114 -111.01262,62.00908 -57.51473,-2.568 -99.6297,-21.15216 -99.86489,-62.47358 -0.15225,-26.74749 22.1487,-48.4229 40.6515,-56.48212"
       style="opacity:1;vector-effect:none;fill:none;fill-opacity:1;fill-rule:nonzero;stroke:#000000;stroke-width:0.37795275;stroke-linecap:round;stroke-linejoin:round;stroke-miterlimit:4;stroke-dasharray:none;stroke-dashoffset:0;stroke-opacity:1;paint-order:normal" />
    <path
       sodipodi:nodetypes="cc"
       inkscape:connector-curvature="0"
       transform="scale(0.26458333)"
       id="path995"
       d="m 478.92591,390.67664 c 8.53458,2.58968 22.13982,12.87853 25.27266,20.0361"
       style="opacity:1;vector-effect:none;fill:none;fill-opacity:1;fill-rule:nonzero;stroke:#000000;stroke-width:0.37795276;stroke-linecap:round;stroke-linejoin:round;stroke-miterlimit:4;stroke-dasharray:none;stroke-dashoffset:0;stroke-opacity:1;paint-order:normal" />
    <path
       inkscape:connector-curvature="0"
       id="path1002"
       d="m 133.40323,108.79613 a 2.8222478,5.6154211 54.131242 0 1 1.07973,-0.51873 2.8222478,5.6154211 54.131242 0 1 4.29564,1.55422 v 0 a 2.8222478,5.6154211 54.131242 0 1 -3.67441,4.58504"
       style="opacity:1;vector-effect:none;fill:none;fill-opacity:1;fill-rule:nonzero;stroke:#000000;stroke-width:0.1;stroke-linecap:round;stroke-linejoin:round;stroke-miterlimit:4;stroke-dasharray:none;stroke-dashoffset:0;stroke-opacity:1;paint-order:normal" />
    <path
       id="path1011"
       d="m 56.891578,165.85014 a 1.7977636,0.89422429 0 0 1 -1.797763,0.89423 1.7977636,0.89422429 0 0 1 -1.797764,-0.89423 1.7977636,0.89422429 0 0 1 1.797764,-0.89422 1.7977636,0.89422429 0 0 1 1.797763,0.89422 z"
       style="opacity:1;vector-effect:none;fill:none;fill-opacity:1;fill-rule:nonzero;stroke:#000000;stroke-width:0.1;stroke-linecap:round;stroke-linejoin:round;stroke-miterlimit:4;stroke-dasharray:none;stroke-dashoffset:0;stroke-opacity:1;paint-order:normal"
       transform="rotate(-32.239684)" />
    <path
       sodipodi:nodetypes="cccccccccccccc"
       inkscape:connector-curvature="0"
       id="path1015"
       d="m 105.03945,102.23978 -2.04609,1.33039 -0.30861,-0.9038 -0.9038,1.03606 -1.41081,-0.81562 -0.022,3.17432 -1.741468,-2.62322 -1.543077,1.91782 -0.198395,-2.49097 -2.050084,1.14629 -0.374745,-1.76352 -1.785557,0.7495 -0.08818,-0.81563 c -0.74737,-0.11298 -1.718449,-0.16987 -2.424484,-0.47911"
       style="opacity:1;vector-effect:none;fill:none;fill-opacity:1;fill-rule:nonzero;stroke:#000000;stroke-width:0.1;stroke-linecap:round;stroke-linejoin:round;stroke-miterlimit:4;stroke-dasharray:none;stroke-dashoffset:0;stroke-opacity:1;paint-order:normal" />
    <path
       id="path1017"
       d="m 103.78553,114.19812 a 3.1750674,2.1601884 0 0 1 -3.17507,2.16019 3.1750674,2.1601884 0 0 1 -3.175069,-2.16019 3.1750674,2.1601884 0 0 1 3.175069,-2.16019 3.1750674,2.1601884 0 0 1 3.17507,2.16019 z"
       style="opacity:1;vector-effect:none;fill:none;fill-opacity:1;fill-rule:nonzero;stroke:#000000;stroke-width:0.10000523;stroke-linecap:round;stroke-linejoin:round;stroke-miterlimit:4;stroke-dasharray:none;stroke-dashoffset:0;stroke-opacity:1;paint-order:normal"
       transform="matrix(0.99657721,-0.0826672,0.06824265,0.99766875,0,0)" />
    <path
       id="path1019"
       d="m 99.520913,100.97078 a 2.5350504,1.609206 0 0 1 -2.53505,1.60921 2.5350504,1.609206 0 0 1 -2.535051,-1.60921 2.5350504,1.609206 0 0 1 2.535051,-1.609207 2.5350504,1.609206 0 0 1 2.53505,1.609207 z"
       style="opacity:1;vector-effect:none;fill:none;fill-opacity:1;fill-rule:nonzero;stroke:#000000;stroke-width:0.1;stroke-linecap:round;stroke-linejoin:round;stroke-miterlimit:4;stroke-dasharray:none;stroke-dashoffset:0;stroke-opacity:1;paint-order:normal"
       transform="rotate(2.5562418)" />
    <path
       inkscape:connector-curvature="0"
       id="path1021"
       d="m 93.630543,104.76299 a 1.1683276,0.77153707 0 0 1 -1.168328,0.77154 1.1683276,0.77153707 0 0 1 -1.168327,-0.77154 1.1683276,0.77153707 0 0 1 1.168327,-0.77154 1.1683276,0.77153707 0 0 1 1.168328,0.77154 z"
       style="opacity:1;vector-effect:none;fill:none;fill-opacity:1;fill-rule:nonzero;stroke:#000000;stroke-width:0.1;stroke-linecap:round;stroke-linejoin:round;stroke-miterlimit:4;stroke-dasharray:none;stroke-dashoffset:0;stroke-opacity:1;paint-order:normal" />
    <path
       sodipodi:nodetypes="ccccsccc"
       inkscape:connector-curvature="0"
       id="path1025"
       d="m 94.744753,106.62873 c -1.446454,0.84924 -2.869575,1.82036 -2.689356,3.48294 -0.310094,2.10481 1.213641,3.19296 2.424831,4.14426 1.550187,0.97507 5.117145,1.18089 6.877702,0.74949 1.07637,-0.44471 1.74195,-0.54046 2.27621,-0.77115 1.76414,-0.76174 1.22299,-0.81156 1.91213,-1.25689 0.88219,-1.2492 0.82051,-2.39353 0.66132,-3.52703 l -1.16898,-3.02665"
       style="opacity:1;vector-effect:none;fill:none;fill-opacity:1;fill-rule:nonzero;stroke:#000000;stroke-width:0.1;stroke-linecap:round;stroke-linejoin:round;stroke-miterlimit:4;stroke-dasharray:none;stroke-dashoffset:0;stroke-opacity:1;paint-order:normal" />
    <path
       sodipodi:nodetypes="csc"
       inkscape:connector-curvature="0"
       id="path1027"
       d="m 85.839011,108.78904 c 1.505318,0.47409 2.446676,1.48975 2.627719,2.78614 0.446466,3.19701 -4.282539,6.30549 -6.6838,1.93125"
       style="opacity:1;vector-effect:none;fill:none;fill-opacity:1;fill-rule:nonzero;stroke:#000000;stroke-width:0.1;stroke-linecap:round;stroke-linejoin:round;stroke-miterlimit:4;stroke-dasharray:none;stroke-dashoffset:0;stroke-opacity:1;paint-order:normal" />
    <path
       sodipodi:nodetypes="cssc"
       inkscape:connector-curvature="0"
       id="path1029"
       d="m 115.85338,108.94821 c -2.07952,0.56063 -3.13601,2.0815 -3.47572,3.15679 -1.26291,3.99747 3.06057,6.55932 6.07568,5.57594 1.57533,-0.5138 2.89693,-2.71132 2.37005,-3.47295"
       style="opacity:1;vector-effect:none;fill:none;fill-opacity:1;fill-rule:nonzero;stroke:#000000;stroke-width:0.1;stroke-linecap:round;stroke-linejoin:round;stroke-miterlimit:4;stroke-dasharray:none;stroke-dashoffset:0;stroke-opacity:1;paint-order:normal" />
    <path
       sodipodi:nodetypes="cccccccccccccccccccc"
       inkscape:connector-curvature="0"
       id="path1031"
       d="m 94.491857,114.29424 c -1.467504,1.54019 -3.533293,4.46434 -4.067711,6.35443 0.806875,-0.43039 1.679572,-0.66331 2.380742,-1.41082 l 0.749496,2.11622 1.939864,-1.36672 1.146283,1.71942 1.410811,-1.58716 0.837669,1.54307 1.05811,-1.19037 1.190369,1.54308 1.05811,-1.8076 1.1022,1.58716 0.22044,-0.61723 0.92584,1.05811 0.96993,-2.29257 1.1022,1.19037 0.83767,-1.85169 1.23446,0.83767 c -0.028,-0.87479 0.0844,-1.6372 -0.44088,-2.90979 -1.22437,-2.15824 -2.09605,-2.58117 -3.47477,-3.48572"
       style="opacity:1;vector-effect:none;fill:none;fill-opacity:1;fill-rule:nonzero;stroke:#000000;stroke-width:0.1;stroke-linecap:round;stroke-linejoin:round;stroke-miterlimit:4;stroke-dasharray:none;stroke-dashoffset:0;stroke-opacity:1;paint-order:normal" />
    <path
       sodipodi:nodetypes="cccc"
       inkscape:connector-curvature="0"
       id="path1033"
       d="m 101.39939,121.55131 c -0.38642,0.74114 -0.30438,1.59861 0.43825,2.32637 0.67535,0.68453 2.75403,1.08095 3.96528,-0.05 1.06394,-1.32049 0.61893,-2.02076 0.39679,-3.01623"
       style="opacity:1;vector-effect:none;fill:none;fill-opacity:1;fill-rule:nonzero;stroke:#000000;stroke-width:0.1;stroke-linecap:round;stroke-linejoin:round;stroke-miterlimit:4;stroke-dasharray:none;stroke-dashoffset:0;stroke-opacity:1;paint-order:normal" />
    <path
       sodipodi:nodetypes="cc"
       inkscape:connector-curvature="0"
       id="path1035"
       d="m 100.52026,125.49832 c 4.44965,3.66979 6.39092,-0.30167 7.00997,-1.36672"
       style="opacity:1;vector-effect:none;fill:none;fill-opacity:1;fill-rule:nonzero;stroke:#000000;stroke-width:0.1;stroke-linecap:round;stroke-linejoin:round;stroke-miterlimit:4;stroke-dasharray:none;stroke-dashoffset:0;stroke-opacity:1;paint-order:normal" />
    <path
       sodipodi:nodetypes="cc"
       inkscape:connector-curvature="0"
       id="path1037"
       d="m 105.10539,130.08346 c 2.49814,-0.38336 3.82512,-1.66761 4.80558,-3.21841"
       style="opacity:1;vector-effect:none;fill:none;fill-opacity:1;fill-rule:nonzero;stroke:#000000;stroke-width:0.1;stroke-linecap:round;stroke-linejoin:round;stroke-miterlimit:4;stroke-dasharray:none;stroke-dashoffset:0;stroke-opacity:1;paint-order:normal" />
    <path
       sodipodi:nodetypes="cc"
       inkscape:connector-curvature="0"
       id="path1039"
       d="m 107.75066,130.48025 c 2.35905,-0.60168 2.35845,-1.46554 2.68936,-2.29257"
       style="opacity:1;vector-effect:none;fill:none;fill-opacity:1;fill-rule:nonzero;stroke:#000000;stroke-width:0.1;stroke-linecap:round;stroke-linejoin:round;stroke-miterlimit:4;stroke-dasharray:none;stroke-dashoffset:0;stroke-opacity:1;paint-order:normal" />
    <path
       sodipodi:nodetypes="ccc"
       inkscape:connector-curvature="0"
       id="path1041"
       d="m 109.47009,130.87704 c 1.21085,-0.17017 1.15659,-0.62147 1.36672,-1.01402 v 0"
       style="opacity:1;vector-effect:none;fill:none;fill-opacity:1;fill-rule:nonzero;stroke:#000000;stroke-width:0.1;stroke-linecap:round;stroke-linejoin:round;stroke-miterlimit:4;stroke-dasharray:none;stroke-dashoffset:0;stroke-opacity:1;paint-order:normal" />
    <path
       sodipodi:nodetypes="ccccc"
       inkscape:connector-curvature="0"
       id="path1043"
       d="m 96.438927,98.527721 c 7.836723,-3.600137 15.230753,-0.797055 22.946293,0.220605 l 2.17661,-4.63736 c -8.31626,-2.817777 -16.86982,-3.533763 -25.758796,-1.278902 z"
       style="opacity:1;vector-effect:none;fill:none;fill-opacity:1;fill-rule:nonzero;stroke:#000000;stroke-width:0.1;stroke-linecap:round;stroke-linejoin:round;stroke-miterlimit:4;stroke-dasharray:none;stroke-dashoffset:0;stroke-opacity:1;paint-order:normal" />
    <path
       sodipodi:nodetypes="ccccccccccc"
       inkscape:connector-curvature="0"
       id="path1072"
       d="m 87.413543,129.06877 c -7.281559,1.92232 -12.053223,6.70469 -17.073753,11.09359 1.842726,4.40284 5.424286,6.48723 9.16427,8.36039 -4.089051,7.38482 -5.450324,16.62452 -4.180192,27.65358 21.144836,4.61728 41.794602,2.79865 62.300962,-0.88427 l 0.32155,-7.79767 6.43107,4.09981 c -4.08112,-5.95773 -4.63577,-12.16735 -5.86835,-18.32854 4.38636,-2.29728 4.65553,-6.81425 2.02488,-9.89971 l 1.02987,0.0119 c -1.51518,-4.90152 -1.46323,-8.60522 -9.88525,-19.19472"
       style="opacity:1;vector-effect:none;fill:none;fill-opacity:1;fill-rule:nonzero;stroke:#000000;stroke-width:0.1;stroke-linecap:round;stroke-linejoin:round;stroke-miterlimit:4;stroke-dasharray:none;stroke-dashoffset:0;stroke-opacity:1;paint-order:normal" />
    <path
       sodipodi:nodetypes="cc"
       inkscape:connector-curvature="0"
       id="path1074"
       d="m 79.584448,148.36197 c 3.150962,-4.29529 3.597524,-7.23837 4.260583,-10.28971"
       style="opacity:1;vector-effect:none;fill:none;fill-opacity:1;fill-rule:nonzero;stroke:#000000;stroke-width:0.1;stroke-linecap:round;stroke-linejoin:round;stroke-miterlimit:4;stroke-dasharray:none;stroke-dashoffset:0;stroke-opacity:1;paint-order:normal" />
    <path
       sodipodi:nodetypes="ccc"
       inkscape:connector-curvature="0"
       id="path1076"
       d="m 140.43091,143.35118 c -3.60728,-0.51085 -7.33984,0.6333 -10.52138,2.21408 -3.75684,-2.34309 -3.06582,-5.54455 -3.70179,-8.54001"
       style="opacity:1;vector-effect:none;fill:none;fill-opacity:1;fill-rule:nonzero;stroke:#000000;stroke-width:0.1;stroke-linecap:round;stroke-linejoin:round;stroke-miterlimit:4;stroke-dasharray:none;stroke-dashoffset:0;stroke-opacity:1;paint-order:normal" />
    <path
       sodipodi:nodetypes="cccc"
       inkscape:connector-curvature="0"
       id="path1078"
       d="m 129.89934,145.59144 c -1.53217,1.55684 -3.21456,3.87218 -5.17521,3.56385 m 0.11975,6.15891 c 4.71405,-0.47283 10.02449,0.34534 13.74559,-2.04854"
       style="opacity:1;vector-effect:none;fill:none;fill-opacity:1;fill-rule:nonzero;stroke:#000000;stroke-width:0.1;stroke-linecap:round;stroke-linejoin:round;stroke-miterlimit:4;stroke-dasharray:none;stroke-dashoffset:0;stroke-opacity:1;paint-order:normal" />
    <path
       sodipodi:nodetypes="cccccc"
       inkscape:connector-curvature="0"
       id="path1080"
       d="m 93.615545,131.44452 c -1.648232,0.29225 -1.989696,1.23546 -2.021409,2.14173 0.09938,1.72512 0.841389,1.99052 1.54717,2.33823 2.451977,0.52109 3.589774,0.18173 4.594632,-0.0926 0.88015,-0.42723 1.22996,-0.72645 1.66438,-1.29644 0.399602,-0.6827 0.239416,-1.32281 0.225954,-1.88896"
       style="opacity:1;vector-effect:none;fill:none;fill-opacity:1;fill-rule:nonzero;stroke:#000000;stroke-width:0.1;stroke-linecap:round;stroke-linejoin:round;stroke-miterlimit:4;stroke-dasharray:none;stroke-dashoffset:0;stroke-opacity:1;paint-order:normal" />
    <path
       id="path1082"
       d="m 103.19165,134.50012 a 1.5706133,1.5237293 0 0 1 -1.57062,1.52373 1.5706133,1.5237293 0 0 1 -1.57061,-1.52373 1.5706133,1.5237293 0 0 1 1.57061,-1.52373 1.5706133,1.5237293 0 0 1 1.57062,1.52373 z"
       style="opacity:1;vector-effect:none;fill:none;fill-opacity:1;fill-rule:nonzero;stroke:#000000;stroke-width:0.1;stroke-linecap:round;stroke-linejoin:round;stroke-miterlimit:4;stroke-dasharray:none;stroke-dashoffset:0;stroke-opacity:1;paint-order:normal" />
    <path
       sodipodi:nodetypes="cccccc"
       inkscape:connector-curvature="0"
       transform="scale(0.26458333)"
       id="path1091"
       d="m 425.11903,510.53703 c 0.40544,-0.77701 0.72418,-1.5143 1.04527,-2.19012 1.29127,-3.10602 1.98516,-4.41974 2.83517,-6.20194 m -34.82701,0.91856 c -1.60777,1.37133 -3.40975,4.06713 -2.20763,7.40978 1.3646,3.23163 3.13844,4.46135 4.70277,5.41654"
       style="opacity:1;vector-effect:none;fill:none;fill-opacity:1;fill-rule:nonzero;stroke:#000000;stroke-width:0.37795275;stroke-linecap:round;stroke-linejoin:round;stroke-miterlimit:4;stroke-dasharray:none;stroke-dashoffset:0;stroke-opacity:1;paint-order:normal" />
    <path
       sodipodi:nodetypes="cccccccccccccscccccccccccccccccccccccc"
       inkscape:connector-curvature="0"
       id="path1086"
       d="m 104.22308,136.93809 c -1.5655,1.29463 -1.13322,2.46074 -0.98456,3.75072 -0.7152,0.42763 -1.22811,0.56191 -2.29732,1.50028 -0.33064,0.3022 -0.80177,1.22125 0.0938,1.68783 -0.71897,0.75014 -0.94731,1.50029 -0.0469,2.25043 -0.82073,0.61079 -1.00322,1.86768 -0.41827,2.6255 0.37129,0.63067 1.23534,0.93262 1.7779,0.65638 0.73417,-0.24676 0.86274,-1.55329 1.12522,-2.6255 0.11567,0.82515 -0.85254,4.54237 0.14962,4.92427 1.78393,0.6217 2.0406,-3.6695 2.80407,-4.78362 l -0.18754,2.29731 c -0.0892,0.97797 1.3545,1.68454 1.78844,0.25601 l 0.60265,-2.50644 c 0.34994,0.21436 0.19577,3.28815 0.78499,4.16103 0.56958,0.8438 1.9187,0.94452 2.24846,-0.46539 0.23039,-2.10391 0.82427,-4.28026 1.23299,-5.10216 0.10548,1.1734 -0.57429,2.93729 0.60949,3.42253 1.20821,0.43876 1.6781,-1.5246 2.43797,-2.48485 0.15484,2.12644 -0.54607,4.86412 0.46884,6.37622 0.97832,1.55549 2.16841,0.80154 2.3442,0.23442 0.53802,-1.16559 0.18876,-2.93806 0,-4.40709 0.46688,0.44731 0.92205,0.76573 1.26587,-0.14065 1.35471,0.7286 0.78874,-0.8476 1.03144,-1.45341 0.63551,0.627 1.84996,2.67311 2.29732,0.18754 l 0.23442,-1.07833 c 0.50208,0.4919 0.97363,1.35018 1.59405,0.42195 1.17565,0.13818 1.51095,-0.89008 1.12522,-1.50028 -0.22263,-1.17071 -1.69381,-1.67285 -2.71927,-2.0629 0.56601,-0.30466 1.33157,-0.32997 1.31275,-1.4534 -0.018,-1.04429 -1.37373,-1.3266 -2.0629,-1.96913 0.38275,-0.7219 1.11151,-1.22755 0.56261,-2.53174 -0.83673,-1.48594 -2.29647,-2.66368 -3.23499,-2.57861 -0.3235,-0.1509 -2.48468,-0.056 -3.00058,1.07833 -1.29712,-0.56527 -2.59425,-0.86291 -3.89137,-0.18754 l -0.82807,-0.35662 c -1.6925,-0.0473 -3.29732,0.68164 -3.90721,1.62249 -0.68227,-0.60459 -1.5092,-0.97796 -2.67239,-0.56261 -1.10586,0.35631 -1.31079,0.56651 -1.64095,0.79703 z"
       style="opacity:1;vector-effect:none;fill:none;fill-opacity:1;fill-rule:nonzero;stroke:#000000;stroke-width:0.1;stroke-linecap:round;stroke-linejoin:round;stroke-miterlimit:4;stroke-dasharray:none;stroke-dashoffset:0;stroke-opacity:1;paint-order:normal" />
    <path
       sodipodi:nodetypes="cc"
       inkscape:connector-curvature="0"
       id="path1093"
       d="m 114.02184,143.12678 c 0.89934,1.49019 2.09947,0.42354 3.23499,-0.0938"
       style="opacity:1;vector-effect:none;fill:none;fill-opacity:1;fill-rule:nonzero;stroke:#000000;stroke-width:0.1;stroke-linecap:round;stroke-linejoin:round;stroke-miterlimit:4;stroke-dasharray:none;stroke-dashoffset:0;stroke-opacity:1;paint-order:normal" />
    <path
       sodipodi:nodetypes="cc"
       inkscape:connector-curvature="0"
       id="path1095"
       d="m 118.33516,142.42352 c 1.1761,-0.0173 1.63493,-0.67214 1.68783,-1.68783"
       style="opacity:1;vector-effect:none;fill:none;fill-opacity:1;fill-rule:nonzero;stroke:#000000;stroke-width:0.1;stroke-linecap:round;stroke-linejoin:round;stroke-miterlimit:4;stroke-dasharray:none;stroke-dashoffset:0;stroke-opacity:1;paint-order:normal" />
    <path
       sodipodi:nodetypes="cc"
       inkscape:connector-curvature="0"
       id="path1097"
       d="m 119.88234,139.42294 c 0.81853,-0.74277 0.51106,-1.23531 0.23441,-1.73471"
       style="opacity:1;vector-effect:none;fill:none;fill-opacity:1;fill-rule:nonzero;stroke:#000000;stroke-width:0.1;stroke-linecap:round;stroke-linejoin:round;stroke-miterlimit:4;stroke-dasharray:none;stroke-dashoffset:0;stroke-opacity:1;paint-order:normal" />
    <path
       sodipodi:nodetypes="cssc"
       inkscape:connector-curvature="0"
       id="path1099"
       d="m 107.4112,138.81344 c -0.55747,0.0918 -1.56471,-0.94251 -1.60729,0.81452 -0.0127,0.5263 -0.94574,-0.32995 -1.15887,0.21693 -0.22168,0.56884 -0.5557,0.96584 -0.0469,1.78159"
       style="opacity:1;vector-effect:none;fill:none;fill-opacity:1;fill-rule:nonzero;stroke:#000000;stroke-width:0.1;stroke-linecap:round;stroke-linejoin:round;stroke-miterlimit:4;stroke-dasharray:none;stroke-dashoffset:0;stroke-opacity:1;paint-order:normal" />
    <path
       sodipodi:nodetypes="cc"
       inkscape:connector-curvature="0"
       id="path1101"
       d="m 103.0041,142.89236 c -0.49688,0.72144 -0.72568,1.4185 0.14066,2.01601"
       style="opacity:1;vector-effect:none;fill:none;fill-opacity:1;fill-rule:nonzero;stroke:#000000;stroke-width:0.1;stroke-linecap:round;stroke-linejoin:round;stroke-miterlimit:4;stroke-dasharray:none;stroke-dashoffset:0;stroke-opacity:1;paint-order:normal" />
    <path
       id="path1103"
       d="m 99.956648,137.80545 a 0.98456359,0.63293374 0 0 1 -0.984564,0.63293 0.98456359,0.63293374 0 0 1 -0.984564,-0.63293 0.98456359,0.63293374 0 0 1 0.984564,-0.63293 0.98456359,0.63293374 0 0 1 0.984564,0.63293 z"
       style="opacity:1;vector-effect:none;fill:none;fill-opacity:1;fill-rule:nonzero;stroke:#000000;stroke-width:0.1;stroke-linecap:round;stroke-linejoin:round;stroke-miterlimit:4;stroke-dasharray:none;stroke-dashoffset:0;stroke-opacity:1;paint-order:normal" />
    <path
       id="path1105"
       d="m 97.987518,141.43896 a 1.4299614,0.98456359 0 0 1 -1.429962,0.98457 1.4299614,0.98456359 0 0 1 -1.429961,-0.98457 1.4299614,0.98456359 0 0 1 1.429961,-0.98456 1.4299614,0.98456359 0 0 1 1.429962,0.98456 z"
       style="opacity:1;vector-effect:none;fill:none;fill-opacity:1;fill-rule:nonzero;stroke:#000000;stroke-width:0.1;stroke-linecap:round;stroke-linejoin:round;stroke-miterlimit:4;stroke-dasharray:none;stroke-dashoffset:0;stroke-opacity:1;paint-order:normal" />
    <path
       id="path1107"
       d="m 96.018393,145.3772 a 1.5471712,1.0783316 0 0 1 -1.547171,1.07833 1.5471712,1.0783316 0 0 1 -1.547171,-1.07833 1.5471712,1.0783316 0 0 1 1.547171,-1.07833 1.5471712,1.0783316 0 0 1 1.547171,1.07833 z"
       style="opacity:1;vector-effect:none;fill:none;fill-opacity:1;fill-rule:nonzero;stroke:#000000;stroke-width:0.1;stroke-linecap:round;stroke-linejoin:round;stroke-miterlimit:4;stroke-dasharray:none;stroke-dashoffset:0;stroke-opacity:1;paint-order:normal" />
    <path
       sodipodi:nodetypes="cc"
       inkscape:connector-curvature="0"
       id="path1109"
       d="m 87.110434,146.68996 c 4.230459,0.0741 6.62357,1.90209 8.110929,4.59463"
       style="opacity:1;vector-effect:none;fill:none;fill-opacity:1;fill-rule:nonzero;stroke:#000000;stroke-width:0.1;stroke-linecap:round;stroke-linejoin:round;stroke-miterlimit:4;stroke-dasharray:none;stroke-dashoffset:0;stroke-opacity:1;paint-order:normal" />
    <path
       sodipodi:nodetypes="cc"
       inkscape:connector-curvature="0"
       id="path1111"
       d="m 94.189914,148.56532 c 1.400439,-0.69195 2.783452,-1.26193 3.938254,-0.23442"
       style="opacity:1;vector-effect:none;fill:none;fill-opacity:1;fill-rule:nonzero;stroke:#000000;stroke-width:0.1;stroke-linecap:round;stroke-linejoin:round;stroke-miterlimit:4;stroke-dasharray:none;stroke-dashoffset:0;stroke-opacity:1;paint-order:normal" />
    <path
       id="path1113"
       d="m 168.80213,51.198093 a 1.1720995,1.0548896 0 0 1 -1.17209,1.05489 1.1720995,1.0548896 0 0 1 -1.1721,-1.05489 1.1720995,1.0548896 0 0 1 1.1721,-1.054889 1.1720995,1.0548896 0 0 1 1.17209,1.054889 z"
       style="opacity:1;vector-effect:none;fill:none;fill-opacity:1;fill-rule:nonzero;stroke:#000000;stroke-width:0.1;stroke-linecap:round;stroke-linejoin:round;stroke-miterlimit:4;stroke-dasharray:none;stroke-dashoffset:0;stroke-opacity:1;paint-order:normal"
       transform="rotate(42.398933)" />
    <path
       sodipodi:nodetypes="cccc"
       inkscape:connector-curvature="0"
       id="path1115"
       d="m 103.76998,151.81106 c 0.17073,7.82072 -0.43168,13.39254 0.87506,20.75886 15.54484,3.38684 15.31797,-1.79789 20.34765,-4.1258 l -0.30693,-21.35756"
       style="opacity:1;vector-effect:none;fill:none;fill-opacity:1;fill-rule:nonzero;stroke:#000000;stroke-width:0.1;stroke-linecap:round;stroke-linejoin:round;stroke-miterlimit:4;stroke-dasharray:none;stroke-dashoffset:0;stroke-opacity:1;paint-order:normal" />
    <path
       sodipodi:nodetypes="cc"
       inkscape:connector-curvature="0"
       id="path1117"
       d="m 108.48953,159.7237 c 2.68553,-1.47954 5.77401,-6.31705 7.78274,-2.15666"
       style="opacity:1;vector-effect:none;fill:none;fill-opacity:1;fill-rule:nonzero;stroke:#000000;stroke-width:0.1;stroke-linecap:round;stroke-linejoin:round;stroke-miterlimit:4;stroke-dasharray:none;stroke-dashoffset:0;stroke-opacity:1;paint-order:normal" />
    <path
       sodipodi:nodetypes="cc"
       inkscape:connector-curvature="0"
       id="path1119"
       d="m 111.30257,164.50587 c 1.81554,2.6319 3.28916,0.477 4.87593,-0.0938"
       style="opacity:1;vector-effect:none;fill:none;fill-opacity:1;fill-rule:nonzero;stroke:#000000;stroke-width:0.1;stroke-linecap:round;stroke-linejoin:round;stroke-miterlimit:4;stroke-dasharray:none;stroke-dashoffset:0;stroke-opacity:1;paint-order:normal" />
    <path
       sodipodi:nodetypes="ccccc"
       inkscape:connector-curvature="0"
       id="path1121"
       d="m 112.14648,159.7237 c 1.65683,-0.10427 2.53996,0.0494 3.46941,0.18754 -0.82623,0.533 -1.26377,1.37694 -0.84391,2.90681 -1.21898,-0.24417 -2.43797,-0.52178 -3.65695,-0.28131 -0.50937,-1.27896 0.3372,-2.01553 1.03145,-2.81304 z"
       style="opacity:1;vector-effect:none;fill:none;fill-opacity:1;fill-rule:nonzero;stroke:#000000;stroke-width:0.1;stroke-linecap:round;stroke-linejoin:round;stroke-miterlimit:4;stroke-dasharray:none;stroke-dashoffset:0;stroke-opacity:1;paint-order:normal" />
    <path
       sodipodi:nodetypes="ccccccccccc"
       inkscape:connector-curvature="0"
       id="path1127"
       d="M 83.265948,130.56187 C 79.862309,123.46195 70.597513,119.19156 60.011494,115.559 c -2.432365,-0.52575 -4.867261,-1.05404 -2.906807,2.81303 1.633594,2.38449 6.766301,4.1858 11.252155,6.09492 l -6.563757,-1.68782 c -2.451506,-0.31525 -2.358041,0.56712 -0.562608,2.25043 3.018068,2.03729 5.861463,2.20746 9.376797,2.81304 -1.915592,0.0931 -4.898463,-0.42367 -5.251006,0.56261 0.842764,1.45503 4.45204,2.40706 7.970277,3.37564 -1.703766,-0.0277 -4.153139,-0.98747 -4.969703,0.0938 2.031639,3.09256 4.063278,3.09275 6.094917,4.59463"
       style="opacity:1;vector-effect:none;fill:none;fill-opacity:1;fill-rule:nonzero;stroke:#000000;stroke-width:0.1;stroke-linecap:round;stroke-linejoin:round;stroke-miterlimit:4;stroke-dasharray:none;stroke-dashoffset:0;stroke-opacity:1;paint-order:normal" />
    <path
       sodipodi:nodetypes="cccccccccccc"
       inkscape:connector-curvature="0"
       transform="scale(0.26458333)"
       id="path1129"
       d="m 266.86214,532.44605 c -9.83584,10.63196 -10.22455,21.26388 -4.96158,31.89585 3.94782,16.6637 11.34991,23.62024 18.33082,31.63898 -6.75045,7.2833 -12.26709,11.73535 -20.8712,13.94777 -3.61879,0.85805 -5.57813,8.5362 2.56523,7.12167 l 9.83342,-6.47426 -15.07454,10.48061 c -3.3642,1.07466 -2.54359,10.0539 5.66866,5.70501 l 10.26096,-7.12167 -10.26096,11.65364 c -2.10811,2.31275 -2.17223,7.01562 2.4281,4.6541 12.25857,-6.53509 18.11691,-14.1448 20.09439,-27.31397"
       style="opacity:1;vector-effect:none;fill:none;fill-opacity:1;fill-rule:nonzero;stroke:#000000;stroke-width:0.37795275;stroke-linecap:round;stroke-linejoin:round;stroke-miterlimit:4;stroke-dasharray:none;stroke-dashoffset:0;stroke-opacity:1;paint-order:normal" />
    <path
       sodipodi:nodetypes="ccccscccc"
       inkscape:connector-curvature="0"
       transform="scale(0.26458333)"
       id="path1584"
       d="m 261.77517,741.71321 c -0.96008,28.71128 28.01568,44.91754 52.99864,14.50196 11.13452,64.98263 112.86242,35.20475 116.16237,24.45524 48.82798,26.88987 92.06388,30.50967 126.46851,-2.62019 53.3646,-8.19065 58.32494,-25.68668 55.04156,-38.94557 -0.98327,-3.97061 -1.03714,-4.44679 -1.78587,-6.90214 -2.81237,-11.45927 -25.23492,-23.94614 -39.97999,-18.08527 -22.04545,-17.82452 -44.2444,-34.01163 -70.39616,-8.03527 1.18878,-12.01233 -7.17614,-16.13607 -27.3911,-8.14052"
       style="opacity:1;vector-effect:none;fill:none;fill-opacity:1;fill-rule:nonzero;stroke:#000000;stroke-width:0.37795275;stroke-linecap:round;stroke-linejoin:round;stroke-miterlimit:4;stroke-dasharray:none;stroke-dashoffset:0;stroke-opacity:1;paint-order:normal" />
    <path
       sodipodi:nodetypes="cc"
       inkscape:connector-curvature="0"
       id="path1137"
       d="m 74.144658,193.26966 c -3.889858,-4.37029 2.180836,-8.1154 6.655319,-5.59231"
       style="opacity:1;vector-effect:none;fill:none;fill-opacity:1;fill-rule:nonzero;stroke:#000000;stroke-width:0.1;stroke-linecap:round;stroke-linejoin:round;stroke-miterlimit:4;stroke-dasharray:none;stroke-dashoffset:0;stroke-opacity:1;paint-order:normal" />
    <path
       sodipodi:nodetypes="cc"
       inkscape:connector-curvature="0"
       id="path1141"
       d="m 98.298221,185.72367 c 8.568869,-5.39195 12.015599,-1.28547 16.690879,0.30815"
       style="opacity:1;vector-effect:none;fill:none;fill-opacity:1;fill-rule:nonzero;stroke:#000000;stroke-width:0.1;stroke-linecap:round;stroke-linejoin:round;stroke-miterlimit:4;stroke-dasharray:none;stroke-dashoffset:0;stroke-opacity:1;paint-order:normal" />
    <path
       sodipodi:nodetypes="cc"
       inkscape:connector-curvature="0"
       id="path1143"
       d="m 110.34682,183.94939 c 5.76231,-2.9525 7.83654,-1.01534 10.69677,0.0951"
       style="opacity:1;vector-effect:none;fill:none;fill-opacity:1;fill-rule:nonzero;stroke:#000000;stroke-width:0.1;stroke-linecap:round;stroke-linejoin:round;stroke-miterlimit:4;stroke-dasharray:none;stroke-dashoffset:0;stroke-opacity:1;paint-order:normal" />
    <path
       sodipodi:nodetypes="cc"
       inkscape:connector-curvature="0"
       id="path1145"
       d="m 111.89253,190.88465 c 2.53658,-3.83639 4.37904,-8.75543 11.51678,-6.22098"
       style="opacity:1;vector-effect:none;fill:none;fill-opacity:1;fill-rule:nonzero;stroke:#000000;stroke-width:0.1;stroke-linecap:round;stroke-linejoin:round;stroke-miterlimit:4;stroke-dasharray:none;stroke-dashoffset:0;stroke-opacity:1;paint-order:normal" />
    <path
       sodipodi:nodetypes="cc"
       inkscape:connector-curvature="0"
       id="path1147"
       d="m 98.165935,197.81728 c 3.749125,-5.04614 8.438165,-7.3061 15.621515,-2.17222"
       style="opacity:1;vector-effect:none;fill:none;fill-opacity:1;fill-rule:nonzero;stroke:#000000;stroke-width:0.1;stroke-linecap:round;stroke-linejoin:round;stroke-miterlimit:4;stroke-dasharray:none;stroke-dashoffset:0;stroke-opacity:1;paint-order:normal" />
    <path
       sodipodi:nodetypes="cc"
       inkscape:connector-curvature="0"
       id="path1149"
       d="m 114.85045,195.92236 c -2.51455,2.328 -3.77326,5.09724 -10.58381,5.91584"
       style="opacity:1;vector-effect:none;fill:none;fill-opacity:1;fill-rule:nonzero;stroke:#000000;stroke-width:0.1;stroke-linecap:round;stroke-linejoin:round;stroke-miterlimit:4;stroke-dasharray:none;stroke-dashoffset:0;stroke-opacity:1;paint-order:normal" />
    <path
       sodipodi:nodetypes="cc"
       inkscape:connector-curvature="0"
       id="path1151"
       d="m 116.79158,195.27531 c 6.41733,-2.89405 8.23466,-1.44367 10.35272,-0.2773"
       style="opacity:1;vector-effect:none;fill:none;fill-opacity:1;fill-rule:nonzero;stroke:#000000;stroke-width:0.1;stroke-linecap:round;stroke-linejoin:round;stroke-miterlimit:4;stroke-dasharray:none;stroke-dashoffset:0;stroke-opacity:1;paint-order:normal" />
    <path
       sodipodi:nodetypes="cc"
       inkscape:connector-curvature="0"
       id="path1153"
       d="m 149.5204,187.77088 c 1.1757,0.85189 1.43891,2.55192 -0.97741,7.22713"
       style="opacity:1;vector-effect:none;fill:none;fill-opacity:1;fill-rule:nonzero;stroke:#000000;stroke-width:0.1;stroke-linecap:round;stroke-linejoin:round;stroke-miterlimit:4;stroke-dasharray:none;stroke-dashoffset:0;stroke-opacity:1;paint-order:normal" />
    <path
       sodipodi:nodetypes="cc"
       inkscape:connector-curvature="0"
       id="path1155"
       d="m 128.993,202.71633 c 5.1733,0.28587 10.02395,-0.0546 13.12576,-3.78983"
       style="opacity:1;vector-effect:none;fill:none;fill-opacity:1;fill-rule:nonzero;stroke:#000000;stroke-width:0.1;stroke-linecap:round;stroke-linejoin:round;stroke-miterlimit:4;stroke-dasharray:none;stroke-dashoffset:0;stroke-opacity:1;paint-order:normal" />
    <path
       sodipodi:nodetypes="cc"
       inkscape:connector-curvature="0"
       id="path1157"
       d="m 139.39193,201.23737 c 1.48807,2.40363 3.77481,2.81061 6.23936,2.77305"
       style="opacity:1;vector-effect:none;fill:none;fill-opacity:1;fill-rule:nonzero;stroke:#000000;stroke-width:0.1;stroke-linecap:round;stroke-linejoin:round;stroke-miterlimit:4;stroke-dasharray:none;stroke-dashoffset:0;stroke-opacity:1;paint-order:normal" />
    <path
       sodipodi:nodetypes="cc"
       inkscape:connector-curvature="0"
       id="path1258"
       d="m 70.192524,143.92219 c -0.522292,0.42809 -0.733636,0.99752 -0.577929,1.73379"
       style="opacity:1;vector-effect:none;fill:none;fill-opacity:1;fill-rule:nonzero;stroke:#000000;stroke-width:0.1;stroke-linecap:round;stroke-linejoin:round;stroke-miterlimit:4;stroke-dasharray:none;stroke-dashoffset:0;stroke-opacity:1;paint-order:normal" />
    <path
       sodipodi:nodetypes="cc"
       inkscape:connector-curvature="0"
       id="path1260"
       d="m 140.33119,148.16376 c -0.0443,0.81488 -0.36463,1.40394 -1.08651,1.66444"
       style="opacity:1;vector-effect:none;fill:none;fill-opacity:1;fill-rule:nonzero;stroke:#000000;stroke-width:0.1;stroke-linecap:round;stroke-linejoin:round;stroke-miterlimit:4;stroke-dasharray:none;stroke-dashoffset:0;stroke-opacity:1;paint-order:normal" />
    <path
       sodipodi:nodetypes="cc"
       inkscape:connector-curvature="0"
       id="path1264"
       d="m 99.795959,188.82718 c 0.356781,0.61503 0.192973,0.70946 0.193683,0.96842"
       style="opacity:1;vector-effect:none;fill:none;fill-opacity:1;fill-rule:nonzero;stroke:#000000;stroke-width:0.1;stroke-linecap:round;stroke-linejoin:round;stroke-miterlimit:4;stroke-dasharray:none;stroke-dashoffset:0;stroke-opacity:1;paint-order:normal" />
    <path
       sodipodi:nodetypes="cccccccccccccc"
       inkscape:connector-curvature="0"
       id="path1561"
       d="m 91.096679,178.50734 5.696403,7.52413 c 0.637228,1.50863 0.804988,3.11384 -3.736516,3.94836 -3.625309,0.84788 -6.50704,0.76571 -9.475708,-0.41674 -0.463045,-0.0932 -1.219148,0.41052 0,1.05119 l 1.138785,0.17519 -2.082028,0.0257 c -0.702527,0.0468 -0.953285,0.98779 0.330053,1.28833 l 1.927175,-0.2628 -2.715567,0.70079 c -1.19099,0.67944 -0.565186,1.98941 0.613193,1.92718 6.10272,-2.0245 12.205441,-3.3868 18.308161,-3.67916 1.5899,0.0557 1.48888,-1.92316 -0.0876,-2.45276 -3.014054,-1.21759 -4.192592,-5.88189 -5.895337,-9.56783"
       style="fill:none;stroke:#000000;stroke-width:0.1;stroke-linecap:butt;stroke-linejoin:miter;stroke-miterlimit:4;stroke-dasharray:none;stroke-opacity:1" />
    <path
       sodipodi:nodetypes="cc"
       inkscape:connector-curvature="0"
       id="path1264-8"
       d="m 122.40112,187.30912 c -0.31523,0.63732 -0.14553,0.72069 -0.12907,0.97912"
       style="display:inline;opacity:1;vector-effect:none;fill:none;fill-opacity:1;fill-rule:nonzero;stroke:#000000;stroke-width:0.1;stroke-linecap:round;stroke-linejoin:round;stroke-miterlimit:4;stroke-dasharray:none;stroke-dashoffset:0;stroke-opacity:1;paint-order:normal" />
    <path
       sodipodi:nodetypes="cccccccccccccc"
       inkscape:connector-curvature="0"
       id="path1561-9"
       d="m 130.44026,176.47873 -5.19709,7.80627 c -0.39802,0.61963 -0.62791,3.19586 3.95892,3.72751 3.67354,0.60571 6.54348,0.33271 9.42725,-1.04392 0.60168,-0.36977 1.24368,0.67516 0.0697,1.04888 l -1.12466,0.25029 2.07915,-0.11236 c 0.70408,1.3e-4 1.07135,1.38727 -0.24393,1.30737 l -1.94035,-0.13448 2.75604,0.51925 c 1.24251,0.20708 0.74138,2.10252 -0.4841,1.96359 -6.22349,-1.61553 -12.40309,-2.57032 -18.51177,-2.45752 -1.5126,-0.0972 -1.20164,-2.07834 -0.0752,-2.45317 2.92671,-1.4147 3.86183,-6.04402 5.31651,-9.83471"
       style="display:inline;opacity:1;fill:none;stroke:#000000;stroke-width:0.1;stroke-linecap:butt;stroke-linejoin:miter;stroke-miterlimit:4;stroke-dasharray:none;stroke-opacity:1" />
    <path
       sodipodi:nodetypes="ccccc"
       inkscape:connector-curvature="0"
       id="path1586"
       d="m 69.290704,196.2613 c -8.164731,-2.12431 -4.235502,-9.47495 -1.138785,-9.89867 -2.356159,-5.15982 2.681561,-7.54424 5.869125,-4.55514 3.744563,-6.42753 9.979908,-2.36526 9.811073,0.96358 4.033564,-4.70093 9.444254,-1.1383 12.963428,3.29203"
       style="fill:none;stroke:#000000;stroke-width:0.1;stroke-linecap:butt;stroke-linejoin:miter;stroke-miterlimit:4;stroke-dasharray:none;stroke-opacity:1" />
    <path
       sodipodi:nodetypes="cc"
       transform="matrix(0.16543679,0,0,0.10640449,51.743918,101.15427)"
       inkscape:connector-curvature="0"
       id="path1599"
       d="m 544.93518,647.11927 c -9.02216,-7.71087 -24.4698,-9.62476 -24.18342,-4.89932"
       style="fill:none;fill-opacity:0.82352941;stroke:#000000;stroke-width:0.7537095;stroke-linecap:round;stroke-miterlimit:4;stroke-dasharray:none;stroke-opacity:0.9859813" />
    <path
       sodipodi:nodetypes="cc"
       inkscape:connector-curvature="0"
       id="path1601"
       d="m 96.698722,99.138345 c 5.756048,2.482525 13.388178,6.177305 22.335288,1.707545"
       style="fill:none;fill-opacity:0.9859813;stroke:#000000;stroke-width:0.1;stroke-linecap:round;stroke-miterlimit:4;stroke-dasharray:none;stroke-opacity:0.9859813" />
    <path
       transform="matrix(0.26458333,0,0,0.26458333,-0.04633557,0.09267115)"
       sodipodi:nodetypes="ccccc"
       inkscape:connector-curvature="0"
       id="path1603"
       d="m 340.87541,384.00668 c 46.5908,-24.77663 92.6309,-9.72527 138.30444,6.31627 5.71235,-19.03715 5.44628,-25.52145 5.74565,-33.28155 -72.82149,-25.36145 -107.45497,-13.567 -147.10633,-6.65481 -0.55394,11.09429 -1.40162,20.24771 3.05624,33.62009 z"
       style="fill:none;fill-opacity:0.9859813;stroke:#000000;stroke-width:0.37795275;stroke-linecap:round;stroke-miterlimit:4;stroke-dasharray:none;stroke-opacity:0.9859813" />
    <path
       sodipodi:nodetypes="cccc"
       inkscape:connector-curvature="0"
       id="path1254"
       d="m 84.079137,130.14509 c -2.082299,-6.69595 -10.734932,-12.00048 -21.604851,-16.63975 -2.388125,-0.71118 -3.116461,-0.21524 -3.455125,0.5641 -0.188031,0.65812 -2e-6,1.1282 0.564103,1.41025"
       style="display:inline;opacity:1;vector-effect:none;fill:none;fill-opacity:1;fill-rule:nonzero;stroke:#000000;stroke-width:0.1;stroke-linecap:round;stroke-linejoin:round;stroke-miterlimit:4;stroke-dasharray:none;stroke-dashoffset:0;stroke-opacity:1;paint-order:normal" />
    <path
       inkscape:transform-center-y="1.2249241"
       inkscape:transform-center-x="0.26609419"
       sodipodi:nodetypes="cc"
       inkscape:connector-curvature="0"
       id="path1095-0"
       d="m 107.28591,145.09127 c 0.83084,0.8326 1.62041,0.70643 2.38665,0.0376"
       style="display:inline;opacity:1;vector-effect:none;fill:none;fill-opacity:1;fill-rule:nonzero;stroke:#000000;stroke-width:0.1;stroke-linecap:round;stroke-linejoin:round;stroke-miterlimit:4;stroke-dasharray:none;stroke-dashoffset:0;stroke-opacity:1;paint-order:normal" />
    <path
       sodipodi:nodetypes="ccccccccccc"
       inkscape:connector-curvature="0"
       id="path1127-1"
       d="m 135.368,129.05267 c 3.40364,-7.09992 12.8925,-12.08371 23.47852,-15.71627 1.67847,-0.57039 4.86726,-1.05404 2.90681,2.81303 -1.63359,2.38449 -6.7663,4.1858 -11.25216,6.09492 l 6.56376,-1.68782 c 2.45151,-0.31525 2.35804,0.56712 0.56261,2.25043 -3.01807,2.03729 -5.86146,2.20746 -9.3768,2.81304 1.91559,0.0931 4.89847,-0.42367 5.25101,0.56261 -0.84277,1.45503 -4.45204,2.40706 -7.97028,3.37564 1.70377,-0.0277 4.15314,-0.98747 4.9697,0.0938 -1.79974,3.63363 -8.97374,5.37106 -11.50072,5.71716"
       style="display:inline;opacity:1;vector-effect:none;fill:none;fill-opacity:1;fill-rule:nonzero;stroke:#000000;stroke-width:0.1;stroke-linecap:round;stroke-linejoin:round;stroke-miterlimit:4;stroke-dasharray:none;stroke-dashoffset:0;stroke-opacity:1;paint-order:normal" />
    <path
       sodipodi:nodetypes="cccc"
       inkscape:connector-curvature="0"
       id="path1254-5"
       d="m 134.71072,128.07105 c 2.0823,-6.69595 10.80309,-12.14904 21.67301,-16.78831 2.38812,-0.71118 3.11646,-0.21524 3.45512,0.5641 0.18804,0.65812 0.0595,1.06372 -0.50458,1.34577"
       style="display:inline;opacity:1;vector-effect:none;fill:none;fill-opacity:1;fill-rule:nonzero;stroke:#000000;stroke-width:0.1;stroke-linecap:round;stroke-linejoin:round;stroke-miterlimit:4;stroke-dasharray:none;stroke-dashoffset:0;stroke-opacity:1;paint-order:normal" />
    <g
       id="text1073-7"
       style="font-style:italic;font-variant:normal;font-weight:normal;font-stretch:normal;font-size:6.8321085px;line-height:1.25;font-family:'Brush Script MT';-inkscape-font-specification:'Brush Script MT, Italic';font-variant-ligatures:normal;font-variant-caps:normal;font-variant-numeric:normal;font-feature-settings:normal;text-align:start;writing-mode:lr-tb;text-anchor:start;display:inline;opacity:1;fill:none;fill-opacity:1;stroke:#000000;stroke-width:0.11671648;stroke-linecap:round;stroke-linejoin:round;stroke-miterlimit:4;stroke-dasharray:none;stroke-dashoffset:0;stroke-opacity:1;paint-order:markers stroke fill"
       transform="matrix(-0.13284579,-0.6767385,1.0549338,-0.15169883,12.682785,204.10954)"
       aria-label="Aloisius">
      <path
         id="path1840"
         style="font-style:italic;font-variant:normal;font-weight:normal;font-stretch:normal;font-size:6.8321085px;font-family:'Brush Script MT';-inkscape-font-specification:'Brush Script MT, Italic';font-variant-ligatures:normal;font-variant-caps:normal;font-variant-numeric:normal;font-feature-settings:normal;text-align:start;writing-mode:lr-tb;text-anchor:start;fill:none;fill-opacity:1;stroke:#000000;stroke-width:0.11671648;stroke-miterlimit:4;stroke-dasharray:none;stroke-opacity:1"
         d="m 138.65803,101.82531 q 0.0115,-0.40038 0.0231,-0.58683 0.0178,-0.28634 0.0626,-0.79161 -0.10991,-0.11379 -0.2602,-0.2769 -0.14696,-0.16289 -0.27497,-0.307896 -0.12469,-0.144797 -0.21504,-0.250691 -0.0872,-0.102357 -0.14654,-0.169555 -0.3366,-0.391952 -0.43943,-0.511993 -0.10304,-0.116711 -0.18194,-0.245291 -0.0822,-0.128786 -0.0758,-0.232002 0.007,-0.116535 0.1138,-0.109906 0.11653,0.0072 0.34923,0.18885 0.2327,0.1816 0.40611,0.402962 0.1734,0.221362 0.16512,0.354544 -0.002,0.03663 -0.0397,0.101145 l 0.63654,0.674663 q 0.0241,-0.118825 0.0394,-0.311732 0.0187,-0.192699 0.0461,-0.25784 0.0274,-0.06514 0.11735,-0.05955 0.14317,0.0089 0.43043,0.334284 0.15945,0.177042 0.19695,0.326446 0.0375,0.1494 0.0151,0.56247 -0.0182,-0.24513 -0.0584,-0.35125 -0.0371,-0.10258 -0.12635,-0.11816 -0.006,0.0966 -0.011,0.17647 -0.005,0.0832 -0.0132,0.21309 -0.005,0.13339 -0.006,0.19686 0.49876,0.57919 0.86389,1.04979 0.36846,0.47081 0.69073,0.98555 0.3254,0.51826 0.58693,1.09606 -0.15001,0.10097 -0.3065,0.0912 -0.12985,-0.008 -0.29427,-0.10522 -0.16463,-0.0938 -0.61691,-0.39936 -0.44915,-0.30202 -0.95761,-0.61777 -0.006,0.0932 -0.0129,0.15296 -0.004,0.0633 -0.0116,0.13297 -0.0118,0.18979 -0.0209,0.22933 -0.009,0.0429 -0.0693,0.0391 -0.0266,-0.002 -0.0932,-0.0593 -0.0635,-0.0541 -0.21522,-0.19389 -0.14841,-0.13958 -0.3039,-0.27293 l -0.01,-0.49193 q -0.70827,-0.43513 -0.80149,-0.44093 -0.13652,-0.008 -0.14542,0.13468 -0.004,0.0699 0.25695,0.59757 l -0.17481,-0.0376 q -0.18944,-0.28586 -0.29978,-0.44648 -0.10721,-0.15708 -0.18008,-0.27526 -0.0697,-0.11463 -0.10056,-0.21014 -0.0344,-0.0924 -0.0286,-0.18561 0.007,-0.10988 0.11669,-0.21 0.10651,-0.10033 0.29297,-0.0887 0.0766,0.005 0.2129,0.0701 0.13964,0.0655 0.26556,0.13685 0.12571,0.0747 0.60212,0.36836 z m 0.79496,-0.58226 -0.0471,1.08001 q 0.31116,0.20988 0.50368,0.33885 0.19232,0.13229 0.41669,0.28663 0.22749,0.15788 0.38442,0.26792 0.15673,0.11336 0.35549,0.2494 -0.13491,-0.24905 -0.3025,-0.51016 -0.16759,-0.26111 -0.40782,-0.59025 -0.2369,-0.32892 -0.44486,-0.58586 -0.20463,-0.25673 -0.45796,-0.53654 z" />
      <path
         id="path1842"
         style="font-style:italic;font-variant:normal;font-weight:normal;font-stretch:normal;font-size:6.8321085px;font-family:'Brush Script MT';-inkscape-font-specification:'Brush Script MT, Italic';font-variant-ligatures:normal;font-variant-caps:normal;font-variant-numeric:normal;font-feature-settings:normal;text-align:start;writing-mode:lr-tb;text-anchor:start;fill:none;fill-opacity:1;stroke:#000000;stroke-width:0.11671648;stroke-miterlimit:4;stroke-dasharray:none;stroke-opacity:1"
         d="m 137.97712,104.88697 -0.2442,-0.0362 q -0.81188,-0.82515 -0.74782,-1.25745 0.0347,-0.23429 0.30887,-0.33194 0.27696,-0.0939 0.69275,-0.0322 0.3366,0.0499 0.77512,0.27674 0.44182,0.22735 0.87789,0.56177 0.43888,0.33821 0.74992,0.67433 0.31385,0.33991 0.41956,0.60513 0.0447,0.10781 0.0364,0.1639 -0.0103,0.0693 -0.0764,0.0831 -0.0628,0.0143 -0.21132,-0.008 -0.4587,-0.068 -1.07332,-0.54014 -0.61133,-0.47168 -1.20884,-1.24146 -0.16671,-0.0584 -0.25911,-0.0721 -0.21119,-0.0313 -0.35639,0.0382 -0.14569,0.0728 -0.16966,0.23454 -0.0122,0.0825 0.0363,0.18748 0.0518,0.10548 0.13187,0.22526 0.08,0.11978 0.31837,0.46874 z m 0.74021,-0.89866 q 0.14287,0.19654 0.33389,0.38672 0.19053,0.19349 0.4137,0.37157 0.22317,0.17809 0.40613,0.28614 0.18247,0.11135 0.28147,0.12602 0.0759,0.0113 0.0837,-0.0416 0.003,-0.0198 -0.0251,-0.0813 -0.13517,-0.22575 -0.57979,-0.54794 -0.44133,-0.32171 -0.91407,-0.49968 z" />
      <path
         id="path1844"
         style="font-style:italic;font-variant:normal;font-weight:normal;font-stretch:normal;font-size:6.8321085px;font-family:'Brush Script MT';-inkscape-font-specification:'Brush Script MT, Italic';font-variant-ligatures:normal;font-variant-caps:normal;font-variant-numeric:normal;font-feature-settings:normal;text-align:start;writing-mode:lr-tb;text-anchor:start;fill:none;fill-opacity:1;stroke:#000000;stroke-width:0.11671648;stroke-miterlimit:4;stroke-dasharray:none;stroke-opacity:1"
         d="m 137.52,107.00845 -0.21903,-0.0445 q -0.1523,-0.25563 -0.19111,-0.39969 -0.0388,-0.14405 0.0241,-0.38658 -0.41708,-0.5273 -0.35131,-0.85095 0.0372,-0.18307 0.18873,-0.30887 0.15152,-0.1258 0.37934,-0.17482 0.22717,-0.0457 0.48543,0.007 0.20923,0.0425 0.43632,0.23164 0.22643,0.19239 0.40095,0.45594 0.17713,0.26748 0.26001,0.54645 0.0861,0.27963 0.0423,0.49539 -0.0312,0.15365 -0.0982,0.23195 -0.0637,0.079 -0.14871,0.0617 -0.0654,-0.0133 -0.1351,-0.10576 -0.0514,0.11892 -0.12281,0.15206 -0.0682,0.0338 -0.22834,0.001 -0.15692,-0.0319 -0.38029,-0.15558 -0.22403,-0.12042 -0.40735,-0.29044 l -0.0708,0.0469 -0.01,0.049 q -0.0113,0.0556 0.004,0.11319 0.0181,0.0616 0.0389,0.11004 0.024,0.0491 0.1027,0.21491 z m 0.99665,-0.49872 q -0.10831,-0.30456 -0.20315,-0.52468 -0.0916,-0.21946 -0.20164,-0.3814 -0.10679,-0.16127 -0.2348,-0.23494 -0.34954,-0.15614 -0.37896,-0.16212 -0.21576,-0.0439 -0.27688,0.25692 -0.0286,0.14057 0.14625,0.51992 0.16494,-0.0243 0.30551,0.004 0.20596,0.0418 0.40118,0.17003 0.1985,0.12885 0.44249,0.35205 z" />
      <path
         id="path1846"
         style="font-style:italic;font-variant:normal;font-weight:normal;font-stretch:normal;font-size:6.8321085px;font-family:'Brush Script MT';-inkscape-font-specification:'Brush Script MT, Italic';font-variant-ligatures:normal;font-variant-caps:normal;font-variant-numeric:normal;font-feature-settings:normal;text-align:start;writing-mode:lr-tb;text-anchor:start;fill:none;fill-opacity:1;stroke:#000000;stroke-width:0.11671648;stroke-miterlimit:4;stroke-dasharray:none;stroke-opacity:1"
         d="m 138.59268,108.74806 q 0.0209,-0.0807 0.10155,-0.13909 0.0798,-0.0551 0.17342,-0.0309 0.14208,0.0368 0.28129,0.21768 0.13921,0.18084 0.10154,0.32615 -0.0251,0.0969 -0.10323,0.14556 -0.0749,0.0495 -0.18789,0.0202 -0.13885,-0.036 -0.27244,-0.21194 -0.13359,-0.17594 -0.0942,-0.32771 z m -1.50039,-0.15469 -0.23573,-0.0611 q -0.32243,-0.4179 -0.45877,-0.74274 -0.1331,-0.32401 -0.0837,-0.51453 0.0687,-0.26479 0.37986,-0.32195 0.31121,-0.0572 0.64058,0.0282 0.12594,0.0327 0.23227,0.0878 0.10955,0.056 0.17461,0.11075 0.0651,0.0548 0.19817,0.19269 0.59476,0.64359 0.49596,1.02464 -0.0511,0.19698 -0.20285,0.15762 -0.10334,-0.0268 -0.28943,-0.2129 -0.18693,-0.18287 -0.25462,-0.30726 -0.19841,-0.35127 -0.28236,-0.46609 -0.0848,-0.11159 -0.22042,-0.14676 -0.11625,-0.0301 -0.21636,0.0369 -0.10011,0.0671 -0.13612,0.20595 -0.0394,0.15177 0.0236,0.36107 0.0653,0.21337 0.23536,0.56764 z" />
      <path
         id="path1848"
         style="font-style:italic;font-variant:normal;font-weight:normal;font-stretch:normal;font-size:6.8321085px;font-family:'Brush Script MT';-inkscape-font-specification:'Brush Script MT, Italic';font-variant-ligatures:normal;font-variant-caps:normal;font-variant-numeric:normal;font-feature-settings:normal;text-align:start;writing-mode:lr-tb;text-anchor:start;fill:none;fill-opacity:1;stroke:#000000;stroke-width:0.11671648;stroke-miterlimit:4;stroke-dasharray:none;stroke-opacity:1"
         d="m 137.00463,108.57528 0.0763,0.0242 q 0.60533,1.0944 0.85434,1.51264 0.36904,0.19381 0.28447,0.46096 -0.0211,0.0668 -0.0835,0.13104 l -0.0665,-4e-5 q -0.0341,-0.0248 -0.1041,-0.047 -0.0604,-0.0191 -0.23991,-0.0269 -0.17731,-0.004 -0.29668,-0.0134 -0.11936,-0.01 -0.2593,-0.0541 -0.20991,-0.0665 -0.37372,-0.22328 -0.16062,-0.15582 -0.28134,-0.39348 -0.11753,-0.23666 -0.21139,-0.5813 -0.0553,0.10846 -0.0765,0.17525 -0.0413,0.1304 -0.025,0.30001 0.0185,0.17381 0.0773,0.36388 0.061,0.19426 0.16945,0.45954 l -0.21309,-0.0674 q -0.26868,-0.53295 -0.37373,-0.91961 -0.10186,-0.38566 -0.0284,-0.61784 0.0946,-0.29896 0.42961,-0.47285 0.19998,-0.10115 0.35201,-0.095 0.15101,0.009 0.38954,0.0848 z m 0.11108,1.34035 0.48246,0.0897 q -0.16021,-0.26766 -0.58874,-1.11364 -0.10175,0.17774 -0.19387,0.22556 -0.0921,0.0478 -0.33276,0.11161 0.0206,0.24446 0.13701,0.40728 0.11859,0.16701 0.38575,0.25158 0.0318,0.0101 0.0582,0.0149 0.0255,0.008 0.0519,0.0129 z" />
      <path
         id="path1850"
         style="font-style:italic;font-variant:normal;font-weight:normal;font-stretch:normal;font-size:6.8321085px;font-family:'Brush Script MT';-inkscape-font-specification:'Brush Script MT, Italic';font-variant-ligatures:normal;font-variant-caps:normal;font-variant-numeric:normal;font-feature-settings:normal;text-align:start;writing-mode:lr-tb;text-anchor:start;fill:none;fill-opacity:1;stroke:#000000;stroke-width:0.11671648;stroke-miterlimit:4;stroke-dasharray:none;stroke-opacity:1"
         d="m 137.33288,112.50523 q 0.0293,-0.0781 0.1156,-0.12765 0.0851,-0.0464 0.17571,-0.0125 0.13742,0.0516 0.25685,0.24604 0.11943,0.19447 0.0667,0.33502 -0.0352,0.0937 -0.11795,0.13389 -0.0797,0.0414 -0.18897,3.5e-4 -0.13431,-0.0504 -0.24866,-0.2394 -0.11436,-0.18901 -0.0593,-0.3358 z m -1.47582,-0.31154 -0.228,-0.0856 q -0.27673,-0.44947 -0.37816,-0.78684 -0.0983,-0.3362 -0.0292,-0.52048 0.0961,-0.25611 0.4116,-0.28024 0.31548,-0.0241 0.63406,0.0954 0.12181,0.0457 0.22175,0.11172 0.10306,0.0672 0.16201,0.12849 0.0589,0.0613 0.17682,0.21245 0.52381,0.70254 0.38551,1.07109 -0.0715,0.19052 -0.2183,0.13543 -0.0999,-0.0375 -0.26544,-0.24214 -0.16668,-0.20151 -0.22092,-0.33232 -0.16038,-0.37018 -0.23181,-0.49319 -0.0726,-0.11989 -0.20377,-0.16911 -0.11244,-0.0422 -0.21905,0.014 -0.1066,0.0562 -0.157,0.1905 -0.0551,0.1468 -0.0145,0.36155 0.0425,0.21905 0.17439,0.58923 z" />
      <path
         id="path1852"
         style="font-style:italic;font-variant:normal;font-weight:normal;font-stretch:normal;font-size:6.8321085px;font-family:'Brush Script MT';-inkscape-font-specification:'Brush Script MT, Italic';font-variant-ligatures:normal;font-variant-caps:normal;font-variant-numeric:normal;font-feature-settings:normal;text-align:start;writing-mode:lr-tb;text-anchor:start;fill:none;fill-opacity:1;stroke:#000000;stroke-width:0.11671648;stroke-miterlimit:4;stroke-dasharray:none;stroke-opacity:1"
         d="m 135.42657,113.75292 q -0.38923,-0.70196 -0.53337,-1.04331 -0.1455,-0.3383 -0.0805,-0.48466 0.0514,-0.11587 0.18925,-0.17149 0.14087,-0.0543 0.32684,-0.0374 0.18766,0.0212 0.37366,0.10378 0.12197,0.0541 0.21007,0.11878 0.0868,0.0677 0.1742,0.18315 0.0905,0.11681 0.18171,0.28138 0.0898,0.16761 0.196,0.39721 0.0661,0.13884 0.11224,0.2323 0.0448,0.0965 0.0434,0.16527 3.8e-4,0.0732 -0.0592,0.20733 -0.0433,0.0976 -0.10999,0.17382 -0.0636,0.0776 -0.0911,0.0654 -0.0549,-0.0244 -0.1576,-0.17943 -0.10407,-0.15203 -0.2221,-0.4453 -0.11634,-0.28886 -0.19816,-0.63905 -0.15419,-0.13778 -0.24872,-0.17973 -0.13111,-0.0582 -0.17577,0.0424 -0.0162,0.0366 0.007,0.14903 0.0261,0.1138 0.11368,0.39353 0.0892,0.28414 0.15473,0.50664 0.0509,0.16493 0.18618,0.4111 0.13698,0.25058 0.19735,0.39416 0.1377,0.3312 0.1713,0.44465 0.0366,0.1148 0.003,0.19103 -0.0325,0.0732 -0.089,0.0773 -0.0579,0.007 -0.19818,-0.0551 -0.064,-0.0284 -0.0983,-0.0582 -0.0342,-0.0298 -0.0807,-0.0979 -0.0448,-0.0636 -0.16103,-0.25395 -0.11628,-0.19029 -0.27461,-0.45034 -0.0841,-0.13951 -0.20202,-0.2685 -0.11489,-0.12763 -0.18808,-0.16011 -0.15855,-0.0704 -0.21404,0.0546 -0.046,0.10367 -0.0215,0.27878 0.0245,0.1751 0.12122,0.55746 l -0.20429,-0.0907 q -0.17099,-0.50291 -0.24462,-0.73997 -0.0736,-0.23706 -0.0944,-0.39591 -0.0207,-0.15885 0.0293,-0.27167 0.11367,-0.25613 0.41859,-0.12081 0.11587,0.0514 0.27719,0.21426 0.16437,0.16419 0.46059,0.50004 z" />
      <path
         id="path1854"
         style="font-style:italic;font-variant:normal;font-weight:normal;font-stretch:normal;font-size:6.8321085px;font-family:'Brush Script MT';-inkscape-font-specification:'Brush Script MT, Italic';font-variant-ligatures:normal;font-variant-caps:normal;font-variant-numeric:normal;font-feature-settings:normal;text-align:start;writing-mode:lr-tb;text-anchor:start;fill:none;fill-opacity:1;stroke:#000000;stroke-width:0.11671648;stroke-miterlimit:4;stroke-dasharray:none;stroke-opacity:1"
         d="m 134.67255,114.62996 0.0709,0.0372 q 0.40341,1.1838 0.57498,1.63932 0.32921,0.25569 0.19897,0.50381 -0.0326,0.062 -0.10522,0.11431 l -0.0654,-0.0117 q -0.0292,-0.0304 -0.0942,-0.0645 -0.0561,-0.0295 -0.23143,-0.0687 -0.1739,-0.0348 -0.28968,-0.0654 -0.11579,-0.0306 -0.24576,-0.0988 -0.19495,-0.10233 -0.32861,-0.28553 -0.13072,-0.18164 -0.20775,-0.43683 -0.0741,-0.25364 -0.10587,-0.60941 -0.0735,0.097 -0.10609,0.15906 -0.0636,0.12111 -0.0774,0.29095 -0.0124,0.17434 0.0121,0.37179 0.0259,0.20196 0.086,0.48218 l -0.1979,-0.10388 q -0.17077,-0.57189 -0.20617,-0.971 -0.0324,-0.39757 0.0807,-0.61319 0.14574,-0.27766 0.50608,-0.38993 0.21466,-0.0644 0.36323,-0.0316 0.14702,0.0357 0.36856,0.15201 z m -0.12639,1.33899 0.45916,0.1732 q -0.11064,-0.29167 -0.3837,-1.19983 -0.13143,0.15707 -0.23052,0.18794 -0.0991,0.0309 -0.3472,0.0513 -0.0227,0.24427 0.0632,0.42503 0.0874,0.18526 0.33549,0.3155 0.0295,0.0155 0.0547,0.025 0.0236,0.0124 0.0488,0.0219 z" />
    </g>
    <path
       inkscape:connector-curvature="0"
       id="path1021-7"
       d="m 109.5194,104.75259 a 1.1683276,0.77153709 0 0 1 -1.16833,0.77154 1.1683276,0.77153709 0 0 1 -1.16833,-0.77154 1.1683276,0.77153709 0 0 1 1.16833,-0.77154 1.1683276,0.77153709 0 0 1 1.16833,0.77154 z"
       style="display:inline;opacity:1;vector-effect:none;fill:none;fill-opacity:1;fill-rule:nonzero;stroke:#000000;stroke-width:0.1;stroke-linecap:round;stroke-linejoin:round;stroke-miterlimit:4;stroke-dasharray:none;stroke-dashoffset:0;stroke-opacity:1;paint-order:normal" />
    <path
       sodipodi:nodetypes="cssc"
       inkscape:connector-curvature="0"
       id="path1099-6"
       d="m 114.73614,140.46485 c -0.54319,-0.15539 -1.76364,-3.263 -2.55343,-1.69293 -0.23653,0.47033 -0.23877,1.94982 -1.61541,0.25482 -0.38489,-0.4739 -1.31122,1.6252 -1.20009,2.58018"
       style="display:inline;opacity:1;vector-effect:none;fill:none;fill-opacity:1;fill-rule:nonzero;stroke:#000000;stroke-width:0.1;stroke-linecap:round;stroke-linejoin:round;stroke-miterlimit:4;stroke-dasharray:none;stroke-dashoffset:0;stroke-opacity:1;paint-order:normal" />
  </g>
</svg>
