<?xml version="1.0" encoding="UTF-8" standalone="no"?>
<!-- Created with Inkscape (http://www.inkscape.org/) -->

<svg
   xmlns:dc="http://purl.org/dc/elements/1.1/"
   xmlns:cc="http://creativecommons.org/ns#"
   xmlns:rdf="http://www.w3.org/1999/02/22-rdf-syntax-ns#"
   xmlns:svg="http://www.w3.org/2000/svg"
   xmlns="http://www.w3.org/2000/svg"
   xmlns:sodipodi="http://sodipodi.sourceforge.net/DTD/sodipodi-0.dtd"
   xmlns:inkscape="http://www.inkscape.org/namespaces/inkscape"
   version="1.1"
   id="svg815"
   width="190.56"
   height="321.12"
   viewBox="0 0 190.56 321.12"
   sodipodi:docname="GoasV1.svg"
   inkscape:version="0.92.2 (5c3e80d, 2017-08-06)">
  <metadata
     id="metadata821">
    <rdf:RDF>
      <cc:Work
         rdf:about="">
        <dc:format>image/svg+xml</dc:format>
        <dc:type
           rdf:resource="http://purl.org/dc/dcmitype/StillImage" />
        <dc:title></dc:title>
      </cc:Work>
    </rdf:RDF>
  </metadata>
  <defs
     id="defs819" />
  <sodipodi:namedview
     pagecolor="#ffffff"
     bordercolor="#666666"
     borderopacity="1"
     objecttolerance="10"
     gridtolerance="10"
     guidetolerance="10"
     inkscape:pageopacity="0"
     inkscape:pageshadow="2"
     inkscape:window-width="1920"
     inkscape:window-height="1017"
     id="namedview817"
     showgrid="false"
     showborder="false"
     inkscape:zoom="1.1808561"
     inkscape:cx="-263.20656"
     inkscape:cy="-7.1892535"
     inkscape:window-x="-8"
     inkscape:window-y="-8"
     inkscape:window-maximized="1"
     inkscape:current-layer="svg815" />
  <path
     style="fill:#000000;stroke-width:0.47999999"
     d="m -334.14921,336.13989 c -1.23685,-3.17089 -1.50112,-4.11773 -1.7933,-6.42518 -0.12918,-1.02015 -0.63629,-2.17882 -1.1269,-2.57482 -1.22826,-0.99137 -1.5587,-6.36728 -0.95263,-15.49821 0.5856,-8.82262 0.15401,-12.09129 -2.75003,-20.82718 l -2.1202,-6.37801 0.30015,-6.6083 c 0.22605,-4.97699 0.11532,-7.64496 -0.44859,-10.80775 -1.03543,-5.80748 -1.87726,-7.01886 -1.60096,-2.30379 0.17512,2.98868 0.058,3.78181 -0.71244,4.82387 -0.64607,0.87386 -1.05704,2.60475 -1.37312,5.78324 -0.42668,4.29073 -0.5335,4.60105 -1.97436,5.73613 -0.83781,0.66 -2.40818,1.97916 -3.48972,2.93146 -2.06713,1.82011 -3.16644,1.94558 -3.16644,0.36141 0,-0.9167 -0.0453,-0.9204 -1.40852,-0.11511 -1.12691,0.66568 -1.55008,0.71455 -2.11654,0.24444 -0.61322,-0.50893 -0.68313,-0.21501 -0.52211,2.1951 0.10225,1.53048 0.28213,4.5107 0.39974,6.6227 0.19759,3.54835 1.22946,7.70342 2.71074,10.91547 0.55219,1.19737 0.49219,1.42155 -0.66833,2.49708 -0.70124,0.64989 -1.27686,1.35393 -1.27915,1.56453 -0.0211,1.93516 -1.4889,12.30917 -1.83507,12.96958 -0.24601,0.46934 -0.90145,2.66315 -1.45655,4.87515 -0.55508,2.21199 -1.25309,4.31561 -1.55112,4.67471 -0.62874,0.75759 -1.39309,0.44244 -1.39309,-0.57438 0,-0.38567 -0.54,-1.55663 -1.2,-2.60214 -0.66,-1.0455 -1.2,-2.44521 -1.2,-3.11046 0,-1.92611 -0.66631,-1.44101 -2.92639,2.13051 -1.16249,1.83703 -2.38361,3.34903 -2.71361,3.36 -0.70435,0.0234 -0.76048,-3.47433 -0.14937,-9.30692 0.25409,-2.4251 0.21971,-4.3208 -0.0947,-5.22277 -0.36779,-1.05504 -0.27881,-2.59265 0.34913,-6.03313 1.24839,-6.83988 0.86177,-23.59985 -0.67121,-29.09723 -0.7325,-2.62679 -1.18764,-6.03894 -1.4406,-10.8 -0.35762,-6.73119 -0.45758,-7.22036 -3.04047,-14.88 -1.46888,-4.356 -3.12636,-10.188 -3.6833,-12.96 -0.55694,-2.772 -1.24394,-5.44794 -1.52666,-5.94654 -0.28273,-0.4986 -0.70494,-2.25451 -0.93826,-3.90202 -0.59062,-4.17053 -1.1733,-5.51144 -2.39494,-5.51144 -0.96677,0 -1.00117,-0.16823 -0.73627,-3.6 0.25994,-3.36754 0.21618,-3.6 -0.67772,-3.6 -1.0002,0 -1.32284,-1.33743 -0.52686,-2.184 0.4641,-0.49361 1.49125,-4.95666 1.49125,-6.47962 0,-0.60689 -0.32784,-0.93638 -0.93167,-0.93638 -1.36467,0 -1.43816,-0.44965 -0.52506,-3.2127 l 0.82376,-2.4927 -1.36352,0.2727 c -1.73989,0.34798 -1.73311,-0.16218 0.0443,-3.33457 3.33798,-5.95767 5.03684,-12.71313 5.76207,-22.91273 0.56485,-7.94401 1.29187,-11.0799 2.7161,-11.71546 1.23759,-0.55228 2.81301,-4.65251 1.98439,-5.16463 -0.42176,-0.26067 -0.33201,-1.03889 0.35188,-3.05086 0.72528,-2.13373 0.78994,-2.78011 0.30793,-3.07801 -0.48118,-0.29739 -0.39878,-1.06146 0.38982,-3.61463 1.1921,-3.85957 1.17327,-3.61641 0.27997,-3.61641 -0.90378,0 -0.89884,-0.29072 0.0704,-4.14949 0.65118,-2.59235 0.67803,-3.21626 0.15236,-3.54114 -0.5254,-0.32471 -0.49545,-0.98533 0.16956,-3.74055 0.4442,-1.8404 0.80764,-3.47578 0.80764,-3.63419 0,-0.15841 -1.89623,-0.26166 -4.21384,-0.22944 -3.6371,0.0505 -4.54044,-0.10847 -6.6,-1.16184 -4.20777,-2.15208 -6.24904,-4.85894 -8.89902,-11.80072 -0.64193,-1.68155 -1.96406,-3.96784 -2.93808,-5.08064 -2.39084,-2.7315 -2.74701,-4.29394 -1.32409,-5.80857 1.29699,-1.38059 4.41974,-1.5949 7.48436,-0.51364 1.02852,0.36289 3.05368,0.81665 4.50035,1.00837 4.13982,0.54863 8.77017,1.69101 9.95032,2.45491 2.32376,1.50414 0.90787,0.14877 -2.22492,-2.12984 -3.4022,-2.47454 -8.31846,-5.15738 -10.85508,-5.92368 -2.49332,-0.75322 -8.67062,-1.76266 -12.81244,-2.0937 -3.05262,-0.24399 -4.66282,-0.12883 -6.86756,0.49114 -5.06607,1.42457 -5.04,1.42263 -5.04,0.37466 0,-0.88074 2.77051,-3.693046 6.10321,-6.195298 2.52066,-1.892557 5.73623,-3.476967 10.27906,-5.064805 4.41992,-1.544881 4.62872,-1.57033 12.06959,-1.471098 8.41646,0.112243 10.89885,0.749287 15.62992,4.011037 3.83629,2.644853 7.9324,8.665044 9.78251,14.377684 1.17987,3.64311 1.1619,3.63314 4.36031,2.41711 1.03742,-0.39443 1.17503,-0.80047 1.44126,-4.25296 0.69193,-8.972709 6.96742,-16.190094 16.17414,-18.601735 3.83765,-1.005248 11.11947,-1.048059 15.12,-0.08889 3.2299,0.7744 6.75488,2.819443 8.56236,4.967509 4.01424,4.770653 6.09686,13.619806 3.20538,13.619806 -0.51368,0 -1.14701,-0.39808 -1.4074,-0.88462 -0.5897,-1.10186 -4.88332,-4.37191 -7.73699,-5.892538 -1.80685,-0.962811 -2.7839,-1.133867 -6.22335,-1.089546 -6.74846,0.08696 -10.92383,2.205184 -13.37507,6.785384 -0.88578,1.6551 -0.63097,1.82142 0.77507,0.50592 3.11115,-2.91083 4.67442,-3.1947 14.1096,-2.56214 6.3747,0.42738 8.06917,0.88184 9.72259,2.60764 1.19826,1.25071 1.30894,1.62753 1.00553,3.4234 -0.41156,2.43602 -2.48835,4.882 -6.36252,7.4936 -1.51177,1.0191 -3.01442,2.10174 -3.33921,2.40588 -0.32479,0.30415 -1.3425,1.01774 -2.26159,1.58576 -1.4863,0.91859 -1.62038,1.16605 -1.21273,2.23826 0.67763,1.7823 0.56308,3.13457 -0.43067,5.08373 l -0.889,1.74372 1.25159,0.92534 c 0.68838,0.50894 3.32017,2.84794 5.84843,5.19778 8.67565,8.06341 9.28107,8.37124 11.98642,6.09484 2.92548,-2.46163 3.88699,-6.79498 3.32503,-14.98532 -0.27631,-4.02701 -0.67086,-5.90783 -1.90764,-9.0937 -1.65792,-4.27072 -1.56545,-4.83932 0.78969,-4.85604 1.25659,-0.009 4.75616,3.74663 6.42813,6.89832 1.35405,2.55241 1.7017,2.738 1.67527,0.89433 -0.0273,-1.90307 1.72478,-2.05972 2.9819,-0.26662 0.87864,1.25325 2.0822,4.53427 2.69707,7.35243 0.21639,0.99182 0.54338,1.20478 1.84259,1.2 l 1.57952,-0.006 0.14357,3.31176 c 0.079,1.82147 -0.0569,4.25147 -0.30181,5.4 -0.38916,1.82461 -0.34163,2.08824 0.37643,2.08824 0.452,0 0.94722,0.12541 1.1005,0.2787 0.35453,0.35453 -1.45387,6.93664 -2.12945,7.75067 -0.37472,0.4515 -0.30384,0.61063 0.27199,0.61063 1.97966,0 0.28568,5.43795 -2.50191,8.03153 -1.15275,1.07251 -3.72263,2.44507 -5.95022,3.17798 -0.77738,0.25577 -0.76939,0.41686 0.12407,2.5012 0.52522,1.22531 1.69305,3.55566 2.59517,5.17857 0.90212,1.62289 1.91944,4.31975 2.26071,5.99301 0.55098,2.70147 0.53457,3.09037 -0.14645,3.47149 -0.68829,0.38518 -0.62211,1.00013 0.64523,5.99618 1.33331,5.25604 1.36821,5.63407 0.62496,6.76841 -0.64991,0.9919 -0.72288,1.84331 -0.41837,4.88154 0.71665,7.1503 0.0343,11.44353 -1.74498,10.97825 -0.73524,-0.19227 -1.01738,0.0426 -1.23282,1.02626 -0.56357,2.57313 -3.25987,10.27055 -3.78485,10.80498 -0.29747,0.30283 -1.24314,2.05707 -2.1015,3.89832 -0.85835,1.84124 -2.10681,4.06377 -2.77434,4.93895 -1.49245,1.95671 -2.17106,6.0477 -2.16981,13.08063 0.002,11.01904 0.99261,15.65349 5.41094,25.31325 0.8339,1.82317 1.45795,4.12879 1.5904,5.87587 0.11988,1.58143 0.68871,4.16642 1.26408,5.74442 0.57537,1.578 0.94304,3.40832 0.81706,4.06738 -0.12599,0.65906 0.01,1.29678 0.30116,1.41714 0.29163,0.12037 0.16986,0.23591 -0.27061,0.25675 -0.44047,0.0208 -1.26808,0.79389 -1.83915,1.71789 -0.57107,0.924 -1.3228,1.68 -1.67052,1.68 -0.34773,0 -1.70995,-1.05527 -3.02717,-2.34505 -1.31721,-1.28978 -3.22909,-2.61309 -4.24862,-2.94069 -1.01953,-0.32759 -2.20551,-0.90211 -2.63552,-1.27669 -0.92593,-0.8066 -1.89417,-5.30237 -1.77838,-8.25744 0.063,-1.60798 -0.14845,-2.27566 -0.91118,-2.87703 -0.88226,-0.69561 -1.00101,-1.34616 -1.06298,-5.8231 -0.0602,-4.35062 -0.23311,-5.3549 -1.26396,-7.34225 -0.73046,-1.40825 -1.37991,-3.78339 -1.67245,-6.11644 -0.48695,-3.88353 -2.11249,-9.93781 -2.88612,-10.74931 -0.9402,-0.98621 -0.91715,0.29637 0.0808,4.49521 0.89734,3.77566 0.95736,4.58905 0.42048,5.69855 -0.34445,0.71183 -0.70912,1.83424 -0.81038,2.49424 -0.10126,0.66 -1.1707,5.088 -2.37653,9.84 -2.33372,9.19681 -2.49866,11.06937 -2.07173,23.52 0.0958,2.79415 -0.0738,5.63192 -0.40581,6.79078 -0.64804,2.26178 -0.20835,6.40106 1.37623,12.95596 0.52096,2.15501 1.08245,6.26159 1.24775,9.12573 0.21332,3.69597 0.68061,6.39181 1.60988,9.28753 1.09657,3.41703 1.27739,4.70398 1.11279,7.92 -0.23363,4.56505 -0.83171,7.09435 -1.88402,7.9677 -0.66436,0.55137 -0.96632,0.42043 -2.19073,-0.94991 -0.78108,-0.87419 -1.47527,-1.51481 -1.54262,-1.42361 -0.0674,0.0912 -0.60959,0.97582 -1.20497,1.96582 -0.83849,1.39425 -1.38571,1.8 -2.42761,1.8 -1.17784,0 -1.46733,-0.31335 -2.32806,-2.52 z m 4.32303,-1.32 c 0.82056,-1.32 1.75903,-2.4 2.08548,-2.4 0.32646,0 0.95231,0.756 1.39078,1.68 0.43847,0.924 0.97789,1.68 1.19871,1.68 0.57839,0 0.97935,-1.80998 0.98691,-4.45506 0.008,-2.8315 -0.5926,-3.14995 -4.27388,-2.26583 -1.47376,0.35395 -3.48957,0.65043 -4.47957,0.65883 -0.99,0.008 -1.8,0.15558 -1.8,0.32705 0,1.30914 2.46502,7.16146 3.01982,7.16951 0.20891,0.003 1.0512,-1.0745 1.87175,-2.3945 z m -3.69423,-7.20294 c -0.4793,-0.52962 -0.97556,-0.85884 -1.1028,-0.7316 -0.32253,0.32253 0.87467,1.69454 1.47863,1.69454 0.27259,0 0.10347,-0.43332 -0.37583,-0.96294 z m -27.74063,-8.5596 c 0.27865,-2.03297 0.25723,-2.07675 -0.7179,-1.46777 -0.86157,0.53806 -1.14604,0.50016 -1.99196,-0.26539 -0.93116,-0.84268 -1.03785,-0.84694 -1.89041,-0.0754 -0.56353,0.51 -1.3312,0.71787 -2.04,0.5524 -2.09131,-0.48822 -3.14026,0.98816 -3.48042,4.89868 -0.1665,1.914 -0.19656,3.48 -0.0668,3.48 0.12975,0 1.12865,-1.41353 2.21976,-3.14119 1.09112,-1.72766 2.22285,-3.06153 2.51496,-2.96416 0.29211,0.0974 0.77553,1.34891 1.07426,2.78119 0.29873,1.43229 0.84097,3.23318 1.20498,4.00199 l 0.66183,1.39782 1.11224,-3.55136 c 0.61173,-1.95325 1.24149,-4.49433 1.39946,-5.64683 z m 34.58281,8.28184 c 1.38575,0.0224 2.51975,-0.10009 2.52,-0.27216 2.6e-4,-0.17208 -0.70152,-0.7615 -1.55952,-1.30984 -1.35494,-0.86593 -1.63005,-0.90367 -2.09292,-0.28714 -0.2931,0.39041 -0.9875,0.70984 -1.54311,0.70984 -0.5556,0 -1.23974,0.42892 -1.5203,0.95315 -0.45843,0.85659 -0.39936,0.91325 0.58311,0.5593 0.60127,-0.21662 2.227,-0.37553 3.61274,-0.35315 z m -4.67952,-2.62813 c 0,-0.71793 3.32385,-2.00999 4.5619,-1.77332 0.65895,0.12596 1.19645,0.20498 1.19443,0.17559 -0.002,-0.0294 -0.43236,-1.45744 -0.95633,-3.17344 -0.52397,-1.716 -0.95809,-4.308 -0.96471,-5.76 -0.0133,-2.90796 -0.92409,-8.67091 -2.32915,-14.73711 -0.50155,-2.16541 -0.79814,-4.05089 -0.65907,-4.18995 0.13906,-0.13907 0.30758,-6.25137 0.3745,-13.58289 0.12136,-13.29651 0.12547,-13.34393 1.63638,-18.85005 0.8331,-3.036 1.83466,-6.708 2.22571,-8.16 1.27319,-4.72754 1.64792,-10.74981 0.8911,-14.32063 -0.37295,-1.75965 -0.68184,-4.22537 -0.68643,-5.47937 -0.007,-1.96277 0.12523,-2.28 0.95167,-2.28 0.71072,0 0.96,0.32 0.96,1.23235 0,1.05185 0.15818,1.18595 1.08,0.91557 2.63486,-0.77284 5.29354,-2.38698 7.653,-4.64633 1.40085,-1.3414 3.25797,-2.73866 4.12694,-3.10502 1.7938,-0.75628 3.67166,-3.4498 5.64941,-8.10328 0.72307,-1.70131 1.47385,-3.09329 1.66841,-3.09329 0.30397,0 2.00658,-4.96598 4.03197,-11.76 0.35879,-1.20354 0.9847,-2.09911 1.67735,-2.4 1.09833,-0.47711 1.10318,-0.51972 0.80628,-7.08224 -0.2116,-4.67723 -0.13497,-6.86441 0.26283,-7.50139 0.44597,-0.71411 0.32955,-1.82492 -0.56573,-5.39775 -0.61999,-2.47424 -1.4203,-5.09896 -1.77847,-5.83271 -0.70428,-1.4428 -0.48039,-2.26591 0.61634,-2.26591 1.20621,0 0.76336,-1.60479 -1.93009,-6.99411 -2.9742,-5.95105 -4.64257,-11.37355 -3.76836,-12.24776 0.68304,-0.68305 1.58771,-0.16759 1.59747,0.9102 0.004,0.44642 0.18601,1.09335 0.40437,1.43763 0.678,1.06895 4.64666,-0.22488 6.14894,-2.00463 l 1.26726,-1.50133 -1.83644,-0.24 c -2.29632,-0.3001 -2.57322,-1.03858 -0.8868,-2.36512 1.57931,-1.24228 2.3921,-2.35912 3.30239,-4.53776 l 0.68614,-1.64218 -1.80652,0.24231 c -1.26427,0.16957 -1.98822,0.0234 -2.41188,-0.48711 -0.50309,-0.60619 -0.44294,-0.78095 0.35609,-1.03455 1.31272,-0.41665 2.85083,-3.04144 3.35095,-5.71842 0.42859,-2.29414 0.1419,-2.75481 -0.91893,-1.47658 -0.33805,0.40732 -0.92092,0.67732 -1.29525,0.6 -0.51721,-0.10684 -0.71521,-1.23542 -0.82469,-4.70059 -0.0792,-2.508 -0.34411,-5.06364 -0.58861,-5.6792 l -0.44456,-1.11919 -0.58018,1.27337 c -0.92686,2.03422 -2.04539,1.29752 -4.00549,-2.63814 -0.98525,-1.97826 -2.2273,-4.13684 -2.7601,-4.79684 l -0.96874,-1.2 0.75599,2.4 c 0.52522,1.66738 0.77625,4.52458 0.82235,9.36 0.0603,6.32765 -0.0339,7.17751 -1.03709,9.35402 -1.26004,2.73377 -2.63685,4.35561 -4.53655,5.34391 -1.60332,0.83412 -1.69375,2.10818 -0.34744,4.89473 1.57006,3.24964 1.65875,4.58643 0.46755,7.04711 -0.58841,1.2155 -1.58515,2.54765 -2.21497,2.96032 -0.91555,0.59989 -1.14514,1.16778 -1.14514,2.83253 0,2.42718 -0.63768,4.08904 -2.50193,6.52027 -0.7997,1.0429 -1.22487,2.06359 -1.04973,2.52 0.42309,1.10256 1.0909,0.94564 1.70422,-0.40044 1.00768,-2.21164 3.7886,-2.62991 8.75498,-1.31684 1.02715,0.27157 2.18072,0.80694 2.56349,1.18971 0.60794,0.60794 0.54123,0.94107 -0.52753,2.63409 -1.66313,2.63458 -2.99476,3.46059 -5.57888,3.46059 -1.55628,0 -2.70606,-0.35626 -4.01053,-1.24267 -1.00581,-0.68347 -1.87462,-1.16947 -1.93068,-1.08 -0.0561,0.0895 -0.31373,0.80858 -0.57259,1.59801 -0.25886,0.78943 -0.81241,1.50115 -1.2301,1.58159 -0.60164,0.11586 -0.82423,-0.47355 -1.0712,-2.83645 -0.17147,-1.64049 -0.38423,-3.05519 -0.4728,-3.14376 -0.0886,-0.0886 -0.85681,0.0815 -1.70719,0.37794 -0.85037,0.29644 -2.36869,0.40745 -3.37403,0.2467 l -1.82791,-0.2923 -0.85634,3.47547 c -0.47099,1.91151 -0.9857,5.94218 -1.1438,8.95704 -0.15809,3.01486 -0.50345,5.54883 -0.76745,5.63104 -0.264,0.0822 -0.966,-0.54546 -1.56,-1.39482 -1.24622,-1.78195 -1.21121,-1.91376 -1.08421,4.08221 0.0698,3.29713 -0.4334,4.0504 -1.79577,2.68802 -0.41597,-0.41597 -0.48818,0.51667 -0.29302,3.78511 0.27381,4.58584 -0.19142,5.8428 -1.42947,3.86217 -1.21912,-1.95035 -3.67597,-9.83035 -3.73273,-11.97222 l -0.0552,-2.08308 -0.33899,1.68 c -0.18644,0.924 -0.68371,2.328 -1.10503,3.12 -1.32564,2.49193 -5.307,6.43692 -7.89416,7.82205 l -2.48859,1.33236 1.38496,0.93083 c 1.02094,0.68616 1.89334,2.19562 3.31912,5.74279 3.00989,7.48827 3.87109,10.39882 3.35964,11.35447 -0.2456,0.45892 -0.44655,1.69339 -0.44655,2.74328 0,1.5423 -0.28361,2.14753 -1.47683,3.15156 -2.24732,1.89099 -4.83585,1.43438 -6.34423,-1.1191 -0.86928,-1.47158 -0.86362,-1.47175 -9.47603,0.29132 -6.42585,1.31546 -6.36681,1.39939 -8.15251,-11.58806 -0.60136,-4.3737 -0.39365,-5.64368 1.24077,-7.58608 1.52411,-1.8113 1.54619,-3.95737 0.0492,-4.78009 -3.21609,-1.76747 -10.14598,-8.72343 -13.04569,-13.09475 -0.6091,-0.91823 -0.64959,-0.89763 -0.94308,0.48 -0.71628,3.36219 -2.35177,8.27433 -3.24776,9.75456 -0.71614,1.18309 -0.82583,1.73485 -0.42468,2.136 0.69691,0.69692 0.6897,2.65863 -0.0172,4.68652 -0.50237,1.44112 -0.45446,1.66972 0.48,2.29018 1.24451,0.82632 1.27836,1.57831 0.25455,5.65414 -0.7273,2.89541 -0.72657,3.16092 0.0101,3.69963 0.6811,0.49804 0.72416,0.94695 0.30353,3.16489 -0.69584,3.66915 -0.6324,4.3735 0.39388,4.3735 0.97014,0 1.77126,2.06655 2.3019,5.93795 0.22824,1.6652 0.51184,2.22205 1.13166,2.22205 0.69498,0 0.86857,0.63257 1.08675,3.96 0.24912,3.79947 2.35586,12.24377 4.70034,18.84 1.19536,3.36318 2.26585,7.40781 2.63963,9.97334 0.39244,2.69353 1.1757,1.66564 1.1757,-1.54289 0,-3.66345 1.01725,-4.73503 2.27227,-2.39363 0.46625,0.86985 1.44131,2.14507 2.1668,2.83381 2.68386,2.54793 4.43376,12.29571 2.57584,14.34869 -0.47049,0.51989 -0.77491,1.70107 -0.77491,3.00674 0,2.23572 -0.93768,4.14105 -1.78134,3.61964 -0.26784,-0.16553 -0.76353,-1.28871 -1.10154,-2.49596 -0.33801,-1.20724 -1.00218,-2.68776 -1.47593,-3.29005 -0.47376,-0.60228 -1.28932,-2.8061 -1.81238,-4.89737 -0.90517,-3.6191 -0.95287,-3.69808 -0.9899,-1.63915 -0.0214,1.18974 0.18442,2.91774 0.45738,3.84 2.52834,8.54244 3.10731,26.48169 1.11133,34.43431 -0.26348,1.04979 -0.1803,1.1901 0.54137,0.91316 0.46898,-0.17996 1.15599,-0.0755 1.5267,0.23219 0.54456,0.45194 0.78357,0.26915 1.2444,-0.95172 0.67491,-1.78805 0.76821,-1.80424 2.95667,-0.51301 1.75626,1.03621 2.68324,0.91448 2.68324,-0.35236 0,-0.88089 1.31917,-3.35966 2.55461,-4.80021 0.80825,-0.94243 0.82213,-1.1346 0.15599,-2.16 -1.75144,-2.69602 -2.71423,-8.6128 -3.19404,-19.62888 -0.25813,-5.92715 -0.78911,-12.39665 -1.17992,-14.37665 -2.17781,-11.03358 -2.85286,-16.71242 -2.82439,-23.76 0.0297,-7.34623 0.49495,-9.84 1.8359,-9.84 0.52341,0 0.73188,0.50374 0.73188,1.76846 0,1.83296 1.47878,5.42782 2.62365,6.37797 0.51182,0.42477 0.7242,0.32802 0.96833,-0.44116 0.40902,-1.28869 1.44593,-1.25318 2.3808,0.0815 0.62677,0.89483 0.74722,0.93109 0.74722,0.22493 0,-1.22072 1.27789,-1.52242 2.26546,-0.53485 0.8135,0.8135 0.8627,0.77274 1.14206,-0.94598 0.49576,-3.04995 2.83248,-4.2846 2.83248,-1.4966 0,0.62571 1.59375,4.33896 3.54167,8.25168 5.67875,11.40671 6.77498,15.89038 6.7857,27.75401 l 0.007,8.16 1.80223,5.05181 c 2.2564,6.32493 3.31244,13.60645 2.71806,18.74137 -0.48194,4.16357 -0.57285,13.15812 -0.14897,14.74028 0.19546,0.72958 0.55268,1.01276 1.07344,0.85096 0.42928,-0.13338 1.08492,-0.0514 1.45698,0.18213 0.74125,0.4653 1.96352,0.16938 1.96352,-0.47538 z m -3.82233,-28.0047 c -0.24122,-0.63444 -0.67496,-2.52444 -0.96387,-4.2 -0.95892,-5.56125 -1.00194,-5.68647 -1.95344,-5.68647 -1.94622,0 -2.39601,-8.0895 -0.65131,-11.71374 0.36903,-0.76656 0.67095,-2.09345 0.67095,-2.94865 0,-1.65266 0.91158,-2.37001 2.40811,-1.89503 1.55187,0.49254 5.58046,11.03019 5.03639,13.17373 -0.65869,2.5951 -1.27943,6.61416 -1.41225,9.14369 -0.24179,4.60486 -2.04845,6.98322 -3.13458,4.12647 z m 1.6302,-4.41339 c -0.18352,-1.22382 -0.11258,-2.37388 0.16763,-2.71744 0.50305,-0.61678 1.07072,-4.62109 1.07111,-7.55564 2.6e-4,-1.91064 -2.18932,-8.05038 -3.45968,-9.70118 l -0.84558,-1.09882 -0.0107,1.57689 c -0.006,0.86729 -0.31219,2.05529 -0.6807,2.64 -0.77449,1.22887 -1.47035,7.05261 -1.01436,8.48931 0.16999,0.53559 0.62954,0.9738 1.02122,0.9738 0.99,0 1.97061,2.58924 2.37109,6.26063 0.37812,3.46647 0.55038,3.9636 1.22827,3.54464 0.27261,-0.16848 0.33629,-1.18115 0.15168,-2.41219 z m -35.8754,23.76246 c 0.37491,-0.37492 0.79853,-0.3778 1.4856,-0.0101 0.73658,0.39421 1.09877,0.34852 1.5503,-0.19554 0.75264,-0.90687 2.10759,-0.91052 2.85687,-0.008 0.51009,0.61462 0.72702,0.60773 1.73878,-0.0552 1.2707,-0.8326 1.57678,-1.73837 0.44003,-1.30215 -0.39378,0.1511 -1.51711,-0.19796 -2.4963,-0.77569 l -1.78035,-1.05044 -0.90373,1.24063 c -0.91686,1.25864 -2.43893,1.64205 -2.98851,0.7528 -0.44079,-0.71322 -1.19516,-0.0845 -1.19516,0.99614 0,1.03985 0.50175,1.19792 1.29247,0.40721 z m 11.74937,-41.23554 c 0.54341,-2.772 0.96896,-5.67269 0.94567,-6.44597 -0.0233,-0.77328 0.14639,-1.63728 0.37708,-1.92 0.89014,-1.09088 2.67425,-9.9941 3.13422,-15.64059 0.23011,-2.82491 0.15533,-3.18862 -0.77516,-3.76972 -0.88417,-0.55217 -1.09077,-0.53427 -1.4606,0.12656 -0.58457,1.04458 -1.49542,0.96734 -2.5679,-0.21774 l -0.89364,-0.98746 -0.36529,0.98746 c -0.55411,1.4979 -1.46941,1.19701 -3.20178,-1.05254 l -1.57099,-2.04 0.30831,5.04 c 0.2647,4.32691 1.1377,10.559 3.09298,22.08 0.24642,1.452 0.60455,4.908 0.79582,7.68 0.38884,5.63509 0.2896,5.8098 2.18128,-3.84 z m 9.08759,3.90448 c 0.15918,-0.43147 0.42836,-2.32545 0.59818,-4.20887 l 0.30876,-3.42439 -1.31819,-0.25868 c -0.725,-0.14228 -1.52338,-0.0593 -1.77418,0.18439 -0.2508,0.24369 -0.8178,0.44307 -1.26,0.44307 -0.97689,0 -1.27408,1.30746 -1.71141,7.52894 l -0.32428,4.61329 2.59585,-2.04664 c 1.42771,-1.12565 2.72608,-2.39965 2.88527,-2.83111 z m -7.03054,2.66413 c 0.43931,-1.51702 1.34433,-9.00539 1.11596,-9.23376 -0.70187,-0.70187 -1.73097,1.53196 -2.26083,4.90751 -0.3244,2.0667 -0.71002,4.2669 -0.85693,4.88932 -0.24492,1.03768 -0.17971,1.08491 0.78502,0.5686 0.57866,-0.30969 1.12621,-0.81894 1.21678,-1.13167 z m 53.7666,-0.44682 0.94549,-1.73342 -1.06549,-3.30824 c -0.58602,-1.81953 -1.06549,-3.67091 -1.06549,-4.11418 0,-0.80068 -0.54241,-1.06353 -1.08173,-0.52421 -0.15496,0.15495 0.003,1.28895 0.35026,2.52 0.88704,3.14147 1.33026,7.75826 0.74481,7.75826 -0.26128,0 -0.57705,-0.486 -0.70173,-1.08 -0.12467,-0.594 -0.59203,-2.862 -1.03857,-5.04 l -0.81191,-3.96 h -2.75179 c -1.86046,0 -2.94534,-0.23321 -3.34934,-0.72 -1.15063,-1.38642 -1.92225,-0.84565 -1.88348,1.32 0.0668,3.73255 0.86131,5.01698 4.0467,6.54208 1.58223,0.75754 3.51448,2.05591 4.29389,2.88527 0.77941,0.82935 1.64341,1.4359 1.92,1.34788 0.27659,-0.088 0.92836,-0.94006 1.44838,-1.89344 z m -63.70727,-2.85505 c 1.57677,-1.89989 0.10184,-10.11721 -2.2239,-12.39011 -0.68988,-0.6742 -1.51926,-1.65124 -1.84307,-2.17122 -0.51312,-0.82397 -0.59026,-0.63714 -0.60057,1.45459 -0.006,1.32 -0.14612,3.23508 -0.31027,4.25573 -0.32603,2.02718 0.60671,5.59903 2.52547,9.67116 0.62377,1.32379 1.16115,2.72779 1.1942,3.12 0.033,0.39221 0.20708,-0.18619 0.38675,-1.28535 0.17967,-1.09915 0.5718,-2.29381 0.87139,-2.6548 z m 12.00829,-7.53074 c 2.52614,-1.28505 3.44623,-1.56984 4.25629,-1.31746 0.49346,0.15375 1.18531,0.0985 1.53745,-0.12269 0.92518,-0.58127 -0.60854,-1.10233 -2.12463,-0.72182 -0.64245,0.16125 -1.46301,0.0484 -1.82347,-0.25075 -1.08801,-0.90296 -3.17215,0.16457 -3.17215,1.62484 0,1.33816 0.11293,1.40524 1.32651,0.78788 z m 49.51349,-1.30997 c 0.51064,-0.47495 -0.60749,-0.77781 -2.93509,-0.79501 -1.3997,-0.0103 -2.76091,-0.17311 -3.02491,-0.36171 -0.54378,-0.38848 -3.83257,-0.54188 -3.45169,-0.161 0.13579,0.13579 0.96797,0.65785 1.84929,1.16012 1.28744,0.73372 2.16848,0.85724 4.4824,0.62842 1.584,-0.15664 2.97,-0.36851 3.08,-0.47082 z m -1.4,-3.08291 c 0,-0.27329 -0.30611,-0.97529 -0.68024,-1.56 -1.40833,-2.20101 -4.15624,-10.49947 -4.59462,-13.87537 -0.56828,-4.37623 -0.58456,-16.69696 -0.0259,-19.58775 0.22959,-1.188 0.32978,-2.2484 0.22265,-2.35645 -0.10714,-0.10804 -1.44803,0.99893 -2.97976,2.45995 -1.53172,1.46101 -3.71124,3.12895 -4.84336,3.70652 -1.49298,0.76166 -1.97772,1.26041 -1.76465,1.81566 0.88404,2.30377 2.61184,9.40128 2.89553,11.89432 0.18024,1.584 0.62126,3.3385 0.98005,3.89889 1.02392,1.59926 2.15029,6.54122 2.15029,9.43441 0,2.77241 0.25308,3.05875 3.12,3.53005 0.528,0.0868 1.824,0.35322 2.88,0.59204 2.66602,0.60293 2.64,0.60246 2.64,0.0477 z m -41.66609,-1.30093 c -0.11275,-0.5928 0.0485,-2.81166 0.35839,-4.93079 l 0.56338,-3.85297 -2.06784,-3.88913 -2.06784,-3.88913 -0.61124,3.77992 c -0.57438,3.55197 -1.87992,10.6719 -2.37894,12.97392 -0.2137,0.98578 -0.0695,1.03055 3.09247,0.96 3.1617,-0.0705 3.30703,-0.12435 3.11162,-1.15182 z m 1.15459,-40.70454 c 0.38007,-1.51431 0.069,-1.85619 -1.34615,-1.47954 -2.79274,0.74332 -3.08746,2.70189 -0.40656,2.70189 1.14905,0 1.50891,-0.25097 1.75271,-1.22235 z m -17.25904,-0.46556 c 0.15362,-0.40035 -0.17744,-2.61435 -0.7357,-4.92 -1.27642,-5.27162 -1.32407,-9.43838 -0.13028,-11.39209 1.10476,-1.80799 3.23566,-3.03285 3.98049,-2.28802 0.37943,0.37943 0.0981,0.90565 -1.01689,1.90187 -2.12258,1.89653 -2.30155,4.24597 -0.8338,10.94615 l 1.15665,5.28 2.11503,-0.13876 c 3.05837,-0.20065 6.96345,-0.98357 10.34164,-2.07338 l 2.94659,-0.95058 -0.6095,-2.01864 c -0.68129,-2.25642 -3.29208,-8.88779 -4.41456,-11.21288 -0.50358,-1.04313 -1.36295,-1.75558 -2.76216,-2.28994 -2.08245,-0.7953 -4.3336,-2.8808 -3.88796,-3.60186 0.3402,-0.55045 -0.66892,-3.44197 -1.56137,-4.47396 -0.39954,-0.462 -1.23793,-0.84 -1.8631,-0.84 -1.10945,0 -1.11737,0.0295 -0.33093,1.22972 1.26202,1.92608 1.132,5.16169 -0.26728,6.6514 -0.64002,0.68139 -1.54812,1.23888 -2.01801,1.23888 -1.29271,0 -4.26134,4.16216 -4.2431,5.94903 0.008,0.82003 0.32817,3.65097 0.71067,6.29097 0.38249,2.64 0.69964,5.05458 0.70478,5.36572 0.0113,0.6841 1.33739,2.07428 1.97868,2.07428 0.25343,0 0.58648,-0.32756 0.74011,-0.72791 z m 1.13054,-23.51209 c 0,-1.15684 -0.216,-2.23684 -0.48,-2.4 -0.29824,-0.18432 -0.48,0.72446 -0.48,2.4 0,1.67554 0.18176,2.58433 0.48,2.4 0.264,-0.16316 0.48,-1.24316 0.48,-2.4 z m 11.55319,0.46318 c 3.00201,-1.52123 5.73308,-3.96456 7.6263,-6.82279 1.22624,-1.85129 1.46021,-2.67298 1.45864,-5.12268 -0.002,-3.0204 -1.62614,-9.70884 -2.04898,-8.43771 -0.13173,0.396 -0.50102,1.692 -0.82064,2.88 -1.18625,4.40916 -3.31344,7.57401 -6.86662,10.21618 l -3.33397,2.47917 0.26008,2.51998 c 0.24743,2.39735 0.59381,3.50467 1.09628,3.50467 0.1252,0 1.30821,-0.54757 2.62891,-1.21682 z m -14.55963,-2.5836 c 0.0695,-2.5077 -0.0552,-2.92816 -1.06439,-3.58943 -2.44326,-1.60089 -9.78813,-14.03077 -12.52411,-21.19485 l -0.87706,-2.29652 -0.40568,1.40061 c -0.22313,0.77033 -0.52817,3.88461 -0.67786,6.92061 l -0.27218,5.52 1.85386,2.68579 c 3.65112,5.2896 8.7993,10.40608 12.85635,12.7772 0.54863,0.32065 1.00535,0.59065 1.01493,0.6 0.01,0.009 0.0528,-1.26118 0.0961,-2.82341 z m 29.70916,-9.02248 c 0.29849,-0.0984 0.72712,0.4245 0.95251,1.162 0.32026,1.04791 0.46388,0.4053 0.65729,-2.94098 0.26158,-4.52576 0.86724,-5.57776 1.79546,-3.11862 0.3383,0.89627 0.77569,1.35601 1.0996,1.15581 0.29583,-0.18282 0.43207,-0.60813 0.30275,-0.94511 -0.22326,-0.58181 0.73461,-8.84559 1.40147,-12.09091 0.27753,-1.35058 0.14833,-1.60559 -1.15485,-2.27949 -0.80703,-0.41734 -2.00004,-1.46101 -2.65114,-2.31929 -1.3947,-1.83849 -3.34908,-7.36431 -3.03263,-8.57444 0.143,-0.54684 -0.43646,-1.43379 -1.64625,-2.51985 -1.02681,-0.92178 -1.86693,-2.00303 -1.86693,-2.40277 0,-1.37952 1.04779,-1.3669 2.56148,0.0309 4.61175,4.25852 8.26536,5.90568 13.09954,5.90568 2.92959,0 3.70869,-0.16971 4.52455,-0.98557 0.82999,-0.82998 0.93438,-1.34149 0.66129,-3.24 -0.38315,-2.66363 -1.14573,-3.64965 -3.77702,-4.88379 -3.17777,-1.49044 -4.58984,-3.10541 -4.58984,-5.24937 0,-1.14996 4.34544,-3.86955 6.1944,-3.87677 1.12015,-0.004 1.12887,-0.0327 0.2941,-0.95511 -1.53537,-1.69657 -3.64574,-1.71294 -6.34953,-0.0493 -3.38698,2.08403 -4.58083,1.95349 -7.31742,-0.8001 -1.24626,-1.254 -2.99267,-3.36 -3.88091,-4.68 -0.88825,-1.32 -3.35326,-4.128 -5.47782,-6.24 -5.10914,-5.07895 -9.27956,-7.24222 -15.38282,-7.97931 -7.42534,-0.89675 -8.65011,-2.44859 -5.03116,-6.37469 l 1.92884,-2.09254 -1.4768,-4.00533 c -1.70781,-4.63181 -2.68783,-6.36232 -5.71095,-10.084348 -4.40034,-5.417649 -8.66225,-7.10161 -18.20573,-7.193442 -6.2325,-0.05997 -6.74996,0.01051 -10.8642,1.479873 -4.93169,1.761303 -9.40617,4.014815 -10.6076,5.342379 -0.80043,0.884467 -0.69224,0.907407 4.2797,0.907407 5.87021,0 12.91073,1.307551 17.3679,3.225531 3.8567,1.65959 10.09406,5.81792 12.56587,8.37743 1.10323,1.14237 2.89839,3.74065 3.98924,5.77395 1.64443,3.06513 1.89346,3.86492 1.45725,4.68 -0.77814,1.45396 -1.17746,1.24072 -2.87796,-1.53691 -2.91517,-4.76168 -6.90336,-6.98396 -14.01492,-7.80935 -1.65571,-0.19216 -4.19981,-0.74178 -5.65357,-1.22138 -1.45375,-0.4796 -2.71126,-0.80392 -2.79446,-0.72072 -0.38639,0.38639 4.3747,1.87127 8.04855,2.51017 4.82234,0.83864 7.5793,1.9698 10.36551,4.25289 2.62458,2.15064 4.99449,6.76662 4.99449,9.72797 v 2.14626 l -4.92,-0.24853 c -2.706,-0.13669 -5.85784,-0.59443 -7.0041,-1.01719 -3.39005,-1.25031 -6.79694,-3.72754 -7.98946,-5.80931 -1.18241,-2.06414 -4.56644,-10.35688 -4.56644,-11.19032 0,-0.64133 -0.96362,-0.96555 -2.04,-0.68638 -1.23754,0.32096 -1.04664,0.88793 1.0248,3.04368 1.02563,1.06738 2.19097,2.73304 2.58963,3.70145 3.75238,9.11515 4.61992,10.42084 8.22912,12.38522 2.1258,1.157 2.98012,1.31753 7.61668,1.4312 5.40142,0.1324 7.53977,0.8047 7.53977,2.37047 0,0.95508 -1.28528,1.41982 -2.08685,0.75458 -0.50206,-0.41667 -0.73639,-0.082 -1.12182,1.60237 -0.29571,1.29226 -0.31405,2.3022 -0.0466,2.5696 0.2674,0.2674 0.225,1.6292 -0.10786,3.46483 -0.45974,2.53528 -0.437,3.08661 0.14058,3.40985 0.57825,0.3236 0.59546,0.75422 0.10709,2.67911 -1.01273,3.99163 -1.19987,5.41353 -0.71249,5.41353 0.69078,0 0.5695,1.55984 -0.27922,3.59111 -0.42212,1.01028 -0.62341,2.35201 -0.46266,3.08392 0.18608,0.84719 -0.2847,2.92944 -1.36028,6.01652 -1.18236,3.39357 -1.54261,5.07345 -1.28127,5.97469 0.67012,2.31101 5.87442,12.74 7.93132,15.89376 1.11919,1.716 2.80285,3.84866 3.74146,4.73923 1.49257,1.41618 2.06937,1.6373 4.59974,1.76336 1.59125,0.0793 3.26211,0.35058 3.71302,0.60292 0.91873,0.51415 4.6333,-1.40807 7.0923,-3.67013 1.9151,-1.76172 4.3496,-7.29399 5.07581,-11.53447 0.47705,-2.78566 0.8018,-3.59028 1.52539,-3.77951 1.15923,-0.30314 0.99303,-0.89614 -1.91645,-6.83785 -2.49477,-5.0948 -3.66576,-6.16772 -8.14711,-7.46475 -11.97157,-3.46491 -17.26189,-10.24809 -16.79966,-21.54028 0.10223,-2.49749 0.36142,-3.86957 0.75561,-4 0.44555,-0.14742 0.6,0.76147 0.6,3.53081 0,7.23085 2.5892,13.39723 7.05386,16.79932 1.1954,0.91089 4.18904,2.25936 7.36594,3.31795 3.39147,1.13009 5.93328,2.29371 6.93872,3.17649 1.58165,1.38871 4.93357,7.40785 7.11535,12.77723 1.29344,3.18319 1.92384,5.81628 2.72926,11.39968 0.30466,2.112 0.91459,5.46 1.3554,7.44 l 0.80147,3.6 0.24,-4.042 c 0.14133,-2.38016 0.46313,-4.11555 0.78272,-4.2209 z m -4.4528,-22.26118 c -2.22446,-0.64446 -4.32806,-2.85223 -4.96245,-5.20817 -0.36248,-1.34616 -0.44197,-3.67474 -0.22831,-6.68839 0.30137,-4.25092 0.24135,-4.76972 -0.74529,-6.44195 -1.17853,-1.99746 -3.41177,-3.34387 -7.00936,-4.22592 -4.23385,-1.03805 -8.25103,-3.3222 -10.92799,-6.21364 -2.00721,-2.16803 -2.82314,-3.57909 -4.04543,-6.99607 -1.80894,-5.05702 -1.96653,-6.90178 -0.58959,-6.90178 0.70398,0 1.07605,0.51464 1.47484,2.04 2.41911,9.25292 6.28884,13.44455 14.51721,15.72474 4.3841,1.2149 7.05405,2.76831 8.24191,4.79526 0.82888,1.41439 1.02248,2.76813 1.22454,8.56243 0.23893,6.85191 0.24609,6.88766 1.61305,8.06261 0.75518,0.6491 2.01575,1.30872 2.80126,1.46583 1.60647,0.32129 2.31035,1.46771 1.29564,2.11023 -0.7696,0.4873 -0.67343,0.49038 -2.66003,-0.0852 z m -17.75974,-31.9225 c -1.96594,-0.96971 -3.2659,-2.44141 -3.94349,-4.46448 -0.64999,-1.94066 -0.18792,-2.72061 1.88097,-3.17502 0.77073,-0.16928 1.52455,-0.50716 1.67516,-0.75085 0.50557,-0.81803 5.17106,-0.492 6.75166,0.47182 1.76768,1.0779 3.67664,4.73333 3.45922,6.62399 -0.12018,1.04504 -0.46778,1.40319 -1.5937,1.64205 -2.70738,0.57435 -6.70291,0.40564 -8.22982,-0.34751 z m 4.53382,-1.72942 c 0.87624,-0.87624 0.73905,-4.53872 -0.18326,-4.89265 -1.62699,-0.62433 -4.52074,-0.16346 -4.52074,0.72 0,0.23576 0.30089,0.42865 0.66864,0.42865 0.36776,0 0.7987,0.33889 0.95764,0.75309 0.18688,0.48699 0.61477,0.6497 1.21096,0.46048 1.15499,-0.36658 1.75694,0.5177 0.98531,1.44745 -0.71149,0.8573 -2.44428,0.909 -3.31697,0.099 -0.51991,-0.48258 -0.57605,-0.47599 -0.28688,0.0336 0.74706,1.3166 3.5295,1.90616 4.4853,0.95036 z m 3.43899,-0.264 c -0.009,-0.198 -0.30413,-0.87809 -0.65505,-1.51132 l -0.63805,-1.15131 -0.22181,1.51131 c -0.17972,1.2245 -0.0554,1.51132 0.65505,1.51132 0.48228,0 0.86921,-0.162 0.85986,-0.36 z m 8.86272,49.11429 c -0.17655,-0.70345 -0.41357,-1.18642 -0.52671,-1.07328 -0.11315,0.11314 -0.0613,0.78126 0.11529,1.48471 0.17655,0.70344 0.41357,1.18642 0.52671,1.07328 0.11315,-0.11315 0.0613,-0.78127 -0.11529,-1.48471 z m 32.80639,-8.76275 1.28845,-1.28846 -1.43027,-0.60988 c -0.78666,-0.33545 -2.40228,-0.58333 -3.59028,-0.55086 -2.10324,0.0575 -2.11199,0.064 -0.3332,0.24893 1.93598,0.20123 2.87771,1.34999 1.72315,2.10196 -0.36848,0.23998 -1.15595,0.32206 -1.74995,0.1824 -0.594,-0.13965 -1.08,-0.13484 -1.08,0.0107 0,0.36593 1.97525,1.1263 3.02182,1.16325 0.474,0.0168 1.44162,-0.54938 2.15028,-1.25803 z m -14.4121,-3.81408 c 1.23459,-0.33085 1.36552,-1.0435 0.42743,-2.32642 -0.63055,-0.86233 -0.70468,-0.85533 -2.19698,0.20728 -1.16428,0.82904 -1.68033,0.9638 -2.09664,0.54749 -1.63082,-1.63082 3.32978,-4.33993 7.22619,-3.94641 0.85802,0.0867 0.74495,1.5006 -0.12,1.5006 -0.83508,0 -0.90126,0.42753 -0.2229,1.44 0.4117,0.61448 0.62167,0.55392 1.43265,-0.41317 0.52264,-0.62325 0.9532,-1.48725 0.9568,-1.92 0.004,-0.43275 0.11442,-1.21883 0.24625,-1.74683 0.47923,-1.91944 -0.34263,-2.21651 -3.15548,-1.1406 -3.36579,1.28742 -7.35231,1.04092 -10.89732,-0.6738 -2.31553,-1.12002 -2.52,-1.14778 -2.52,-0.34205 0,1.00607 1.57562,4.66586 2.49818,5.80269 1.065,1.31234 4.67273,3.02131 6.86182,3.25042 0.264,0.0277 0.966,-0.08 1.56,-0.2392 z m 8.94913,-13.29293 c 1.11815,-1.49933 1.33726,-5.23014 0.36431,-6.20309 -0.34049,-0.34049 -0.55344,-0.36347 -0.55344,-0.0597 0,0.27154 -0.64857,1.47287 -1.44127,2.66963 -1.14366,1.72661 -1.37813,2.49169 -1.13545,3.70506 0.37084,1.8542 1.3285,1.81547 2.76585,-0.11187 z m -2.55791,-4.68837 c 0.58112,-0.81611 1.16207,-2.41969 1.291,-3.56351 0.47083,-4.17728 -3.36917,-5.76367 -8.55324,-3.53354 -3.61947,1.55706 -2.9679,3.25483 2.25112,5.86568 1.35305,0.67687 2.58828,1.5647 2.74493,1.97295 0.42962,1.11955 1.09629,0.90139 2.26619,-0.74158 z m -12.54902,-11.18378 c 0.41679,-0.36718 1.55621,-1.08975 2.53205,-1.60569 l 1.77425,-0.93807 -3.6151,-3.55431 c -1.98831,-1.95487 -4.46073,-4.59971 -5.49425,-5.87742 -1.80211,-2.22786 -1.87915,-2.46688 -1.87915,-5.83027 0,-3.38919 -0.055,-3.55549 -1.63582,-4.94344 -5.46518,-4.7985 -8.49722,-6.00652 -15.16418,-6.04171 -5.89803,-0.0311 -6.82292,0.32953 -10.2553,3.99901 -2.86999,3.06826 -2.56021,3.63665 2.23531,4.10148 3.89293,0.37733 8.53653,1.7769 10.4748,3.15707 0.71136,0.50653 1.54943,0.92097 1.86236,0.92097 0.90992,0 9.23563,8.60412 11.37946,11.76 3.38223,4.97888 5.87706,6.53378 7.78557,4.85238 z m -46.5822,-13.55238 c 1.42993,-0.28599 2.12779,-1.14 0.93155,-1.14 -0.83348,0 -4.71155,-1.94484 -4.71155,-2.36282 0,-0.82709 0.68638,-0.91512 1.96796,-0.25238 2.19478,1.13496 1.25225,-0.37681 -1.03713,-1.66352 -1.04759,-0.58878 -1.78083,-1.27093 -1.62944,-1.51589 0.50067,-0.8101 1.55857,-0.46562 3.78184,1.23144 2.54286,1.94101 2.76292,1.64876 0.79945,-1.06174 -2.41359,-3.33187 -5.95106,-5.20923 -10.84268,-5.75429 -1.32,-0.14709 -3.36192,-0.55502 -4.5376,-0.90651 -1.17568,-0.3515 -2.22948,-0.54722 -2.34176,-0.43493 -0.11229,0.11229 0.4013,1.62875 1.1413,3.36991 3.16291,7.44204 9.98981,11.78838 16.47806,10.49073 z m 43.38,-2.28819 c 0.98388,-0.74686 1.05767,-1.32215 0.27055,-2.10926 -0.72378,-0.72378 -2.31055,0.57544 -2.31055,1.89184 0,1.03244 0.84738,1.12275 2.04,0.21742 z m 2.11096,-5.69889 c 3.62029,-2.0821 9.90471,-6.93913 10.75177,-8.30969 2.45119,-3.96611 0.19385,-5.317 -9.62273,-5.75867 l -6.96,-0.31315 -1.95688,1.43709 c -2.49336,1.83108 -5.27167,5.8852 -4.40753,6.43149 0.36881,0.23315 0.83775,0.0581 1.20301,-0.44895 1.43871,-1.99736 2.77453,-3.04117 5.60094,-4.37658 2.59586,-1.22649 3.27879,-1.36499 4.88891,-0.9915 1.02935,0.23877 3.06549,0.43929 4.52475,0.44559 2.87573,0.0124 4.7868,0.94843 4.7868,2.34451 0,1.16329 -2.38288,3.29232 -7.32,6.5402 -2.31,1.51964 -4.2,2.95282 -4.2,3.18486 0,0.60882 1.50966,0.50569 2.71096,-0.1852 z m -0.0607,-3.67881 c 6.38734,-4.51133 7.11813,-5.077 7.30756,-5.65641 0.2684,-0.82101 -1.32336,-1.10747 -6.83784,-1.23056 -4.59107,-0.10248 -4.89999,-0.0445 -7.09719,1.33286 -2.19992,1.37902 -4.03929,3.81538 -3.24917,4.30371 0.20669,0.12774 1.28542,-0.20723 2.3972,-0.74438 2.01916,-0.97556 3.81746,-1.07868 4.00817,-0.22984 0.0555,0.24721 -0.65501,0.66104 -1.57901,0.91961 -1.12115,0.31374 -1.40058,0.53518 -0.84,0.66571 0.96817,0.22542 1.12692,1.36877 0.24,1.72865 -0.45153,0.18321 -0.42183,0.36946 0.12,0.75265 1.23775,0.87535 2.08025,0.59473 5.53028,-1.842 z m -14.7079,-8.48607 c 0.75084,-2.76551 4.21664,-7.177576 6.53762,-8.32259 2.66901,-1.316703 7.62862,-2.409921 10.97137,-2.418357 3.22271,-0.0081 7.31655,1.688303 10.881,4.508957 1.16415,0.92122 2.16969,1.62189 2.23453,1.55705 0.3736,-0.3736 -1.46341,-4.95668 -2.71718,-6.77897 -2.76993,-4.025951 -6.08005,-5.745098 -12.49218,-6.487939 -6.97305,-0.807824 -14.22048,1.353782 -18.75271,5.593154 -3.4951,3.269256 -5.34302,7.121715 -5.61952,11.715305 l -0.21878,3.63466 4.01674,0.44534 c 4.49797,0.4987 3.99709,0.83332 5.15911,-3.44661 z"
     id="path1391"
     inkscape:connector-curvature="0"
     sodipodi:nodetypes="cccscccccccccsccccccccccscsccsccscssccssscssscccscccccscccssscccssccsssssssccccsssscssscsscsccccccsscscccccccccsccscsccscccsccccscccscccsscccccccsccsscccccccccccscccssscccsccsssscsccscscccsccccccscsccccccscccsccscssccccsccccccsccccccscscssccccccccsccsccccccscscsscsccsccsccccccccccsscccsccccsccsscccsccccsccscscccssccsccccccsccccscscccsssccsscsscccscccccccscsccsccsccccccsccccccccccccccsccccccccccccccccccsccsssccccsccscscssccscccsccsccsccccscccccccccsccccsssccssccscsccscccccccccscccccsccccscccscccccccsccscccscscscsccccccccscccccccccccccccscccccsccscscscsccccccssccssscsssccssccscsccccssccccscscccsscccccsccsccssssscsccsscccccccscccsccsccccccccscccscccsscccccccccccsccccsccccccccscccccsscscccccssccccsssccccccccccccscscscscscccsscccsssscccccsccczccccccsssscscsscccccccscccccsssscsc" />
</svg>
