<?xml version="1.0" encoding="UTF-8" standalone="no"?>
<!-- Created with Inkscape (http://www.inkscape.org/) -->

<svg
   xmlns:dc="http://purl.org/dc/elements/1.1/"
   xmlns:cc="http://creativecommons.org/ns#"
   xmlns:rdf="http://www.w3.org/1999/02/22-rdf-syntax-ns#"
   xmlns:svg="http://www.w3.org/2000/svg"
   xmlns="http://www.w3.org/2000/svg"
   xmlns:sodipodi="http://sodipodi.sourceforge.net/DTD/sodipodi-0.dtd"
   xmlns:inkscape="http://www.inkscape.org/namespaces/inkscape"
   width="210mm"
   height="297mm"
   viewBox="0 0 210 297"
   version="1.1"
   id="svg834"
   inkscape:version="0.92.2 (5c3e80d, 2017-08-06)"
   sodipodi:docname="ZiegeV1.svg">
  <defs
     id="defs828" />
  <sodipodi:namedview
     id="base"
     pagecolor="#ffffff"
     bordercolor="#666666"
     borderopacity="1.0"
     inkscape:pageopacity="0.0"
     inkscape:pageshadow="2"
     inkscape:zoom="1.6650888"
     inkscape:cx="321.42857"
     inkscape:cy="738.57143"
     inkscape:document-units="mm"
     inkscape:current-layer="layer1"
     showgrid="false"
     inkscape:window-width="1920"
     inkscape:window-height="1017"
     inkscape:window-x="-8"
     inkscape:window-y="-8"
     inkscape:window-maximized="1" />
  <metadata
     id="metadata831">
    <rdf:RDF>
      <cc:Work
         rdf:about="">
        <dc:format>image/svg+xml</dc:format>
        <dc:type
           rdf:resource="http://purl.org/dc/dcmitype/StillImage" />
        <dc:title></dc:title>
      </cc:Work>
    </rdf:RDF>
  </metadata>
  <g
     inkscape:label="Ebene 1"
     inkscape:groupmode="layer"
     id="layer1">
    <path
       style="fill:#000000;stroke-width:0.26458335"
       d="m 74.601797,132.38192 c -0.08349,-2.01069 -0.238951,-2.69436 -1.408742,-6.19534 -0.711068,-2.12811 -0.837886,-2.92728 -0.916734,-5.77706 -0.05033,-1.81901 -0.151482,-3.81629 -0.224782,-4.43841 -0.16142,-1.37002 -1.811708,-5.4624 -3.56075,-8.82996 -1.218488,-2.34603 -1.368298,-2.51934 -2.889131,-3.34221 -3.627257,-1.96258 -6.223256,-5.464047 -6.574543,-8.867697 l -0.155765,-1.50922 h -1.04167 c -0.809496,0 -1.222382,-0.18071 -1.852452,-0.81078 -0.798094,-0.79809 -0.808179,-0.84156 -0.64448,-2.77812 0.09907,-1.17202 0.06555,-1.96735 -0.08292,-1.96735 -0.285355,0 -0.451505,0.83194 -0.773645,3.87378 -0.329609,3.11237 -1.247503,4.89624 -3.58856,6.97414 l -0.745228,0.66146 0.14307,-1.65365 c 0.139273,-1.60977 0.126184,-1.65364 -0.4933,-1.65364 -0.729809,0 -0.777524,-0.188 -0.231079,-0.91047 0.639039,-0.84488 0.478008,-1.2062 -0.537581,-1.2062 -0.509323,0 -0.926041,-0.0632 -0.926041,-0.14037 0,-0.0772 0.411946,-0.50207 0.915435,-0.94414 0.50349,-0.44207 1.23048,-1.44769 1.615533,-2.23471 0.792594,-1.62001 0.688935,-2.36048 -0.5596,-3.99739 -1.189411,-1.5594 -1.410268,-2.41029 -1.25996,-4.85422 0.136694,-2.22256 0.125215,-2.27606 -0.977803,-4.55743 -0.975273,-2.01715 -1.176943,-2.27591 -1.598094,-2.05052 -0.642161,0.34368 -1.310512,0.32739 -1.310512,-0.0319 0,-0.15943 0.246233,-0.63568 0.547184,-1.05833 l 0.547183,-0.76845 -0.877913,2.1e-4 c -0.482851,1.1e-4 -1.632743,0.3573 -2.555314,0.79375 -1.999757,0.94604 -2.14791,0.95746 -2.932904,0.22613 -0.514655,-0.47947 -0.59027,-0.76281 -0.487897,-1.82822 0.310508,-3.23153 4.214273,-5.34771 7.52946,-4.08162 1.225043,0.46784 1.233439,0.46724 1.712097,-0.12388 1.398487,-1.72706 1.238745,-4.216464 -0.493226,-7.686374 -1.344824,-2.694283 -4.975631,-6.360136 -7.603686,-7.677078 -2.090477,-1.047557 -1.928463,-1.17931 1.225639,-0.996722 4.861067,0.281403 9.214674,3.913081 12.776877,10.65818 0.537965,1.01864 1.111202,1.85208 1.273861,1.85208 0.162659,0 0.777192,-0.84243 1.365629,-1.87207 3.549063,-6.210095 9.881562,-11.282366 14.138192,-11.324559 1.369573,-0.01358 2.938986,0.587633 2.938986,1.125863 0,0.09432 -0.823827,0.571978 -1.830728,1.061453 -3.688925,1.793261 -7.799748,5.370593 -10.037887,8.735203 -1.801893,2.7088 -2.010941,3.78791 -1.085296,5.602324 0.647991,1.27017 1.644315,1.92464 4.014053,2.63679 2.367666,0.71152 3.648191,1.88174 3.648191,3.33393 0,1.23588 -0.534466,2.088 -1.454464,2.31891 -0.785906,0.19725 -1.540918,-0.14187 -2.651133,-1.19075 -0.899266,-0.8496 -2.112111,-1.13971 -2.112111,-0.50522 0,0.2699 0.20767,0.36748 0.64907,0.305 0.582973,-0.0825 0.611188,-0.0462 0.277083,0.35633 -0.323374,0.38964 -0.312384,0.48158 0.0841,0.70346 0.679902,0.38049 0.278569,0.75044 -0.827429,0.76273 -0.909059,0.0101 -1.019417,0.10217 -1.596325,1.33184 l -0.619753,1.321 1.806714,2.01868 c 3.913773,4.37295 7.589367,6.43013 11.488831,6.43013 2.445348,0 4.394097,-0.66589 8.385498,-2.86532 1.861804,-1.02594 3.974817,-2.11812 4.695585,-2.42708 2.211602,-0.948 6.147671,-1.84422 8.888411,-2.02383 3.34828,-0.21942 3.53241,-0.38735 3.35775,-3.06225 -0.0827,-1.26651 -0.32723,-2.31793 -0.71512,-3.07476 -0.3242,-0.63257 -0.52959,-1.20998 -0.45643,-1.28314 0.23877,-0.23877 1.94495,0.45596 2.426449,0.98801 0.25843,0.28556 0.54449,0.5192 0.63569,0.5192 0.0912,0 0.32401,-0.53578 0.51736,-1.19062 0.19335,-0.65484 0.44113,-1.19063 0.55061,-1.19063 0.28161,0 1.8592,3.27235 1.8592,3.85648 0,0.37812 0.23089,0.2588 1.05348,-0.54444 0.57941,-0.56578 1.09548,-0.9769 1.14682,-0.91359 0.16341,0.2015 -0.58877,5.57337 -1.16459,8.31718 -1.27054,6.05422 -4.056,13.1097 -7.267609,18.408557 -0.49176,0.81137 -1.34459,2.41871 -1.89517,3.57187 l -1.00106,2.09665 -0.0339,5.68854 c -0.0421,7.06042 -0.18028,7.65943 -3.24537,14.06797 -1.654499,3.45926 -2.127058,4.92579 -2.138204,6.63568 l -0.0065,0.99219 H 86.62263 c -2.09531,0 -2.783202,-0.087 -2.890076,-0.36551 -0.263588,-0.6869 1.94e-4,-5.84828 0.433454,-8.48134 0.355433,-2.16007 0.378921,-2.95431 0.131638,-4.45164 -0.251947,-1.52561 -0.23264,-2.04555 0.118512,-3.19169 0.460553,-1.50322 1.136079,-4.85586 1.395416,-6.92545 0.09118,-0.7276 0.21382,-1.50151 0.272544,-1.71979 0.09027,-0.33552 -0.352906,-0.39706 -2.866512,-0.39809 -2.261991,-7.9e-4 -3.279312,-0.11898 -4.252513,-0.49348 -1.737339,-0.66855 -1.896009,-0.4543 -1.894766,2.55845 0.0011,2.58611 -0.05983,2.40743 1.856804,5.44719 1.204582,1.91044 1.353698,3.1234 0.698436,5.68127 -0.582157,2.27248 -0.551399,2.86272 0.248053,4.76019 0.461616,1.09563 0.529706,1.74478 0.464873,4.43177 l -0.07596,3.14812 h -2.793294 -2.793296 z m 13.712336,-0.42976 c 0,-1.17027 0.380603,-2.20113 2.454455,-6.64785 2.613163,-5.60308 2.615003,-5.61168 2.828333,-13.22916 0.10189,-3.63802 0.27365,-6.81325 0.38169,-7.05606 0.16597,-0.37301 -0.0332,-0.47017 -1.28411,-0.62646 -1.15396,-0.14418 -1.60067,-0.33769 -2.025095,-0.87727 -0.694978,-0.88352 -0.575058,-1.48822 0.885135,-4.463287 1.12797,-2.29819 1.15633,-2.32924 2.68117,-2.93574 0.84762,-0.33714 2.36938,-0.68242 3.38168,-0.76729 l 1.84055,-0.1543 0.650259,-1.28324 c 0.58682,-1.15803 0.60466,-1.28332 0.18279,-1.28422 -0.682939,-0.001 -2.100939,-0.93413 -2.491069,-1.63849 -0.18567,-0.33521 -0.40163,-1.20479 -0.47991,-1.93239 -0.13923,-1.29402 -0.16604,-1.3287 -1.22758,-1.5875 -2.11521,-0.51569 -2.89961,-1.77839 -2.6455,-4.25865 l 0.16895,-1.64909 -1.41601,0.32916 c -3.646301,0.84762 -5.98214,2.77673 -7.84523,6.4792 -0.702689,1.39643 -1.582537,2.8229 -1.955221,3.16994 -0.597239,0.55614 -0.827995,0.60815 -1.94551,0.43848 -1.696527,-0.25756 -2.432336,-0.26308 -3.416467,-0.0256 -0.760569,0.18353 -0.94982,0.0747 -2.40098,-1.381 -1.4565,-1.46103 -1.777328,-1.64467 -4.253056,-2.43445 -4.389006,-1.40013 -7.509886,-3.6422 -9.63508,-6.92193 l -0.844454,-1.30322 -0.87619,1.39734 c -0.481904,0.76853 -1.183859,2.01439 -1.559901,2.76856 -0.842068,1.68882 -1.332602,4.95542 -0.956641,6.37054 0.172898,0.65078 0.272244,0.78889 0.290229,0.40348 0.01504,-0.3223 0.262543,-0.71188 0.550008,-0.86572 0.445689,-0.23853 0.547306,-0.18154 0.689993,0.38697 0.09203,0.36668 0.100158,0.84174 0.01806,1.05569 -0.174495,0.45473 0.24188,0.80591 0.48641,0.41025 0.266804,-0.43169 1.153603,-0.30985 1.412878,0.19413 0.131012,0.25466 0.304523,1.38457 0.385581,2.5109 0.257908,3.58376 1.831335,6.112327 4.77512,7.673847 2.902656,1.5397 3.653546,2.5332 6.050444,8.00535 1.859252,4.2447 2.327602,5.93042 2.327602,8.3777 0,4.07626 1.658868,11.86292 2.527276,11.86292 0.627277,0 0.746003,-1.25382 0.243353,-2.56999 -0.336235,-0.88042 -0.444397,-1.78723 -0.385225,-3.22967 0.201242,-4.90582 0.184401,-5.05041 -0.873244,-7.4968 -1.687095,-3.90233 -1.877478,-6.69596 -0.675302,-9.90906 0.428244,-1.14459 0.626896,-1.39892 0.974963,-1.24825 2.536513,1.09802 7.719622,1.95583 9.640359,1.5955 l 0.903187,-0.16944 -0.125574,-1.95671 c -0.146343,-2.28035 0.139092,-5.44266 0.491265,-5.44266 0.133941,0 0.243526,0.52018 0.243526,1.15596 0,1.7135 0.687022,5.30449 1.474602,7.70758 0.964541,2.94304 0.92891,2.89949 2.303568,2.81496 1.014721,-0.0624 1.262011,0.0287 1.744771,0.64237 0.71156,0.9046 0.7652,3.39482 0.1164,5.40372 -0.55379,1.71471 -1.997026,4.12613 -2.416372,4.03739 -0.196403,-0.0416 -0.312947,0.30257 -0.313616,0.92604 -0.0013,1.32259 -0.717868,5.69462 -1.2002,7.32406 -0.447054,1.51025 -0.503003,2.79625 -0.121653,2.79625 0.145521,0 0.264583,-0.40175 0.264583,-0.89278 z m -9.78231,-26.35012 c -0.575316,-0.72639 -1.111933,-1.10186 -1.744327,-1.2205 -2.090957,-0.39227 -2.885112,-2.11997 -1.679168,-3.65308 0.898729,-1.142547 1.961164,-1.570247 3.02689,-1.218527 1.7434,0.575367 2.766142,2.484897 2.769105,5.170107 0.0024,2.22773 -1.022781,2.62616 -2.3725,0.922 z m 0.635285,25.23963 c 0.597509,-0.59751 0.513387,-1.95865 -0.245684,-3.97532 -0.767286,-2.03849 -0.820698,-3.03278 -0.249118,-4.63762 0.870543,-2.44427 0.448789,-4.50312 -1.463122,-7.14244 -0.975916,-1.34721 -1.132745,-2.34054 -0.813337,-5.15154 0.276992,-2.43771 0.18619,-2.74102 -0.823405,-2.75034 -0.346601,-0.003 -0.533752,0.52461 -0.8925,2.51706 -0.624227,3.46687 -0.366271,4.74881 1.595678,7.92993 0.572781,0.92871 0.653256,1.3664 0.657077,3.57362 0.0024,1.38341 0.116618,2.90674 0.253833,3.38518 0.137216,0.47844 0.328941,2.02546 0.426059,3.43784 0.128304,1.86593 0.290917,2.65835 0.594839,2.89867 0.517001,0.40881 0.460854,0.41378 0.95968,-0.085 z m 6.668115,-3.36454 c 0.410784,-4.95054 0.512204,-5.37952 1.432771,-6.06013 0.429856,-0.3178 0.781556,-0.81573 0.781556,-1.1065 0,-0.29078 0.243374,-1.39602 0.540832,-2.45609 l 0.540829,-1.92741 -0.782449,-2.3228 c -1.044599,-3.10102 -1.35087,-3.87288 -1.483937,-3.73981 -0.06137,0.0614 -0.30199,1.39388 -0.534705,2.96113 -0.232714,1.56725 -0.668213,3.64308 -0.967774,4.61295 -0.488365,1.58114 -0.509672,1.90925 -0.206145,3.17449 0.297344,1.23947 0.268621,1.83705 -0.236151,4.91328 -0.658368,4.01227 -0.703143,4.96772 -0.25386,5.41701 0.666504,0.6665 0.8782,0.0388 1.169033,-3.46612 z m 1.672693,0.25203 c 0.498906,-1.74458 0.619024,-2.67352 0.568441,-4.39599 -0.04992,-1.70001 -0.488939,-0.44911 -0.923938,2.6326 -0.625197,4.42918 -0.534916,4.877 0.355497,1.76339 z M 52.737944,94.387913 c 0.643073,-2.12694 1.072268,-5.41314 0.749181,-5.73623 -0.525895,-0.52589 -1.096977,0.0519 -1.658214,1.67763 -0.579576,1.67888 -0.765188,3.65309 -0.422136,4.48994 0.106235,0.25915 0.121704,0.85447 0.03438,1.32292 l -0.158776,0.85173 0.52177,-0.62161 c 0.286973,-0.34189 0.707182,-1.23486 0.933797,-1.98438 z m 0.766344,-7.02358 c 0.192125,-0.31086 -0.53449,-0.58243 -1.039679,-0.38857 -0.515112,0.19767 -0.244709,0.62543 0.395356,0.62543 0.273865,0 0.563811,-0.10659 0.644323,-0.23686 z m -1.052982,-1.81222 c 0.209589,-0.54617 -0.01445,-0.74279 -1.377279,-1.20874 -0.981346,-0.33551 -1.124479,-0.33566 -1.124479,-0.001 0,1.46465 2.027695,2.44527 2.501758,1.20988 z m 2.785819,-0.0635 c 0.288793,-0.28879 1.218989,-1.9259 2.067103,-3.63802 1.442195,-2.91141 1.526198,-3.18324 1.297554,-4.19883 -0.19919,-0.88476 -0.144337,-1.31225 0.296149,-2.30805 0.685748,-1.55024 1.840895,-2.29227 3.570574,-2.29361 1.405289,-10e-4 2.080786,0.26748 3.129052,1.24411 1.268799,1.18208 2.84634,0.32084 2.06986,-1.13003 -0.209908,-0.39222 -0.621128,-0.81139 -0.913824,-0.93149 -0.292692,-0.1201 -1.477076,-0.60119 -2.631961,-1.06909 -2.097565,-0.84983 -3.959053,-2.22423 -4.248758,-3.137 -0.144818,-0.45628 -0.216039,-0.45988 -1.268068,-0.064 -1.444741,0.54373 -1.891541,0.93654 -3.124347,2.74678 -1.273678,1.87025 -2.192155,2.60426 -3.258762,2.60426 -0.943033,0 -1.613427,-0.40092 -3.369282,-2.01493 -2.336082,-2.14738 -5.062682,-2.67528 -7.044359,-1.36386 -1.259351,0.8334 -2.213066,2.83033 -1.66635,3.48908 0.270617,0.32608 0.551003,0.26955 1.953057,-0.39373 1.249752,-0.59124 2.017053,-0.77452 3.243097,-0.77468 1.454249,-1.9e-4 1.708634,0.0876 2.691838,0.92921 1.628987,1.39435 2.038506,2.88276 1.816205,6.60106 l -0.175944,2.94292 1.264273,0.45315 c 1.591567,0.57046 2.710867,0.57225 3.897809,0.006 0.512433,-0.24436 1.018276,-0.35771 1.124097,-0.25189 0.253469,0.25347 -0.221846,0.98661 -0.864897,1.33405 -1.479161,0.79919 -1.676646,0.97272 -1.533005,1.34704 0.213888,0.55738 1.057461,0.4927 1.678889,-0.12873 z m 48.490545,-4.83273 c 0.50834,-1.20055 1.00841,-2.54 1.11126,-2.97656 l 0.18702,-0.79375 -0.66953,0.62878 c -0.86346,0.81091 -1.37962,0.59329 -1.59814,-0.67381 -0.0961,-0.55732 -0.2473,-1.37049 -0.33598,-1.80706 l -0.16124,-0.79375 -0.48032,1.12448 c -0.26853,0.62865 -0.66011,1.12448 -0.88805,1.12448 -0.22425,0 -0.40772,-0.0963 -0.40772,-0.21401 0,-0.11771 -0.17165,-0.44513 -0.38145,-0.72761 -0.341059,-0.45922 -0.352279,-0.39699 -0.105949,0.58786 0.185689,0.74243 0.190099,1.50182 0.0135,2.32975 l -0.261969,1.22829 1.293969,1.34958 c 0.71167,0.74226 1.29396,1.45005 1.29396,1.57286 0,0.1228 0.10493,0.22328 0.23318,0.22328 0.12826,0 0.6491,-0.98226 1.15744,-2.18281 z m -43.459372,-3.40583 c 0,-0.12771 -0.178593,-0.23219 -0.396875,-0.23219 -0.228118,0 -0.396875,0.23878 -0.396875,0.56156 0,0.46917 0.0653,0.50737 0.396875,0.23219 0.218282,-0.18116 0.396875,-0.43386 0.396875,-0.56156 z m -11.1125,-0.23219 c 0,-0.14552 -0.119063,-0.26459 -0.264583,-0.26459 -0.145521,0 -0.264584,0.11907 -0.264584,0.26459 0,0.14552 0.119063,0.26458 0.264584,0.26458 0.14552,0 0.264583,-0.11906 0.264583,-0.26458 z m 11.792938,-2.58276 c -0.08805,-0.088 -0.305939,-0.0142 -0.484198,0.16402 -0.255755,0.25575 -0.240875,0.37611 0.07055,0.57071 0.281153,0.17567 0.420415,0.12849 0.484198,-0.16402 0.04924,-0.22584 0.01749,-0.48266 -0.07055,-0.57071 z m -12.647322,0.41648 c -0.0576,-0.1728 -0.246198,-0.36135 -0.419103,-0.41898 -0.193345,-0.0644 -0.252476,0.0565 -0.153594,0.31419 0.184553,0.48094 0.731435,0.58101 0.572697,0.10479 z m 11.261693,-9.918604 c 0.116854,-0.72009 0.01022,-1.23495 -0.410977,-1.98438 -0.312825,-0.55659 -0.6468,-1.01199 -0.742166,-1.01199 -0.232208,0 -0.787499,1.24249 -0.787499,1.76207 0,0.40359 1.292115,2.14946 1.619027,2.18758 0.0901,0.0105 0.234827,-0.41847 0.321615,-0.95328 z m -6.707005,-2.73901 c -0.153636,-0.28707 -0.366574,-0.52194 -0.473194,-0.52194 -0.41688,0 -2.168777,1.36129 -2.168777,1.68523 0,0.66311 0.340706,0.66636 1.625172,0.0155 1.144507,-0.57997 1.263459,-0.71787 1.016799,-1.17875 z m 7.92208,-0.089 c 0.280529,-0.52417 0.260902,-0.77048 -0.121231,-1.52135 -0.609422,-1.1975 -0.576381,-1.17979 -1.18078,-0.63281 -0.66063,0.59786 -0.661207,0.84265 -0.0045,1.91969 0.624436,1.02415 0.861172,1.06664 1.306533,0.23447 z m -9.897866,-0.60599 c 0.579484,-0.38623 1.100339,-0.74054 1.157456,-0.78735 0.145553,-0.11929 -0.521195,-0.89165 -0.769723,-0.89165 -0.394639,0 -1.847668,1.53998 -1.847668,1.95824 0,0.58066 0.238138,0.53511 1.459935,-0.27924 z m 11.491295,-1.66024 c 0.53218,-0.74738 0.535789,-0.80867 0.101277,-1.719854 l -0.450569,-0.944853 -0.612427,0.575345 c -0.336835,0.31644 -0.612427,0.677482 -0.612427,0.802302 0,0.3396 0.747208,2.06205 0.894524,2.06205 0.07028,0 0.376107,-0.34875 0.679622,-0.77499 z m -12.469643,-0.23265 0.878462,-0.72882 -0.557773,-0.504781 c -0.551287,-0.498908 -0.565671,-0.496877 -1.237212,0.174661 -0.490362,0.49036 -0.629865,0.83564 -0.501297,1.24072 0.227649,0.71726 0.35367,0.7011 1.41782,-0.18178 z m -1.010753,-2.48127 c 0,-0.337291 -0.685775,-1.009005 -1.030126,-1.009005 -0.509435,0 -0.864997,1.012702 -0.557375,1.5875 0.266443,0.497852 0.321794,0.50388 0.935351,0.101862 0.358682,-0.235017 0.65215,-0.541178 0.65215,-0.680357 z m 15.56674,0.492696 c 0.503891,-0.536367 0.540295,-0.72236 0.284821,-1.455209 -0.347504,-0.99685 -0.420325,-1.012714 -1.216279,-0.264955 -0.673993,0.633184 -0.751623,1.051379 -0.338473,1.823357 0.354427,0.662253 0.567065,0.644974 1.269931,-0.103193 z M 47.039131,55.452349 c 0,-0.183727 -0.310384,-0.53742 -0.689743,-0.785986 -1.018135,-0.667108 -1.38829,-0.140219 -0.639881,0.910824 0.469382,0.659187 0.662134,0.763178 0.958573,0.517155 0.204078,-0.16937 0.371051,-0.458267 0.371051,-0.641993 z m 19.684575,-0.129781 c -0.09099,-0.21858 -0.226626,-0.610647 -0.301405,-0.871259 -0.151596,-0.528325 -0.568392,-0.486782 -0.930191,0.09271 -0.144708,0.231779 -0.128,0.66825 0.04264,1.113848 0.250774,0.654858 0.337645,0.69709 0.817496,0.397419 0.326916,-0.204162 0.472197,-0.490735 0.371459,-0.732721 z m 2.271792,-1.701903 c -0.0021,-0.155659 -0.102317,-0.437936 -0.222419,-0.627284 -0.340675,-0.537089 -1.625614,0.145044 -1.625614,0.862988 0,0.971596 0.504106,1.219363 1.217994,0.598644 0.34875,-0.303233 0.632267,-0.67869 0.630039,-0.834348 z m -24.337617,0.113859 c 0,-0.145521 -0.178594,-0.264583 -0.396875,-0.264583 -0.218281,0 -0.396875,0.119062 -0.396875,0.264583 0,0.145521 0.178594,0.264584 0.396875,0.264584 0.218281,0 0.396875,-0.119063 0.396875,-0.264584 z m 26.193751,-1.067642 c 0,-0.278021 -0.87231,-0.353103 -1.128297,-0.09712 -0.08699,0.08699 -0.09493,0.322932 -0.01765,0.524322 0.104651,0.27271 0.268814,0.297496 0.643229,0.09712 0.276492,-0.147976 0.502716,-0.38392 0.502716,-0.524321 z m -27.781251,0.273892 c 0,-0.145521 -0.185621,-0.264583 -0.41249,-0.264583 -0.226869,0 -0.338905,0.119062 -0.248968,0.264583 0.08994,0.145521 0.275557,0.264584 0.41249,0.264584 0.136932,0 0.248968,-0.119063 0.248968,-0.264584 z m 28.839585,-0.79375 c 0,-0.145521 -0.0525,-0.264583 -0.116676,-0.264583 -0.06417,0 -0.190262,0.119062 -0.280199,0.264583 -0.08994,0.145521 -0.03743,0.264584 0.116676,0.264584 0.154109,0 0.280199,-0.119063 0.280199,-0.264584 z"
       id="path1390"
       inkscape:connector-curvature="0" />
  </g>
</svg>
